M48
; DRILL file {KiCad 7.0.2-6a45011f42~172~ubuntu22.04.1} date Tue 02 May 2023 01:53:05 PM -04
; FORMAT={-:-/ absolute / inch / decimal}
; #@! TF.CreationDate,2023-05-02T13:53:05-04:00
; #@! TF.GenerationSoftware,Kicad,Pcbnew,7.0.2-6a45011f42~172~ubuntu22.04.1
; #@! TF.FileFunction,Plated,1,2,PTH
FMAT,2
INCH
; #@! TA.AperFunction,Plated,PTH,ViaDrill
T1C0.0394
; #@! TA.AperFunction,Plated,PTH,ComponentDrill
T2C0.0394
; #@! TA.AperFunction,Plated,PTH,ComponentDrill
T3C0.0591
%
G90
G05
T1
X4.61Y-3.02
X4.7Y-3.08
X4.7Y-5.17
X4.8Y-5.23
X4.805Y-3.155
X4.9Y-5.29
X5.6Y-4.83
X5.7Y-3.02
X5.8Y-3.08
X5.8Y-5.17
X5.9Y-3.14
X5.9Y-5.23
X5.92Y-4.61
X6.0Y-5.29
X6.02Y-4.03
X6.09Y-3.58
X6.8Y-3.025
X6.9Y-3.085
X6.9Y-5.17
X7.0Y-3.145
X7.0Y-5.23
X7.1Y-5.29
X7.9Y-3.025
X8.0Y-3.085
X8.0Y-5.17
X8.1Y-3.145
X8.1Y-5.23
X8.2Y-5.29
X9.0Y-3.025
X9.1Y-3.085
X9.1Y-5.17
X9.2Y-3.145
X9.2Y-5.23
X9.3Y-5.29
X10.03Y-5.08
X10.1Y-3.02
X10.2Y-3.08
X10.2Y-5.17
X10.3Y-3.14
X10.3Y-5.23
X10.4Y-5.29
X10.6819Y-5.08
T2
X4.4Y-3.41
X4.4Y-4.9
X4.5Y-3.41
X4.5Y-4.9
X4.6Y-3.41
X4.6Y-3.9
X4.6Y-4.5
X4.6Y-4.9
X4.7Y-3.41
X4.7Y-3.9
X4.7Y-4.5
X4.7Y-4.9
X4.8Y-3.41
X4.8Y-3.9
X4.8Y-4.5
X4.8Y-4.9
X4.9Y-3.41
X4.9Y-3.9
X4.9Y-4.5
X4.9Y-4.9
X5.0Y-3.41
X5.0Y-3.9
X5.0Y-4.5
X5.0Y-4.9
X5.1Y-3.41
X5.1Y-3.9
X5.1Y-4.5
X5.1Y-4.9
X5.2Y-3.9
X5.2Y-4.5
X5.3Y-3.9
X5.3Y-4.5
X5.4Y-3.9
X5.4Y-4.5
X5.5Y-3.41
X5.5Y-3.9
X5.5Y-4.5
X5.5Y-4.9
X5.6Y-3.41
X5.6Y-3.9
X5.6Y-4.5
X5.6Y-4.9
X5.7Y-3.41
X5.7Y-3.9
X5.7Y-4.5
X5.7Y-4.9
X5.8Y-3.41
X5.8Y-3.9
X5.8Y-4.5
X5.8Y-4.9
X5.9Y-3.41
X5.9Y-3.9
X5.9Y-4.5
X5.9Y-4.9
X6.0Y-3.41
X6.0Y-3.9
X6.0Y-4.5
X6.0Y-4.9
X6.1Y-3.41
X6.1Y-4.9
X6.2Y-3.41
X6.2Y-4.9
X6.6Y-3.41
X6.6Y-4.9
X6.7Y-3.41
X6.7Y-4.9
X6.8Y-3.41
X6.8Y-4.9
X6.9Y-3.41
X6.9Y-4.9
X7.0Y-3.41
X7.0Y-4.9
X7.1Y-3.41
X7.1Y-4.9
X7.2Y-3.41
X7.2Y-4.9
X7.3Y-3.41
X7.3Y-4.9
X7.7Y-3.41
X7.7Y-4.9
X7.8Y-3.41
X7.8Y-4.9
X7.9Y-3.41
X7.9Y-4.9
X8.0Y-3.41
X8.0Y-4.9
X8.1Y-3.41
X8.1Y-4.9
X8.2Y-3.41
X8.2Y-4.9
X8.3Y-3.41
X8.3Y-4.9
X8.4Y-3.41
X8.4Y-4.9
X8.8Y-3.41
X8.8Y-4.9
X8.9Y-3.41
X8.9Y-4.9
X9.0Y-3.41
X9.0Y-4.9
X9.1Y-3.41
X9.1Y-4.9
X9.2Y-3.41
X9.2Y-4.9
X9.3Y-3.41
X9.3Y-4.9
X9.4Y-3.41
X9.4Y-4.9
X9.5Y-3.41
X9.5Y-4.9
X9.69Y-3.794
X9.69Y-3.894
X9.69Y-3.994
X9.69Y-4.094
X9.69Y-4.194
X9.69Y-4.294
X9.69Y-4.394
X9.69Y-4.494
X9.9Y-3.41
X9.9Y-4.9
X10.0Y-3.41
X10.0Y-4.9
X10.1Y-3.41
X10.1Y-4.9
X10.2Y-3.41
X10.2Y-4.9
X10.3Y-3.41
X10.3Y-4.9
X10.4Y-3.41
X10.4Y-4.9
X10.5Y-3.41
X10.5Y-4.9
X10.6Y-3.41
X10.6Y-4.9
T3
X6.5Y-4.1
X6.5Y-4.3
T0
M30
