G04 #@! TF.GenerationSoftware,KiCad,Pcbnew,7.0.2-6a45011f42~172~ubuntu22.04.1*
G04 #@! TF.CreationDate,2023-05-02T13:53:02-04:00*
G04 #@! TF.ProjectId,temperature_sensor,74656d70-6572-4617-9475-72655f73656e,rev?*
G04 #@! TF.SameCoordinates,Original*
G04 #@! TF.FileFunction,Legend,Top*
G04 #@! TF.FilePolarity,Positive*
%FSLAX46Y46*%
G04 Gerber Fmt 4.6, Leading zero omitted, Abs format (unit mm)*
G04 Created by KiCad (PCBNEW 7.0.2-6a45011f42~172~ubuntu22.04.1) date 2023-05-02 13:53:02*
%MOMM*%
%LPD*%
G01*
G04 APERTURE LIST*
%ADD10C,0.150000*%
%ADD11C,0.120000*%
%ADD12C,1.524000*%
G04 APERTURE END LIST*
D10*
G04 #@! TO.C,M13*
X119364286Y-151592619D02*
X119364286Y-150592619D01*
X119364286Y-150592619D02*
X119697619Y-151306904D01*
X119697619Y-151306904D02*
X120030952Y-150592619D01*
X120030952Y-150592619D02*
X120030952Y-151592619D01*
X121030952Y-151592619D02*
X120459524Y-151592619D01*
X120745238Y-151592619D02*
X120745238Y-150592619D01*
X120745238Y-150592619D02*
X120650000Y-150735476D01*
X120650000Y-150735476D02*
X120554762Y-150830714D01*
X120554762Y-150830714D02*
X120459524Y-150878333D01*
X121364286Y-150592619D02*
X121983333Y-150592619D01*
X121983333Y-150592619D02*
X121650000Y-150973571D01*
X121650000Y-150973571D02*
X121792857Y-150973571D01*
X121792857Y-150973571D02*
X121888095Y-151021190D01*
X121888095Y-151021190D02*
X121935714Y-151068809D01*
X121935714Y-151068809D02*
X121983333Y-151164047D01*
X121983333Y-151164047D02*
X121983333Y-151402142D01*
X121983333Y-151402142D02*
X121935714Y-151497380D01*
X121935714Y-151497380D02*
X121888095Y-151545000D01*
X121888095Y-151545000D02*
X121792857Y-151592619D01*
X121792857Y-151592619D02*
X121507143Y-151592619D01*
X121507143Y-151592619D02*
X121411905Y-151545000D01*
X121411905Y-151545000D02*
X121364286Y-151497380D01*
G04 #@! TO.C,M6*
X231600476Y-151592619D02*
X231600476Y-150592619D01*
X231600476Y-150592619D02*
X231933809Y-151306904D01*
X231933809Y-151306904D02*
X232267142Y-150592619D01*
X232267142Y-150592619D02*
X232267142Y-151592619D01*
X233171904Y-150592619D02*
X232981428Y-150592619D01*
X232981428Y-150592619D02*
X232886190Y-150640238D01*
X232886190Y-150640238D02*
X232838571Y-150687857D01*
X232838571Y-150687857D02*
X232743333Y-150830714D01*
X232743333Y-150830714D02*
X232695714Y-151021190D01*
X232695714Y-151021190D02*
X232695714Y-151402142D01*
X232695714Y-151402142D02*
X232743333Y-151497380D01*
X232743333Y-151497380D02*
X232790952Y-151545000D01*
X232790952Y-151545000D02*
X232886190Y-151592619D01*
X232886190Y-151592619D02*
X233076666Y-151592619D01*
X233076666Y-151592619D02*
X233171904Y-151545000D01*
X233171904Y-151545000D02*
X233219523Y-151497380D01*
X233219523Y-151497380D02*
X233267142Y-151402142D01*
X233267142Y-151402142D02*
X233267142Y-151164047D01*
X233267142Y-151164047D02*
X233219523Y-151068809D01*
X233219523Y-151068809D02*
X233171904Y-151021190D01*
X233171904Y-151021190D02*
X233076666Y-150973571D01*
X233076666Y-150973571D02*
X232886190Y-150973571D01*
X232886190Y-150973571D02*
X232790952Y-151021190D01*
X232790952Y-151021190D02*
X232743333Y-151068809D01*
X232743333Y-151068809D02*
X232695714Y-151164047D01*
G04 #@! TO.C,M8*
X147780476Y-151592619D02*
X147780476Y-150592619D01*
X147780476Y-150592619D02*
X148113809Y-151306904D01*
X148113809Y-151306904D02*
X148447142Y-150592619D01*
X148447142Y-150592619D02*
X148447142Y-151592619D01*
X149066190Y-151021190D02*
X148970952Y-150973571D01*
X148970952Y-150973571D02*
X148923333Y-150925952D01*
X148923333Y-150925952D02*
X148875714Y-150830714D01*
X148875714Y-150830714D02*
X148875714Y-150783095D01*
X148875714Y-150783095D02*
X148923333Y-150687857D01*
X148923333Y-150687857D02*
X148970952Y-150640238D01*
X148970952Y-150640238D02*
X149066190Y-150592619D01*
X149066190Y-150592619D02*
X149256666Y-150592619D01*
X149256666Y-150592619D02*
X149351904Y-150640238D01*
X149351904Y-150640238D02*
X149399523Y-150687857D01*
X149399523Y-150687857D02*
X149447142Y-150783095D01*
X149447142Y-150783095D02*
X149447142Y-150830714D01*
X149447142Y-150830714D02*
X149399523Y-150925952D01*
X149399523Y-150925952D02*
X149351904Y-150973571D01*
X149351904Y-150973571D02*
X149256666Y-151021190D01*
X149256666Y-151021190D02*
X149066190Y-151021190D01*
X149066190Y-151021190D02*
X148970952Y-151068809D01*
X148970952Y-151068809D02*
X148923333Y-151116428D01*
X148923333Y-151116428D02*
X148875714Y-151211666D01*
X148875714Y-151211666D02*
X148875714Y-151402142D01*
X148875714Y-151402142D02*
X148923333Y-151497380D01*
X148923333Y-151497380D02*
X148970952Y-151545000D01*
X148970952Y-151545000D02*
X149066190Y-151592619D01*
X149066190Y-151592619D02*
X149256666Y-151592619D01*
X149256666Y-151592619D02*
X149351904Y-151545000D01*
X149351904Y-151545000D02*
X149399523Y-151497380D01*
X149399523Y-151497380D02*
X149447142Y-151402142D01*
X149447142Y-151402142D02*
X149447142Y-151211666D01*
X149447142Y-151211666D02*
X149399523Y-151116428D01*
X149399523Y-151116428D02*
X149351904Y-151068809D01*
X149351904Y-151068809D02*
X149256666Y-151021190D01*
G04 #@! TO.C,M7*
X175720476Y-151592619D02*
X175720476Y-150592619D01*
X175720476Y-150592619D02*
X176053809Y-151306904D01*
X176053809Y-151306904D02*
X176387142Y-150592619D01*
X176387142Y-150592619D02*
X176387142Y-151592619D01*
X176768095Y-150592619D02*
X177434761Y-150592619D01*
X177434761Y-150592619D02*
X177006190Y-151592619D01*
G04 #@! TO.C,M5*
X231600476Y-60406619D02*
X231600476Y-59406619D01*
X231600476Y-59406619D02*
X231933809Y-60120904D01*
X231933809Y-60120904D02*
X232267142Y-59406619D01*
X232267142Y-59406619D02*
X232267142Y-60406619D01*
X233219523Y-59406619D02*
X232743333Y-59406619D01*
X232743333Y-59406619D02*
X232695714Y-59882809D01*
X232695714Y-59882809D02*
X232743333Y-59835190D01*
X232743333Y-59835190D02*
X232838571Y-59787571D01*
X232838571Y-59787571D02*
X233076666Y-59787571D01*
X233076666Y-59787571D02*
X233171904Y-59835190D01*
X233171904Y-59835190D02*
X233219523Y-59882809D01*
X233219523Y-59882809D02*
X233267142Y-59978047D01*
X233267142Y-59978047D02*
X233267142Y-60216142D01*
X233267142Y-60216142D02*
X233219523Y-60311380D01*
X233219523Y-60311380D02*
X233171904Y-60359000D01*
X233171904Y-60359000D02*
X233076666Y-60406619D01*
X233076666Y-60406619D02*
X232838571Y-60406619D01*
X232838571Y-60406619D02*
X232743333Y-60359000D01*
X232743333Y-60359000D02*
X232695714Y-60311380D01*
G04 #@! TO.C,M12*
X203184286Y-151592619D02*
X203184286Y-150592619D01*
X203184286Y-150592619D02*
X203517619Y-151306904D01*
X203517619Y-151306904D02*
X203850952Y-150592619D01*
X203850952Y-150592619D02*
X203850952Y-151592619D01*
X204850952Y-151592619D02*
X204279524Y-151592619D01*
X204565238Y-151592619D02*
X204565238Y-150592619D01*
X204565238Y-150592619D02*
X204470000Y-150735476D01*
X204470000Y-150735476D02*
X204374762Y-150830714D01*
X204374762Y-150830714D02*
X204279524Y-150878333D01*
X205231905Y-150687857D02*
X205279524Y-150640238D01*
X205279524Y-150640238D02*
X205374762Y-150592619D01*
X205374762Y-150592619D02*
X205612857Y-150592619D01*
X205612857Y-150592619D02*
X205708095Y-150640238D01*
X205708095Y-150640238D02*
X205755714Y-150687857D01*
X205755714Y-150687857D02*
X205803333Y-150783095D01*
X205803333Y-150783095D02*
X205803333Y-150878333D01*
X205803333Y-150878333D02*
X205755714Y-151021190D01*
X205755714Y-151021190D02*
X205184286Y-151592619D01*
X205184286Y-151592619D02*
X205803333Y-151592619D01*
G04 #@! TO.C,M11*
X259064286Y-151592619D02*
X259064286Y-150592619D01*
X259064286Y-150592619D02*
X259397619Y-151306904D01*
X259397619Y-151306904D02*
X259730952Y-150592619D01*
X259730952Y-150592619D02*
X259730952Y-151592619D01*
X260730952Y-151592619D02*
X260159524Y-151592619D01*
X260445238Y-151592619D02*
X260445238Y-150592619D01*
X260445238Y-150592619D02*
X260350000Y-150735476D01*
X260350000Y-150735476D02*
X260254762Y-150830714D01*
X260254762Y-150830714D02*
X260159524Y-150878333D01*
X261683333Y-151592619D02*
X261111905Y-151592619D01*
X261397619Y-151592619D02*
X261397619Y-150592619D01*
X261397619Y-150592619D02*
X261302381Y-150735476D01*
X261302381Y-150735476D02*
X261207143Y-150830714D01*
X261207143Y-150830714D02*
X261111905Y-150878333D01*
G04 #@! TO.C,M1*
X119840476Y-60406619D02*
X119840476Y-59406619D01*
X119840476Y-59406619D02*
X120173809Y-60120904D01*
X120173809Y-60120904D02*
X120507142Y-59406619D01*
X120507142Y-59406619D02*
X120507142Y-60406619D01*
X121507142Y-60406619D02*
X120935714Y-60406619D01*
X121221428Y-60406619D02*
X121221428Y-59406619D01*
X121221428Y-59406619D02*
X121126190Y-59549476D01*
X121126190Y-59549476D02*
X121030952Y-59644714D01*
X121030952Y-59644714D02*
X120935714Y-59692333D01*
G04 #@! TO.C,M3*
X175720476Y-60406619D02*
X175720476Y-59406619D01*
X175720476Y-59406619D02*
X176053809Y-60120904D01*
X176053809Y-60120904D02*
X176387142Y-59406619D01*
X176387142Y-59406619D02*
X176387142Y-60406619D01*
X176768095Y-59406619D02*
X177387142Y-59406619D01*
X177387142Y-59406619D02*
X177053809Y-59787571D01*
X177053809Y-59787571D02*
X177196666Y-59787571D01*
X177196666Y-59787571D02*
X177291904Y-59835190D01*
X177291904Y-59835190D02*
X177339523Y-59882809D01*
X177339523Y-59882809D02*
X177387142Y-59978047D01*
X177387142Y-59978047D02*
X177387142Y-60216142D01*
X177387142Y-60216142D02*
X177339523Y-60311380D01*
X177339523Y-60311380D02*
X177291904Y-60359000D01*
X177291904Y-60359000D02*
X177196666Y-60406619D01*
X177196666Y-60406619D02*
X176910952Y-60406619D01*
X176910952Y-60406619D02*
X176815714Y-60359000D01*
X176815714Y-60359000D02*
X176768095Y-60311380D01*
G04 #@! TO.C,M4*
X203660476Y-60406619D02*
X203660476Y-59406619D01*
X203660476Y-59406619D02*
X203993809Y-60120904D01*
X203993809Y-60120904D02*
X204327142Y-59406619D01*
X204327142Y-59406619D02*
X204327142Y-60406619D01*
X205231904Y-59739952D02*
X205231904Y-60406619D01*
X204993809Y-59359000D02*
X204755714Y-60073285D01*
X204755714Y-60073285D02*
X205374761Y-60073285D01*
G04 #@! TO.C,M10*
X259064286Y-60406619D02*
X259064286Y-59406619D01*
X259064286Y-59406619D02*
X259397619Y-60120904D01*
X259397619Y-60120904D02*
X259730952Y-59406619D01*
X259730952Y-59406619D02*
X259730952Y-60406619D01*
X260730952Y-60406619D02*
X260159524Y-60406619D01*
X260445238Y-60406619D02*
X260445238Y-59406619D01*
X260445238Y-59406619D02*
X260350000Y-59549476D01*
X260350000Y-59549476D02*
X260254762Y-59644714D01*
X260254762Y-59644714D02*
X260159524Y-59692333D01*
X261350000Y-59406619D02*
X261445238Y-59406619D01*
X261445238Y-59406619D02*
X261540476Y-59454238D01*
X261540476Y-59454238D02*
X261588095Y-59501857D01*
X261588095Y-59501857D02*
X261635714Y-59597095D01*
X261635714Y-59597095D02*
X261683333Y-59787571D01*
X261683333Y-59787571D02*
X261683333Y-60025666D01*
X261683333Y-60025666D02*
X261635714Y-60216142D01*
X261635714Y-60216142D02*
X261588095Y-60311380D01*
X261588095Y-60311380D02*
X261540476Y-60359000D01*
X261540476Y-60359000D02*
X261445238Y-60406619D01*
X261445238Y-60406619D02*
X261350000Y-60406619D01*
X261350000Y-60406619D02*
X261254762Y-60359000D01*
X261254762Y-60359000D02*
X261207143Y-60311380D01*
X261207143Y-60311380D02*
X261159524Y-60216142D01*
X261159524Y-60216142D02*
X261111905Y-60025666D01*
X261111905Y-60025666D02*
X261111905Y-59787571D01*
X261111905Y-59787571D02*
X261159524Y-59597095D01*
X261159524Y-59597095D02*
X261207143Y-59501857D01*
X261207143Y-59501857D02*
X261254762Y-59454238D01*
X261254762Y-59454238D02*
X261350000Y-59406619D01*
G04 #@! TO.C,M2*
X147780476Y-60406619D02*
X147780476Y-59406619D01*
X147780476Y-59406619D02*
X148113809Y-60120904D01*
X148113809Y-60120904D02*
X148447142Y-59406619D01*
X148447142Y-59406619D02*
X148447142Y-60406619D01*
X148875714Y-59501857D02*
X148923333Y-59454238D01*
X148923333Y-59454238D02*
X149018571Y-59406619D01*
X149018571Y-59406619D02*
X149256666Y-59406619D01*
X149256666Y-59406619D02*
X149351904Y-59454238D01*
X149351904Y-59454238D02*
X149399523Y-59501857D01*
X149399523Y-59501857D02*
X149447142Y-59597095D01*
X149447142Y-59597095D02*
X149447142Y-59692333D01*
X149447142Y-59692333D02*
X149399523Y-59835190D01*
X149399523Y-59835190D02*
X148828095Y-60406619D01*
X148828095Y-60406619D02*
X149447142Y-60406619D01*
G04 #@! TO.C,M9*
X273258619Y-106067123D02*
X272258619Y-106067123D01*
X272258619Y-106067123D02*
X272972904Y-105733790D01*
X272972904Y-105733790D02*
X272258619Y-105400457D01*
X272258619Y-105400457D02*
X273258619Y-105400457D01*
X273258619Y-104876647D02*
X273258619Y-104686171D01*
X273258619Y-104686171D02*
X273211000Y-104590933D01*
X273211000Y-104590933D02*
X273163380Y-104543314D01*
X273163380Y-104543314D02*
X273020523Y-104448076D01*
X273020523Y-104448076D02*
X272830047Y-104400457D01*
X272830047Y-104400457D02*
X272449095Y-104400457D01*
X272449095Y-104400457D02*
X272353857Y-104448076D01*
X272353857Y-104448076D02*
X272306238Y-104495695D01*
X272306238Y-104495695D02*
X272258619Y-104590933D01*
X272258619Y-104590933D02*
X272258619Y-104781409D01*
X272258619Y-104781409D02*
X272306238Y-104876647D01*
X272306238Y-104876647D02*
X272353857Y-104924266D01*
X272353857Y-104924266D02*
X272449095Y-104971885D01*
X272449095Y-104971885D02*
X272687190Y-104971885D01*
X272687190Y-104971885D02*
X272782428Y-104924266D01*
X272782428Y-104924266D02*
X272830047Y-104876647D01*
X272830047Y-104876647D02*
X272877666Y-104781409D01*
X272877666Y-104781409D02*
X272877666Y-104590933D01*
X272877666Y-104590933D02*
X272830047Y-104495695D01*
X272830047Y-104495695D02*
X272782428Y-104448076D01*
X272782428Y-104448076D02*
X272687190Y-104400457D01*
G04 #@! TO.C,REF\u002A\u002A*
X253166666Y-100445619D02*
X252833333Y-99969428D01*
X252595238Y-100445619D02*
X252595238Y-99445619D01*
X252595238Y-99445619D02*
X252976190Y-99445619D01*
X252976190Y-99445619D02*
X253071428Y-99493238D01*
X253071428Y-99493238D02*
X253119047Y-99540857D01*
X253119047Y-99540857D02*
X253166666Y-99636095D01*
X253166666Y-99636095D02*
X253166666Y-99778952D01*
X253166666Y-99778952D02*
X253119047Y-99874190D01*
X253119047Y-99874190D02*
X253071428Y-99921809D01*
X253071428Y-99921809D02*
X252976190Y-99969428D01*
X252976190Y-99969428D02*
X252595238Y-99969428D01*
X253595238Y-99921809D02*
X253928571Y-99921809D01*
X254071428Y-100445619D02*
X253595238Y-100445619D01*
X253595238Y-100445619D02*
X253595238Y-99445619D01*
X253595238Y-99445619D02*
X254071428Y-99445619D01*
X254833333Y-99921809D02*
X254500000Y-99921809D01*
X254500000Y-100445619D02*
X254500000Y-99445619D01*
X254500000Y-99445619D02*
X254976190Y-99445619D01*
X255500000Y-99445619D02*
X255500000Y-99683714D01*
X255261905Y-99588476D02*
X255500000Y-99683714D01*
X255500000Y-99683714D02*
X255738095Y-99588476D01*
X255357143Y-99874190D02*
X255500000Y-99683714D01*
X255500000Y-99683714D02*
X255642857Y-99874190D01*
X256261905Y-99445619D02*
X256261905Y-99683714D01*
X256023810Y-99588476D02*
X256261905Y-99683714D01*
X256261905Y-99683714D02*
X256500000Y-99588476D01*
X256119048Y-99874190D02*
X256261905Y-99683714D01*
X256261905Y-99683714D02*
X256404762Y-99874190D01*
G04 #@! TO.C,A1*
X157656904Y-107394285D02*
X157656904Y-106918095D01*
X157942619Y-107489523D02*
X156942619Y-107156190D01*
X156942619Y-107156190D02*
X157942619Y-106822857D01*
X157942619Y-105965714D02*
X157942619Y-106537142D01*
X157942619Y-106251428D02*
X156942619Y-106251428D01*
X156942619Y-106251428D02*
X157085476Y-106346666D01*
X157085476Y-106346666D02*
X157180714Y-106441904D01*
X157180714Y-106441904D02*
X157228333Y-106537142D01*
X117377380Y-105418095D02*
X116567857Y-105418095D01*
X116567857Y-105418095D02*
X116472619Y-105465714D01*
X116472619Y-105465714D02*
X116425000Y-105513333D01*
X116425000Y-105513333D02*
X116377380Y-105608571D01*
X116377380Y-105608571D02*
X116377380Y-105799047D01*
X116377380Y-105799047D02*
X116425000Y-105894285D01*
X116425000Y-105894285D02*
X116472619Y-105941904D01*
X116472619Y-105941904D02*
X116567857Y-105989523D01*
X116567857Y-105989523D02*
X117377380Y-105989523D01*
X116425000Y-106418095D02*
X116377380Y-106560952D01*
X116377380Y-106560952D02*
X116377380Y-106799047D01*
X116377380Y-106799047D02*
X116425000Y-106894285D01*
X116425000Y-106894285D02*
X116472619Y-106941904D01*
X116472619Y-106941904D02*
X116567857Y-106989523D01*
X116567857Y-106989523D02*
X116663095Y-106989523D01*
X116663095Y-106989523D02*
X116758333Y-106941904D01*
X116758333Y-106941904D02*
X116805952Y-106894285D01*
X116805952Y-106894285D02*
X116853571Y-106799047D01*
X116853571Y-106799047D02*
X116901190Y-106608571D01*
X116901190Y-106608571D02*
X116948809Y-106513333D01*
X116948809Y-106513333D02*
X116996428Y-106465714D01*
X116996428Y-106465714D02*
X117091666Y-106418095D01*
X117091666Y-106418095D02*
X117186904Y-106418095D01*
X117186904Y-106418095D02*
X117282142Y-106465714D01*
X117282142Y-106465714D02*
X117329761Y-106513333D01*
X117329761Y-106513333D02*
X117377380Y-106608571D01*
X117377380Y-106608571D02*
X117377380Y-106846666D01*
X117377380Y-106846666D02*
X117329761Y-106989523D01*
X116901190Y-107751428D02*
X116853571Y-107894285D01*
X116853571Y-107894285D02*
X116805952Y-107941904D01*
X116805952Y-107941904D02*
X116710714Y-107989523D01*
X116710714Y-107989523D02*
X116567857Y-107989523D01*
X116567857Y-107989523D02*
X116472619Y-107941904D01*
X116472619Y-107941904D02*
X116425000Y-107894285D01*
X116425000Y-107894285D02*
X116377380Y-107799047D01*
X116377380Y-107799047D02*
X116377380Y-107418095D01*
X116377380Y-107418095D02*
X117377380Y-107418095D01*
X117377380Y-107418095D02*
X117377380Y-107751428D01*
X117377380Y-107751428D02*
X117329761Y-107846666D01*
X117329761Y-107846666D02*
X117282142Y-107894285D01*
X117282142Y-107894285D02*
X117186904Y-107941904D01*
X117186904Y-107941904D02*
X117091666Y-107941904D01*
X117091666Y-107941904D02*
X116996428Y-107894285D01*
X116996428Y-107894285D02*
X116948809Y-107846666D01*
X116948809Y-107846666D02*
X116901190Y-107751428D01*
X116901190Y-107751428D02*
X116901190Y-107418095D01*
G04 #@! TO.C,REF\u002A\u002A*
X125166666Y-100445619D02*
X124833333Y-99969428D01*
X124595238Y-100445619D02*
X124595238Y-99445619D01*
X124595238Y-99445619D02*
X124976190Y-99445619D01*
X124976190Y-99445619D02*
X125071428Y-99493238D01*
X125071428Y-99493238D02*
X125119047Y-99540857D01*
X125119047Y-99540857D02*
X125166666Y-99636095D01*
X125166666Y-99636095D02*
X125166666Y-99778952D01*
X125166666Y-99778952D02*
X125119047Y-99874190D01*
X125119047Y-99874190D02*
X125071428Y-99921809D01*
X125071428Y-99921809D02*
X124976190Y-99969428D01*
X124976190Y-99969428D02*
X124595238Y-99969428D01*
X125595238Y-99921809D02*
X125928571Y-99921809D01*
X126071428Y-100445619D02*
X125595238Y-100445619D01*
X125595238Y-100445619D02*
X125595238Y-99445619D01*
X125595238Y-99445619D02*
X126071428Y-99445619D01*
X126833333Y-99921809D02*
X126500000Y-99921809D01*
X126500000Y-100445619D02*
X126500000Y-99445619D01*
X126500000Y-99445619D02*
X126976190Y-99445619D01*
X127500000Y-99445619D02*
X127500000Y-99683714D01*
X127261905Y-99588476D02*
X127500000Y-99683714D01*
X127500000Y-99683714D02*
X127738095Y-99588476D01*
X127357143Y-99874190D02*
X127500000Y-99683714D01*
X127500000Y-99683714D02*
X127642857Y-99874190D01*
X128261905Y-99445619D02*
X128261905Y-99683714D01*
X128023810Y-99588476D02*
X128261905Y-99683714D01*
X128261905Y-99683714D02*
X128500000Y-99588476D01*
X128119048Y-99874190D02*
X128261905Y-99683714D01*
X128261905Y-99683714D02*
X128404762Y-99874190D01*
G04 #@! TO.C,M13*
X133350000Y-150114000D02*
X107950000Y-150114000D01*
X133350000Y-122174000D02*
X133350000Y-150114000D01*
X107950000Y-150114000D02*
X107950000Y-122174000D01*
X107950000Y-122174000D02*
X133350000Y-122174000D01*
G04 #@! TO.C,M6*
X245110000Y-150114000D02*
X219710000Y-150114000D01*
X245110000Y-122174000D02*
X245110000Y-150114000D01*
X219710000Y-150114000D02*
X219710000Y-122174000D01*
X219710000Y-122174000D02*
X245110000Y-122174000D01*
G04 #@! TO.C,M8*
X161290000Y-150114000D02*
X135890000Y-150114000D01*
X161290000Y-122174000D02*
X161290000Y-150114000D01*
X135890000Y-150114000D02*
X135890000Y-122174000D01*
X135890000Y-122174000D02*
X161290000Y-122174000D01*
G04 #@! TO.C,M7*
X189230000Y-150114000D02*
X163830000Y-150114000D01*
X189230000Y-122174000D02*
X189230000Y-150114000D01*
X163830000Y-150114000D02*
X163830000Y-122174000D01*
X163830000Y-122174000D02*
X189230000Y-122174000D01*
G04 #@! TO.C,M5*
X219710000Y-60960000D02*
X245110000Y-60960000D01*
X219710000Y-88900000D02*
X219710000Y-60960000D01*
X245110000Y-60960000D02*
X245110000Y-88900000D01*
X245110000Y-88900000D02*
X219710000Y-88900000D01*
G04 #@! TO.C,M12*
X217170000Y-150114000D02*
X191770000Y-150114000D01*
X217170000Y-122174000D02*
X217170000Y-150114000D01*
X191770000Y-150114000D02*
X191770000Y-122174000D01*
X191770000Y-122174000D02*
X217170000Y-122174000D01*
G04 #@! TO.C,M11*
X273050000Y-150114000D02*
X247650000Y-150114000D01*
X273050000Y-122174000D02*
X273050000Y-150114000D01*
X247650000Y-150114000D02*
X247650000Y-122174000D01*
X247650000Y-122174000D02*
X273050000Y-122174000D01*
G04 #@! TO.C,M1*
X107950000Y-60960000D02*
X133350000Y-60960000D01*
X107950000Y-88900000D02*
X107950000Y-60960000D01*
X133350000Y-60960000D02*
X133350000Y-88900000D01*
X133350000Y-88900000D02*
X107950000Y-88900000D01*
G04 #@! TO.C,M3*
X163830000Y-60960000D02*
X189230000Y-60960000D01*
X163830000Y-88900000D02*
X163830000Y-60960000D01*
X189230000Y-60960000D02*
X189230000Y-88900000D01*
X189230000Y-88900000D02*
X163830000Y-88900000D01*
G04 #@! TO.C,M4*
X191770000Y-60960000D02*
X217170000Y-60960000D01*
X191770000Y-88900000D02*
X191770000Y-60960000D01*
X217170000Y-60960000D02*
X217170000Y-88900000D01*
X217170000Y-88900000D02*
X191770000Y-88900000D01*
G04 #@! TO.C,M10*
X247650000Y-60960000D02*
X273050000Y-60960000D01*
X247650000Y-88900000D02*
X247650000Y-60960000D01*
X273050000Y-60960000D02*
X273050000Y-88900000D01*
X273050000Y-88900000D02*
X247650000Y-88900000D01*
G04 #@! TO.C,M2*
X135890000Y-60960000D02*
X161290000Y-60960000D01*
X135890000Y-88900000D02*
X135890000Y-60960000D01*
X161290000Y-60960000D02*
X161290000Y-88900000D01*
X161290000Y-88900000D02*
X135890000Y-88900000D01*
G04 #@! TO.C,M9*
X271780000Y-92557600D02*
X271780000Y-117957600D01*
X243840000Y-92557600D02*
X271780000Y-92557600D01*
X271780000Y-117957600D02*
X243840000Y-117957600D01*
X243840000Y-117957600D02*
X243840000Y-92557600D01*
D11*
G04 #@! TO.C,A1*
X156340000Y-97660000D02*
X153670000Y-97660000D01*
X151130000Y-97660000D02*
X112900000Y-97660000D01*
X112900000Y-97660000D02*
X112900000Y-102740000D01*
X153670000Y-100330000D02*
X153670000Y-97660000D01*
X151130000Y-100330000D02*
X151130000Y-97660000D01*
X151130000Y-100330000D02*
X153670000Y-100330000D01*
X151130000Y-100330000D02*
X115570000Y-100330000D01*
X115570000Y-100330000D02*
X115570000Y-97660000D01*
X120780000Y-102740000D02*
X120780000Y-110620000D01*
X110360000Y-102740000D02*
X120780000Y-102740000D01*
X120780000Y-110620000D02*
X110360000Y-110620000D01*
X110360000Y-110620000D02*
X110360000Y-102740000D01*
X153670000Y-113030000D02*
X115570000Y-113030000D01*
X153670000Y-113030000D02*
X153670000Y-115700000D01*
X115570000Y-113030000D02*
X115570000Y-115700000D01*
X156340000Y-115700000D02*
X156340000Y-97660000D01*
X112900000Y-115700000D02*
X112900000Y-110620000D01*
X112900000Y-115700000D02*
X156340000Y-115700000D01*
G04 #@! TD*
D12*
G04 #@! TO.C,M13*
X129540000Y-124460000D03*
X127000000Y-124460000D03*
X124460000Y-124460000D03*
X121920000Y-124460000D03*
X119380000Y-124460000D03*
X116840000Y-124460000D03*
X114300000Y-124460000D03*
X111760000Y-124460000D03*
G04 #@! TD*
G04 #@! TO.C,M6*
X241300000Y-124460000D03*
X238760000Y-124460000D03*
X236220000Y-124460000D03*
X233680000Y-124460000D03*
X231140000Y-124460000D03*
X228600000Y-124460000D03*
X226060000Y-124460000D03*
X223520000Y-124460000D03*
G04 #@! TD*
G04 #@! TO.C,M8*
X157480000Y-124460000D03*
X154940000Y-124460000D03*
X152400000Y-124460000D03*
X149860000Y-124460000D03*
X147320000Y-124460000D03*
X144780000Y-124460000D03*
X142240000Y-124460000D03*
X139700000Y-124460000D03*
G04 #@! TD*
G04 #@! TO.C,M7*
X185420000Y-124460000D03*
X182880000Y-124460000D03*
X180340000Y-124460000D03*
X177800000Y-124460000D03*
X175260000Y-124460000D03*
X172720000Y-124460000D03*
X170180000Y-124460000D03*
X167640000Y-124460000D03*
G04 #@! TD*
G04 #@! TO.C,M5*
X223520000Y-86614000D03*
X226060000Y-86614000D03*
X228600000Y-86614000D03*
X231140000Y-86614000D03*
X233680000Y-86614000D03*
X236220000Y-86614000D03*
X238760000Y-86614000D03*
X241300000Y-86614000D03*
G04 #@! TD*
G04 #@! TO.C,M12*
X213360000Y-124460000D03*
X210820000Y-124460000D03*
X208280000Y-124460000D03*
X205740000Y-124460000D03*
X203200000Y-124460000D03*
X200660000Y-124460000D03*
X198120000Y-124460000D03*
X195580000Y-124460000D03*
G04 #@! TD*
G04 #@! TO.C,M11*
X269240000Y-124460000D03*
X266700000Y-124460000D03*
X264160000Y-124460000D03*
X261620000Y-124460000D03*
X259080000Y-124460000D03*
X256540000Y-124460000D03*
X254000000Y-124460000D03*
X251460000Y-124460000D03*
G04 #@! TD*
G04 #@! TO.C,M1*
X111760000Y-86614000D03*
X114300000Y-86614000D03*
X116840000Y-86614000D03*
X119380000Y-86614000D03*
X121920000Y-86614000D03*
X124460000Y-86614000D03*
X127000000Y-86614000D03*
X129540000Y-86614000D03*
G04 #@! TD*
G04 #@! TO.C,M3*
X167640000Y-86614000D03*
X170180000Y-86614000D03*
X172720000Y-86614000D03*
X175260000Y-86614000D03*
X177800000Y-86614000D03*
X180340000Y-86614000D03*
X182880000Y-86614000D03*
X185420000Y-86614000D03*
G04 #@! TD*
G04 #@! TO.C,M4*
X195580000Y-86614000D03*
X198120000Y-86614000D03*
X200660000Y-86614000D03*
X203200000Y-86614000D03*
X205740000Y-86614000D03*
X208280000Y-86614000D03*
X210820000Y-86614000D03*
X213360000Y-86614000D03*
G04 #@! TD*
G04 #@! TO.C,M10*
X251460000Y-86614000D03*
X254000000Y-86614000D03*
X256540000Y-86614000D03*
X259080000Y-86614000D03*
X261620000Y-86614000D03*
X264160000Y-86614000D03*
X266700000Y-86614000D03*
X269240000Y-86614000D03*
G04 #@! TD*
G04 #@! TO.C,M2*
X139700000Y-86614000D03*
X142240000Y-86614000D03*
X144780000Y-86614000D03*
X147320000Y-86614000D03*
X149860000Y-86614000D03*
X152400000Y-86614000D03*
X154940000Y-86614000D03*
X157480000Y-86614000D03*
G04 #@! TD*
G04 #@! TO.C,M9*
X246126000Y-96367600D03*
X246126000Y-98907600D03*
X246126000Y-101447600D03*
X246126000Y-103987600D03*
X246126000Y-106527600D03*
X246126000Y-109067600D03*
X246126000Y-111607600D03*
X246126000Y-114147600D03*
G04 #@! TD*
M02*
