M48
; DRILL file {KiCad 7.0.2-6a45011f42~172~ubuntu22.04.1} date Tue 16 May 2023 11:36:03 AM -04
; FORMAT={-:-/ absolute / inch / decimal}
; #@! TF.CreationDate,2023-05-16T11:36:03-04:00
; #@! TF.GenerationSoftware,Kicad,Pcbnew,7.0.2-6a45011f42~172~ubuntu22.04.1
; #@! TF.FileFunction,Plated,1,2,PTH
FMAT,2
INCH
; #@! TA.AperFunction,Plated,PTH,ViaDrill
T1C0.0394
; #@! TA.AperFunction,Plated,PTH,ComponentDrill
T2C0.0394
; #@! TA.AperFunction,Plated,PTH,ComponentDrill
T3C0.0591
%
G90
G05
T1
X4.36Y-4.44
X4.6Y-4.39
X4.6Y-5.33
X4.7Y-3.15
X4.7Y-5.23
X4.8Y-3.08
X4.8Y-5.17
X4.9Y-2.96
X5.43Y-4.12
X5.65Y-4.12
X5.7Y-5.33
X5.8Y-3.14
X5.8Y-5.23
X5.8139Y-4.6595
X5.9Y-3.08
X5.9Y-5.17
X6.0Y-2.96
X6.02Y-4.03
X6.16Y-3.56
X6.4Y-4.9
X6.8Y-5.33
X6.9Y-3.14
X6.9Y-5.23
X7.0Y-3.08
X7.0Y-5.17
X7.1Y-2.96
X7.49Y-4.52
X7.5Y-4.76
X7.9Y-5.33
X8.0Y-3.14
X8.0Y-5.23
X8.09Y-5.17
X8.1Y-3.08
X8.2Y-2.96
X9.0Y-5.33
X9.1Y-3.14
X9.1Y-5.23
X9.2Y-3.08
X9.2Y-5.17
X9.3Y-2.96
X9.7Y-3.51
X9.7Y-3.61
X9.8Y-3.19
X9.98Y-3.19
X10.1Y-5.33
X10.2Y-3.14
X10.2Y-5.23
X10.3Y-3.08
X10.3Y-5.17
X10.4Y-2.97
T2
X4.4Y-3.41
X4.4Y-4.9
X4.5Y-3.41
X4.5Y-4.9
X4.6Y-3.41
X4.6Y-3.9
X4.6Y-4.5
X4.6Y-4.9
X4.7Y-3.41
X4.7Y-3.9
X4.7Y-4.5
X4.7Y-4.9
X4.8Y-3.41
X4.8Y-3.9
X4.8Y-4.5
X4.8Y-4.9
X4.9Y-3.41
X4.9Y-3.9
X4.9Y-4.5
X4.9Y-4.9
X5.0Y-3.41
X5.0Y-3.9
X5.0Y-4.5
X5.0Y-4.9
X5.1Y-3.41
X5.1Y-3.9
X5.1Y-4.5
X5.1Y-4.9
X5.2Y-3.9
X5.2Y-4.5
X5.3Y-3.9
X5.3Y-4.5
X5.4Y-3.9
X5.4Y-4.5
X5.5Y-3.41
X5.5Y-3.9
X5.5Y-4.5
X5.5Y-4.9
X5.6Y-3.41
X5.6Y-3.9
X5.6Y-4.5
X5.6Y-4.9
X5.7Y-3.41
X5.7Y-3.9
X5.7Y-4.5
X5.7Y-4.9
X5.8Y-3.41
X5.8Y-3.9
X5.8Y-4.5
X5.8Y-4.9
X5.9Y-3.41
X5.9Y-3.9
X5.9Y-4.5
X5.9Y-4.9
X6.0Y-3.41
X6.0Y-3.9
X6.0Y-4.5
X6.0Y-4.9
X6.1Y-3.41
X6.1Y-4.9
X6.2Y-3.41
X6.2Y-4.9
X6.6Y-3.41
X6.6Y-4.9
X6.7Y-3.41
X6.7Y-4.9
X6.8Y-3.41
X6.8Y-4.9
X6.9Y-3.41
X6.9Y-4.9
X7.0Y-3.41
X7.0Y-4.9
X7.1Y-3.41
X7.1Y-4.9
X7.2Y-3.41
X7.2Y-4.9
X7.3Y-3.41
X7.3Y-4.9
X7.7Y-3.41
X7.7Y-4.9
X7.8Y-3.41
X7.8Y-4.9
X7.9Y-3.41
X7.9Y-4.9
X8.0Y-3.41
X8.0Y-4.9
X8.1Y-3.41
X8.1Y-4.9
X8.2Y-3.41
X8.2Y-4.9
X8.3Y-3.41
X8.3Y-4.9
X8.4Y-3.41
X8.4Y-4.9
X8.8Y-3.41
X8.8Y-4.9
X8.9Y-3.41
X8.9Y-4.9
X9.0Y-3.41
X9.0Y-4.9
X9.1Y-3.41
X9.1Y-4.9
X9.2Y-3.41
X9.2Y-4.9
X9.3Y-3.41
X9.3Y-4.9
X9.4Y-3.41
X9.4Y-4.9
X9.5Y-3.41
X9.5Y-4.9
X9.69Y-3.794
X9.69Y-3.894
X9.69Y-3.994
X9.69Y-4.094
X9.69Y-4.194
X9.69Y-4.294
X9.69Y-4.394
X9.69Y-4.494
X9.9Y-3.41
X9.9Y-4.9
X10.0Y-3.41
X10.0Y-4.9
X10.1Y-3.41
X10.1Y-4.9
X10.2Y-3.41
X10.2Y-4.9
X10.3Y-3.41
X10.3Y-4.9
X10.4Y-3.41
X10.4Y-4.9
X10.5Y-3.41
X10.5Y-4.9
X10.6Y-3.41
X10.6Y-4.9
T3
X6.5Y-4.1
X6.5Y-4.3
T0
M30
