G04 #@! TF.GenerationSoftware,KiCad,Pcbnew,7.0.2-6a45011f42~172~ubuntu22.04.1*
G04 #@! TF.CreationDate,2023-05-11T11:42:15-04:00*
G04 #@! TF.ProjectId,PCB_Design,5043425f-4465-4736-9967-6e2e6b696361,rev?*
G04 #@! TF.SameCoordinates,Original*
G04 #@! TF.FileFunction,Soldermask,Bot*
G04 #@! TF.FilePolarity,Negative*
%FSLAX46Y46*%
G04 Gerber Fmt 4.6, Leading zero omitted, Abs format (unit mm)*
G04 Created by KiCad (PCBNEW 7.0.2-6a45011f42~172~ubuntu22.04.1) date 2023-05-11 11:42:15*
%MOMM*%
%LPD*%
G01*
G04 APERTURE LIST*
%ADD10C,4.300000*%
%ADD11R,1.700000X1.700000*%
%ADD12O,1.700000X1.700000*%
%ADD13R,1.727200X1.727200*%
%ADD14O,1.600000X1.600000*%
%ADD15C,1.600000*%
%ADD16R,2.100000X2.100000*%
%ADD17C,2.100000*%
G04 APERTURE END LIST*
D10*
G04 #@! TO.C,REF\u002A\u002A*
X203962000Y-72390000D03*
G04 #@! TD*
G04 #@! TO.C,REF\u002A\u002A*
X75946000Y-72136000D03*
G04 #@! TD*
D11*
G04 #@! TO.C,JP1*
X195580000Y-91440000D03*
D12*
X195580000Y-88900000D03*
X195580000Y-86360000D03*
G04 #@! TD*
D13*
G04 #@! TO.C,U1*
X150495000Y-71120000D03*
D14*
X150495000Y-73660000D03*
X147955000Y-71120000D03*
X147955000Y-73660000D03*
X145415000Y-71120000D03*
X145415000Y-73660000D03*
X142875000Y-71120000D03*
X142875000Y-73660000D03*
G04 #@! TD*
D11*
G04 #@! TO.C,U3*
X84074000Y-88900000D03*
D15*
X86614000Y-88900000D03*
X89154000Y-88900000D03*
X91694000Y-88900000D03*
X94234000Y-88900000D03*
X96774000Y-88900000D03*
X99314000Y-88900000D03*
X101854000Y-88900000D03*
X104394000Y-88900000D03*
X106934000Y-88900000D03*
X109474000Y-88900000D03*
X112014000Y-88900000D03*
X114554000Y-88900000D03*
X117094000Y-88900000D03*
X119634000Y-88900000D03*
X122174000Y-88900000D03*
X124714000Y-88900000D03*
X127254000Y-88900000D03*
X129794000Y-88900000D03*
X132334000Y-88900000D03*
X132334000Y-73660000D03*
X129794000Y-73660000D03*
X127254000Y-73660000D03*
X124714000Y-73660000D03*
X122174000Y-73660000D03*
X119634000Y-73660000D03*
X117094000Y-73660000D03*
X114554000Y-73660000D03*
X112014000Y-73660000D03*
X109474000Y-73660000D03*
X106934000Y-73660000D03*
X104394000Y-73660000D03*
X101854000Y-73660000D03*
X99314000Y-73660000D03*
X96774000Y-73660000D03*
X94234000Y-73660000D03*
X91694000Y-73660000D03*
X89154000Y-73660000D03*
X86614000Y-73660000D03*
X84074000Y-73660000D03*
G04 #@! TD*
D14*
G04 #@! TO.C,R2*
X134620000Y-94234000D03*
D15*
X134620000Y-104394000D03*
G04 #@! TD*
D16*
G04 #@! TO.C,J2*
X112522000Y-99822000D03*
D17*
X115062000Y-99822000D03*
G04 #@! TD*
D11*
G04 #@! TO.C,JP2*
X195580000Y-80010000D03*
D12*
X195580000Y-77470000D03*
X195580000Y-74930000D03*
G04 #@! TD*
D16*
G04 #@! TO.C,J5*
X161036000Y-99822000D03*
D17*
X163576000Y-99822000D03*
X166116000Y-99822000D03*
X168656000Y-99822000D03*
G04 #@! TD*
D16*
G04 #@! TO.C,J6*
X145537000Y-99822000D03*
D17*
X148077000Y-99822000D03*
X150617000Y-99822000D03*
X153157000Y-99822000D03*
G04 #@! TD*
D16*
G04 #@! TO.C,J1*
X88646000Y-99568000D03*
D17*
X91186000Y-99568000D03*
G04 #@! TD*
G04 #@! TO.C,U4*
G36*
G01*
X162095600Y-74226000D02*
X162095600Y-75634000D01*
G75*
G02*
X161994000Y-75735600I-101600J0D01*
G01*
X160586000Y-75735600D01*
G75*
G02*
X160484400Y-75634000I0J101600D01*
G01*
X160484400Y-74226000D01*
G75*
G02*
X160586000Y-74124400I101600J0D01*
G01*
X161994000Y-74124400D01*
G75*
G02*
X162095600Y-74226000I0J-101600D01*
G01*
G37*
G36*
G01*
X162095600Y-76766000D02*
X162095600Y-78174000D01*
G75*
G02*
X161994000Y-78275600I-101600J0D01*
G01*
X160586000Y-78275600D01*
G75*
G02*
X160484400Y-78174000I0J101600D01*
G01*
X160484400Y-76766000D01*
G75*
G02*
X160586000Y-76664400I101600J0D01*
G01*
X161994000Y-76664400D01*
G75*
G02*
X162095600Y-76766000I0J-101600D01*
G01*
G37*
G36*
G01*
X162095600Y-81846000D02*
X162095600Y-83254000D01*
G75*
G02*
X161994000Y-83355600I-101600J0D01*
G01*
X160586000Y-83355600D01*
G75*
G02*
X160484400Y-83254000I0J101600D01*
G01*
X160484400Y-81846000D01*
G75*
G02*
X160586000Y-81744400I101600J0D01*
G01*
X161994000Y-81744400D01*
G75*
G02*
X162095600Y-81846000I0J-101600D01*
G01*
G37*
G36*
G01*
X187495600Y-81846000D02*
X187495600Y-83254000D01*
G75*
G02*
X187394000Y-83355600I-101600J0D01*
G01*
X185986000Y-83355600D01*
G75*
G02*
X185884400Y-83254000I0J101600D01*
G01*
X185884400Y-81846000D01*
G75*
G02*
X185986000Y-81744400I101600J0D01*
G01*
X187394000Y-81744400D01*
G75*
G02*
X187495600Y-81846000I0J-101600D01*
G01*
G37*
G36*
G01*
X187495600Y-84386000D02*
X187495600Y-85794000D01*
G75*
G02*
X187394000Y-85895600I-101600J0D01*
G01*
X185986000Y-85895600D01*
G75*
G02*
X185884400Y-85794000I0J101600D01*
G01*
X185884400Y-84386000D01*
G75*
G02*
X185986000Y-84284400I101600J0D01*
G01*
X187394000Y-84284400D01*
G75*
G02*
X187495600Y-84386000I0J-101600D01*
G01*
G37*
G36*
G01*
X162095600Y-79306000D02*
X162095600Y-80714000D01*
G75*
G02*
X161994000Y-80815600I-101600J0D01*
G01*
X160586000Y-80815600D01*
G75*
G02*
X160484400Y-80714000I0J101600D01*
G01*
X160484400Y-79306000D01*
G75*
G02*
X160586000Y-79204400I101600J0D01*
G01*
X161994000Y-79204400D01*
G75*
G02*
X162095600Y-79306000I0J-101600D01*
G01*
G37*
G36*
G01*
X187495600Y-74226000D02*
X187495600Y-75634000D01*
G75*
G02*
X187394000Y-75735600I-101600J0D01*
G01*
X185986000Y-75735600D01*
G75*
G02*
X185884400Y-75634000I0J101600D01*
G01*
X185884400Y-74226000D01*
G75*
G02*
X185986000Y-74124400I101600J0D01*
G01*
X187394000Y-74124400D01*
G75*
G02*
X187495600Y-74226000I0J-101600D01*
G01*
G37*
G36*
G01*
X187495600Y-71686000D02*
X187495600Y-73094000D01*
G75*
G02*
X187394000Y-73195600I-101600J0D01*
G01*
X185986000Y-73195600D01*
G75*
G02*
X185884400Y-73094000I0J101600D01*
G01*
X185884400Y-71686000D01*
G75*
G02*
X185986000Y-71584400I101600J0D01*
G01*
X187394000Y-71584400D01*
G75*
G02*
X187495600Y-71686000I0J-101600D01*
G01*
G37*
G36*
G01*
X187495600Y-79306000D02*
X187495600Y-80714000D01*
G75*
G02*
X187394000Y-80815600I-101600J0D01*
G01*
X185986000Y-80815600D01*
G75*
G02*
X185884400Y-80714000I0J101600D01*
G01*
X185884400Y-79306000D01*
G75*
G02*
X185986000Y-79204400I101600J0D01*
G01*
X187394000Y-79204400D01*
G75*
G02*
X187495600Y-79306000I0J-101600D01*
G01*
G37*
G36*
G01*
X187495600Y-76766000D02*
X187495600Y-78174000D01*
G75*
G02*
X187394000Y-78275600I-101600J0D01*
G01*
X185986000Y-78275600D01*
G75*
G02*
X185884400Y-78174000I0J101600D01*
G01*
X185884400Y-76766000D01*
G75*
G02*
X185986000Y-76664400I101600J0D01*
G01*
X187394000Y-76664400D01*
G75*
G02*
X187495600Y-76766000I0J-101600D01*
G01*
G37*
G04 #@! TD*
D16*
G04 #@! TO.C,J3*
X120396000Y-99822000D03*
D17*
X122936000Y-99822000D03*
X125476000Y-99822000D03*
X128016000Y-99822000D03*
X130556000Y-99822000D03*
G04 #@! TD*
D14*
G04 #@! TO.C,R1*
X137668000Y-94234000D03*
D15*
X137668000Y-104394000D03*
G04 #@! TD*
D16*
G04 #@! TO.C,J4*
X99060000Y-99568000D03*
D17*
X101600000Y-99568000D03*
G04 #@! TD*
D16*
G04 #@! TO.C,J7*
X184150000Y-99822000D03*
D17*
X181610000Y-99822000D03*
X179070000Y-99822000D03*
X176530000Y-99822000D03*
X173990000Y-99822000D03*
G04 #@! TD*
D15*
G04 #@! TO.C,R5*
X106934000Y-94742000D03*
D14*
X106934000Y-104902000D03*
G04 #@! TD*
M02*
