G04 #@! TF.GenerationSoftware,KiCad,Pcbnew,7.0.2-6a45011f42~172~ubuntu22.04.1*
G04 #@! TF.CreationDate,2023-05-11T11:42:15-04:00*
G04 #@! TF.ProjectId,PCB_Design,5043425f-4465-4736-9967-6e2e6b696361,rev?*
G04 #@! TF.SameCoordinates,Original*
G04 #@! TF.FileFunction,Copper,L2,Bot*
G04 #@! TF.FilePolarity,Positive*
%FSLAX46Y46*%
G04 Gerber Fmt 4.6, Leading zero omitted, Abs format (unit mm)*
G04 Created by KiCad (PCBNEW 7.0.2-6a45011f42~172~ubuntu22.04.1) date 2023-05-11 11:42:15*
%MOMM*%
%LPD*%
G01*
G04 APERTURE LIST*
G04 #@! TA.AperFunction,ComponentPad*
%ADD10R,1.700000X1.700000*%
G04 #@! TD*
G04 #@! TA.AperFunction,ComponentPad*
%ADD11O,1.700000X1.700000*%
G04 #@! TD*
G04 #@! TA.AperFunction,ComponentPad*
%ADD12R,1.727200X1.727200*%
G04 #@! TD*
G04 #@! TA.AperFunction,ComponentPad*
%ADD13O,1.600000X1.600000*%
G04 #@! TD*
G04 #@! TA.AperFunction,ComponentPad*
%ADD14C,1.600000*%
G04 #@! TD*
G04 #@! TA.AperFunction,ComponentPad*
%ADD15R,2.100000X2.100000*%
G04 #@! TD*
G04 #@! TA.AperFunction,ComponentPad*
%ADD16C,2.100000*%
G04 #@! TD*
G04 #@! TA.AperFunction,ComponentPad*
%ADD17R,1.408000X1.408000*%
G04 #@! TD*
G04 #@! TA.AperFunction,ViaPad*
%ADD18C,1.500000*%
G04 #@! TD*
G04 #@! TA.AperFunction,Conductor*
%ADD19C,0.762000*%
G04 #@! TD*
G04 #@! TA.AperFunction,Conductor*
%ADD20C,0.457200*%
G04 #@! TD*
G04 #@! TA.AperFunction,Conductor*
%ADD21C,0.457000*%
G04 #@! TD*
G04 APERTURE END LIST*
D10*
G04 #@! TO.P,JP1,1,A*
G04 #@! TO.N,A-*
X195580000Y-91440000D03*
D11*
G04 #@! TO.P,JP1,2,C*
G04 #@! TO.N,DO-_LC*
X195580000Y-88900000D03*
G04 #@! TO.P,JP1,3,B*
G04 #@! TO.N,B-*
X195580000Y-86360000D03*
G04 #@! TD*
D12*
G04 #@! TO.P,U1,1,UTXD*
G04 #@! TO.N,USART2_TX*
X150495000Y-71120000D03*
D13*
G04 #@! TO.P,U1,2,GND*
G04 #@! TO.N,GND*
X150495000Y-73660000D03*
G04 #@! TO.P,U1,3,CH_PD*
G04 #@! TO.N,unconnected-(U1-CH_PD-Pad3)*
X147955000Y-71120000D03*
G04 #@! TO.P,U1,4,GPIO2*
G04 #@! TO.N,unconnected-(U1-GPIO2-Pad4)*
X147955000Y-73660000D03*
G04 #@! TO.P,U1,5,RST*
G04 #@! TO.N,unconnected-(U1-RST-Pad5)*
X145415000Y-71120000D03*
G04 #@! TO.P,U1,6,GPIO0*
G04 #@! TO.N,unconnected-(U1-GPIO0-Pad6)*
X145415000Y-73660000D03*
G04 #@! TO.P,U1,7,VCC*
G04 #@! TO.N,+3.3V*
X142875000Y-71120000D03*
G04 #@! TO.P,U1,8,URXD*
G04 #@! TO.N,USART2_RX*
X142875000Y-73660000D03*
G04 #@! TD*
D10*
G04 #@! TO.P,U3,1,PB12*
G04 #@! TO.N,unconnected-(U3-PB12-Pad1)*
X84074000Y-88900000D03*
D14*
G04 #@! TO.P,U3,2,PB13*
G04 #@! TO.N,unconnected-(U3-PB13-Pad2)*
X86614000Y-88900000D03*
G04 #@! TO.P,U3,3,PB14*
G04 #@! TO.N,unconnected-(U3-PB14-Pad3)*
X89154000Y-88900000D03*
G04 #@! TO.P,U3,4,PB15*
G04 #@! TO.N,unconnected-(U3-PB15-Pad4)*
X91694000Y-88900000D03*
G04 #@! TO.P,U3,5,PA8*
G04 #@! TO.N,unconnected-(U3-PA8-Pad5)*
X94234000Y-88900000D03*
G04 #@! TO.P,U3,6,PA9*
G04 #@! TO.N,USART1_TX*
X96774000Y-88900000D03*
G04 #@! TO.P,U3,7,PA10*
G04 #@! TO.N,unconnected-(U3-PA10-Pad7)*
X99314000Y-88900000D03*
G04 #@! TO.P,U3,8,PA11*
G04 #@! TO.N,unconnected-(U3-PA11-Pad8)*
X101854000Y-88900000D03*
G04 #@! TO.P,U3,9,PA12*
G04 #@! TO.N,unconnected-(U3-PA12-Pad9)*
X104394000Y-88900000D03*
G04 #@! TO.P,U3,10,PA15*
G04 #@! TO.N,unconnected-(U3-PA15-Pad10)*
X106934000Y-88900000D03*
G04 #@! TO.P,U3,11,PB3*
G04 #@! TO.N,unconnected-(U3-PB3-Pad11)*
X109474000Y-88900000D03*
G04 #@! TO.P,U3,12,PB4*
G04 #@! TO.N,unconnected-(U3-PB4-Pad12)*
X112014000Y-88900000D03*
G04 #@! TO.P,U3,13,PB5*
G04 #@! TO.N,unconnected-(U3-PB5-Pad13)*
X114554000Y-88900000D03*
G04 #@! TO.P,U3,14,PB6*
G04 #@! TO.N,SCL1*
X117094000Y-88900000D03*
G04 #@! TO.P,U3,15,PB7*
G04 #@! TO.N,SDA1*
X119634000Y-88900000D03*
G04 #@! TO.P,U3,16,PB8*
G04 #@! TO.N,unconnected-(U3-PB8-Pad16)*
X122174000Y-88900000D03*
G04 #@! TO.P,U3,17,PB9*
G04 #@! TO.N,unconnected-(U3-PB9-Pad17)*
X124714000Y-88900000D03*
G04 #@! TO.P,U3,18,5V*
G04 #@! TO.N,+5V*
X127254000Y-88900000D03*
G04 #@! TO.P,U3,19,GND*
G04 #@! TO.N,GND*
X129794000Y-88900000D03*
G04 #@! TO.P,U3,20,3V3*
G04 #@! TO.N,+3.3V*
X132334000Y-88900000D03*
G04 #@! TO.P,U3,21,VBat*
G04 #@! TO.N,unconnected-(U3-VBat-Pad21)*
X132334000Y-73660000D03*
G04 #@! TO.P,U3,22,PC13*
G04 #@! TO.N,unconnected-(U3-PC13-Pad22)*
X129794000Y-73660000D03*
G04 #@! TO.P,U3,23,PC14*
G04 #@! TO.N,unconnected-(U3-PC14-Pad23)*
X127254000Y-73660000D03*
G04 #@! TO.P,U3,24,PC15*
G04 #@! TO.N,unconnected-(U3-PC15-Pad24)*
X124714000Y-73660000D03*
G04 #@! TO.P,U3,25,PA0*
G04 #@! TO.N,unconnected-(U3-PA0-Pad25)*
X122174000Y-73660000D03*
G04 #@! TO.P,U3,26,PA1*
G04 #@! TO.N,unconnected-(U3-PA1-Pad26)*
X119634000Y-73660000D03*
G04 #@! TO.P,U3,27,PA2*
G04 #@! TO.N,USART2_TX*
X117094000Y-73660000D03*
G04 #@! TO.P,U3,28,PA3*
G04 #@! TO.N,USART2_RX*
X114554000Y-73660000D03*
G04 #@! TO.P,U3,29,PA4*
G04 #@! TO.N,unconnected-(U3-PA4-Pad29)*
X112014000Y-73660000D03*
G04 #@! TO.P,U3,30,PA5*
G04 #@! TO.N,unconnected-(U3-PA5-Pad30)*
X109474000Y-73660000D03*
G04 #@! TO.P,U3,31,PA6*
G04 #@! TO.N,CH1_EC*
X106934000Y-73660000D03*
G04 #@! TO.P,U3,32,PA7*
G04 #@! TO.N,CH2-_EC*
X104394000Y-73660000D03*
G04 #@! TO.P,U3,33,PB0*
G04 #@! TO.N,DO_LS*
X101854000Y-73660000D03*
G04 #@! TO.P,U3,34,PB1*
G04 #@! TO.N,unconnected-(U3-PB1-Pad34)*
X99314000Y-73660000D03*
G04 #@! TO.P,U3,35,PB10*
G04 #@! TO.N,USART3_TX*
X96774000Y-73660000D03*
G04 #@! TO.P,U3,36,PB11*
G04 #@! TO.N,USART3_RX*
X94234000Y-73660000D03*
G04 #@! TO.P,U3,37,RST*
G04 #@! TO.N,unconnected-(U3-RST-Pad37)*
X91694000Y-73660000D03*
G04 #@! TO.P,U3,38,3V3*
G04 #@! TO.N,+3.3V*
X89154000Y-73660000D03*
G04 #@! TO.P,U3,39,GND*
G04 #@! TO.N,GND*
X86614000Y-73660000D03*
G04 #@! TO.P,U3,40,GND*
X84074000Y-73660000D03*
G04 #@! TD*
D13*
G04 #@! TO.P,R2,2*
G04 #@! TO.N,SCL1*
X134620000Y-94234000D03*
D14*
G04 #@! TO.P,R2,1*
G04 #@! TO.N,+3.3V*
X134620000Y-104394000D03*
G04 #@! TD*
D15*
G04 #@! TO.P,J2,1,Pin_1*
G04 #@! TO.N,DO_LS*
X112522000Y-99822000D03*
D16*
G04 #@! TO.P,J2,2,Pin_2*
G04 #@! TO.N,GND*
X115062000Y-99822000D03*
G04 #@! TD*
D10*
G04 #@! TO.P,JP2,1,A*
G04 #@! TO.N,A+*
X195580000Y-80010000D03*
D11*
G04 #@! TO.P,JP2,2,C*
G04 #@! TO.N,DO+_LC*
X195580000Y-77470000D03*
G04 #@! TO.P,JP2,3,B*
G04 #@! TO.N,B+*
X195580000Y-74930000D03*
G04 #@! TD*
D15*
G04 #@! TO.P,J5,1,Pin_1*
G04 #@! TO.N,GND*
X161036000Y-99822000D03*
D16*
G04 #@! TO.P,J5,2,Pin_2*
G04 #@! TO.N,+5V*
X163576000Y-99822000D03*
G04 #@! TO.P,J5,3,Pin_3*
G04 #@! TO.N,SDA1*
X166116000Y-99822000D03*
G04 #@! TO.P,J5,4,Pin_4*
G04 #@! TO.N,SCL1*
X168656000Y-99822000D03*
G04 #@! TD*
D15*
G04 #@! TO.P,J6,1,Pin_1*
G04 #@! TO.N,GND*
X145537000Y-99822000D03*
D16*
G04 #@! TO.P,J6,2,Pin_2*
G04 #@! TO.N,+5V*
X148077000Y-99822000D03*
G04 #@! TO.P,J6,3,Pin_3*
G04 #@! TO.N,SDA1*
X150617000Y-99822000D03*
G04 #@! TO.P,J6,4,Pin_4*
G04 #@! TO.N,SCL1*
X153157000Y-99822000D03*
G04 #@! TD*
D15*
G04 #@! TO.P,J1,1,Pin_1*
G04 #@! TO.N,+5V*
X88646000Y-99568000D03*
D16*
G04 #@! TO.P,J1,2,Pin_2*
G04 #@! TO.N,GND*
X91186000Y-99568000D03*
G04 #@! TD*
D17*
G04 #@! TO.P,U4,VCC,VCC*
G04 #@! TO.N,+5V*
X161290000Y-74930000D03*
G04 #@! TO.P,U4,SCK,SCK*
G04 #@! TO.N,USART3_TX*
X161290000Y-77470000D03*
G04 #@! TO.P,U4,GND,GND*
G04 #@! TO.N,GND*
X161290000Y-82550000D03*
G04 #@! TO.P,U4,E-,E-*
X186690000Y-82550000D03*
G04 #@! TO.P,U4,E+,E+*
G04 #@! TO.N,V+_LC*
X186690000Y-85090000D03*
G04 #@! TO.P,U4,DT,DT*
G04 #@! TO.N,USART3_RX*
X161290000Y-80010000D03*
G04 #@! TO.P,U4,B-,B-*
G04 #@! TO.N,B-*
X186690000Y-74930000D03*
G04 #@! TO.P,U4,B+,B+*
G04 #@! TO.N,B+*
X186690000Y-72390000D03*
G04 #@! TO.P,U4,A-,A-*
G04 #@! TO.N,A-*
X186690000Y-80010000D03*
G04 #@! TO.P,U4,A+,A+*
G04 #@! TO.N,A+*
X186690000Y-77470000D03*
G04 #@! TD*
D15*
G04 #@! TO.P,J3,1,Pin_1*
G04 #@! TO.N,+5V*
X120396000Y-99822000D03*
D16*
G04 #@! TO.P,J3,2,Pin_2*
G04 #@! TO.N,GND*
X122936000Y-99822000D03*
G04 #@! TO.P,J3,3,Pin_3*
G04 #@! TO.N,CH2-_EC*
X125476000Y-99822000D03*
G04 #@! TO.P,J3,4,Pin_4*
G04 #@! TO.N,CH1_EC*
X128016000Y-99822000D03*
G04 #@! TO.P,J3,5,Pin_5*
G04 #@! TO.N,GND*
X130556000Y-99822000D03*
G04 #@! TD*
D13*
G04 #@! TO.P,R1,2*
G04 #@! TO.N,SDA1*
X137668000Y-94234000D03*
D14*
G04 #@! TO.P,R1,1*
G04 #@! TO.N,+3.3V*
X137668000Y-104394000D03*
G04 #@! TD*
D15*
G04 #@! TO.P,J4,1,Pin_1*
G04 #@! TO.N,USART1_TX*
X99060000Y-99568000D03*
D16*
G04 #@! TO.P,J4,2,Pin_2*
G04 #@! TO.N,GND*
X101600000Y-99568000D03*
G04 #@! TD*
D15*
G04 #@! TO.P,J7,1,Pin_1*
G04 #@! TO.N,V+_LC*
X184150000Y-99822000D03*
D16*
G04 #@! TO.P,J7,2,Pin_2*
G04 #@! TO.N,GND*
X181610000Y-99822000D03*
G04 #@! TO.P,J7,3,Pin_3*
G04 #@! TO.N,DO-_LC*
X179070000Y-99822000D03*
G04 #@! TO.P,J7,4,Pin_4*
G04 #@! TO.N,DO+_LC*
X176530000Y-99822000D03*
G04 #@! TO.P,J7,5,Pin_5*
G04 #@! TO.N,GND*
X173990000Y-99822000D03*
G04 #@! TD*
D14*
G04 #@! TO.P,R5,1*
G04 #@! TO.N,DO_LS*
X106934000Y-94742000D03*
D13*
G04 #@! TO.P,R5,2*
G04 #@! TO.N,+5V*
X106934000Y-104902000D03*
G04 #@! TD*
D18*
G04 #@! TO.N,CH1_EC*
X110236000Y-78831900D03*
G04 #@! TO.N,DO_LS*
X101854000Y-78831900D03*
G04 #@! TO.N,SDA1*
X166116000Y-104394000D03*
X157734000Y-98044000D03*
G04 #@! TO.N,SCL1*
X156718000Y-99822000D03*
G04 #@! TO.N,+5V*
X163576000Y-104394000D03*
X148082000Y-104394000D03*
G04 #@! TO.N,DO_LS*
X101854000Y-85598000D03*
G04 #@! TO.N,CH1_EC*
X115865400Y-85344000D03*
G04 #@! TO.N,CH2-_EC*
X113284000Y-85598000D03*
X105410000Y-78486000D03*
G04 #@! TO.N,SCL1*
X169418000Y-105156000D03*
G04 #@! TO.N,USART2_TX*
X116840000Y-67564000D03*
G04 #@! TO.N,USART2_RX*
X114554000Y-69088000D03*
G04 #@! TO.N,+3.3V*
X142240000Y-88900000D03*
X138684000Y-71882000D03*
G04 #@! TO.N,GND*
X173736000Y-92456000D03*
X178816000Y-92456000D03*
G04 #@! TD*
D19*
G04 #@! TO.N,GND*
X187198000Y-83058000D02*
X188214000Y-83058000D01*
X186690000Y-82550000D02*
X187198000Y-83058000D01*
X178816000Y-92456000D02*
X181610000Y-95250000D01*
X181610000Y-95250000D02*
X181610000Y-99822000D01*
D20*
G04 #@! TO.N,CH1_EC*
X106934000Y-75529900D02*
X110236000Y-78831900D01*
X106934000Y-73660000D02*
X106934000Y-75529900D01*
G04 #@! TO.N,DO_LS*
X101854000Y-73660000D02*
X101854000Y-78831900D01*
G04 #@! TO.N,+5V*
X148077000Y-99822000D02*
X148077000Y-104389000D01*
X148077000Y-104389000D02*
X148082000Y-104394000D01*
X163576000Y-99822000D02*
X163576000Y-104394000D01*
G04 #@! TO.N,SDA1*
X166116000Y-99822000D02*
X166116000Y-104394000D01*
X150617000Y-99822000D02*
X152395000Y-98044000D01*
X152395000Y-98044000D02*
X157734000Y-98044000D01*
G04 #@! TO.N,SCL1*
X153157000Y-99822000D02*
X155702000Y-99822000D01*
X155702000Y-99822000D02*
X156718000Y-99822000D01*
G04 #@! TO.N,+5V*
X106934000Y-104902000D02*
X120142000Y-104902000D01*
X166116000Y-85090000D02*
X166116000Y-79756000D01*
X83474600Y-84165400D02*
X122519400Y-84165400D01*
X120142000Y-104902000D02*
X120396000Y-104648000D01*
X84836000Y-99568000D02*
X78232000Y-92964000D01*
X122519400Y-84165400D02*
X127254000Y-88900000D01*
X88646000Y-104394000D02*
X88646000Y-99568000D01*
X163576000Y-87630000D02*
X166116000Y-85090000D01*
X166116000Y-79756000D02*
X161290000Y-74930000D01*
X120396000Y-104648000D02*
X120396000Y-99822000D01*
X89154000Y-104902000D02*
X88646000Y-104394000D01*
X106934000Y-104902000D02*
X89154000Y-104902000D01*
X88646000Y-99568000D02*
X84836000Y-99568000D01*
X78232000Y-89408000D02*
X83474600Y-84165400D01*
X78232000Y-92964000D02*
X78232000Y-89408000D01*
X163576000Y-99822000D02*
X163576000Y-87630000D01*
D21*
G04 #@! TO.N,DO_LS*
X112014000Y-99822000D02*
X112522000Y-99822000D01*
X106934000Y-94742000D02*
X112014000Y-99822000D01*
X105705500Y-93513500D02*
X106934000Y-94742000D01*
X101854000Y-85598000D02*
X102912362Y-85598000D01*
X105705500Y-88391138D02*
X105705500Y-93513500D01*
X102912362Y-85598000D02*
X105705500Y-88391138D01*
D20*
G04 #@! TO.N,CH1_EC*
X127508000Y-94742000D02*
X128016000Y-95250000D01*
X128016000Y-95250000D02*
X128016000Y-99822000D01*
X115865400Y-85344000D02*
X115865400Y-90211400D01*
X115865400Y-90211400D02*
X120396000Y-94742000D01*
X120396000Y-94742000D02*
X127508000Y-94742000D01*
G04 #@! TO.N,CH2-_EC*
X124968000Y-96012000D02*
X125476000Y-96520000D01*
X113284000Y-85598000D02*
X113284000Y-90170000D01*
X104394000Y-73660000D02*
X104394000Y-77470000D01*
X119126000Y-96012000D02*
X124968000Y-96012000D01*
X104394000Y-74930000D02*
X104394000Y-73660000D01*
X125476000Y-96520000D02*
X125476000Y-99822000D01*
X113284000Y-90170000D02*
X119126000Y-96012000D01*
X104394000Y-77470000D02*
X105410000Y-78486000D01*
G04 #@! TO.N,SDA1*
X165608000Y-100330000D02*
X166116000Y-99822000D01*
X119634000Y-88900000D02*
X122428000Y-91694000D01*
X122428000Y-91694000D02*
X135128000Y-91694000D01*
X135128000Y-91694000D02*
X137668000Y-94234000D01*
G04 #@! TO.N,SCL1*
X169418000Y-105156000D02*
X168656000Y-104394000D01*
X134620000Y-94234000D02*
X133604000Y-93218000D01*
X168656000Y-104394000D02*
X168656000Y-99822000D01*
X121412000Y-93218000D02*
X117094000Y-88900000D01*
X133604000Y-93218000D02*
X121412000Y-93218000D01*
G04 #@! TO.N,V+_LC*
X184150000Y-99822000D02*
X184150000Y-87630000D01*
X184150000Y-87630000D02*
X186690000Y-85090000D01*
G04 #@! TO.N,DO+_LC*
X185282600Y-73797400D02*
X191907400Y-73797400D01*
X191907400Y-73797400D02*
X195580000Y-77470000D01*
X176530000Y-82550000D02*
X185282600Y-73797400D01*
X176530000Y-99822000D02*
X176530000Y-82550000D01*
G04 #@! TO.N,DO-_LC*
X196858600Y-92718600D02*
X188231200Y-101346000D01*
X196858600Y-90178600D02*
X196858600Y-92718600D01*
X188231200Y-101346000D02*
X180594000Y-101346000D01*
X195580000Y-88900000D02*
X196858600Y-90178600D01*
X180594000Y-101346000D02*
X179070000Y-99822000D01*
G04 #@! TO.N,A+*
X186690000Y-77470000D02*
X193040000Y-77470000D01*
X193040000Y-77470000D02*
X195580000Y-80010000D01*
G04 #@! TO.N,A-*
X186690000Y-80010000D02*
X189484000Y-82804000D01*
X194564000Y-91440000D02*
X195580000Y-91440000D01*
X189484000Y-82804000D02*
X189484000Y-86360000D01*
X189484000Y-86360000D02*
X194564000Y-91440000D01*
G04 #@! TO.N,USART1_TX*
X99060000Y-99568000D02*
X99060000Y-91186000D01*
X99060000Y-91186000D02*
X96774000Y-88900000D01*
G04 #@! TO.N,USART3_RX*
X161290000Y-80010000D02*
X100584000Y-80010000D01*
X100584000Y-80010000D02*
X94234000Y-73660000D01*
G04 #@! TO.N,USART3_TX*
X96774000Y-73660000D02*
X98552000Y-71882000D01*
X98552000Y-71882000D02*
X137017207Y-71882000D01*
X142605207Y-77470000D02*
X161290000Y-77470000D01*
X137017207Y-71882000D02*
X142605207Y-77470000D01*
G04 #@! TO.N,USART2_TX*
X116840000Y-67564000D02*
X146939000Y-67564000D01*
X146939000Y-67564000D02*
X149202800Y-69827800D01*
X150495000Y-71120000D02*
X149202800Y-69827800D01*
D21*
G04 #@! TO.N,USART2_RX*
X114554000Y-69088000D02*
X142580362Y-69088000D01*
X142580362Y-69088000D02*
X144103500Y-70611138D01*
X144103500Y-70611138D02*
X144103500Y-72431500D01*
X144103500Y-72431500D02*
X142875000Y-73660000D01*
D20*
G04 #@! TO.N,B-*
X185557400Y-76062600D02*
X185557400Y-78602600D01*
X187822600Y-78602600D02*
X195580000Y-86360000D01*
X185557400Y-78602600D02*
X187822600Y-78602600D01*
X186690000Y-74930000D02*
X185557400Y-76062600D01*
G04 #@! TO.N,B+*
X186690000Y-72390000D02*
X193040000Y-72390000D01*
X193040000Y-72390000D02*
X195580000Y-74930000D01*
G04 #@! TO.N,+3.3V*
X142240000Y-88900000D02*
X142240000Y-99822000D01*
X142240000Y-99822000D02*
X137668000Y-104394000D01*
X132334000Y-88900000D02*
X142240000Y-88900000D01*
X137668000Y-104394000D02*
X134620000Y-104394000D01*
X138684000Y-71882000D02*
X142113000Y-71882000D01*
X142113000Y-71882000D02*
X142875000Y-71120000D01*
G04 #@! TO.N,GND*
X122936000Y-99314000D02*
X122936000Y-99822000D01*
G04 #@! TD*
G04 #@! TA.AperFunction,Conductor*
G04 #@! TO.N,GND*
G36*
X184694570Y-75633913D02*
G01*
X184775352Y-75687889D01*
X184829328Y-75768671D01*
X184848282Y-75863959D01*
X184841571Y-75921377D01*
X184825817Y-75987854D01*
X184826130Y-75998620D01*
X184826130Y-75998622D01*
X184826190Y-76000667D01*
X184828195Y-76069593D01*
X184828300Y-76076834D01*
X184828300Y-78574143D01*
X184827879Y-78588620D01*
X184824578Y-78645282D01*
X184834436Y-78701191D01*
X184836534Y-78715514D01*
X184843149Y-78772102D01*
X184854089Y-78812934D01*
X184866156Y-78840908D01*
X184876657Y-78865252D01*
X184881997Y-78878694D01*
X184901488Y-78932242D01*
X184921556Y-78969461D01*
X184955573Y-79015154D01*
X184963871Y-79027004D01*
X184995075Y-79074447D01*
X184995076Y-79074448D01*
X184995194Y-79074627D01*
X185023299Y-79106208D01*
X185023461Y-79106344D01*
X185023462Y-79106345D01*
X185066962Y-79142845D01*
X185077755Y-79152451D01*
X185119048Y-79191409D01*
X185119203Y-79191555D01*
X185153834Y-79215804D01*
X185154024Y-79215899D01*
X185154026Y-79215901D01*
X185204770Y-79241386D01*
X185217486Y-79248242D01*
X185260116Y-79272854D01*
X185266839Y-79276736D01*
X185306641Y-79292548D01*
X185332340Y-79305454D01*
X185331697Y-79306733D01*
X185382272Y-79329870D01*
X185448428Y-79401020D01*
X185482320Y-79492072D01*
X185485500Y-79531740D01*
X185485500Y-80755211D01*
X185485500Y-80755229D01*
X185485501Y-80761872D01*
X185491909Y-80821483D01*
X185542204Y-80956331D01*
X185628454Y-81071546D01*
X185743669Y-81157796D01*
X185743670Y-81157796D01*
X185749223Y-81161953D01*
X185814146Y-81234230D01*
X185846468Y-81325851D01*
X185845534Y-81351981D01*
X186601767Y-82108215D01*
X186555862Y-82115135D01*
X186433643Y-82173993D01*
X186334202Y-82266260D01*
X186266375Y-82383740D01*
X186248500Y-82462054D01*
X185501275Y-81714829D01*
X185492402Y-81738622D01*
X185486712Y-81791549D01*
X185486000Y-81804843D01*
X185486000Y-83295156D01*
X185486712Y-83308452D01*
X185492402Y-83361376D01*
X185501275Y-83385169D01*
X186245549Y-82640894D01*
X186246327Y-82651265D01*
X186295887Y-82777541D01*
X186380465Y-82883599D01*
X186492547Y-82960016D01*
X186600299Y-82993252D01*
X185844443Y-83749110D01*
X185845047Y-83782922D01*
X185809475Y-83873331D01*
X185749224Y-83938046D01*
X185743670Y-83942203D01*
X185743669Y-83942204D01*
X185710306Y-83967179D01*
X185628454Y-84028453D01*
X185563887Y-84114703D01*
X185542204Y-84143669D01*
X185506410Y-84239636D01*
X185491908Y-84278519D01*
X185486213Y-84331490D01*
X185486212Y-84331500D01*
X185485500Y-84338127D01*
X185485500Y-84344788D01*
X185485500Y-84344797D01*
X185485500Y-85160256D01*
X185466546Y-85255544D01*
X185412570Y-85336326D01*
X183684829Y-87064066D01*
X183657461Y-87087718D01*
X183646252Y-87096063D01*
X183618625Y-87128987D01*
X183613903Y-87134452D01*
X183609528Y-87139368D01*
X183604424Y-87144473D01*
X183599946Y-87150135D01*
X183599930Y-87150154D01*
X183586909Y-87166621D01*
X183582349Y-87172219D01*
X183529778Y-87234874D01*
X183495223Y-87308974D01*
X183492071Y-87315484D01*
X183455372Y-87388558D01*
X183438841Y-87468617D01*
X183437275Y-87475679D01*
X183418417Y-87555254D01*
X183418730Y-87566020D01*
X183418730Y-87566022D01*
X183419419Y-87589689D01*
X183420795Y-87636993D01*
X183420900Y-87644234D01*
X183420899Y-98022500D01*
X183401945Y-98117788D01*
X183347969Y-98198570D01*
X183267187Y-98252546D01*
X183171901Y-98271500D01*
X183058789Y-98271500D01*
X183058770Y-98271500D01*
X183052128Y-98271501D01*
X183045518Y-98272211D01*
X183045509Y-98272212D01*
X182992526Y-98277908D01*
X182992517Y-98277909D01*
X182857669Y-98328204D01*
X182857076Y-98328648D01*
X182742453Y-98414454D01*
X182732872Y-98427253D01*
X182660593Y-98492175D01*
X182568972Y-98524495D01*
X182471956Y-98519293D01*
X182403437Y-98490336D01*
X182315857Y-98436666D01*
X182090460Y-98343305D01*
X181853219Y-98286348D01*
X181610000Y-98267206D01*
X181366780Y-98286348D01*
X181129539Y-98343305D01*
X180904143Y-98436666D01*
X180702057Y-98560504D01*
X181438432Y-99296878D01*
X181321542Y-99347651D01*
X181204261Y-99443066D01*
X181117072Y-99566585D01*
X181086644Y-99652198D01*
X180263103Y-98828657D01*
X180263190Y-98828569D01*
X180248517Y-98814455D01*
X180216524Y-98776996D01*
X180169759Y-98722241D01*
X180169757Y-98722239D01*
X180169756Y-98722238D01*
X179984181Y-98563742D01*
X179846438Y-98479333D01*
X179776089Y-98436223D01*
X179776086Y-98436222D01*
X179776085Y-98436221D01*
X179550615Y-98342829D01*
X179550613Y-98342828D01*
X179550612Y-98342828D01*
X179313302Y-98285854D01*
X179313298Y-98285853D01*
X179070000Y-98266705D01*
X178826701Y-98285853D01*
X178589384Y-98342829D01*
X178363914Y-98436221D01*
X178155822Y-98563740D01*
X177961712Y-98729525D01*
X177876944Y-98776996D01*
X177780463Y-98788415D01*
X177686956Y-98762043D01*
X177638288Y-98729525D01*
X177444175Y-98563738D01*
X177377996Y-98523183D01*
X177306654Y-98457234D01*
X177265979Y-98369003D01*
X177259100Y-98310877D01*
X177259100Y-82955142D01*
X177278054Y-82859854D01*
X177332030Y-82779072D01*
X180875647Y-79235455D01*
X184423215Y-75687886D01*
X184503994Y-75633913D01*
X184599282Y-75614959D01*
X184694570Y-75633913D01*
G37*
G04 #@! TD.AperFunction*
G04 #@! TA.AperFunction,Conductor*
G36*
X188238288Y-82616197D02*
G01*
X188319070Y-82670173D01*
X188681970Y-83033073D01*
X188735946Y-83113855D01*
X188754900Y-83209143D01*
X188754900Y-86288743D01*
X188752271Y-86324832D01*
X188750246Y-86338651D01*
X188753993Y-86381483D01*
X188754518Y-86388690D01*
X188754899Y-86395232D01*
X188754900Y-86402461D01*
X188755738Y-86409639D01*
X188755740Y-86409657D01*
X188758179Y-86430529D01*
X188758914Y-86437724D01*
X188766039Y-86519165D01*
X188794007Y-86596006D01*
X188796375Y-86602818D01*
X188800100Y-86614058D01*
X188822100Y-86680452D01*
X188867021Y-86748752D01*
X188870909Y-86754855D01*
X188913840Y-86824455D01*
X188921674Y-86831846D01*
X188921675Y-86831847D01*
X188944389Y-86853276D01*
X188973290Y-86880543D01*
X188978486Y-86885589D01*
X193998067Y-91905170D01*
X194021727Y-91932549D01*
X194030063Y-91943746D01*
X194062980Y-91971367D01*
X194068453Y-91976096D01*
X194073355Y-91980458D01*
X194078473Y-91985576D01*
X194084156Y-91990070D01*
X194084160Y-91990073D01*
X194100608Y-92003078D01*
X194106227Y-92007655D01*
X194140555Y-92036460D01*
X194201366Y-92112230D01*
X194228553Y-92205504D01*
X194229500Y-92227202D01*
X194229500Y-92331210D01*
X194229500Y-92331228D01*
X194229501Y-92337872D01*
X194230211Y-92344482D01*
X194230212Y-92344490D01*
X194234437Y-92383794D01*
X194235909Y-92397483D01*
X194286204Y-92532331D01*
X194329328Y-92589938D01*
X194372453Y-92647546D01*
X194415578Y-92679828D01*
X194487669Y-92733796D01*
X194622517Y-92784091D01*
X194682127Y-92790500D01*
X195154457Y-92790499D01*
X195249744Y-92809453D01*
X195330525Y-92863429D01*
X195384502Y-92944210D01*
X195403456Y-93039498D01*
X195384502Y-93134787D01*
X195330526Y-93215568D01*
X195330526Y-93215569D01*
X188002127Y-100543970D01*
X187921345Y-100597946D01*
X187826057Y-100616900D01*
X185949500Y-100616900D01*
X185854212Y-100597946D01*
X185773430Y-100543970D01*
X185719454Y-100463188D01*
X185700500Y-100367900D01*
X185700499Y-98730788D01*
X185700499Y-98724128D01*
X185694091Y-98664517D01*
X185643796Y-98529669D01*
X185574174Y-98436666D01*
X185557546Y-98414453D01*
X185496831Y-98369003D01*
X185442331Y-98328204D01*
X185307483Y-98277909D01*
X185307482Y-98277908D01*
X185307480Y-98277908D01*
X185254509Y-98272213D01*
X185254500Y-98272212D01*
X185247873Y-98271500D01*
X185241202Y-98271500D01*
X185128100Y-98271500D01*
X185032812Y-98252546D01*
X184952030Y-98198570D01*
X184898054Y-98117788D01*
X184879100Y-98022500D01*
X184879100Y-88035142D01*
X184898054Y-87939854D01*
X184952030Y-87859072D01*
X186443673Y-86367429D01*
X186524455Y-86313453D01*
X186619743Y-86294499D01*
X187435212Y-86294499D01*
X187441872Y-86294499D01*
X187501483Y-86288091D01*
X187636331Y-86237796D01*
X187751546Y-86151546D01*
X187837796Y-86036331D01*
X187888091Y-85901483D01*
X187894500Y-85841873D01*
X187894499Y-84338128D01*
X187888091Y-84278517D01*
X187837796Y-84143669D01*
X187751546Y-84028454D01*
X187636331Y-83942204D01*
X187630774Y-83938044D01*
X187565851Y-83865766D01*
X187533529Y-83774145D01*
X187534462Y-83748016D01*
X186778230Y-82991784D01*
X186824138Y-82984865D01*
X186946357Y-82926007D01*
X187045798Y-82833740D01*
X187113625Y-82716260D01*
X187131499Y-82637946D01*
X187878722Y-83385169D01*
X187887598Y-83361372D01*
X187893286Y-83308466D01*
X187894000Y-83295156D01*
X187894000Y-82846243D01*
X187912954Y-82750955D01*
X187966930Y-82670173D01*
X188047712Y-82616197D01*
X188143000Y-82597243D01*
X188238288Y-82616197D01*
G37*
G04 #@! TD.AperFunction*
G04 #@! TA.AperFunction,Conductor*
G36*
X209903788Y-64281454D02*
G01*
X209984570Y-64335430D01*
X210038546Y-64416212D01*
X210057500Y-64511500D01*
X210057500Y-105922500D01*
X210038546Y-106017788D01*
X209984570Y-106098570D01*
X209903788Y-106152546D01*
X209808500Y-106171500D01*
X170711844Y-106171500D01*
X170616556Y-106152546D01*
X170535774Y-106098570D01*
X170481798Y-106017788D01*
X170462844Y-105922500D01*
X170481798Y-105827212D01*
X170501697Y-105790940D01*
X170505100Y-105783641D01*
X170505102Y-105783639D01*
X170597575Y-105585330D01*
X170654207Y-105373977D01*
X170673277Y-105156000D01*
X170654207Y-104938023D01*
X170654206Y-104938020D01*
X170654206Y-104938017D01*
X170597576Y-104726674D01*
X170597575Y-104726670D01*
X170505102Y-104528362D01*
X170505101Y-104528361D01*
X170505100Y-104528358D01*
X170379598Y-104349123D01*
X170224877Y-104194401D01*
X170045642Y-104068899D01*
X169937336Y-104018395D01*
X169847330Y-103976425D01*
X169847328Y-103976424D01*
X169847325Y-103976423D01*
X169635976Y-103919792D01*
X169612395Y-103917729D01*
X169519122Y-103890541D01*
X169443353Y-103829729D01*
X169396624Y-103744550D01*
X169385100Y-103669677D01*
X169385100Y-101333122D01*
X169404054Y-101237834D01*
X169458030Y-101157052D01*
X169503998Y-101120815D01*
X169570179Y-101080259D01*
X169755759Y-100921759D01*
X169846568Y-100815435D01*
X169914259Y-100736179D01*
X170041777Y-100528089D01*
X170135172Y-100302612D01*
X170192146Y-100065302D01*
X170211294Y-99822000D01*
X172435206Y-99822000D01*
X172454348Y-100065219D01*
X172511305Y-100302460D01*
X172604666Y-100527856D01*
X172728504Y-100729941D01*
X173464070Y-99994374D01*
X173466884Y-100007915D01*
X173536442Y-100142156D01*
X173639638Y-100252652D01*
X173768819Y-100331209D01*
X173820002Y-100345549D01*
X173082057Y-101083495D01*
X173284138Y-101207331D01*
X173509539Y-101300694D01*
X173746780Y-101357651D01*
X173989999Y-101376793D01*
X174233219Y-101357651D01*
X174470460Y-101300694D01*
X174695857Y-101207332D01*
X174897941Y-101083495D01*
X174161567Y-100347121D01*
X174278458Y-100296349D01*
X174395739Y-100200934D01*
X174482928Y-100077415D01*
X174513355Y-99991801D01*
X175336896Y-100815342D01*
X175336802Y-100815435D01*
X175351481Y-100829543D01*
X175428629Y-100919872D01*
X175430243Y-100921761D01*
X175615818Y-101080257D01*
X175615820Y-101080258D01*
X175615821Y-101080259D01*
X175823911Y-101207777D01*
X176049388Y-101301172D01*
X176286698Y-101358146D01*
X176453660Y-101371286D01*
X176529999Y-101377294D01*
X176529999Y-101377293D01*
X176530000Y-101377294D01*
X176773302Y-101358146D01*
X177010612Y-101301172D01*
X177236089Y-101207777D01*
X177444179Y-101080259D01*
X177562302Y-100979373D01*
X177638288Y-100914475D01*
X177723055Y-100867003D01*
X177819537Y-100855584D01*
X177913044Y-100881956D01*
X177961712Y-100914475D01*
X178155818Y-101080257D01*
X178155820Y-101080258D01*
X178155821Y-101080259D01*
X178363911Y-101207777D01*
X178589388Y-101301172D01*
X178826698Y-101358146D01*
X179070000Y-101377294D01*
X179313296Y-101358147D01*
X179313299Y-101358146D01*
X179313302Y-101358146D01*
X179388775Y-101340025D01*
X179485853Y-101336211D01*
X179577003Y-101369838D01*
X179622973Y-101406076D01*
X180028067Y-101811170D01*
X180051727Y-101838549D01*
X180060063Y-101849746D01*
X180092980Y-101877367D01*
X180098453Y-101882097D01*
X180103365Y-101886468D01*
X180108473Y-101891576D01*
X180130638Y-101909101D01*
X180136196Y-101913629D01*
X180190626Y-101959301D01*
X180190628Y-101959302D01*
X180198875Y-101966222D01*
X180208632Y-101970772D01*
X180208634Y-101970773D01*
X180272966Y-102000771D01*
X180279475Y-102003922D01*
X180342936Y-102035794D01*
X180342937Y-102035794D01*
X180352558Y-102040626D01*
X180363102Y-102042803D01*
X180363104Y-102042804D01*
X180432654Y-102057165D01*
X180439658Y-102058717D01*
X180508780Y-102075100D01*
X180508784Y-102075100D01*
X180519256Y-102077582D01*
X180530017Y-102077269D01*
X180530022Y-102077270D01*
X180600979Y-102075205D01*
X180608222Y-102075100D01*
X188159944Y-102075100D01*
X188196032Y-102077729D01*
X188197560Y-102077952D01*
X188209850Y-102079753D01*
X188252715Y-102076002D01*
X188259900Y-102075479D01*
X188266403Y-102075100D01*
X188273661Y-102075100D01*
X188288742Y-102073336D01*
X188301688Y-102071824D01*
X188308896Y-102071086D01*
X188379641Y-102064898D01*
X188379643Y-102064897D01*
X188390367Y-102063959D01*
X188400485Y-102060276D01*
X188400487Y-102060276D01*
X188467205Y-102035992D01*
X188473980Y-102033636D01*
X188541429Y-102011287D01*
X188541434Y-102011283D01*
X188551652Y-102007898D01*
X188560642Y-102001984D01*
X188560647Y-102001983D01*
X188620051Y-101962911D01*
X188625984Y-101959131D01*
X188686492Y-101921811D01*
X188686494Y-101921808D01*
X188695656Y-101916158D01*
X188703044Y-101908326D01*
X188703047Y-101908325D01*
X188751778Y-101856671D01*
X188756758Y-101851543D01*
X197323775Y-93284526D01*
X197351146Y-93260874D01*
X197362345Y-93252538D01*
X197390025Y-93219548D01*
X197394724Y-93214111D01*
X197399030Y-93209272D01*
X197404176Y-93204127D01*
X197421704Y-93181957D01*
X197426259Y-93176367D01*
X197471901Y-93121974D01*
X197471903Y-93121969D01*
X197478821Y-93113725D01*
X197483370Y-93103967D01*
X197483373Y-93103965D01*
X197513379Y-93039614D01*
X197516485Y-93033196D01*
X197548394Y-92969664D01*
X197548395Y-92969658D01*
X197553226Y-92960040D01*
X197555402Y-92949499D01*
X197555404Y-92949496D01*
X197569765Y-92879943D01*
X197571328Y-92872897D01*
X197573572Y-92863429D01*
X197587700Y-92803820D01*
X197587700Y-92803818D01*
X197590182Y-92793346D01*
X197589868Y-92782583D01*
X197589870Y-92782578D01*
X197587805Y-92711619D01*
X197587700Y-92704377D01*
X197587700Y-90249847D01*
X197590329Y-90213759D01*
X197590519Y-90212461D01*
X197592352Y-90199949D01*
X197588607Y-90157152D01*
X197588081Y-90149930D01*
X197587700Y-90143388D01*
X197587700Y-90136139D01*
X197584419Y-90108072D01*
X197583681Y-90100855D01*
X197577497Y-90030159D01*
X197577495Y-90030154D01*
X197576557Y-90019427D01*
X197548590Y-89942588D01*
X197546211Y-89935744D01*
X197534383Y-89900047D01*
X197523887Y-89868371D01*
X197523885Y-89868369D01*
X197520499Y-89858148D01*
X197485207Y-89804489D01*
X197475567Y-89789833D01*
X197471682Y-89783734D01*
X197450546Y-89749467D01*
X197434411Y-89723308D01*
X197434409Y-89723306D01*
X197428756Y-89714141D01*
X197369308Y-89658055D01*
X197364111Y-89653008D01*
X196991650Y-89280547D01*
X196937674Y-89199765D01*
X196918720Y-89104477D01*
X196919668Y-89082775D01*
X196934350Y-88914956D01*
X196935659Y-88900000D01*
X196932660Y-88865718D01*
X196915064Y-88664597D01*
X196915063Y-88664592D01*
X196853903Y-88436337D01*
X196754035Y-88222171D01*
X196754034Y-88222170D01*
X196754033Y-88222167D01*
X196618495Y-88028599D01*
X196451402Y-87861505D01*
X196412077Y-87833970D01*
X196344892Y-87763789D01*
X196309679Y-87673240D01*
X196311798Y-87576108D01*
X196350926Y-87487181D01*
X196412077Y-87426030D01*
X196450531Y-87399104D01*
X196451401Y-87398495D01*
X196618495Y-87231401D01*
X196713260Y-87096063D01*
X196754033Y-87037833D01*
X196754033Y-87037832D01*
X196754035Y-87037830D01*
X196853903Y-86823663D01*
X196915063Y-86595408D01*
X196917773Y-86564443D01*
X196935659Y-86360000D01*
X196915064Y-86124597D01*
X196915063Y-86124592D01*
X196853903Y-85896337D01*
X196754035Y-85682171D01*
X196754034Y-85682170D01*
X196754033Y-85682167D01*
X196618495Y-85488599D01*
X196451401Y-85321504D01*
X196257833Y-85185966D01*
X196043663Y-85086097D01*
X195815402Y-85024935D01*
X195580004Y-85004341D01*
X195580001Y-85004341D01*
X195580000Y-85004341D01*
X195478360Y-85013233D01*
X195397223Y-85020332D01*
X195300646Y-85009754D01*
X195215467Y-84963024D01*
X195199452Y-84948349D01*
X188875273Y-78624170D01*
X188821297Y-78543388D01*
X188802343Y-78448100D01*
X188821297Y-78352812D01*
X188875273Y-78272030D01*
X188956055Y-78218054D01*
X189051343Y-78199100D01*
X192634857Y-78199100D01*
X192730145Y-78218054D01*
X192810927Y-78272030D01*
X194156570Y-79617673D01*
X194210546Y-79698455D01*
X194229500Y-79793743D01*
X194229500Y-80901211D01*
X194229500Y-80901229D01*
X194229501Y-80907872D01*
X194235909Y-80967483D01*
X194286204Y-81102331D01*
X194327725Y-81157796D01*
X194372453Y-81217546D01*
X194415577Y-81249828D01*
X194487669Y-81303796D01*
X194622517Y-81354091D01*
X194682127Y-81360500D01*
X196477872Y-81360499D01*
X196537483Y-81354091D01*
X196672331Y-81303796D01*
X196787546Y-81217546D01*
X196873796Y-81102331D01*
X196924091Y-80967483D01*
X196930500Y-80907873D01*
X196930499Y-79112128D01*
X196924091Y-79052517D01*
X196873796Y-78917669D01*
X196787546Y-78802454D01*
X196672331Y-78716204D01*
X196672327Y-78716202D01*
X196657241Y-78704909D01*
X196592317Y-78632631D01*
X196559995Y-78541010D01*
X196565196Y-78443994D01*
X196607126Y-78356354D01*
X196611810Y-78350948D01*
X196661587Y-78279860D01*
X196697543Y-78228509D01*
X196754033Y-78147833D01*
X196754033Y-78147832D01*
X196754035Y-78147830D01*
X196853903Y-77933663D01*
X196915063Y-77705408D01*
X196919708Y-77652325D01*
X196935659Y-77469999D01*
X196915064Y-77234597D01*
X196896577Y-77165602D01*
X196853903Y-77006337D01*
X196754035Y-76792171D01*
X196754034Y-76792170D01*
X196754033Y-76792167D01*
X196618495Y-76598599D01*
X196451402Y-76431505D01*
X196412077Y-76403970D01*
X196344892Y-76333789D01*
X196309679Y-76243240D01*
X196311798Y-76146108D01*
X196350926Y-76057181D01*
X196412077Y-75996030D01*
X196423385Y-75988112D01*
X196451401Y-75968495D01*
X196618495Y-75801401D01*
X196697977Y-75687889D01*
X196754033Y-75607833D01*
X196754033Y-75607832D01*
X196754035Y-75607830D01*
X196853903Y-75393663D01*
X196915063Y-75165408D01*
X196920489Y-75103396D01*
X196935659Y-74929999D01*
X196915064Y-74694597D01*
X196911210Y-74680212D01*
X196853903Y-74466337D01*
X196754035Y-74252171D01*
X196754034Y-74252170D01*
X196754033Y-74252167D01*
X196618495Y-74058599D01*
X196451401Y-73891504D01*
X196257833Y-73755966D01*
X196043663Y-73656097D01*
X195815402Y-73594935D01*
X195580004Y-73574341D01*
X195580001Y-73574341D01*
X195580000Y-73574341D01*
X195478360Y-73583233D01*
X195397223Y-73590332D01*
X195300646Y-73579754D01*
X195215467Y-73533024D01*
X195199452Y-73518349D01*
X193994005Y-72312902D01*
X201557794Y-72312902D01*
X201558050Y-72320885D01*
X201558050Y-72320886D01*
X201563118Y-72478948D01*
X201567673Y-72620978D01*
X201568946Y-72628853D01*
X201568947Y-72628861D01*
X201615592Y-72917380D01*
X201615594Y-72917392D01*
X201616867Y-72925261D01*
X201619134Y-72932900D01*
X201619137Y-72932912D01*
X201692259Y-73179280D01*
X201704569Y-73220756D01*
X201736062Y-73291900D01*
X201806117Y-73450156D01*
X201829337Y-73502609D01*
X201833465Y-73509419D01*
X201833470Y-73509428D01*
X201984985Y-73759368D01*
X201984989Y-73759375D01*
X201989123Y-73766193D01*
X201994096Y-73772429D01*
X201994101Y-73772436D01*
X202092384Y-73895679D01*
X202181304Y-74007181D01*
X202402724Y-74221614D01*
X202649747Y-74405972D01*
X202918318Y-74557228D01*
X203204025Y-74672899D01*
X203502179Y-74751084D01*
X203807883Y-74790500D01*
X203815874Y-74790500D01*
X204034975Y-74790500D01*
X204038974Y-74790500D01*
X204269601Y-74775693D01*
X204572151Y-74716772D01*
X204864683Y-74619644D01*
X205142393Y-74485907D01*
X205400720Y-74317754D01*
X205635424Y-74117948D01*
X205842650Y-73889769D01*
X206018996Y-73636963D01*
X206161567Y-73363683D01*
X206268020Y-73074415D01*
X206336609Y-72773908D01*
X206366206Y-72467098D01*
X206356327Y-72159022D01*
X206307133Y-71854739D01*
X206219431Y-71559244D01*
X206094663Y-71277391D01*
X206088374Y-71267017D01*
X205939014Y-71020631D01*
X205939012Y-71020628D01*
X205934877Y-71013807D01*
X205860388Y-70920401D01*
X205747673Y-70779060D01*
X205742696Y-70772819D01*
X205521276Y-70558386D01*
X205274253Y-70374028D01*
X205126162Y-70290625D01*
X205012641Y-70226691D01*
X205012638Y-70226689D01*
X205005682Y-70222772D01*
X204982595Y-70213425D01*
X204727384Y-70110100D01*
X204727375Y-70110097D01*
X204719975Y-70107101D01*
X204712244Y-70105073D01*
X204712239Y-70105072D01*
X204429543Y-70030941D01*
X204421821Y-70028916D01*
X204413916Y-70027896D01*
X204413907Y-70027895D01*
X204124040Y-69990521D01*
X204124031Y-69990520D01*
X204116117Y-69989500D01*
X203885026Y-69989500D01*
X203881048Y-69989755D01*
X203881029Y-69989756D01*
X203662376Y-70003794D01*
X203662362Y-70003795D01*
X203654399Y-70004307D01*
X203646554Y-70005834D01*
X203646552Y-70005835D01*
X203359683Y-70061702D01*
X203359677Y-70061703D01*
X203351849Y-70063228D01*
X203344292Y-70065736D01*
X203344277Y-70065741D01*
X203066894Y-70157840D01*
X203066890Y-70157841D01*
X203059317Y-70160356D01*
X203052136Y-70163814D01*
X203052124Y-70163819D01*
X202788806Y-70290625D01*
X202788791Y-70290633D01*
X202781607Y-70294093D01*
X202774923Y-70298443D01*
X202774912Y-70298450D01*
X202529973Y-70457889D01*
X202523280Y-70462246D01*
X202517199Y-70467422D01*
X202517196Y-70467425D01*
X202294655Y-70656876D01*
X202294647Y-70656883D01*
X202288576Y-70662052D01*
X202283220Y-70667948D01*
X202283206Y-70667963D01*
X202086717Y-70884320D01*
X202086708Y-70884330D01*
X202081350Y-70890231D01*
X202076789Y-70896768D01*
X202076783Y-70896777D01*
X201909572Y-71136487D01*
X201909565Y-71136497D01*
X201905004Y-71143037D01*
X201901319Y-71150098D01*
X201901310Y-71150115D01*
X201768315Y-71405042D01*
X201762433Y-71416317D01*
X201759682Y-71423789D01*
X201759678Y-71423801D01*
X201658736Y-71698095D01*
X201655980Y-71705585D01*
X201654205Y-71713359D01*
X201654203Y-71713368D01*
X201589168Y-71998304D01*
X201589166Y-71998312D01*
X201587391Y-72006092D01*
X201586624Y-72014035D01*
X201586623Y-72014046D01*
X201559569Y-72294502D01*
X201557794Y-72312902D01*
X193994005Y-72312902D01*
X193605931Y-71924828D01*
X193582272Y-71897450D01*
X193582040Y-71897138D01*
X193573938Y-71886255D01*
X193573936Y-71886253D01*
X193541017Y-71858630D01*
X193535542Y-71853900D01*
X193530646Y-71849543D01*
X193525527Y-71844424D01*
X193519844Y-71839930D01*
X193519829Y-71839917D01*
X193503369Y-71826902D01*
X193497758Y-71822332D01*
X193468426Y-71797720D01*
X193443374Y-71776699D01*
X193443372Y-71776698D01*
X193435125Y-71769778D01*
X193361054Y-71735238D01*
X193354537Y-71732083D01*
X193281439Y-71695372D01*
X193201390Y-71678843D01*
X193194323Y-71677277D01*
X193171773Y-71671933D01*
X193125220Y-71660900D01*
X193125219Y-71660900D01*
X193114742Y-71658417D01*
X193103978Y-71658730D01*
X193041584Y-71660545D01*
X193033005Y-71660795D01*
X193025764Y-71660900D01*
X188091702Y-71660900D01*
X187996414Y-71641946D01*
X187915632Y-71587970D01*
X187861656Y-71507188D01*
X187858415Y-71498953D01*
X187837796Y-71443669D01*
X187763139Y-71343940D01*
X187751546Y-71328453D01*
X187693077Y-71284684D01*
X187636331Y-71242204D01*
X187501483Y-71191909D01*
X187501482Y-71191908D01*
X187501480Y-71191908D01*
X187448509Y-71186213D01*
X187448500Y-71186212D01*
X187441873Y-71185500D01*
X187435202Y-71185500D01*
X185944788Y-71185500D01*
X185944769Y-71185500D01*
X185938128Y-71185501D01*
X185931517Y-71186211D01*
X185931510Y-71186212D01*
X185878526Y-71191908D01*
X185878517Y-71191909D01*
X185743669Y-71242204D01*
X185743667Y-71242205D01*
X185743668Y-71242205D01*
X185628453Y-71328453D01*
X185557077Y-71423801D01*
X185542204Y-71443669D01*
X185539252Y-71451585D01*
X185491908Y-71578519D01*
X185486213Y-71631490D01*
X185486212Y-71631500D01*
X185485500Y-71638127D01*
X185485500Y-71644778D01*
X185485499Y-71644797D01*
X185485500Y-72819511D01*
X185466546Y-72914799D01*
X185412570Y-72995581D01*
X185331788Y-73049557D01*
X185250983Y-73068089D01*
X185247359Y-73068300D01*
X185240139Y-73068300D01*
X185232972Y-73069137D01*
X185232948Y-73069139D01*
X185212074Y-73071579D01*
X185204878Y-73072314D01*
X185123430Y-73079440D01*
X185046610Y-73107400D01*
X185039776Y-73109776D01*
X184962147Y-73135500D01*
X184893844Y-73180423D01*
X184887743Y-73184310D01*
X184818144Y-73227240D01*
X184762037Y-73286708D01*
X184756995Y-73291900D01*
X176064829Y-81984066D01*
X176037461Y-82007718D01*
X176026252Y-82016063D01*
X175998625Y-82048987D01*
X175993903Y-82054452D01*
X175989528Y-82059368D01*
X175984424Y-82064473D01*
X175979946Y-82070135D01*
X175979930Y-82070154D01*
X175966909Y-82086621D01*
X175962349Y-82092219D01*
X175909778Y-82154874D01*
X175875223Y-82228974D01*
X175872071Y-82235484D01*
X175835372Y-82308558D01*
X175818841Y-82388617D01*
X175817275Y-82395679D01*
X175798417Y-82475254D01*
X175798730Y-82486020D01*
X175798730Y-82486022D01*
X175800795Y-82556993D01*
X175800900Y-82564234D01*
X175800900Y-98310877D01*
X175781946Y-98406165D01*
X175727970Y-98486947D01*
X175682004Y-98523183D01*
X175615820Y-98563741D01*
X175430242Y-98722239D01*
X175351481Y-98814456D01*
X175335384Y-98827145D01*
X175336896Y-98828657D01*
X174515929Y-99649622D01*
X174513116Y-99636085D01*
X174443558Y-99501844D01*
X174340362Y-99391348D01*
X174211181Y-99312791D01*
X174159994Y-99298449D01*
X174897941Y-98560503D01*
X174695856Y-98436666D01*
X174470460Y-98343305D01*
X174233219Y-98286348D01*
X173989999Y-98267206D01*
X173746780Y-98286348D01*
X173509539Y-98343305D01*
X173284143Y-98436666D01*
X173082056Y-98560504D01*
X173818432Y-99296878D01*
X173701542Y-99347651D01*
X173584261Y-99443066D01*
X173497072Y-99566585D01*
X173466645Y-99652198D01*
X172728504Y-98914057D01*
X172604666Y-99116143D01*
X172511305Y-99341539D01*
X172454348Y-99578780D01*
X172435206Y-99822000D01*
X170211294Y-99822000D01*
X170192146Y-99578698D01*
X170135172Y-99341388D01*
X170041777Y-99115911D01*
X169914259Y-98907821D01*
X169914258Y-98907820D01*
X169914257Y-98907818D01*
X169755759Y-98722240D01*
X169570181Y-98563742D01*
X169432438Y-98479333D01*
X169362089Y-98436223D01*
X169362086Y-98436222D01*
X169362085Y-98436221D01*
X169136615Y-98342829D01*
X169136613Y-98342828D01*
X169136612Y-98342828D01*
X168899302Y-98285854D01*
X168899298Y-98285853D01*
X168655999Y-98266705D01*
X168412701Y-98285853D01*
X168175384Y-98342829D01*
X167949914Y-98436221D01*
X167741822Y-98563740D01*
X167547712Y-98729525D01*
X167462944Y-98776996D01*
X167366463Y-98788415D01*
X167272956Y-98762043D01*
X167224288Y-98729525D01*
X167060807Y-98589900D01*
X167030179Y-98563741D01*
X166822089Y-98436223D01*
X166822086Y-98436222D01*
X166822085Y-98436221D01*
X166596615Y-98342829D01*
X166596613Y-98342828D01*
X166596612Y-98342828D01*
X166359302Y-98285854D01*
X166359298Y-98285853D01*
X166116000Y-98266705D01*
X165872701Y-98285853D01*
X165635384Y-98342829D01*
X165409914Y-98436221D01*
X165201822Y-98563740D01*
X165007712Y-98729525D01*
X164922944Y-98776996D01*
X164826463Y-98788415D01*
X164732956Y-98762043D01*
X164684288Y-98729525D01*
X164490175Y-98563738D01*
X164423996Y-98523183D01*
X164352654Y-98457234D01*
X164311979Y-98369003D01*
X164305100Y-98310877D01*
X164305100Y-88035142D01*
X164324054Y-87939854D01*
X164378028Y-87859074D01*
X166581175Y-85655926D01*
X166608546Y-85632274D01*
X166619745Y-85623938D01*
X166647425Y-85590948D01*
X166652125Y-85585511D01*
X166656438Y-85580663D01*
X166661576Y-85575527D01*
X166679072Y-85553399D01*
X166683652Y-85547775D01*
X166729301Y-85493374D01*
X166729301Y-85493372D01*
X166736224Y-85485123D01*
X166770777Y-85411021D01*
X166773902Y-85404563D01*
X166805794Y-85341064D01*
X166805795Y-85341056D01*
X166810626Y-85331439D01*
X166812802Y-85320899D01*
X166812804Y-85320896D01*
X166827165Y-85251343D01*
X166828728Y-85244297D01*
X166847582Y-85164746D01*
X166847268Y-85153983D01*
X166847270Y-85153978D01*
X166845205Y-85083019D01*
X166845100Y-85075777D01*
X166845100Y-79827255D01*
X166847729Y-79791166D01*
X166849753Y-79777350D01*
X166846004Y-79734509D01*
X166845479Y-79727298D01*
X166845100Y-79720790D01*
X166845100Y-79713539D01*
X166844258Y-79706340D01*
X166844258Y-79706332D01*
X166841824Y-79685515D01*
X166841086Y-79678298D01*
X166834898Y-79607559D01*
X166834897Y-79607557D01*
X166833959Y-79596831D01*
X166805999Y-79520014D01*
X166803619Y-79513168D01*
X166796629Y-79492072D01*
X166781287Y-79445771D01*
X166781285Y-79445769D01*
X166777899Y-79435548D01*
X166732974Y-79367243D01*
X166729082Y-79361134D01*
X166709798Y-79329870D01*
X166691811Y-79300708D01*
X166691809Y-79300706D01*
X166686156Y-79291541D01*
X166626708Y-79235455D01*
X166621511Y-79230408D01*
X162567429Y-75176326D01*
X162513453Y-75095544D01*
X162494499Y-75000256D01*
X162494499Y-74184788D01*
X162494499Y-74178128D01*
X162488091Y-74118517D01*
X162437796Y-73983669D01*
X162368802Y-73891505D01*
X162351546Y-73868453D01*
X162293938Y-73825329D01*
X162236331Y-73782204D01*
X162101483Y-73731909D01*
X162101482Y-73731908D01*
X162101480Y-73731908D01*
X162048509Y-73726213D01*
X162048500Y-73726212D01*
X162041873Y-73725500D01*
X162035202Y-73725500D01*
X160544788Y-73725500D01*
X160544769Y-73725500D01*
X160538128Y-73725501D01*
X160531517Y-73726211D01*
X160531510Y-73726212D01*
X160478703Y-73731889D01*
X160478517Y-73731909D01*
X160343669Y-73782204D01*
X160343667Y-73782205D01*
X160343668Y-73782205D01*
X160228453Y-73868453D01*
X160171120Y-73945042D01*
X160142204Y-73983669D01*
X160131058Y-74013553D01*
X160091908Y-74118519D01*
X160086213Y-74171490D01*
X160086212Y-74171500D01*
X160085500Y-74178127D01*
X160085500Y-74184788D01*
X160085500Y-74184797D01*
X160085500Y-75675211D01*
X160085500Y-75675229D01*
X160085501Y-75681872D01*
X160086211Y-75688483D01*
X160086212Y-75688489D01*
X160086274Y-75689065D01*
X160091909Y-75741483D01*
X160142204Y-75876331D01*
X160228454Y-75991546D01*
X160234444Y-75996030D01*
X160240638Y-76000667D01*
X160305560Y-76072945D01*
X160337881Y-76164567D01*
X160332680Y-76261582D01*
X160290748Y-76349223D01*
X160240638Y-76399333D01*
X160228453Y-76408454D01*
X160159531Y-76500522D01*
X160142204Y-76523669D01*
X160121597Y-76578919D01*
X160070540Y-76661572D01*
X159991737Y-76718398D01*
X159897186Y-76740741D01*
X159888298Y-76740900D01*
X143010350Y-76740900D01*
X142915062Y-76721946D01*
X142834280Y-76667970D01*
X139417820Y-73251510D01*
X139363844Y-73170728D01*
X139344890Y-73075440D01*
X139363844Y-72980152D01*
X139417820Y-72899370D01*
X139451066Y-72871473D01*
X139490877Y-72843598D01*
X139645598Y-72688877D01*
X139645597Y-72688877D01*
X139650444Y-72684031D01*
X139731225Y-72630054D01*
X139826513Y-72611100D01*
X141543506Y-72611100D01*
X141638794Y-72630054D01*
X141719576Y-72684030D01*
X141773552Y-72764812D01*
X141792506Y-72860100D01*
X141773552Y-72955388D01*
X141747476Y-73002919D01*
X141744430Y-73007268D01*
X141661874Y-73184310D01*
X141648261Y-73213504D01*
X141628646Y-73286708D01*
X141589363Y-73433313D01*
X141569531Y-73660000D01*
X141589363Y-73886686D01*
X141591773Y-73895679D01*
X141648261Y-74106496D01*
X141656014Y-74123123D01*
X141744428Y-74312727D01*
X141744430Y-74312730D01*
X141744432Y-74312734D01*
X141874953Y-74499139D01*
X142035861Y-74660047D01*
X142222266Y-74790568D01*
X142428504Y-74886739D01*
X142648308Y-74945635D01*
X142648309Y-74945635D01*
X142648313Y-74945636D01*
X142875000Y-74965468D01*
X143101686Y-74945636D01*
X143101688Y-74945635D01*
X143101692Y-74945635D01*
X143321496Y-74886739D01*
X143527734Y-74790568D01*
X143714139Y-74660047D01*
X143875047Y-74499139D01*
X143941031Y-74404902D01*
X144011211Y-74337719D01*
X144101760Y-74302506D01*
X144198892Y-74304625D01*
X144287819Y-74343753D01*
X144348968Y-74404902D01*
X144414953Y-74499139D01*
X144575861Y-74660047D01*
X144762266Y-74790568D01*
X144968504Y-74886739D01*
X145188308Y-74945635D01*
X145188309Y-74945635D01*
X145188313Y-74945636D01*
X145415000Y-74965468D01*
X145641686Y-74945636D01*
X145641688Y-74945635D01*
X145641692Y-74945635D01*
X145861496Y-74886739D01*
X146067734Y-74790568D01*
X146254139Y-74660047D01*
X146415047Y-74499139D01*
X146481031Y-74404902D01*
X146551211Y-74337719D01*
X146641760Y-74302506D01*
X146738892Y-74304625D01*
X146827819Y-74343753D01*
X146888968Y-74404902D01*
X146954953Y-74499139D01*
X147115861Y-74660047D01*
X147302266Y-74790568D01*
X147508504Y-74886739D01*
X147728308Y-74945635D01*
X147728309Y-74945635D01*
X147728313Y-74945636D01*
X147955000Y-74965468D01*
X148181686Y-74945636D01*
X148181688Y-74945635D01*
X148181692Y-74945635D01*
X148401496Y-74886739D01*
X148607734Y-74790568D01*
X148794139Y-74660047D01*
X148955047Y-74499139D01*
X149021339Y-74404463D01*
X149091514Y-74337284D01*
X149182062Y-74302070D01*
X149279194Y-74304189D01*
X149368122Y-74343316D01*
X149429273Y-74404466D01*
X149495337Y-74498815D01*
X149656186Y-74659664D01*
X149842515Y-74790133D01*
X150048677Y-74886267D01*
X150244999Y-74938872D01*
X150245000Y-74938871D01*
X150245000Y-74104297D01*
X150350408Y-74152435D01*
X150458666Y-74168000D01*
X150531334Y-74168000D01*
X150639592Y-74152435D01*
X150745000Y-74104297D01*
X150745000Y-74938872D01*
X150941322Y-74886267D01*
X151147484Y-74790133D01*
X151333813Y-74659664D01*
X151494664Y-74498813D01*
X151625133Y-74312484D01*
X151721267Y-74106322D01*
X151773872Y-73910000D01*
X150938196Y-73910000D01*
X150961845Y-73873201D01*
X151003000Y-73733039D01*
X151003000Y-73586961D01*
X150961845Y-73446799D01*
X150938196Y-73410000D01*
X151773872Y-73410000D01*
X151773872Y-73409999D01*
X151721267Y-73213677D01*
X151625135Y-73007518D01*
X151482640Y-72804015D01*
X151443511Y-72715088D01*
X151441392Y-72617956D01*
X151476604Y-72527407D01*
X151543788Y-72457225D01*
X151599590Y-72427895D01*
X151600931Y-72427396D01*
X151716146Y-72341146D01*
X151802396Y-72225931D01*
X151852691Y-72091083D01*
X151859100Y-72031473D01*
X151859099Y-70208528D01*
X151852691Y-70148917D01*
X151802396Y-70014069D01*
X151748428Y-69941978D01*
X151716146Y-69898853D01*
X151655028Y-69853101D01*
X151600931Y-69812604D01*
X151466083Y-69762309D01*
X151466082Y-69762308D01*
X151466080Y-69762308D01*
X151413109Y-69756613D01*
X151413100Y-69756612D01*
X151406473Y-69755900D01*
X151399802Y-69755900D01*
X150265143Y-69755900D01*
X150169855Y-69736946D01*
X150089073Y-69682970D01*
X147504931Y-67098828D01*
X147481272Y-67071450D01*
X147472938Y-67060255D01*
X147472936Y-67060253D01*
X147440017Y-67032630D01*
X147434542Y-67027900D01*
X147429646Y-67023543D01*
X147424527Y-67018424D01*
X147418844Y-67013930D01*
X147418829Y-67013917D01*
X147402369Y-67000902D01*
X147396758Y-66996332D01*
X147386403Y-66987643D01*
X147342374Y-66950699D01*
X147342372Y-66950698D01*
X147334125Y-66943778D01*
X147260054Y-66909238D01*
X147253537Y-66906083D01*
X147180439Y-66869372D01*
X147100390Y-66852843D01*
X147093323Y-66851277D01*
X147070773Y-66845933D01*
X147024220Y-66834900D01*
X147024219Y-66834900D01*
X147013742Y-66832417D01*
X147002978Y-66832730D01*
X146940584Y-66834545D01*
X146932005Y-66834795D01*
X146924764Y-66834900D01*
X117982514Y-66834900D01*
X117887226Y-66815946D01*
X117806444Y-66761970D01*
X117806444Y-66761969D01*
X117646877Y-66602401D01*
X117467642Y-66476899D01*
X117359336Y-66426395D01*
X117269330Y-66384425D01*
X117269328Y-66384424D01*
X117269325Y-66384423D01*
X117057981Y-66327793D01*
X116840000Y-66308723D01*
X116622017Y-66327793D01*
X116410674Y-66384423D01*
X116212358Y-66476899D01*
X116033126Y-66602399D01*
X115878399Y-66757126D01*
X115752899Y-66936358D01*
X115660423Y-67134674D01*
X115603793Y-67346017D01*
X115584723Y-67564000D01*
X115605205Y-67798120D01*
X115594627Y-67894697D01*
X115547896Y-67979875D01*
X115472126Y-68040686D01*
X115378852Y-68067873D01*
X115282275Y-68057295D01*
X115214333Y-68023790D01*
X115181641Y-68000899D01*
X115136555Y-67979875D01*
X114983330Y-67908425D01*
X114983328Y-67908424D01*
X114983325Y-67908423D01*
X114771981Y-67851793D01*
X114554000Y-67832723D01*
X114336017Y-67851793D01*
X114124674Y-67908423D01*
X113926358Y-68000899D01*
X113747126Y-68126399D01*
X113592399Y-68281126D01*
X113466899Y-68460358D01*
X113374423Y-68658674D01*
X113317793Y-68870017D01*
X113298723Y-69088000D01*
X113317793Y-69305981D01*
X113374423Y-69517325D01*
X113466899Y-69715642D01*
X113592399Y-69894874D01*
X113747125Y-70049600D01*
X113926357Y-70175100D01*
X113926360Y-70175101D01*
X113926361Y-70175102D01*
X114124670Y-70267575D01*
X114124674Y-70267576D01*
X114336018Y-70324206D01*
X114336019Y-70324206D01*
X114336023Y-70324207D01*
X114554000Y-70343277D01*
X114771977Y-70324207D01*
X114983330Y-70267575D01*
X115181639Y-70175102D01*
X115201368Y-70161288D01*
X115360877Y-70049598D01*
X115520544Y-69889931D01*
X115601325Y-69835954D01*
X115696613Y-69817000D01*
X141737675Y-69817000D01*
X141832963Y-69835954D01*
X141913745Y-69889930D01*
X141967721Y-69970712D01*
X141986675Y-70066000D01*
X141967721Y-70161288D01*
X141913747Y-70242066D01*
X141888239Y-70267575D01*
X141874953Y-70280861D01*
X141744428Y-70467272D01*
X141648263Y-70673499D01*
X141648261Y-70673504D01*
X141625136Y-70759807D01*
X141589363Y-70893313D01*
X141586539Y-70925602D01*
X141559353Y-71018876D01*
X141498541Y-71094645D01*
X141413363Y-71141376D01*
X141338487Y-71152900D01*
X139826514Y-71152900D01*
X139731226Y-71133946D01*
X139650444Y-71079970D01*
X139650444Y-71079969D01*
X139490877Y-70920401D01*
X139311642Y-70794899D01*
X139203336Y-70744395D01*
X139113330Y-70702425D01*
X139113328Y-70702424D01*
X139113325Y-70702423D01*
X138901981Y-70645793D01*
X138684000Y-70626723D01*
X138466017Y-70645793D01*
X138254674Y-70702423D01*
X138056358Y-70794899D01*
X137877126Y-70920399D01*
X137722401Y-71075124D01*
X137667394Y-71153683D01*
X137597212Y-71220867D01*
X137506663Y-71256079D01*
X137409531Y-71253960D01*
X137358197Y-71236534D01*
X137338226Y-71227221D01*
X137331744Y-71224083D01*
X137258646Y-71187372D01*
X137178597Y-71170843D01*
X137171530Y-71169277D01*
X137118026Y-71156597D01*
X137102427Y-71152900D01*
X137102426Y-71152900D01*
X137091949Y-71150417D01*
X137081185Y-71150730D01*
X137019664Y-71152520D01*
X137010212Y-71152795D01*
X137002971Y-71152900D01*
X98623256Y-71152900D01*
X98587168Y-71150271D01*
X98573352Y-71148247D01*
X98573350Y-71148247D01*
X98530509Y-71151995D01*
X98523304Y-71152520D01*
X98516777Y-71152900D01*
X98509539Y-71152900D01*
X98502353Y-71153739D01*
X98502333Y-71153741D01*
X98481474Y-71156179D01*
X98474278Y-71156914D01*
X98392830Y-71164040D01*
X98316010Y-71192000D01*
X98309176Y-71194376D01*
X98231547Y-71220100D01*
X98163244Y-71265023D01*
X98157143Y-71268910D01*
X98087544Y-71311840D01*
X98031437Y-71371308D01*
X98026395Y-71376500D01*
X97108393Y-72294502D01*
X97027611Y-72348478D01*
X96932323Y-72367432D01*
X96910624Y-72366485D01*
X96774000Y-72354532D01*
X96773997Y-72354532D01*
X96773995Y-72354532D01*
X96547313Y-72374363D01*
X96437406Y-72403812D01*
X96327504Y-72433261D01*
X96327500Y-72433262D01*
X96327499Y-72433263D01*
X96121272Y-72529428D01*
X96121266Y-72529431D01*
X96121266Y-72529432D01*
X95990524Y-72620978D01*
X95934861Y-72659953D01*
X95773950Y-72820864D01*
X95707969Y-72915096D01*
X95637788Y-72982280D01*
X95547239Y-73017493D01*
X95450107Y-73015374D01*
X95361180Y-72976245D01*
X95300031Y-72915096D01*
X95244374Y-72835610D01*
X95234047Y-72820861D01*
X95073139Y-72659953D01*
X94886734Y-72529432D01*
X94886730Y-72529430D01*
X94886727Y-72529428D01*
X94680500Y-72433263D01*
X94680496Y-72433261D01*
X94519043Y-72390000D01*
X94460686Y-72374363D01*
X94234000Y-72354531D01*
X94007313Y-72374363D01*
X93897405Y-72403812D01*
X93787504Y-72433261D01*
X93787500Y-72433262D01*
X93787499Y-72433263D01*
X93581272Y-72529428D01*
X93581266Y-72529431D01*
X93581266Y-72529432D01*
X93450524Y-72620978D01*
X93394861Y-72659953D01*
X93233950Y-72820864D01*
X93167969Y-72915096D01*
X93097788Y-72982280D01*
X93007239Y-73017493D01*
X92910107Y-73015374D01*
X92821180Y-72976245D01*
X92760031Y-72915096D01*
X92704374Y-72835610D01*
X92694047Y-72820861D01*
X92533139Y-72659953D01*
X92346734Y-72529432D01*
X92346730Y-72529430D01*
X92346727Y-72529428D01*
X92140500Y-72433263D01*
X92140496Y-72433261D01*
X91979043Y-72390000D01*
X91920686Y-72374363D01*
X91694000Y-72354531D01*
X91467313Y-72374363D01*
X91357406Y-72403812D01*
X91247504Y-72433261D01*
X91247500Y-72433262D01*
X91247499Y-72433263D01*
X91041272Y-72529428D01*
X91041266Y-72529431D01*
X91041266Y-72529432D01*
X90910524Y-72620978D01*
X90854861Y-72659953D01*
X90693950Y-72820864D01*
X90627969Y-72915096D01*
X90557788Y-72982280D01*
X90467239Y-73017493D01*
X90370107Y-73015374D01*
X90281180Y-72976245D01*
X90220031Y-72915096D01*
X90164374Y-72835610D01*
X90154047Y-72820861D01*
X89993139Y-72659953D01*
X89806734Y-72529432D01*
X89806730Y-72529430D01*
X89806727Y-72529428D01*
X89600500Y-72433263D01*
X89600496Y-72433261D01*
X89439043Y-72390000D01*
X89380686Y-72374363D01*
X89153999Y-72354531D01*
X88927313Y-72374363D01*
X88817405Y-72403812D01*
X88707504Y-72433261D01*
X88707500Y-72433262D01*
X88707499Y-72433263D01*
X88501272Y-72529428D01*
X88501266Y-72529431D01*
X88501266Y-72529432D01*
X88370524Y-72620978D01*
X88314861Y-72659953D01*
X88153950Y-72820864D01*
X88087664Y-72915532D01*
X88017483Y-72982716D01*
X87926934Y-73017929D01*
X87829802Y-73015810D01*
X87740875Y-72976681D01*
X87699267Y-72935073D01*
X87693026Y-72934527D01*
X87097076Y-73530476D01*
X87073493Y-73450156D01*
X86995761Y-73329202D01*
X86887100Y-73235048D01*
X86756315Y-73175320D01*
X86746531Y-73173913D01*
X87339472Y-72580973D01*
X87266485Y-72529867D01*
X87060319Y-72433731D01*
X86840609Y-72374859D01*
X86614000Y-72355034D01*
X86387390Y-72374859D01*
X86167677Y-72433732D01*
X85961518Y-72529864D01*
X85888527Y-72580972D01*
X86481468Y-73173913D01*
X86471685Y-73175320D01*
X86340900Y-73235048D01*
X86232239Y-73329202D01*
X86154507Y-73450156D01*
X86130922Y-73530477D01*
X85534971Y-72934526D01*
X85527936Y-72935142D01*
X85477788Y-72983150D01*
X85387239Y-73018363D01*
X85290107Y-73016244D01*
X85201180Y-72977116D01*
X85159124Y-72935060D01*
X85153026Y-72934527D01*
X84557076Y-73530476D01*
X84533493Y-73450156D01*
X84455761Y-73329202D01*
X84347100Y-73235048D01*
X84216315Y-73175320D01*
X84206531Y-73173913D01*
X84799472Y-72580973D01*
X84726485Y-72529867D01*
X84520319Y-72433731D01*
X84300609Y-72374859D01*
X84073999Y-72355034D01*
X83847390Y-72374859D01*
X83627677Y-72433732D01*
X83421518Y-72529864D01*
X83348527Y-72580972D01*
X83941468Y-73173913D01*
X83931685Y-73175320D01*
X83800900Y-73235048D01*
X83692239Y-73329202D01*
X83614507Y-73450156D01*
X83590922Y-73530477D01*
X82994972Y-72934527D01*
X82943864Y-73007518D01*
X82847732Y-73213677D01*
X82788859Y-73433390D01*
X82769034Y-73660000D01*
X82788859Y-73886609D01*
X82847731Y-74106319D01*
X82943867Y-74312485D01*
X82994973Y-74385471D01*
X83590922Y-73789522D01*
X83614507Y-73869844D01*
X83692239Y-73990798D01*
X83800900Y-74084952D01*
X83931685Y-74144680D01*
X83941466Y-74146086D01*
X83348527Y-74739026D01*
X83421514Y-74790132D01*
X83627680Y-74886268D01*
X83847390Y-74945140D01*
X84073999Y-74964965D01*
X84300609Y-74945140D01*
X84520322Y-74886267D01*
X84726485Y-74790133D01*
X84799471Y-74739027D01*
X84799471Y-74739025D01*
X84206533Y-74146086D01*
X84216315Y-74144680D01*
X84347100Y-74084952D01*
X84455761Y-73990798D01*
X84533493Y-73869844D01*
X84557076Y-73789523D01*
X85153025Y-74385471D01*
X85160059Y-74384856D01*
X85210210Y-74336847D01*
X85300759Y-74301634D01*
X85397891Y-74303753D01*
X85486818Y-74342881D01*
X85528876Y-74384938D01*
X85534973Y-74385472D01*
X86130922Y-73789522D01*
X86154507Y-73869844D01*
X86232239Y-73990798D01*
X86340900Y-74084952D01*
X86471685Y-74144680D01*
X86481466Y-74146086D01*
X85888527Y-74739026D01*
X85961514Y-74790132D01*
X86167680Y-74886268D01*
X86387390Y-74945140D01*
X86614000Y-74964965D01*
X86840609Y-74945140D01*
X87060322Y-74886267D01*
X87266485Y-74790133D01*
X87339471Y-74739027D01*
X87339471Y-74739025D01*
X86746533Y-74146086D01*
X86756315Y-74144680D01*
X86887100Y-74084952D01*
X86995761Y-73990798D01*
X87073493Y-73869844D01*
X87097076Y-73789523D01*
X87693025Y-74385471D01*
X87700225Y-74384841D01*
X87749906Y-74337283D01*
X87840455Y-74302070D01*
X87937587Y-74304189D01*
X88026514Y-74343318D01*
X88087663Y-74404467D01*
X88151095Y-74495058D01*
X88153953Y-74499139D01*
X88314861Y-74660047D01*
X88501266Y-74790568D01*
X88707504Y-74886739D01*
X88927308Y-74945635D01*
X88927309Y-74945635D01*
X88927313Y-74945636D01*
X89153999Y-74965468D01*
X89153999Y-74965467D01*
X89154000Y-74965468D01*
X89189253Y-74962383D01*
X89380686Y-74945636D01*
X89380688Y-74945635D01*
X89380692Y-74945635D01*
X89600496Y-74886739D01*
X89806734Y-74790568D01*
X89993139Y-74660047D01*
X90154047Y-74499139D01*
X90220031Y-74404902D01*
X90290211Y-74337719D01*
X90380760Y-74302506D01*
X90477892Y-74304625D01*
X90566819Y-74343753D01*
X90627968Y-74404902D01*
X90693953Y-74499139D01*
X90854861Y-74660047D01*
X91041266Y-74790568D01*
X91247504Y-74886739D01*
X91467308Y-74945635D01*
X91467309Y-74945635D01*
X91467313Y-74945636D01*
X91693999Y-74965468D01*
X91693999Y-74965467D01*
X91694000Y-74965468D01*
X91729253Y-74962383D01*
X91920686Y-74945636D01*
X91920688Y-74945635D01*
X91920692Y-74945635D01*
X92140496Y-74886739D01*
X92346734Y-74790568D01*
X92533139Y-74660047D01*
X92694047Y-74499139D01*
X92760031Y-74404902D01*
X92830211Y-74337719D01*
X92920760Y-74302506D01*
X93017892Y-74304625D01*
X93106819Y-74343753D01*
X93167968Y-74404902D01*
X93233953Y-74499139D01*
X93394861Y-74660047D01*
X93581266Y-74790568D01*
X93787504Y-74886739D01*
X94007308Y-74945635D01*
X94007309Y-74945635D01*
X94007313Y-74945636D01*
X94233999Y-74965468D01*
X94233999Y-74965467D01*
X94234000Y-74965468D01*
X94370622Y-74953515D01*
X94467199Y-74964091D01*
X94552378Y-75010821D01*
X94568394Y-75025497D01*
X100018067Y-80475170D01*
X100041727Y-80502549D01*
X100050063Y-80513746D01*
X100082980Y-80541367D01*
X100088453Y-80546097D01*
X100093365Y-80550468D01*
X100098473Y-80555576D01*
X100120638Y-80573101D01*
X100126196Y-80577629D01*
X100180626Y-80623301D01*
X100180628Y-80623302D01*
X100188875Y-80630222D01*
X100198632Y-80634772D01*
X100198634Y-80634773D01*
X100262966Y-80664771D01*
X100269475Y-80667922D01*
X100332936Y-80699794D01*
X100332937Y-80699794D01*
X100342558Y-80704626D01*
X100353102Y-80706803D01*
X100353104Y-80706804D01*
X100422654Y-80721165D01*
X100429658Y-80722717D01*
X100498780Y-80739100D01*
X100498784Y-80739100D01*
X100509256Y-80741582D01*
X100520017Y-80741269D01*
X100520022Y-80741270D01*
X100590979Y-80739205D01*
X100598222Y-80739100D01*
X159888298Y-80739100D01*
X159983586Y-80758054D01*
X160064368Y-80812030D01*
X160118344Y-80892812D01*
X160121584Y-80901046D01*
X160142204Y-80956331D01*
X160228454Y-81071546D01*
X160343669Y-81157796D01*
X160343670Y-81157796D01*
X160349223Y-81161953D01*
X160414146Y-81234230D01*
X160446468Y-81325851D01*
X160445534Y-81351980D01*
X161201769Y-82108215D01*
X161155862Y-82115135D01*
X161033643Y-82173993D01*
X160934202Y-82266260D01*
X160866375Y-82383740D01*
X160848500Y-82462054D01*
X160101275Y-81714829D01*
X160092402Y-81738622D01*
X160086712Y-81791549D01*
X160086000Y-81804843D01*
X160086000Y-83295156D01*
X160086712Y-83308452D01*
X160092402Y-83361376D01*
X160101275Y-83385169D01*
X160845549Y-82640894D01*
X160846327Y-82651265D01*
X160895887Y-82777541D01*
X160980465Y-82883599D01*
X161092547Y-82960016D01*
X161200299Y-82993252D01*
X160454830Y-83738722D01*
X160478626Y-83747598D01*
X160531534Y-83753286D01*
X160544843Y-83754000D01*
X162035157Y-83754000D01*
X162048466Y-83753286D01*
X162101372Y-83747598D01*
X162125168Y-83738722D01*
X161378230Y-82991784D01*
X161424138Y-82984865D01*
X161546357Y-82926007D01*
X161645798Y-82833740D01*
X161713625Y-82716260D01*
X161731499Y-82637945D01*
X162478723Y-83385168D01*
X162487598Y-83361373D01*
X162493286Y-83308466D01*
X162494000Y-83295156D01*
X162494000Y-81804843D01*
X162493286Y-81791534D01*
X162487598Y-81738626D01*
X162478722Y-81714830D01*
X161734449Y-82459102D01*
X161733673Y-82448735D01*
X161684113Y-82322459D01*
X161599535Y-82216401D01*
X161487453Y-82139984D01*
X161379697Y-82106746D01*
X162135555Y-81350889D01*
X162134951Y-81317082D01*
X162170521Y-81226672D01*
X162230776Y-81161953D01*
X162236327Y-81157797D01*
X162236331Y-81157796D01*
X162351546Y-81071546D01*
X162437796Y-80956331D01*
X162488091Y-80821483D01*
X162494500Y-80761873D01*
X162494499Y-79258128D01*
X162488091Y-79198517D01*
X162437796Y-79063669D01*
X162351546Y-78948454D01*
X162339362Y-78939333D01*
X162274440Y-78867057D01*
X162242118Y-78775436D01*
X162247319Y-78678420D01*
X162289249Y-78590780D01*
X162339362Y-78540666D01*
X162351546Y-78531546D01*
X162437796Y-78416331D01*
X162488091Y-78281483D01*
X162494500Y-78221873D01*
X162494499Y-77766740D01*
X162513453Y-77671454D01*
X162567429Y-77590673D01*
X162648210Y-77536696D01*
X162743498Y-77517742D01*
X162838787Y-77536696D01*
X162919568Y-77590672D01*
X162919569Y-77590672D01*
X165313970Y-79985073D01*
X165367946Y-80065855D01*
X165386900Y-80161143D01*
X165386900Y-84684856D01*
X165367946Y-84780144D01*
X165313970Y-84860926D01*
X163110829Y-87064066D01*
X163083461Y-87087718D01*
X163072252Y-87096063D01*
X163044625Y-87128987D01*
X163039903Y-87134452D01*
X163035528Y-87139368D01*
X163030424Y-87144473D01*
X163025946Y-87150135D01*
X163025930Y-87150154D01*
X163012909Y-87166621D01*
X163008349Y-87172219D01*
X162955778Y-87234874D01*
X162921223Y-87308974D01*
X162918071Y-87315484D01*
X162881372Y-87388558D01*
X162864841Y-87468617D01*
X162863275Y-87475679D01*
X162844417Y-87555254D01*
X162844730Y-87566020D01*
X162844730Y-87566022D01*
X162845419Y-87589689D01*
X162846795Y-87636993D01*
X162846900Y-87644234D01*
X162846900Y-98219586D01*
X162827946Y-98314874D01*
X162773970Y-98395656D01*
X162693188Y-98449632D01*
X162597900Y-98468586D01*
X162502612Y-98449632D01*
X162448679Y-98418920D01*
X162328090Y-98328648D01*
X162193373Y-98278401D01*
X162140465Y-98272713D01*
X162127157Y-98272000D01*
X161286001Y-98272000D01*
X161286000Y-98272001D01*
X161286000Y-99330316D01*
X161257181Y-99312791D01*
X161111596Y-99272000D01*
X160998378Y-99272000D01*
X160886217Y-99287416D01*
X160786000Y-99330946D01*
X160786000Y-98272000D01*
X159944843Y-98272000D01*
X159931534Y-98272713D01*
X159878626Y-98278401D01*
X159743909Y-98328647D01*
X159628810Y-98414810D01*
X159542647Y-98529909D01*
X159492401Y-98664626D01*
X159486713Y-98717534D01*
X159486000Y-98730843D01*
X159486000Y-99571998D01*
X159486001Y-99572000D01*
X160541148Y-99572000D01*
X160492441Y-99709047D01*
X160482123Y-99859886D01*
X160512884Y-100007915D01*
X160546090Y-100072000D01*
X159486001Y-100072000D01*
X159486000Y-100072001D01*
X159486000Y-100913156D01*
X159486713Y-100926465D01*
X159492401Y-100979373D01*
X159542647Y-101114090D01*
X159628810Y-101229189D01*
X159743909Y-101315352D01*
X159878626Y-101365598D01*
X159931534Y-101371286D01*
X159944843Y-101372000D01*
X160785999Y-101372000D01*
X160786000Y-101371999D01*
X160786000Y-100313683D01*
X160814819Y-100331209D01*
X160960404Y-100372000D01*
X161073622Y-100372000D01*
X161185783Y-100356584D01*
X161286000Y-100313053D01*
X161286000Y-101371999D01*
X161286001Y-101372000D01*
X162127157Y-101372000D01*
X162140465Y-101371286D01*
X162193373Y-101365598D01*
X162328088Y-101315352D01*
X162448678Y-101225079D01*
X162536319Y-101183148D01*
X162633334Y-101177947D01*
X162724956Y-101210268D01*
X162797234Y-101275191D01*
X162839165Y-101362832D01*
X162846900Y-101424413D01*
X162846900Y-103251486D01*
X162827946Y-103346774D01*
X162773970Y-103427556D01*
X162769126Y-103432399D01*
X162769123Y-103432402D01*
X162646664Y-103554861D01*
X162614399Y-103587126D01*
X162488899Y-103766358D01*
X162396423Y-103964674D01*
X162339793Y-104176017D01*
X162320723Y-104393999D01*
X162339793Y-104611981D01*
X162396423Y-104823325D01*
X162396424Y-104823328D01*
X162396425Y-104823330D01*
X162412070Y-104856880D01*
X162488899Y-105021642D01*
X162614399Y-105200874D01*
X162769125Y-105355600D01*
X162948357Y-105481100D01*
X162948360Y-105481101D01*
X162948361Y-105481102D01*
X163146670Y-105573575D01*
X163146674Y-105573576D01*
X163358018Y-105630206D01*
X163358019Y-105630206D01*
X163358023Y-105630207D01*
X163576000Y-105649277D01*
X163793977Y-105630207D01*
X163802871Y-105627824D01*
X163911174Y-105598804D01*
X164005330Y-105573575D01*
X164203639Y-105481102D01*
X164382877Y-105355598D01*
X164537598Y-105200877D01*
X164642031Y-105051730D01*
X164712210Y-104984548D01*
X164802759Y-104949335D01*
X164899891Y-104951454D01*
X164988818Y-104990582D01*
X165049967Y-105051731D01*
X165154397Y-105200872D01*
X165309125Y-105355600D01*
X165488357Y-105481100D01*
X165488360Y-105481101D01*
X165488361Y-105481102D01*
X165686670Y-105573575D01*
X165686674Y-105573576D01*
X165898018Y-105630206D01*
X165898019Y-105630206D01*
X165898023Y-105630207D01*
X166116000Y-105649277D01*
X166333977Y-105630207D01*
X166342871Y-105627824D01*
X166451174Y-105598804D01*
X166545330Y-105573575D01*
X166743639Y-105481102D01*
X166922877Y-105355598D01*
X167077598Y-105200877D01*
X167203102Y-105021639D01*
X167295575Y-104823330D01*
X167352207Y-104611977D01*
X167371277Y-104394000D01*
X167352207Y-104176023D01*
X167352206Y-104176020D01*
X167352206Y-104176017D01*
X167295576Y-103964674D01*
X167295575Y-103964670D01*
X167203102Y-103766362D01*
X167203101Y-103766361D01*
X167203100Y-103766358D01*
X167084186Y-103596532D01*
X167077598Y-103587123D01*
X166922877Y-103432402D01*
X166922873Y-103432399D01*
X166918030Y-103427556D01*
X166864054Y-103346774D01*
X166845100Y-103251486D01*
X166845100Y-101333122D01*
X166864054Y-101237834D01*
X166918030Y-101157052D01*
X166963998Y-101120815D01*
X167030179Y-101080259D01*
X167224288Y-100914475D01*
X167309055Y-100867003D01*
X167405537Y-100855584D01*
X167499044Y-100881956D01*
X167547712Y-100914475D01*
X167741818Y-101080257D01*
X167808002Y-101120815D01*
X167879345Y-101186764D01*
X167920019Y-101274995D01*
X167926899Y-101333122D01*
X167926899Y-104322748D01*
X167924271Y-104358830D01*
X167922246Y-104372652D01*
X167925993Y-104415474D01*
X167926520Y-104422697D01*
X167926900Y-104429223D01*
X167926900Y-104436461D01*
X167927739Y-104443644D01*
X167927741Y-104443669D01*
X167930179Y-104464529D01*
X167930914Y-104471724D01*
X167938039Y-104553165D01*
X167966007Y-104630006D01*
X167968375Y-104636818D01*
X167979938Y-104671713D01*
X167994100Y-104714452D01*
X168039021Y-104782752D01*
X168042909Y-104788855D01*
X168085840Y-104858454D01*
X168093219Y-104865416D01*
X168149524Y-104944593D01*
X168171243Y-105039289D01*
X168170401Y-105068235D01*
X168163816Y-105143511D01*
X168162723Y-105156000D01*
X168164992Y-105181937D01*
X168181793Y-105373981D01*
X168238423Y-105585325D01*
X168238424Y-105585328D01*
X168238425Y-105585330D01*
X168293776Y-105704030D01*
X168340105Y-105803383D01*
X168338818Y-105803982D01*
X168367255Y-105868611D01*
X168369372Y-105965743D01*
X168334158Y-106056291D01*
X168266973Y-106126471D01*
X168178045Y-106165599D01*
X168124156Y-106171500D01*
X137950370Y-106171500D01*
X137855082Y-106152546D01*
X137774300Y-106098570D01*
X137720324Y-106017788D01*
X137701370Y-105922500D01*
X137720324Y-105827212D01*
X137774300Y-105746430D01*
X137855082Y-105692454D01*
X137885924Y-105681985D01*
X138058466Y-105635752D01*
X138114496Y-105620739D01*
X138320734Y-105524568D01*
X138507139Y-105394047D01*
X138668047Y-105233139D01*
X138798568Y-105046734D01*
X138894739Y-104840496D01*
X138953635Y-104620692D01*
X138954398Y-104611981D01*
X138973468Y-104394000D01*
X138961515Y-104257376D01*
X138972091Y-104160799D01*
X139018822Y-104075620D01*
X139033486Y-104059615D01*
X142179945Y-100913156D01*
X143987000Y-100913156D01*
X143987713Y-100926465D01*
X143993401Y-100979373D01*
X144043647Y-101114090D01*
X144129810Y-101229189D01*
X144244909Y-101315352D01*
X144379626Y-101365598D01*
X144432534Y-101371286D01*
X144445843Y-101372000D01*
X145286999Y-101372000D01*
X145287000Y-101371999D01*
X145287000Y-100313683D01*
X145315819Y-100331209D01*
X145461404Y-100372000D01*
X145574622Y-100372000D01*
X145686783Y-100356584D01*
X145787000Y-100313053D01*
X145787000Y-101371999D01*
X145787001Y-101372000D01*
X146628157Y-101372000D01*
X146641465Y-101371286D01*
X146694373Y-101365598D01*
X146829088Y-101315352D01*
X146949678Y-101225079D01*
X147037319Y-101183148D01*
X147134334Y-101177947D01*
X147225956Y-101210268D01*
X147298234Y-101275191D01*
X147340165Y-101362832D01*
X147347900Y-101424413D01*
X147347900Y-103256486D01*
X147328946Y-103351774D01*
X147274972Y-103432552D01*
X147152664Y-103554861D01*
X147120399Y-103587126D01*
X146994899Y-103766358D01*
X146902423Y-103964674D01*
X146845793Y-104176017D01*
X146826723Y-104393999D01*
X146845793Y-104611981D01*
X146902423Y-104823325D01*
X146902424Y-104823328D01*
X146902425Y-104823330D01*
X146918070Y-104856880D01*
X146994899Y-105021642D01*
X147120399Y-105200874D01*
X147275125Y-105355600D01*
X147454357Y-105481100D01*
X147454360Y-105481101D01*
X147454361Y-105481102D01*
X147652670Y-105573575D01*
X147652674Y-105573576D01*
X147864018Y-105630206D01*
X147864019Y-105630206D01*
X147864023Y-105630207D01*
X148082000Y-105649277D01*
X148299977Y-105630207D01*
X148308871Y-105627824D01*
X148417174Y-105598804D01*
X148511330Y-105573575D01*
X148709639Y-105481102D01*
X148888877Y-105355598D01*
X149043598Y-105200877D01*
X149169102Y-105021639D01*
X149261575Y-104823330D01*
X149318207Y-104611977D01*
X149337277Y-104394000D01*
X149318207Y-104176023D01*
X149318206Y-104176020D01*
X149318206Y-104176017D01*
X149261576Y-103964674D01*
X149261575Y-103964670D01*
X149169102Y-103766362D01*
X149169101Y-103766361D01*
X149169100Y-103766358D01*
X149050186Y-103596532D01*
X149043598Y-103587123D01*
X148888877Y-103432402D01*
X148888873Y-103432399D01*
X148879030Y-103422556D01*
X148825054Y-103341774D01*
X148806100Y-103246486D01*
X148806100Y-101333122D01*
X148825054Y-101237834D01*
X148879030Y-101157052D01*
X148924998Y-101120815D01*
X148991179Y-101080259D01*
X149185288Y-100914475D01*
X149270055Y-100867003D01*
X149366537Y-100855584D01*
X149460044Y-100881956D01*
X149508712Y-100914475D01*
X149702818Y-101080257D01*
X149702820Y-101080258D01*
X149702821Y-101080259D01*
X149910911Y-101207777D01*
X150136388Y-101301172D01*
X150373698Y-101358146D01*
X150617000Y-101377294D01*
X150860302Y-101358146D01*
X151097612Y-101301172D01*
X151323089Y-101207777D01*
X151531179Y-101080259D01*
X151649302Y-100979373D01*
X151725288Y-100914475D01*
X151810055Y-100867003D01*
X151906537Y-100855584D01*
X152000044Y-100881956D01*
X152048712Y-100914475D01*
X152242818Y-101080257D01*
X152242820Y-101080258D01*
X152242821Y-101080259D01*
X152450911Y-101207777D01*
X152676388Y-101301172D01*
X152913698Y-101358146D01*
X153080660Y-101371286D01*
X153156999Y-101377294D01*
X153156999Y-101377293D01*
X153157000Y-101377294D01*
X153400302Y-101358146D01*
X153637612Y-101301172D01*
X153863089Y-101207777D01*
X154071179Y-101080259D01*
X154256759Y-100921759D01*
X154415259Y-100736179D01*
X154427000Y-100717019D01*
X154455815Y-100669998D01*
X154521763Y-100598655D01*
X154609994Y-100557980D01*
X154668122Y-100551100D01*
X155575486Y-100551100D01*
X155670774Y-100570054D01*
X155751556Y-100624030D01*
X155751556Y-100624031D01*
X155911122Y-100783598D01*
X156090357Y-100909100D01*
X156090360Y-100909101D01*
X156090361Y-100909102D01*
X156288670Y-101001575D01*
X156288674Y-101001576D01*
X156500018Y-101058206D01*
X156500019Y-101058206D01*
X156500023Y-101058207D01*
X156718000Y-101077277D01*
X156935977Y-101058207D01*
X157147330Y-101001575D01*
X157345639Y-100909102D01*
X157384408Y-100881956D01*
X157524874Y-100783600D01*
X157524873Y-100783600D01*
X157524877Y-100783598D01*
X157679598Y-100628877D01*
X157805102Y-100449639D01*
X157897575Y-100251330D01*
X157954207Y-100039977D01*
X157973277Y-99822000D01*
X157954207Y-99604023D01*
X157937548Y-99541853D01*
X157931194Y-99444912D01*
X157962422Y-99352912D01*
X158026480Y-99279867D01*
X158113612Y-99236896D01*
X158163330Y-99223575D01*
X158361639Y-99131102D01*
X158415125Y-99093651D01*
X158540874Y-99005600D01*
X158540873Y-99005600D01*
X158540877Y-99005598D01*
X158695598Y-98850877D01*
X158821102Y-98671639D01*
X158913575Y-98473330D01*
X158966538Y-98275669D01*
X158970206Y-98261981D01*
X158970206Y-98261980D01*
X158970207Y-98261977D01*
X158989277Y-98044000D01*
X158970207Y-97826023D01*
X158970206Y-97826020D01*
X158970206Y-97826017D01*
X158913576Y-97614674D01*
X158913575Y-97614670D01*
X158821102Y-97416362D01*
X158821101Y-97416361D01*
X158821100Y-97416358D01*
X158695598Y-97237123D01*
X158540877Y-97082401D01*
X158361642Y-96956899D01*
X158228495Y-96894812D01*
X158163330Y-96864425D01*
X158163328Y-96864424D01*
X158163325Y-96864423D01*
X157951981Y-96807793D01*
X157734000Y-96788723D01*
X157516017Y-96807793D01*
X157304674Y-96864423D01*
X157106358Y-96956899D01*
X156927126Y-97082399D01*
X156927123Y-97082401D01*
X156927123Y-97082402D01*
X156772402Y-97237123D01*
X156772399Y-97237126D01*
X156767556Y-97241970D01*
X156686774Y-97295946D01*
X156591486Y-97314900D01*
X152466256Y-97314900D01*
X152430168Y-97312271D01*
X152416352Y-97310247D01*
X152416350Y-97310247D01*
X152373509Y-97313995D01*
X152366304Y-97314520D01*
X152359777Y-97314900D01*
X152352539Y-97314900D01*
X152345353Y-97315739D01*
X152345333Y-97315741D01*
X152324474Y-97318179D01*
X152317278Y-97318914D01*
X152235830Y-97326040D01*
X152159010Y-97354000D01*
X152152176Y-97356376D01*
X152074547Y-97382100D01*
X152006244Y-97427023D01*
X152000143Y-97430910D01*
X151930544Y-97473840D01*
X151874437Y-97533308D01*
X151869395Y-97538500D01*
X151169972Y-98237923D01*
X151089190Y-98291899D01*
X150993902Y-98310853D01*
X150935774Y-98303973D01*
X150860300Y-98285853D01*
X150617000Y-98266705D01*
X150373701Y-98285853D01*
X150136384Y-98342829D01*
X149910914Y-98436221D01*
X149702822Y-98563740D01*
X149508712Y-98729525D01*
X149423944Y-98776996D01*
X149327463Y-98788415D01*
X149233956Y-98762043D01*
X149185288Y-98729525D01*
X149021807Y-98589900D01*
X148991179Y-98563741D01*
X148783089Y-98436223D01*
X148783086Y-98436222D01*
X148783085Y-98436221D01*
X148557615Y-98342829D01*
X148557613Y-98342828D01*
X148557612Y-98342828D01*
X148320302Y-98285854D01*
X148320298Y-98285853D01*
X148076999Y-98266705D01*
X147833701Y-98285853D01*
X147596384Y-98342829D01*
X147370908Y-98436223D01*
X147282830Y-98490197D01*
X147191680Y-98523824D01*
X147094600Y-98520009D01*
X147006370Y-98479333D01*
X146953396Y-98427110D01*
X146944188Y-98414810D01*
X146829090Y-98328647D01*
X146694373Y-98278401D01*
X146641465Y-98272713D01*
X146628157Y-98272000D01*
X145787001Y-98272000D01*
X145787000Y-98272001D01*
X145787000Y-99330316D01*
X145758181Y-99312791D01*
X145612596Y-99272000D01*
X145499378Y-99272000D01*
X145387217Y-99287416D01*
X145287000Y-99330946D01*
X145287000Y-98272000D01*
X144445843Y-98272000D01*
X144432534Y-98272713D01*
X144379626Y-98278401D01*
X144244909Y-98328647D01*
X144129810Y-98414810D01*
X144043647Y-98529909D01*
X143993401Y-98664626D01*
X143987713Y-98717534D01*
X143987000Y-98730843D01*
X143987000Y-99571999D01*
X143987001Y-99572000D01*
X145042148Y-99572000D01*
X144993441Y-99709047D01*
X144983123Y-99859886D01*
X145013884Y-100007915D01*
X145047090Y-100072000D01*
X143987000Y-100072000D01*
X143987000Y-100913156D01*
X142179945Y-100913156D01*
X142705175Y-100387926D01*
X142732546Y-100364274D01*
X142743745Y-100355938D01*
X142771425Y-100322948D01*
X142776125Y-100317511D01*
X142780438Y-100312663D01*
X142785576Y-100307527D01*
X142803072Y-100285399D01*
X142807652Y-100279775D01*
X142812618Y-100273857D01*
X142853301Y-100225374D01*
X142853301Y-100225372D01*
X142860224Y-100217123D01*
X142894777Y-100143021D01*
X142897902Y-100136563D01*
X142929794Y-100073064D01*
X142929795Y-100073056D01*
X142934626Y-100063439D01*
X142936802Y-100052899D01*
X142936804Y-100052896D01*
X142951165Y-99983343D01*
X142952728Y-99976297D01*
X142962527Y-99934953D01*
X142969100Y-99907220D01*
X142969100Y-99907218D01*
X142971582Y-99896746D01*
X142971268Y-99885983D01*
X142971270Y-99885978D01*
X142969205Y-99815019D01*
X142969100Y-99807777D01*
X142969100Y-90042514D01*
X142988054Y-89947226D01*
X143042030Y-89866444D01*
X143042031Y-89866444D01*
X143201598Y-89706877D01*
X143327100Y-89527642D01*
X143327100Y-89527641D01*
X143327102Y-89527639D01*
X143419575Y-89329330D01*
X143476207Y-89117977D01*
X143495277Y-88900000D01*
X143476207Y-88682023D01*
X143476206Y-88682020D01*
X143476206Y-88682017D01*
X143419576Y-88470674D01*
X143419575Y-88470670D01*
X143327102Y-88272362D01*
X143327101Y-88272361D01*
X143327100Y-88272358D01*
X143201598Y-88093123D01*
X143046877Y-87938401D01*
X142867642Y-87812899D01*
X142729966Y-87748700D01*
X142669330Y-87720425D01*
X142669328Y-87720424D01*
X142669325Y-87720423D01*
X142457981Y-87663793D01*
X142240000Y-87644723D01*
X142022017Y-87663793D01*
X141810674Y-87720423D01*
X141612358Y-87812899D01*
X141433126Y-87938399D01*
X141433123Y-87938401D01*
X141433123Y-87938402D01*
X141278402Y-88093123D01*
X141278399Y-88093126D01*
X141273556Y-88097970D01*
X141192774Y-88151946D01*
X141097486Y-88170900D01*
X133540718Y-88170900D01*
X133445430Y-88151946D01*
X133364648Y-88097970D01*
X133336748Y-88064719D01*
X133334048Y-88060863D01*
X133334047Y-88060861D01*
X133173139Y-87899953D01*
X132986734Y-87769432D01*
X132986730Y-87769430D01*
X132986727Y-87769428D01*
X132780500Y-87673263D01*
X132780496Y-87673261D01*
X132619043Y-87630000D01*
X132560686Y-87614363D01*
X132333999Y-87594531D01*
X132107313Y-87614363D01*
X131997405Y-87643812D01*
X131887504Y-87673261D01*
X131887500Y-87673262D01*
X131887499Y-87673263D01*
X131681272Y-87769428D01*
X131681266Y-87769431D01*
X131681266Y-87769432D01*
X131625699Y-87808340D01*
X131494861Y-87899953D01*
X131333950Y-88060864D01*
X131267664Y-88155532D01*
X131197483Y-88222716D01*
X131106934Y-88257929D01*
X131009802Y-88255810D01*
X130920875Y-88216681D01*
X130879267Y-88175073D01*
X130873026Y-88174527D01*
X130277076Y-88770476D01*
X130253493Y-88690156D01*
X130175761Y-88569202D01*
X130067100Y-88475048D01*
X129936315Y-88415320D01*
X129926531Y-88413913D01*
X130519472Y-87820973D01*
X130446485Y-87769867D01*
X130240319Y-87673731D01*
X130020609Y-87614859D01*
X129793999Y-87595034D01*
X129567390Y-87614859D01*
X129347677Y-87673732D01*
X129141518Y-87769864D01*
X129068527Y-87820972D01*
X129661468Y-88413913D01*
X129651685Y-88415320D01*
X129520900Y-88475048D01*
X129412239Y-88569202D01*
X129334507Y-88690156D01*
X129310922Y-88770477D01*
X128714971Y-88174526D01*
X128707771Y-88175156D01*
X128658093Y-88222714D01*
X128567545Y-88257928D01*
X128470413Y-88255809D01*
X128381485Y-88216681D01*
X128320334Y-88155530D01*
X128320030Y-88155096D01*
X128254047Y-88060861D01*
X128093139Y-87899953D01*
X127906734Y-87769432D01*
X127906730Y-87769430D01*
X127906727Y-87769428D01*
X127700500Y-87673263D01*
X127700496Y-87673261D01*
X127539043Y-87630000D01*
X127480686Y-87614363D01*
X127254004Y-87594532D01*
X127254001Y-87594532D01*
X127254000Y-87594532D01*
X127146112Y-87603971D01*
X127117376Y-87606485D01*
X127020798Y-87595907D01*
X126935620Y-87549176D01*
X126919605Y-87534502D01*
X125028211Y-85643108D01*
X123085332Y-83700228D01*
X123061675Y-83672852D01*
X123053339Y-83661656D01*
X123020417Y-83634031D01*
X123014936Y-83629295D01*
X123010049Y-83624946D01*
X123004927Y-83619824D01*
X122999242Y-83615329D01*
X122999231Y-83615319D01*
X122982769Y-83602302D01*
X122977158Y-83597732D01*
X122923025Y-83552310D01*
X122922774Y-83552099D01*
X122922772Y-83552098D01*
X122914525Y-83545178D01*
X122840454Y-83510638D01*
X122833937Y-83507483D01*
X122760839Y-83470772D01*
X122680790Y-83454243D01*
X122673723Y-83452677D01*
X122620219Y-83439997D01*
X122604620Y-83436300D01*
X122604619Y-83436300D01*
X122594142Y-83433817D01*
X122583378Y-83434130D01*
X122521857Y-83435920D01*
X122512405Y-83436195D01*
X122505164Y-83436300D01*
X83545856Y-83436300D01*
X83509768Y-83433671D01*
X83495952Y-83431647D01*
X83495950Y-83431647D01*
X83453109Y-83435395D01*
X83445904Y-83435920D01*
X83439377Y-83436300D01*
X83432139Y-83436300D01*
X83424953Y-83437139D01*
X83424933Y-83437141D01*
X83404074Y-83439579D01*
X83396878Y-83440314D01*
X83315430Y-83447440D01*
X83238610Y-83475400D01*
X83231776Y-83477776D01*
X83154147Y-83503500D01*
X83085844Y-83548423D01*
X83079743Y-83552310D01*
X83010144Y-83595240D01*
X82954037Y-83654708D01*
X82948995Y-83659900D01*
X77766829Y-88842066D01*
X77739461Y-88865718D01*
X77728252Y-88874063D01*
X77700625Y-88906987D01*
X77695903Y-88912452D01*
X77691528Y-88917368D01*
X77686424Y-88922473D01*
X77681946Y-88928135D01*
X77681930Y-88928154D01*
X77668909Y-88944621D01*
X77664349Y-88950219D01*
X77611778Y-89012874D01*
X77577223Y-89086974D01*
X77574071Y-89093484D01*
X77537372Y-89166558D01*
X77520841Y-89246617D01*
X77519275Y-89253679D01*
X77500417Y-89333254D01*
X77500730Y-89344020D01*
X77500730Y-89344022D01*
X77501913Y-89384680D01*
X77502795Y-89414993D01*
X77502900Y-89422234D01*
X77502900Y-92892744D01*
X77500271Y-92928832D01*
X77499058Y-92937116D01*
X77498247Y-92942650D01*
X77500610Y-92969664D01*
X77501994Y-92985474D01*
X77502520Y-92992696D01*
X77502900Y-92999223D01*
X77502900Y-93006461D01*
X77503739Y-93013644D01*
X77503741Y-93013669D01*
X77506179Y-93034529D01*
X77506914Y-93041724D01*
X77514039Y-93123165D01*
X77542007Y-93200006D01*
X77544375Y-93206818D01*
X77546792Y-93214111D01*
X77570100Y-93284452D01*
X77615021Y-93352752D01*
X77618909Y-93358855D01*
X77661840Y-93428455D01*
X77721290Y-93484543D01*
X77726486Y-93489589D01*
X84270067Y-100033170D01*
X84293725Y-100060547D01*
X84297265Y-100065302D01*
X84302063Y-100071746D01*
X84334980Y-100099367D01*
X84340453Y-100104097D01*
X84345365Y-100108468D01*
X84350473Y-100113576D01*
X84372638Y-100131101D01*
X84378196Y-100135629D01*
X84432626Y-100181301D01*
X84432628Y-100181302D01*
X84440875Y-100188222D01*
X84450632Y-100192772D01*
X84450634Y-100192773D01*
X84514966Y-100222771D01*
X84521475Y-100225922D01*
X84584936Y-100257794D01*
X84584937Y-100257794D01*
X84594558Y-100262626D01*
X84605102Y-100264803D01*
X84605104Y-100264804D01*
X84674654Y-100279165D01*
X84681658Y-100280717D01*
X84750780Y-100297100D01*
X84750784Y-100297100D01*
X84761256Y-100299582D01*
X84772017Y-100299269D01*
X84772022Y-100299270D01*
X84842979Y-100297205D01*
X84850222Y-100297100D01*
X86846501Y-100297100D01*
X86941789Y-100316054D01*
X87022571Y-100370030D01*
X87076547Y-100450812D01*
X87095501Y-100546100D01*
X87095501Y-100665872D01*
X87101909Y-100725483D01*
X87152204Y-100860331D01*
X87192736Y-100914475D01*
X87238453Y-100975546D01*
X87281578Y-101007828D01*
X87353669Y-101061796D01*
X87488517Y-101112091D01*
X87548127Y-101118500D01*
X87667901Y-101118499D01*
X87763186Y-101137452D01*
X87843968Y-101191428D01*
X87897945Y-101272209D01*
X87916900Y-101367497D01*
X87916900Y-104322744D01*
X87914271Y-104358832D01*
X87912247Y-104372647D01*
X87915994Y-104415474D01*
X87916520Y-104422696D01*
X87916900Y-104429223D01*
X87916900Y-104436461D01*
X87917739Y-104443644D01*
X87917741Y-104443669D01*
X87920179Y-104464529D01*
X87920914Y-104471724D01*
X87928039Y-104553165D01*
X87956007Y-104630006D01*
X87958375Y-104636818D01*
X87969938Y-104671713D01*
X87984100Y-104714452D01*
X88029021Y-104782752D01*
X88032909Y-104788855D01*
X88075840Y-104858455D01*
X88135290Y-104914543D01*
X88140486Y-104919589D01*
X88588067Y-105367170D01*
X88611727Y-105394549D01*
X88620063Y-105405746D01*
X88652980Y-105433367D01*
X88658453Y-105438097D01*
X88663365Y-105442468D01*
X88668473Y-105447576D01*
X88690638Y-105465101D01*
X88696196Y-105469629D01*
X88750626Y-105515301D01*
X88750628Y-105515302D01*
X88758875Y-105522222D01*
X88768632Y-105526772D01*
X88768634Y-105526773D01*
X88832966Y-105556771D01*
X88839475Y-105559922D01*
X88902936Y-105591794D01*
X88902937Y-105591794D01*
X88912558Y-105596626D01*
X88923102Y-105598803D01*
X88923104Y-105598804D01*
X88992654Y-105613165D01*
X88999658Y-105614717D01*
X89068780Y-105631100D01*
X89068784Y-105631100D01*
X89079256Y-105633582D01*
X89090017Y-105633269D01*
X89090022Y-105633270D01*
X89160979Y-105631205D01*
X89168222Y-105631100D01*
X105727282Y-105631100D01*
X105822570Y-105650054D01*
X105903352Y-105704030D01*
X105931249Y-105737278D01*
X105933953Y-105741139D01*
X105939247Y-105746433D01*
X105993221Y-105827212D01*
X106012175Y-105922500D01*
X105993221Y-106017788D01*
X105939245Y-106098570D01*
X105858463Y-106152546D01*
X105763175Y-106171500D01*
X69337500Y-106171500D01*
X69242212Y-106152546D01*
X69161430Y-106098570D01*
X69107454Y-106017788D01*
X69088500Y-105922500D01*
X69088500Y-72058902D01*
X73541794Y-72058902D01*
X73551673Y-72366978D01*
X73552946Y-72374853D01*
X73552947Y-72374861D01*
X73599592Y-72663380D01*
X73599594Y-72663392D01*
X73600867Y-72671261D01*
X73603134Y-72678900D01*
X73603137Y-72678912D01*
X73679186Y-72935142D01*
X73688569Y-72966756D01*
X73736680Y-73075440D01*
X73803877Y-73227240D01*
X73813337Y-73248609D01*
X73817465Y-73255419D01*
X73817470Y-73255428D01*
X73968985Y-73505368D01*
X73968989Y-73505375D01*
X73973123Y-73512193D01*
X73978096Y-73518429D01*
X73978101Y-73518436D01*
X74143229Y-73725500D01*
X74165304Y-73753181D01*
X74386724Y-73967614D01*
X74633747Y-74151972D01*
X74902318Y-74303228D01*
X75188025Y-74418899D01*
X75486179Y-74497084D01*
X75791883Y-74536500D01*
X75799874Y-74536500D01*
X76018975Y-74536500D01*
X76022974Y-74536500D01*
X76253601Y-74521693D01*
X76556151Y-74462772D01*
X76848683Y-74365644D01*
X77126393Y-74231907D01*
X77384720Y-74063754D01*
X77619424Y-73863948D01*
X77826650Y-73635769D01*
X78002996Y-73382963D01*
X78145567Y-73109683D01*
X78252020Y-72820415D01*
X78320609Y-72519908D01*
X78350206Y-72213098D01*
X78340327Y-71905022D01*
X78291133Y-71600739D01*
X78203431Y-71305244D01*
X78078663Y-71023391D01*
X77994357Y-70884320D01*
X77923014Y-70766631D01*
X77923012Y-70766628D01*
X77918877Y-70759807D01*
X77836792Y-70656876D01*
X77731673Y-70525060D01*
X77726696Y-70518819D01*
X77505276Y-70304386D01*
X77258253Y-70120028D01*
X77094661Y-70027895D01*
X76996641Y-69972691D01*
X76996638Y-69972689D01*
X76989682Y-69968772D01*
X76932188Y-69945495D01*
X76711384Y-69856100D01*
X76711375Y-69856097D01*
X76703975Y-69853101D01*
X76696244Y-69851073D01*
X76696239Y-69851072D01*
X76413543Y-69776941D01*
X76405821Y-69774916D01*
X76397916Y-69773896D01*
X76397907Y-69773895D01*
X76108040Y-69736521D01*
X76108031Y-69736520D01*
X76100117Y-69735500D01*
X75869026Y-69735500D01*
X75865048Y-69735755D01*
X75865029Y-69735756D01*
X75646376Y-69749794D01*
X75646362Y-69749795D01*
X75638399Y-69750307D01*
X75630554Y-69751834D01*
X75630552Y-69751835D01*
X75343683Y-69807702D01*
X75343677Y-69807703D01*
X75335849Y-69809228D01*
X75328292Y-69811736D01*
X75328277Y-69811741D01*
X75050894Y-69903840D01*
X75050890Y-69903841D01*
X75043317Y-69906356D01*
X75036136Y-69909814D01*
X75036124Y-69909819D01*
X74772806Y-70036625D01*
X74772791Y-70036633D01*
X74765607Y-70040093D01*
X74758923Y-70044443D01*
X74758912Y-70044450D01*
X74513973Y-70203889D01*
X74507280Y-70208246D01*
X74501199Y-70213422D01*
X74501196Y-70213425D01*
X74278655Y-70402876D01*
X74278647Y-70402883D01*
X74272576Y-70408052D01*
X74267220Y-70413948D01*
X74267206Y-70413963D01*
X74070717Y-70630320D01*
X74070708Y-70630330D01*
X74065350Y-70636231D01*
X74060789Y-70642768D01*
X74060783Y-70642777D01*
X73893572Y-70882487D01*
X73893565Y-70882497D01*
X73889004Y-70889037D01*
X73885319Y-70896098D01*
X73885310Y-70896115D01*
X73750937Y-71153683D01*
X73746433Y-71162317D01*
X73743682Y-71169789D01*
X73743678Y-71169801D01*
X73642893Y-71443669D01*
X73639980Y-71451585D01*
X73638205Y-71459359D01*
X73638203Y-71459368D01*
X73573168Y-71744304D01*
X73573166Y-71744312D01*
X73571391Y-71752092D01*
X73570624Y-71760035D01*
X73570623Y-71760046D01*
X73542561Y-72050947D01*
X73541794Y-72058902D01*
X69088500Y-72058902D01*
X69088500Y-64511500D01*
X69107454Y-64416212D01*
X69161430Y-64335430D01*
X69242212Y-64281454D01*
X69337500Y-64262500D01*
X209808500Y-64262500D01*
X209903788Y-64281454D01*
G37*
G04 #@! TD.AperFunction*
G04 #@! TA.AperFunction,Conductor*
G36*
X100518674Y-84913454D02*
G01*
X100599456Y-84967430D01*
X100653432Y-85048212D01*
X100672386Y-85143500D01*
X100663901Y-85207947D01*
X100617793Y-85380019D01*
X100598723Y-85598000D01*
X100617793Y-85815981D01*
X100674423Y-86027325D01*
X100674424Y-86027328D01*
X100674425Y-86027330D01*
X100715295Y-86114977D01*
X100766899Y-86225642D01*
X100892399Y-86404874D01*
X101047125Y-86559600D01*
X101226357Y-86685100D01*
X101226360Y-86685101D01*
X101226361Y-86685102D01*
X101424670Y-86777575D01*
X101424674Y-86777576D01*
X101636018Y-86834206D01*
X101636019Y-86834206D01*
X101636023Y-86834207D01*
X101854000Y-86853277D01*
X102071977Y-86834207D01*
X102283330Y-86777575D01*
X102481639Y-86685102D01*
X102596847Y-86604432D01*
X102685767Y-86565306D01*
X102782899Y-86563185D01*
X102873449Y-86598397D01*
X102915733Y-86632333D01*
X103714686Y-87431286D01*
X103768662Y-87512068D01*
X103787616Y-87607356D01*
X103768662Y-87702644D01*
X103714686Y-87783426D01*
X103681442Y-87811320D01*
X103558521Y-87897390D01*
X103554861Y-87899953D01*
X103393950Y-88060864D01*
X103327969Y-88155096D01*
X103257788Y-88222280D01*
X103167239Y-88257493D01*
X103070107Y-88255374D01*
X102981180Y-88216245D01*
X102920031Y-88155096D01*
X102854049Y-88060864D01*
X102854048Y-88060863D01*
X102854047Y-88060861D01*
X102693139Y-87899953D01*
X102506734Y-87769432D01*
X102506730Y-87769430D01*
X102506727Y-87769428D01*
X102300500Y-87673263D01*
X102300496Y-87673261D01*
X102139043Y-87630000D01*
X102080686Y-87614363D01*
X101853999Y-87594531D01*
X101627313Y-87614363D01*
X101517405Y-87643812D01*
X101407504Y-87673261D01*
X101407500Y-87673262D01*
X101407499Y-87673263D01*
X101201272Y-87769428D01*
X101201266Y-87769431D01*
X101201266Y-87769432D01*
X101145699Y-87808340D01*
X101014861Y-87899953D01*
X100853950Y-88060864D01*
X100787969Y-88155096D01*
X100717788Y-88222280D01*
X100627239Y-88257493D01*
X100530107Y-88255374D01*
X100441180Y-88216245D01*
X100380031Y-88155096D01*
X100314049Y-88060864D01*
X100314048Y-88060863D01*
X100314047Y-88060861D01*
X100153139Y-87899953D01*
X99966734Y-87769432D01*
X99966730Y-87769430D01*
X99966727Y-87769428D01*
X99760500Y-87673263D01*
X99760496Y-87673261D01*
X99599043Y-87630000D01*
X99540686Y-87614363D01*
X99314000Y-87594531D01*
X99087313Y-87614363D01*
X98977405Y-87643812D01*
X98867504Y-87673261D01*
X98867500Y-87673262D01*
X98867499Y-87673263D01*
X98661272Y-87769428D01*
X98661266Y-87769431D01*
X98661266Y-87769432D01*
X98605699Y-87808340D01*
X98474861Y-87899953D01*
X98313950Y-88060864D01*
X98247969Y-88155096D01*
X98177788Y-88222280D01*
X98087239Y-88257493D01*
X97990107Y-88255374D01*
X97901180Y-88216245D01*
X97840031Y-88155096D01*
X97774049Y-88060864D01*
X97774048Y-88060863D01*
X97774047Y-88060861D01*
X97613139Y-87899953D01*
X97426734Y-87769432D01*
X97426730Y-87769430D01*
X97426727Y-87769428D01*
X97220500Y-87673263D01*
X97220496Y-87673261D01*
X97059043Y-87630000D01*
X97000686Y-87614363D01*
X96774000Y-87594531D01*
X96547313Y-87614363D01*
X96437405Y-87643812D01*
X96327504Y-87673261D01*
X96327500Y-87673262D01*
X96327499Y-87673263D01*
X96121272Y-87769428D01*
X96121266Y-87769431D01*
X96121266Y-87769432D01*
X96065699Y-87808340D01*
X95934861Y-87899953D01*
X95773950Y-88060864D01*
X95707969Y-88155096D01*
X95637788Y-88222280D01*
X95547239Y-88257493D01*
X95450107Y-88255374D01*
X95361180Y-88216245D01*
X95300031Y-88155096D01*
X95234049Y-88060864D01*
X95234048Y-88060863D01*
X95234047Y-88060861D01*
X95073139Y-87899953D01*
X94886734Y-87769432D01*
X94886730Y-87769430D01*
X94886727Y-87769428D01*
X94680500Y-87673263D01*
X94680496Y-87673261D01*
X94519043Y-87630000D01*
X94460686Y-87614363D01*
X94234000Y-87594531D01*
X94007313Y-87614363D01*
X93897405Y-87643812D01*
X93787504Y-87673261D01*
X93787500Y-87673262D01*
X93787499Y-87673263D01*
X93581272Y-87769428D01*
X93581266Y-87769431D01*
X93581266Y-87769432D01*
X93525699Y-87808340D01*
X93394861Y-87899953D01*
X93233950Y-88060864D01*
X93167969Y-88155096D01*
X93097788Y-88222280D01*
X93007239Y-88257493D01*
X92910107Y-88255374D01*
X92821180Y-88216245D01*
X92760031Y-88155096D01*
X92694049Y-88060864D01*
X92694048Y-88060863D01*
X92694047Y-88060861D01*
X92533139Y-87899953D01*
X92346734Y-87769432D01*
X92346730Y-87769430D01*
X92346727Y-87769428D01*
X92140500Y-87673263D01*
X92140496Y-87673261D01*
X91979043Y-87630000D01*
X91920686Y-87614363D01*
X91693999Y-87594531D01*
X91467313Y-87614363D01*
X91357405Y-87643812D01*
X91247504Y-87673261D01*
X91247500Y-87673262D01*
X91247499Y-87673263D01*
X91041272Y-87769428D01*
X91041266Y-87769431D01*
X91041266Y-87769432D01*
X90985699Y-87808340D01*
X90854861Y-87899953D01*
X90693950Y-88060864D01*
X90627969Y-88155096D01*
X90557788Y-88222280D01*
X90467239Y-88257493D01*
X90370107Y-88255374D01*
X90281180Y-88216245D01*
X90220031Y-88155096D01*
X90154049Y-88060864D01*
X90154048Y-88060863D01*
X90154047Y-88060861D01*
X89993139Y-87899953D01*
X89806734Y-87769432D01*
X89806730Y-87769430D01*
X89806727Y-87769428D01*
X89600500Y-87673263D01*
X89600496Y-87673261D01*
X89439043Y-87630000D01*
X89380686Y-87614363D01*
X89153999Y-87594531D01*
X88927313Y-87614363D01*
X88817405Y-87643812D01*
X88707504Y-87673261D01*
X88707500Y-87673262D01*
X88707499Y-87673263D01*
X88501272Y-87769428D01*
X88501266Y-87769431D01*
X88501266Y-87769432D01*
X88445699Y-87808340D01*
X88314861Y-87899953D01*
X88153950Y-88060864D01*
X88087969Y-88155096D01*
X88017788Y-88222280D01*
X87927239Y-88257493D01*
X87830107Y-88255374D01*
X87741180Y-88216245D01*
X87680031Y-88155096D01*
X87614049Y-88060864D01*
X87614048Y-88060863D01*
X87614047Y-88060861D01*
X87453139Y-87899953D01*
X87266734Y-87769432D01*
X87266730Y-87769430D01*
X87266727Y-87769428D01*
X87060500Y-87673263D01*
X87060496Y-87673261D01*
X86899043Y-87630000D01*
X86840686Y-87614363D01*
X86614000Y-87594531D01*
X86387313Y-87614363D01*
X86277405Y-87643812D01*
X86167504Y-87673261D01*
X86167500Y-87673262D01*
X86167499Y-87673263D01*
X85961272Y-87769428D01*
X85961266Y-87769431D01*
X85961266Y-87769432D01*
X85774861Y-87899953D01*
X85774858Y-87899955D01*
X85757016Y-87912449D01*
X85756338Y-87911481D01*
X85696626Y-87951377D01*
X85601337Y-87970327D01*
X85506050Y-87951369D01*
X85425271Y-87897390D01*
X85371297Y-87816606D01*
X85368069Y-87808401D01*
X85367796Y-87807669D01*
X85302484Y-87720423D01*
X85281546Y-87692453D01*
X85217132Y-87644234D01*
X85166331Y-87606204D01*
X85031483Y-87555909D01*
X85031482Y-87555908D01*
X85031480Y-87555908D01*
X84978509Y-87550213D01*
X84978500Y-87550212D01*
X84971873Y-87549500D01*
X84965202Y-87549500D01*
X83182788Y-87549500D01*
X83182769Y-87549500D01*
X83176128Y-87549501D01*
X83169517Y-87550211D01*
X83169510Y-87550212D01*
X83122610Y-87555254D01*
X83116517Y-87555909D01*
X82981669Y-87606204D01*
X82970492Y-87614571D01*
X82866453Y-87692453D01*
X82806291Y-87772821D01*
X82780204Y-87807669D01*
X82746740Y-87897390D01*
X82729908Y-87942519D01*
X82724213Y-87995490D01*
X82724212Y-87995500D01*
X82723500Y-88002127D01*
X82723500Y-88008796D01*
X82723500Y-88008797D01*
X82723500Y-89791211D01*
X82723500Y-89791229D01*
X82723501Y-89797872D01*
X82724211Y-89804483D01*
X82724212Y-89804489D01*
X82726936Y-89829831D01*
X82729909Y-89857483D01*
X82780204Y-89992331D01*
X82817771Y-90042514D01*
X82866453Y-90107546D01*
X82895023Y-90128933D01*
X82981669Y-90193796D01*
X83116517Y-90244091D01*
X83176127Y-90250500D01*
X84971872Y-90250499D01*
X85031483Y-90244091D01*
X85166331Y-90193796D01*
X85281546Y-90107546D01*
X85367796Y-89992331D01*
X85368047Y-89991655D01*
X85419101Y-89909004D01*
X85497903Y-89852176D01*
X85592453Y-89829831D01*
X85688357Y-89845369D01*
X85756904Y-89887710D01*
X85757016Y-89887551D01*
X85759778Y-89889485D01*
X85771015Y-89896426D01*
X85774520Y-89899807D01*
X85774856Y-89900042D01*
X85774861Y-89900047D01*
X85961266Y-90030568D01*
X86167504Y-90126739D01*
X86387308Y-90185635D01*
X86387309Y-90185635D01*
X86387313Y-90185636D01*
X86614000Y-90205468D01*
X86840686Y-90185636D01*
X86840688Y-90185635D01*
X86840692Y-90185635D01*
X87060496Y-90126739D01*
X87266734Y-90030568D01*
X87453139Y-89900047D01*
X87614047Y-89739139D01*
X87680031Y-89644902D01*
X87750211Y-89577719D01*
X87840760Y-89542506D01*
X87937892Y-89544625D01*
X88026819Y-89583753D01*
X88087968Y-89644902D01*
X88153953Y-89739139D01*
X88314861Y-89900047D01*
X88501266Y-90030568D01*
X88707504Y-90126739D01*
X88927308Y-90185635D01*
X88927309Y-90185635D01*
X88927313Y-90185636D01*
X89153999Y-90205468D01*
X89153999Y-90205467D01*
X89154000Y-90205468D01*
X89195548Y-90201833D01*
X89380686Y-90185636D01*
X89380688Y-90185635D01*
X89380692Y-90185635D01*
X89600496Y-90126739D01*
X89806734Y-90030568D01*
X89993139Y-89900047D01*
X90154047Y-89739139D01*
X90220031Y-89644902D01*
X90290211Y-89577719D01*
X90380760Y-89542506D01*
X90477892Y-89544625D01*
X90566819Y-89583753D01*
X90627968Y-89644902D01*
X90693953Y-89739139D01*
X90854861Y-89900047D01*
X91041266Y-90030568D01*
X91247504Y-90126739D01*
X91467308Y-90185635D01*
X91467309Y-90185635D01*
X91467313Y-90185636D01*
X91694000Y-90205468D01*
X91920686Y-90185636D01*
X91920688Y-90185635D01*
X91920692Y-90185635D01*
X92140496Y-90126739D01*
X92346734Y-90030568D01*
X92533139Y-89900047D01*
X92694047Y-89739139D01*
X92760033Y-89644899D01*
X92830209Y-89577720D01*
X92920758Y-89542506D01*
X93017890Y-89544625D01*
X93106817Y-89583752D01*
X93167968Y-89644902D01*
X93175426Y-89655553D01*
X93233953Y-89739139D01*
X93394861Y-89900047D01*
X93581266Y-90030568D01*
X93787504Y-90126739D01*
X94007308Y-90185635D01*
X94007309Y-90185635D01*
X94007313Y-90185636D01*
X94234000Y-90205468D01*
X94460686Y-90185636D01*
X94460688Y-90185635D01*
X94460692Y-90185635D01*
X94680496Y-90126739D01*
X94886734Y-90030568D01*
X95073139Y-89900047D01*
X95234047Y-89739139D01*
X95300031Y-89644902D01*
X95370211Y-89577719D01*
X95460760Y-89542506D01*
X95557892Y-89544625D01*
X95646819Y-89583753D01*
X95707968Y-89644902D01*
X95773953Y-89739139D01*
X95934861Y-89900047D01*
X96121266Y-90030568D01*
X96327504Y-90126739D01*
X96547308Y-90185635D01*
X96547309Y-90185635D01*
X96547313Y-90185636D01*
X96773999Y-90205468D01*
X96773999Y-90205467D01*
X96774000Y-90205468D01*
X96910622Y-90193515D01*
X97007199Y-90204091D01*
X97092378Y-90250821D01*
X97108394Y-90265497D01*
X98257970Y-91415072D01*
X98311946Y-91495854D01*
X98330900Y-91591142D01*
X98330900Y-97768500D01*
X98311946Y-97863788D01*
X98257970Y-97944570D01*
X98177188Y-97998546D01*
X98081902Y-98017500D01*
X97968789Y-98017500D01*
X97968770Y-98017500D01*
X97962128Y-98017501D01*
X97955518Y-98018211D01*
X97955509Y-98018212D01*
X97902526Y-98023908D01*
X97902517Y-98023909D01*
X97767669Y-98074204D01*
X97767667Y-98074205D01*
X97767668Y-98074205D01*
X97652453Y-98160453D01*
X97583514Y-98252546D01*
X97566204Y-98275669D01*
X97531393Y-98369003D01*
X97515908Y-98410519D01*
X97510213Y-98463490D01*
X97510212Y-98463500D01*
X97509500Y-98470127D01*
X97509500Y-98476796D01*
X97509500Y-98476797D01*
X97509500Y-100659211D01*
X97509500Y-100659229D01*
X97509501Y-100665872D01*
X97515909Y-100725483D01*
X97566204Y-100860331D01*
X97606736Y-100914475D01*
X97652453Y-100975546D01*
X97695577Y-101007828D01*
X97767669Y-101061796D01*
X97902517Y-101112091D01*
X97962127Y-101118500D01*
X100157872Y-101118499D01*
X100217483Y-101112091D01*
X100352331Y-101061796D01*
X100467546Y-100975546D01*
X100477124Y-100962750D01*
X100549400Y-100897828D01*
X100641020Y-100865505D01*
X100738036Y-100870704D01*
X100806562Y-100899663D01*
X100894142Y-100953333D01*
X101119539Y-101046694D01*
X101356780Y-101103651D01*
X101600000Y-101122793D01*
X101843219Y-101103651D01*
X102080460Y-101046694D01*
X102305857Y-100953332D01*
X102507941Y-100829495D01*
X101771567Y-100093121D01*
X101888458Y-100042349D01*
X102005739Y-99946934D01*
X102092928Y-99823415D01*
X102123355Y-99737801D01*
X102861495Y-100475941D01*
X102985332Y-100273857D01*
X103078694Y-100048460D01*
X103135651Y-99811219D01*
X103154793Y-99568000D01*
X103135651Y-99324780D01*
X103078694Y-99087539D01*
X102985331Y-98862138D01*
X102861495Y-98660057D01*
X102125929Y-99395622D01*
X102123116Y-99382085D01*
X102053558Y-99247844D01*
X101950362Y-99137348D01*
X101821181Y-99058791D01*
X101769997Y-99044450D01*
X102507942Y-98306505D01*
X102507941Y-98306504D01*
X102305856Y-98182666D01*
X102080460Y-98089305D01*
X101843219Y-98032348D01*
X101600000Y-98013206D01*
X101356780Y-98032348D01*
X101119539Y-98089305D01*
X100894143Y-98182666D01*
X100806561Y-98236337D01*
X100715411Y-98269963D01*
X100618331Y-98266149D01*
X100530100Y-98225474D01*
X100477125Y-98173250D01*
X100467545Y-98160453D01*
X100444399Y-98143126D01*
X100352331Y-98074204D01*
X100217483Y-98023909D01*
X100217482Y-98023908D01*
X100217480Y-98023908D01*
X100164509Y-98018213D01*
X100164500Y-98018212D01*
X100157873Y-98017500D01*
X100151202Y-98017500D01*
X100038100Y-98017500D01*
X99942812Y-97998546D01*
X99862030Y-97944570D01*
X99808054Y-97863788D01*
X99789100Y-97768500D01*
X99789100Y-91257255D01*
X99791729Y-91221166D01*
X99792485Y-91216005D01*
X99793753Y-91207350D01*
X99790004Y-91164509D01*
X99789479Y-91157298D01*
X99789100Y-91150790D01*
X99789100Y-91143539D01*
X99788258Y-91136340D01*
X99788258Y-91136332D01*
X99785824Y-91115515D01*
X99785086Y-91108298D01*
X99781668Y-91069227D01*
X99778898Y-91037559D01*
X99778897Y-91037557D01*
X99777959Y-91026831D01*
X99754627Y-90962730D01*
X99749995Y-90950004D01*
X99747619Y-90943168D01*
X99725287Y-90875771D01*
X99725285Y-90875769D01*
X99721899Y-90865548D01*
X99676974Y-90797243D01*
X99673082Y-90791134D01*
X99635811Y-90730708D01*
X99635809Y-90730706D01*
X99630156Y-90721541D01*
X99570708Y-90665455D01*
X99565511Y-90660408D01*
X99490786Y-90585683D01*
X99436810Y-90504901D01*
X99417856Y-90409613D01*
X99436810Y-90314325D01*
X99490786Y-90233543D01*
X99571568Y-90179567D01*
X99602398Y-90169100D01*
X99760496Y-90126739D01*
X99966734Y-90030568D01*
X100153139Y-89900047D01*
X100314047Y-89739139D01*
X100380031Y-89644902D01*
X100450211Y-89577719D01*
X100540760Y-89542506D01*
X100637892Y-89544625D01*
X100726819Y-89583753D01*
X100787968Y-89644902D01*
X100853953Y-89739139D01*
X101014861Y-89900047D01*
X101201266Y-90030568D01*
X101407504Y-90126739D01*
X101627308Y-90185635D01*
X101627309Y-90185635D01*
X101627313Y-90185636D01*
X101853999Y-90205468D01*
X101853999Y-90205467D01*
X101854000Y-90205468D01*
X101895548Y-90201833D01*
X102080686Y-90185636D01*
X102080688Y-90185635D01*
X102080692Y-90185635D01*
X102300496Y-90126739D01*
X102506734Y-90030568D01*
X102693139Y-89900047D01*
X102854047Y-89739139D01*
X102920033Y-89644899D01*
X102990209Y-89577720D01*
X103080758Y-89542506D01*
X103177890Y-89544625D01*
X103266817Y-89583752D01*
X103327968Y-89644902D01*
X103335426Y-89655553D01*
X103393953Y-89739139D01*
X103554861Y-89900047D01*
X103741266Y-90030568D01*
X103947504Y-90126739D01*
X104167308Y-90185635D01*
X104167309Y-90185635D01*
X104167313Y-90185636D01*
X104394000Y-90205468D01*
X104620692Y-90185635D01*
X104663055Y-90174283D01*
X104759999Y-90167929D01*
X104851998Y-90199157D01*
X104925043Y-90263215D01*
X104968015Y-90350351D01*
X104976500Y-90414799D01*
X104976500Y-93442254D01*
X104973871Y-93478340D01*
X104971847Y-93492152D01*
X104975592Y-93534945D01*
X104976119Y-93542173D01*
X104976500Y-93548717D01*
X104976500Y-93555961D01*
X104977340Y-93563152D01*
X104977341Y-93563162D01*
X104979781Y-93584041D01*
X104980516Y-93591236D01*
X104987639Y-93672648D01*
X105015594Y-93749456D01*
X105017970Y-93756293D01*
X105043686Y-93833901D01*
X105088598Y-93902186D01*
X105092487Y-93908290D01*
X105128117Y-93966054D01*
X105135419Y-93977891D01*
X105143250Y-93985279D01*
X105143252Y-93985282D01*
X105180083Y-94020030D01*
X105194875Y-94033986D01*
X105200069Y-94039031D01*
X105568513Y-94407475D01*
X105622489Y-94488257D01*
X105641443Y-94583545D01*
X105640496Y-94605245D01*
X105628532Y-94742000D01*
X105648363Y-94968686D01*
X105648365Y-94968692D01*
X105707261Y-95188496D01*
X105707263Y-95188500D01*
X105803428Y-95394727D01*
X105803430Y-95394730D01*
X105803432Y-95394734D01*
X105933953Y-95581139D01*
X106094861Y-95742047D01*
X106281266Y-95872568D01*
X106487504Y-95968739D01*
X106707308Y-96027635D01*
X106707309Y-96027635D01*
X106707313Y-96027636D01*
X106933998Y-96047468D01*
X106933998Y-96047467D01*
X106934000Y-96047468D01*
X107070755Y-96035503D01*
X107167328Y-96046079D01*
X107252507Y-96092809D01*
X107268524Y-96107485D01*
X110898570Y-99737531D01*
X110952546Y-99818313D01*
X110971500Y-99913601D01*
X110971500Y-100913211D01*
X110971500Y-100913229D01*
X110971501Y-100919872D01*
X110977909Y-100979483D01*
X111028204Y-101114331D01*
X111057648Y-101153663D01*
X111114453Y-101229546D01*
X111125525Y-101237834D01*
X111229669Y-101315796D01*
X111364517Y-101366091D01*
X111424127Y-101372500D01*
X113619872Y-101372499D01*
X113679483Y-101366091D01*
X113814331Y-101315796D01*
X113929546Y-101229546D01*
X113939124Y-101216750D01*
X114011400Y-101151828D01*
X114103020Y-101119505D01*
X114200036Y-101124704D01*
X114268562Y-101153663D01*
X114356142Y-101207333D01*
X114581539Y-101300694D01*
X114818780Y-101357651D01*
X115061999Y-101376793D01*
X115305219Y-101357651D01*
X115542460Y-101300694D01*
X115767857Y-101207332D01*
X115969941Y-101083495D01*
X115233567Y-100347121D01*
X115350458Y-100296349D01*
X115467739Y-100200934D01*
X115554928Y-100077415D01*
X115585355Y-99991801D01*
X116323495Y-100729941D01*
X116447332Y-100527857D01*
X116540694Y-100302460D01*
X116597651Y-100065219D01*
X116616793Y-99821999D01*
X116597651Y-99578780D01*
X116540694Y-99341539D01*
X116447331Y-99116138D01*
X116323495Y-98914057D01*
X115587929Y-99649622D01*
X115585116Y-99636085D01*
X115515558Y-99501844D01*
X115412362Y-99391348D01*
X115283181Y-99312791D01*
X115231997Y-99298450D01*
X115969942Y-98560505D01*
X115969941Y-98560504D01*
X115767856Y-98436666D01*
X115542460Y-98343305D01*
X115305219Y-98286348D01*
X115061999Y-98267206D01*
X114818780Y-98286348D01*
X114581539Y-98343305D01*
X114356143Y-98436666D01*
X114268561Y-98490337D01*
X114177411Y-98523963D01*
X114080331Y-98520149D01*
X113992100Y-98479474D01*
X113939125Y-98427250D01*
X113932889Y-98418920D01*
X113929546Y-98414454D01*
X113918473Y-98406165D01*
X113868831Y-98369003D01*
X113814331Y-98328204D01*
X113679483Y-98277909D01*
X113679482Y-98277908D01*
X113679480Y-98277908D01*
X113626509Y-98272213D01*
X113626500Y-98272212D01*
X113619873Y-98271500D01*
X113613202Y-98271500D01*
X111597602Y-98271500D01*
X111502314Y-98252546D01*
X111421532Y-98198570D01*
X109889730Y-96666768D01*
X108299484Y-95076523D01*
X108245509Y-94995742D01*
X108226555Y-94900454D01*
X108227502Y-94878769D01*
X108239468Y-94742000D01*
X108239468Y-94741998D01*
X108219636Y-94515313D01*
X108219635Y-94515308D01*
X108160739Y-94295504D01*
X108064568Y-94089266D01*
X107934047Y-93902861D01*
X107773139Y-93741953D01*
X107586734Y-93611432D01*
X107586730Y-93611430D01*
X107586727Y-93611428D01*
X107380500Y-93515263D01*
X107380496Y-93515261D01*
X107225990Y-93473861D01*
X107160686Y-93456363D01*
X106934003Y-93436532D01*
X106934001Y-93436532D01*
X106934000Y-93436532D01*
X106892939Y-93440124D01*
X106797244Y-93448496D01*
X106700667Y-93437918D01*
X106615489Y-93391187D01*
X106599474Y-93376513D01*
X106575713Y-93352752D01*
X106507428Y-93284466D01*
X106453454Y-93203687D01*
X106434500Y-93108399D01*
X106434500Y-90433503D01*
X106453454Y-90338215D01*
X106507430Y-90257433D01*
X106588212Y-90203457D01*
X106683500Y-90184503D01*
X106705202Y-90185451D01*
X106934000Y-90205468D01*
X107160686Y-90185636D01*
X107160688Y-90185635D01*
X107160692Y-90185635D01*
X107380496Y-90126739D01*
X107586734Y-90030568D01*
X107773139Y-89900047D01*
X107934047Y-89739139D01*
X108000031Y-89644902D01*
X108070211Y-89577719D01*
X108160760Y-89542506D01*
X108257892Y-89544625D01*
X108346819Y-89583753D01*
X108407968Y-89644902D01*
X108473953Y-89739139D01*
X108634861Y-89900047D01*
X108821266Y-90030568D01*
X109027504Y-90126739D01*
X109247308Y-90185635D01*
X109247309Y-90185635D01*
X109247313Y-90185636D01*
X109474000Y-90205468D01*
X109700686Y-90185636D01*
X109700688Y-90185635D01*
X109700692Y-90185635D01*
X109920496Y-90126739D01*
X110126734Y-90030568D01*
X110313139Y-89900047D01*
X110474047Y-89739139D01*
X110540031Y-89644902D01*
X110610211Y-89577719D01*
X110700760Y-89542506D01*
X110797892Y-89544625D01*
X110886819Y-89583753D01*
X110947968Y-89644902D01*
X111013953Y-89739139D01*
X111174861Y-89900047D01*
X111361266Y-90030568D01*
X111567504Y-90126739D01*
X111787308Y-90185635D01*
X111787309Y-90185635D01*
X111787313Y-90185636D01*
X112013999Y-90205468D01*
X112013999Y-90205467D01*
X112014000Y-90205468D01*
X112240692Y-90185635D01*
X112269137Y-90178013D01*
X112366085Y-90171658D01*
X112458084Y-90202887D01*
X112531129Y-90266946D01*
X112567569Y-90333366D01*
X112594007Y-90406005D01*
X112596385Y-90412846D01*
X112622100Y-90490452D01*
X112667021Y-90558752D01*
X112670909Y-90564855D01*
X112713840Y-90634455D01*
X112773290Y-90690543D01*
X112778486Y-90695589D01*
X118560067Y-96477170D01*
X118583727Y-96504549D01*
X118592063Y-96515746D01*
X118624980Y-96543367D01*
X118630453Y-96548096D01*
X118635357Y-96552460D01*
X118640473Y-96557576D01*
X118646150Y-96562065D01*
X118646157Y-96562071D01*
X118662618Y-96575086D01*
X118668200Y-96579632D01*
X118722558Y-96625243D01*
X118730874Y-96632222D01*
X118740633Y-96636772D01*
X118740635Y-96636774D01*
X118804998Y-96666786D01*
X118811471Y-96669920D01*
X118874936Y-96701794D01*
X118874940Y-96701795D01*
X118884560Y-96706626D01*
X118895100Y-96708802D01*
X118895104Y-96708804D01*
X118964631Y-96723160D01*
X118971661Y-96724718D01*
X119040780Y-96741100D01*
X119040784Y-96741100D01*
X119051256Y-96743582D01*
X119062018Y-96743269D01*
X119062023Y-96743270D01*
X119131696Y-96741242D01*
X119132995Y-96741205D01*
X119140236Y-96741100D01*
X124497900Y-96741100D01*
X124593188Y-96760054D01*
X124673970Y-96814030D01*
X124727946Y-96894812D01*
X124746900Y-96990100D01*
X124746900Y-98310877D01*
X124727946Y-98406165D01*
X124673970Y-98486947D01*
X124628004Y-98523183D01*
X124561820Y-98563741D01*
X124376242Y-98722239D01*
X124297481Y-98814456D01*
X124281384Y-98827145D01*
X124282896Y-98828657D01*
X123461929Y-99649622D01*
X123459116Y-99636085D01*
X123389558Y-99501844D01*
X123286362Y-99391348D01*
X123157181Y-99312791D01*
X123105997Y-99298450D01*
X123843942Y-98560505D01*
X123843941Y-98560504D01*
X123641856Y-98436666D01*
X123416460Y-98343305D01*
X123179219Y-98286348D01*
X122936000Y-98267206D01*
X122692780Y-98286348D01*
X122455539Y-98343305D01*
X122230143Y-98436666D01*
X122142561Y-98490337D01*
X122051411Y-98523963D01*
X121954331Y-98520149D01*
X121866100Y-98479474D01*
X121813125Y-98427250D01*
X121806889Y-98418920D01*
X121803546Y-98414454D01*
X121792473Y-98406165D01*
X121742831Y-98369003D01*
X121688331Y-98328204D01*
X121553483Y-98277909D01*
X121553482Y-98277908D01*
X121553480Y-98277908D01*
X121500509Y-98272213D01*
X121500500Y-98272212D01*
X121493873Y-98271500D01*
X121487202Y-98271500D01*
X119304788Y-98271500D01*
X119304769Y-98271500D01*
X119298128Y-98271501D01*
X119291517Y-98272211D01*
X119291510Y-98272212D01*
X119238526Y-98277908D01*
X119238517Y-98277909D01*
X119103669Y-98328204D01*
X119103076Y-98328648D01*
X118988453Y-98414453D01*
X118931648Y-98490337D01*
X118902204Y-98529669D01*
X118866410Y-98625636D01*
X118851908Y-98664519D01*
X118846213Y-98717490D01*
X118846212Y-98717500D01*
X118845500Y-98724127D01*
X118845500Y-98730788D01*
X118845500Y-98730797D01*
X118845500Y-100913211D01*
X118845500Y-100913229D01*
X118845501Y-100919872D01*
X118851909Y-100979483D01*
X118902204Y-101114331D01*
X118931648Y-101153663D01*
X118988453Y-101229546D01*
X118999525Y-101237834D01*
X119103669Y-101315796D01*
X119238517Y-101366091D01*
X119298127Y-101372500D01*
X119417901Y-101372499D01*
X119513186Y-101391452D01*
X119593968Y-101445428D01*
X119647945Y-101526209D01*
X119666900Y-101621497D01*
X119666900Y-103923900D01*
X119647946Y-104019188D01*
X119593970Y-104099970D01*
X119513188Y-104153946D01*
X119417900Y-104172900D01*
X108140718Y-104172900D01*
X108045430Y-104153946D01*
X107964648Y-104099970D01*
X107936748Y-104066719D01*
X107934048Y-104062863D01*
X107934047Y-104062861D01*
X107773139Y-103901953D01*
X107586734Y-103771432D01*
X107586730Y-103771430D01*
X107586727Y-103771428D01*
X107380500Y-103675263D01*
X107380496Y-103675261D01*
X107225990Y-103633861D01*
X107160686Y-103616363D01*
X106934000Y-103596531D01*
X106707313Y-103616363D01*
X106597405Y-103645812D01*
X106487504Y-103675261D01*
X106487500Y-103675262D01*
X106487499Y-103675263D01*
X106281272Y-103771428D01*
X106281266Y-103771431D01*
X106281266Y-103771432D01*
X106111159Y-103890541D01*
X106094861Y-103901953D01*
X105933951Y-104062863D01*
X105931252Y-104066719D01*
X105861072Y-104133903D01*
X105770523Y-104169117D01*
X105727282Y-104172900D01*
X89624100Y-104172900D01*
X89528812Y-104153946D01*
X89448030Y-104099970D01*
X89394054Y-104019188D01*
X89375100Y-103923900D01*
X89375100Y-101367499D01*
X89394054Y-101272211D01*
X89448030Y-101191429D01*
X89528812Y-101137453D01*
X89624100Y-101118499D01*
X89737212Y-101118499D01*
X89743872Y-101118499D01*
X89803483Y-101112091D01*
X89938331Y-101061796D01*
X90053546Y-100975546D01*
X90063124Y-100962750D01*
X90135400Y-100897828D01*
X90227020Y-100865505D01*
X90324036Y-100870704D01*
X90392562Y-100899663D01*
X90480142Y-100953333D01*
X90705539Y-101046694D01*
X90942780Y-101103651D01*
X91186000Y-101122793D01*
X91429219Y-101103651D01*
X91666460Y-101046694D01*
X91891857Y-100953332D01*
X92093941Y-100829495D01*
X91357567Y-100093121D01*
X91474458Y-100042349D01*
X91591739Y-99946934D01*
X91678928Y-99823415D01*
X91709355Y-99737801D01*
X92447495Y-100475941D01*
X92571332Y-100273857D01*
X92664694Y-100048460D01*
X92721651Y-99811219D01*
X92740793Y-99568000D01*
X92721651Y-99324780D01*
X92664694Y-99087539D01*
X92571331Y-98862138D01*
X92447495Y-98660057D01*
X91711929Y-99395622D01*
X91709116Y-99382085D01*
X91639558Y-99247844D01*
X91536362Y-99137348D01*
X91407181Y-99058791D01*
X91355997Y-99044450D01*
X92093942Y-98306505D01*
X92093941Y-98306504D01*
X91891856Y-98182666D01*
X91666460Y-98089305D01*
X91429219Y-98032348D01*
X91186000Y-98013206D01*
X90942780Y-98032348D01*
X90705539Y-98089305D01*
X90480143Y-98182666D01*
X90392561Y-98236337D01*
X90301411Y-98269963D01*
X90204331Y-98266149D01*
X90116100Y-98225474D01*
X90063125Y-98173250D01*
X90053545Y-98160453D01*
X90030399Y-98143126D01*
X89938331Y-98074204D01*
X89803483Y-98023909D01*
X89803482Y-98023908D01*
X89803480Y-98023908D01*
X89750509Y-98018213D01*
X89750500Y-98018212D01*
X89743873Y-98017500D01*
X89737202Y-98017500D01*
X87554788Y-98017500D01*
X87554769Y-98017500D01*
X87548128Y-98017501D01*
X87541517Y-98018211D01*
X87541510Y-98018212D01*
X87488526Y-98023908D01*
X87488517Y-98023909D01*
X87353669Y-98074204D01*
X87353667Y-98074205D01*
X87353668Y-98074205D01*
X87238453Y-98160453D01*
X87169514Y-98252546D01*
X87152204Y-98275669D01*
X87117393Y-98369003D01*
X87101908Y-98410519D01*
X87096213Y-98463490D01*
X87096212Y-98463500D01*
X87095500Y-98470127D01*
X87095500Y-98476797D01*
X87095500Y-98589900D01*
X87076546Y-98685188D01*
X87022570Y-98765970D01*
X86941788Y-98819946D01*
X86846500Y-98838900D01*
X85241143Y-98838900D01*
X85145855Y-98819946D01*
X85065073Y-98765970D01*
X79034030Y-92734927D01*
X78980054Y-92654145D01*
X78961100Y-92558857D01*
X78961100Y-89813143D01*
X78980054Y-89717855D01*
X79034030Y-89637073D01*
X83703673Y-84967430D01*
X83784455Y-84913454D01*
X83879743Y-84894500D01*
X100423386Y-84894500D01*
X100518674Y-84913454D01*
G37*
G04 #@! TD.AperFunction*
G04 #@! TA.AperFunction,Conductor*
G36*
X129334507Y-89109844D02*
G01*
X129412239Y-89230798D01*
X129520900Y-89324952D01*
X129651685Y-89384680D01*
X129661466Y-89386086D01*
X129068527Y-89979026D01*
X129141514Y-90030132D01*
X129347680Y-90126268D01*
X129567390Y-90185140D01*
X129793999Y-90204965D01*
X130020609Y-90185140D01*
X130240322Y-90126267D01*
X130446485Y-90030133D01*
X130519471Y-89979027D01*
X130519471Y-89979025D01*
X129926533Y-89386086D01*
X129936315Y-89384680D01*
X130067100Y-89324952D01*
X130175761Y-89230798D01*
X130253493Y-89109844D01*
X130277076Y-89029523D01*
X130873025Y-89625471D01*
X130880225Y-89624841D01*
X130929906Y-89577283D01*
X131020455Y-89542070D01*
X131117587Y-89544189D01*
X131206514Y-89583318D01*
X131267663Y-89644467D01*
X131333950Y-89739135D01*
X131333953Y-89739139D01*
X131494861Y-89900047D01*
X131681266Y-90030568D01*
X131887504Y-90126739D01*
X132107308Y-90185635D01*
X132107309Y-90185635D01*
X132107313Y-90185636D01*
X132334000Y-90205468D01*
X132560686Y-90185636D01*
X132560688Y-90185635D01*
X132560692Y-90185635D01*
X132780496Y-90126739D01*
X132986734Y-90030568D01*
X133173139Y-89900047D01*
X133334047Y-89739139D01*
X133336749Y-89735279D01*
X133406928Y-89668097D01*
X133497477Y-89632883D01*
X133540718Y-89629100D01*
X141097486Y-89629100D01*
X141192774Y-89648054D01*
X141273556Y-89702030D01*
X141278399Y-89706873D01*
X141278402Y-89706877D01*
X141433123Y-89861598D01*
X141433126Y-89861600D01*
X141437970Y-89866444D01*
X141491946Y-89947226D01*
X141510900Y-90042514D01*
X141510900Y-99416856D01*
X141491946Y-99512144D01*
X141437970Y-99592926D01*
X138002393Y-103028502D01*
X137921611Y-103082478D01*
X137826323Y-103101432D01*
X137804624Y-103100485D01*
X137668000Y-103088532D01*
X137667997Y-103088532D01*
X137667995Y-103088532D01*
X137441313Y-103108363D01*
X137331406Y-103137812D01*
X137221504Y-103167261D01*
X137221500Y-103167262D01*
X137221499Y-103167263D01*
X137015272Y-103263428D01*
X136828861Y-103393953D01*
X136667951Y-103554863D01*
X136665252Y-103558719D01*
X136595072Y-103625903D01*
X136504523Y-103661117D01*
X136461282Y-103664900D01*
X135826718Y-103664900D01*
X135731430Y-103645946D01*
X135650648Y-103591970D01*
X135622748Y-103558719D01*
X135620048Y-103554863D01*
X135620047Y-103554861D01*
X135459139Y-103393953D01*
X135272734Y-103263432D01*
X135272730Y-103263430D01*
X135272727Y-103263428D01*
X135066500Y-103167263D01*
X135066496Y-103167261D01*
X134911990Y-103125861D01*
X134846686Y-103108363D01*
X134619999Y-103088531D01*
X134393313Y-103108363D01*
X134283406Y-103137812D01*
X134173504Y-103167261D01*
X134173500Y-103167262D01*
X134173499Y-103167263D01*
X133967272Y-103263428D01*
X133967266Y-103263431D01*
X133967266Y-103263432D01*
X133780861Y-103393953D01*
X133619953Y-103554861D01*
X133535648Y-103675263D01*
X133489428Y-103741272D01*
X133393263Y-103947499D01*
X133393261Y-103947504D01*
X133363812Y-104057405D01*
X133334363Y-104167313D01*
X133314531Y-104394000D01*
X133334363Y-104620686D01*
X133351861Y-104685990D01*
X133393261Y-104840496D01*
X133404881Y-104865416D01*
X133489428Y-105046727D01*
X133489430Y-105046730D01*
X133489432Y-105046734D01*
X133619953Y-105233139D01*
X133780861Y-105394047D01*
X133967266Y-105524568D01*
X133967271Y-105524570D01*
X133967272Y-105524571D01*
X134173504Y-105620739D01*
X134402076Y-105681985D01*
X134489212Y-105724955D01*
X134553270Y-105798000D01*
X134584500Y-105889999D01*
X134578145Y-105986946D01*
X134535175Y-106074082D01*
X134462130Y-106138140D01*
X134370131Y-106169370D01*
X134337630Y-106171500D01*
X108104825Y-106171500D01*
X108009537Y-106152546D01*
X107928755Y-106098570D01*
X107874779Y-106017788D01*
X107855825Y-105922500D01*
X107874779Y-105827212D01*
X107928752Y-105746433D01*
X107934047Y-105741139D01*
X107936749Y-105737279D01*
X108006928Y-105670097D01*
X108097477Y-105634883D01*
X108140718Y-105631100D01*
X120070744Y-105631100D01*
X120106832Y-105633729D01*
X120108360Y-105633952D01*
X120120650Y-105635753D01*
X120163515Y-105632002D01*
X120170700Y-105631479D01*
X120177203Y-105631100D01*
X120184461Y-105631100D01*
X120199542Y-105629336D01*
X120212488Y-105627824D01*
X120219696Y-105627086D01*
X120290441Y-105620898D01*
X120290443Y-105620897D01*
X120301167Y-105619959D01*
X120311285Y-105616276D01*
X120311287Y-105616276D01*
X120378005Y-105591992D01*
X120384780Y-105589636D01*
X120452229Y-105567287D01*
X120452234Y-105567283D01*
X120462452Y-105563898D01*
X120471442Y-105557984D01*
X120471447Y-105557983D01*
X120530851Y-105518911D01*
X120536784Y-105515131D01*
X120597292Y-105477811D01*
X120597294Y-105477808D01*
X120606456Y-105472158D01*
X120613844Y-105464326D01*
X120613847Y-105464325D01*
X120662578Y-105412671D01*
X120667558Y-105407543D01*
X120861175Y-105213926D01*
X120888546Y-105190274D01*
X120899745Y-105181938D01*
X120927425Y-105148948D01*
X120932125Y-105143511D01*
X120936438Y-105138663D01*
X120941576Y-105133527D01*
X120959072Y-105111399D01*
X120963652Y-105105775D01*
X121009301Y-105051374D01*
X121009301Y-105051372D01*
X121016224Y-105043123D01*
X121050777Y-104969021D01*
X121053902Y-104962563D01*
X121085794Y-104899064D01*
X121085795Y-104899056D01*
X121090626Y-104889439D01*
X121092802Y-104878899D01*
X121092804Y-104878896D01*
X121107165Y-104809343D01*
X121108728Y-104802297D01*
X121111914Y-104788855D01*
X121125100Y-104733220D01*
X121125100Y-104733218D01*
X121127582Y-104722746D01*
X121127268Y-104711983D01*
X121127270Y-104711978D01*
X121125205Y-104641019D01*
X121125100Y-104633777D01*
X121125100Y-101621499D01*
X121144054Y-101526211D01*
X121198030Y-101445429D01*
X121278812Y-101391453D01*
X121374100Y-101372499D01*
X121487212Y-101372499D01*
X121493872Y-101372499D01*
X121553483Y-101366091D01*
X121688331Y-101315796D01*
X121803546Y-101229546D01*
X121813124Y-101216750D01*
X121885400Y-101151828D01*
X121977020Y-101119505D01*
X122074036Y-101124704D01*
X122142562Y-101153663D01*
X122230142Y-101207333D01*
X122455539Y-101300694D01*
X122692780Y-101357651D01*
X122936000Y-101376793D01*
X123179219Y-101357651D01*
X123416460Y-101300694D01*
X123641857Y-101207332D01*
X123843941Y-101083495D01*
X123107567Y-100347121D01*
X123224458Y-100296349D01*
X123341739Y-100200934D01*
X123428928Y-100077415D01*
X123459355Y-99991801D01*
X124282896Y-100815342D01*
X124282802Y-100815435D01*
X124297481Y-100829543D01*
X124374629Y-100919872D01*
X124376243Y-100921761D01*
X124561818Y-101080257D01*
X124561820Y-101080258D01*
X124561821Y-101080259D01*
X124769911Y-101207777D01*
X124995388Y-101301172D01*
X125232698Y-101358146D01*
X125476000Y-101377294D01*
X125719302Y-101358146D01*
X125956612Y-101301172D01*
X126182089Y-101207777D01*
X126390179Y-101080259D01*
X126575759Y-100921759D01*
X126575763Y-100921754D01*
X126584286Y-100914475D01*
X126669053Y-100867003D01*
X126765535Y-100855584D01*
X126859042Y-100881955D01*
X126907711Y-100914474D01*
X126921751Y-100926465D01*
X127101821Y-101080259D01*
X127309911Y-101207777D01*
X127535388Y-101301172D01*
X127772698Y-101358146D01*
X127939660Y-101371286D01*
X128015999Y-101377294D01*
X128015999Y-101377293D01*
X128016000Y-101377294D01*
X128259302Y-101358146D01*
X128496612Y-101301172D01*
X128722089Y-101207777D01*
X128930179Y-101080259D01*
X129115759Y-100921759D01*
X129194519Y-100829541D01*
X129210614Y-100816853D01*
X129209103Y-100815342D01*
X130030070Y-99994374D01*
X130032884Y-100007915D01*
X130102442Y-100142156D01*
X130205638Y-100252652D01*
X130334819Y-100331209D01*
X130386002Y-100345549D01*
X129648057Y-101083495D01*
X129850138Y-101207331D01*
X130075539Y-101300694D01*
X130312780Y-101357651D01*
X130556000Y-101376793D01*
X130799219Y-101357651D01*
X131036460Y-101300694D01*
X131261857Y-101207332D01*
X131463941Y-101083495D01*
X130727567Y-100347121D01*
X130844458Y-100296349D01*
X130961739Y-100200934D01*
X131048928Y-100077415D01*
X131079355Y-99991801D01*
X131817495Y-100729941D01*
X131941332Y-100527857D01*
X132034694Y-100302460D01*
X132091651Y-100065219D01*
X132110793Y-99821999D01*
X132091651Y-99578780D01*
X132034694Y-99341539D01*
X131941331Y-99116138D01*
X131817495Y-98914057D01*
X131081929Y-99649622D01*
X131079116Y-99636085D01*
X131009558Y-99501844D01*
X130906362Y-99391348D01*
X130777181Y-99312791D01*
X130725995Y-99298449D01*
X131463941Y-98560504D01*
X131261856Y-98436666D01*
X131036460Y-98343305D01*
X130799219Y-98286348D01*
X130556000Y-98267206D01*
X130312780Y-98286348D01*
X130075539Y-98343305D01*
X129850143Y-98436666D01*
X129648057Y-98560504D01*
X130384431Y-99296878D01*
X130267542Y-99347651D01*
X130150261Y-99443066D01*
X130063072Y-99566585D01*
X130032644Y-99652198D01*
X129209103Y-98828657D01*
X129209190Y-98828569D01*
X129194517Y-98814455D01*
X129162524Y-98776996D01*
X129115759Y-98722241D01*
X129115757Y-98722239D01*
X129115756Y-98722238D01*
X128930179Y-98563741D01*
X128863996Y-98523183D01*
X128792654Y-98457234D01*
X128751979Y-98369003D01*
X128745100Y-98310877D01*
X128745100Y-95321247D01*
X128747729Y-95285159D01*
X128749752Y-95271347D01*
X128746008Y-95228556D01*
X128745481Y-95221330D01*
X128745100Y-95214788D01*
X128745100Y-95207539D01*
X128742874Y-95188500D01*
X128741819Y-95179472D01*
X128741081Y-95172255D01*
X128734897Y-95101559D01*
X128734895Y-95101554D01*
X128733957Y-95090827D01*
X128705990Y-95013988D01*
X128703611Y-95007144D01*
X128690868Y-94968686D01*
X128681287Y-94939771D01*
X128681285Y-94939769D01*
X128677899Y-94929548D01*
X128632974Y-94861243D01*
X128629082Y-94855134D01*
X128591811Y-94794708D01*
X128591809Y-94794706D01*
X128586156Y-94785541D01*
X128526708Y-94729455D01*
X128521511Y-94724408D01*
X128169273Y-94372170D01*
X128115297Y-94291388D01*
X128096343Y-94196100D01*
X128115297Y-94100812D01*
X128169273Y-94020030D01*
X128250055Y-93966054D01*
X128345343Y-93947100D01*
X133067897Y-93947100D01*
X133163185Y-93966054D01*
X133243967Y-94020030D01*
X133297943Y-94100812D01*
X133316897Y-94196100D01*
X133315949Y-94217803D01*
X133314532Y-94234000D01*
X133334363Y-94460686D01*
X133334365Y-94460692D01*
X133393261Y-94680496D01*
X133393263Y-94680500D01*
X133489428Y-94886727D01*
X133489430Y-94886730D01*
X133489432Y-94886734D01*
X133619953Y-95073139D01*
X133780861Y-95234047D01*
X133967266Y-95364568D01*
X134173504Y-95460739D01*
X134393308Y-95519635D01*
X134393309Y-95519635D01*
X134393313Y-95519636D01*
X134620000Y-95539468D01*
X134846686Y-95519636D01*
X134846688Y-95519635D01*
X134846692Y-95519635D01*
X135066496Y-95460739D01*
X135272734Y-95364568D01*
X135459139Y-95234047D01*
X135620047Y-95073139D01*
X135750568Y-94886734D01*
X135846739Y-94680496D01*
X135903485Y-94468713D01*
X135946455Y-94381582D01*
X136019500Y-94317523D01*
X136111499Y-94286293D01*
X136208446Y-94292647D01*
X136295581Y-94335618D01*
X136359640Y-94408663D01*
X136384513Y-94468712D01*
X136441261Y-94680496D01*
X136441262Y-94680499D01*
X136441263Y-94680501D01*
X136537428Y-94886727D01*
X136537430Y-94886730D01*
X136537432Y-94886734D01*
X136667953Y-95073139D01*
X136828861Y-95234047D01*
X137015266Y-95364568D01*
X137221504Y-95460739D01*
X137441308Y-95519635D01*
X137441309Y-95519635D01*
X137441313Y-95519636D01*
X137668000Y-95539468D01*
X137894686Y-95519636D01*
X137894688Y-95519635D01*
X137894692Y-95519635D01*
X138114496Y-95460739D01*
X138320734Y-95364568D01*
X138507139Y-95234047D01*
X138668047Y-95073139D01*
X138798568Y-94886734D01*
X138894739Y-94680496D01*
X138953635Y-94460692D01*
X138960557Y-94381582D01*
X138973468Y-94234000D01*
X138953636Y-94007313D01*
X138953635Y-94007308D01*
X138894739Y-93787504D01*
X138798568Y-93581266D01*
X138668047Y-93394861D01*
X138507139Y-93233953D01*
X138320734Y-93103432D01*
X138320730Y-93103430D01*
X138320727Y-93103428D01*
X138114500Y-93007263D01*
X138114496Y-93007261D01*
X137938264Y-92960040D01*
X137894686Y-92948363D01*
X137668004Y-92928532D01*
X137668001Y-92928532D01*
X137668000Y-92928532D01*
X137552262Y-92938657D01*
X137531376Y-92940485D01*
X137434798Y-92929907D01*
X137349620Y-92883176D01*
X137333605Y-92868502D01*
X135693931Y-91228828D01*
X135670272Y-91201450D01*
X135661938Y-91190255D01*
X135661936Y-91190253D01*
X135629017Y-91162630D01*
X135623542Y-91157900D01*
X135618646Y-91153543D01*
X135613527Y-91148424D01*
X135607844Y-91143930D01*
X135607829Y-91143917D01*
X135591369Y-91130902D01*
X135585758Y-91126332D01*
X135575403Y-91117643D01*
X135531374Y-91080699D01*
X135531372Y-91080698D01*
X135523125Y-91073778D01*
X135449054Y-91039238D01*
X135442537Y-91036083D01*
X135369439Y-90999372D01*
X135289390Y-90982843D01*
X135282323Y-90981277D01*
X135259773Y-90975933D01*
X135213220Y-90964900D01*
X135213219Y-90964900D01*
X135202742Y-90962417D01*
X135191978Y-90962730D01*
X135129584Y-90964545D01*
X135121005Y-90964795D01*
X135113764Y-90964900D01*
X122833143Y-90964900D01*
X122737855Y-90945946D01*
X122657073Y-90891970D01*
X122350786Y-90585683D01*
X122296810Y-90504901D01*
X122277856Y-90409613D01*
X122296810Y-90314325D01*
X122350786Y-90233543D01*
X122431568Y-90179567D01*
X122462398Y-90169100D01*
X122620496Y-90126739D01*
X122826734Y-90030568D01*
X123013139Y-89900047D01*
X123174047Y-89739139D01*
X123240031Y-89644902D01*
X123310211Y-89577719D01*
X123400760Y-89542506D01*
X123497892Y-89544625D01*
X123586819Y-89583753D01*
X123647968Y-89644902D01*
X123713953Y-89739139D01*
X123874861Y-89900047D01*
X124061266Y-90030568D01*
X124267504Y-90126739D01*
X124487308Y-90185635D01*
X124487309Y-90185635D01*
X124487313Y-90185636D01*
X124713999Y-90205468D01*
X124713999Y-90205467D01*
X124714000Y-90205468D01*
X124755548Y-90201833D01*
X124940686Y-90185636D01*
X124940688Y-90185635D01*
X124940692Y-90185635D01*
X125160496Y-90126739D01*
X125366734Y-90030568D01*
X125553139Y-89900047D01*
X125714047Y-89739139D01*
X125780031Y-89644902D01*
X125850211Y-89577719D01*
X125940760Y-89542506D01*
X126037892Y-89544625D01*
X126126819Y-89583753D01*
X126187968Y-89644902D01*
X126253953Y-89739139D01*
X126414861Y-89900047D01*
X126601266Y-90030568D01*
X126807504Y-90126739D01*
X127027308Y-90185635D01*
X127027309Y-90185635D01*
X127027313Y-90185636D01*
X127254000Y-90205468D01*
X127480686Y-90185636D01*
X127480688Y-90185635D01*
X127480692Y-90185635D01*
X127700496Y-90126739D01*
X127906734Y-90030568D01*
X128093139Y-89900047D01*
X128254047Y-89739139D01*
X128320337Y-89644465D01*
X128390516Y-89577284D01*
X128481065Y-89542070D01*
X128578197Y-89544189D01*
X128667124Y-89583317D01*
X128708733Y-89624926D01*
X128714973Y-89625472D01*
X129310922Y-89029522D01*
X129334507Y-89109844D01*
G37*
G04 #@! TD.AperFunction*
G04 #@! TD*
M02*
