G04 #@! TF.GenerationSoftware,KiCad,Pcbnew,7.0.2-6a45011f42~172~ubuntu22.04.1*
G04 #@! TF.CreationDate,2023-05-11T11:42:15-04:00*
G04 #@! TF.ProjectId,PCB_Design,5043425f-4465-4736-9967-6e2e6b696361,rev?*
G04 #@! TF.SameCoordinates,Original*
G04 #@! TF.FileFunction,Legend,Top*
G04 #@! TF.FilePolarity,Positive*
%FSLAX46Y46*%
G04 Gerber Fmt 4.6, Leading zero omitted, Abs format (unit mm)*
G04 Created by KiCad (PCBNEW 7.0.2-6a45011f42~172~ubuntu22.04.1) date 2023-05-11 11:42:15*
%MOMM*%
%LPD*%
G01*
G04 APERTURE LIST*
%ADD10C,0.150000*%
%ADD11C,0.203200*%
%ADD12C,0.142240*%
%ADD13C,0.120000*%
%ADD14C,0.254000*%
%ADD15C,0.152400*%
%ADD16C,0.100000*%
%ADD17C,0.127000*%
%ADD18R,1.727200X1.727200*%
%ADD19O,1.600000X1.600000*%
G04 APERTURE END LIST*
D10*
X164901714Y-95157000D02*
X165044571Y-95204619D01*
X165044571Y-95204619D02*
X165282666Y-95204619D01*
X165282666Y-95204619D02*
X165377904Y-95157000D01*
X165377904Y-95157000D02*
X165425523Y-95109380D01*
X165425523Y-95109380D02*
X165473142Y-95014142D01*
X165473142Y-95014142D02*
X165473142Y-94918904D01*
X165473142Y-94918904D02*
X165425523Y-94823666D01*
X165425523Y-94823666D02*
X165377904Y-94776047D01*
X165377904Y-94776047D02*
X165282666Y-94728428D01*
X165282666Y-94728428D02*
X165092190Y-94680809D01*
X165092190Y-94680809D02*
X164996952Y-94633190D01*
X164996952Y-94633190D02*
X164949333Y-94585571D01*
X164949333Y-94585571D02*
X164901714Y-94490333D01*
X164901714Y-94490333D02*
X164901714Y-94395095D01*
X164901714Y-94395095D02*
X164949333Y-94299857D01*
X164949333Y-94299857D02*
X164996952Y-94252238D01*
X164996952Y-94252238D02*
X165092190Y-94204619D01*
X165092190Y-94204619D02*
X165330285Y-94204619D01*
X165330285Y-94204619D02*
X165473142Y-94252238D01*
X165901714Y-95204619D02*
X165901714Y-94204619D01*
X165901714Y-94204619D02*
X166139809Y-94204619D01*
X166139809Y-94204619D02*
X166282666Y-94252238D01*
X166282666Y-94252238D02*
X166377904Y-94347476D01*
X166377904Y-94347476D02*
X166425523Y-94442714D01*
X166425523Y-94442714D02*
X166473142Y-94633190D01*
X166473142Y-94633190D02*
X166473142Y-94776047D01*
X166473142Y-94776047D02*
X166425523Y-94966523D01*
X166425523Y-94966523D02*
X166377904Y-95061761D01*
X166377904Y-95061761D02*
X166282666Y-95157000D01*
X166282666Y-95157000D02*
X166139809Y-95204619D01*
X166139809Y-95204619D02*
X165901714Y-95204619D01*
X166854095Y-94918904D02*
X167330285Y-94918904D01*
X166758857Y-95204619D02*
X167092190Y-94204619D01*
X167092190Y-94204619D02*
X167425523Y-95204619D01*
X168227524Y-95157000D02*
X168370381Y-95204619D01*
X168370381Y-95204619D02*
X168608476Y-95204619D01*
X168608476Y-95204619D02*
X168703714Y-95157000D01*
X168703714Y-95157000D02*
X168751333Y-95109380D01*
X168751333Y-95109380D02*
X168798952Y-95014142D01*
X168798952Y-95014142D02*
X168798952Y-94918904D01*
X168798952Y-94918904D02*
X168751333Y-94823666D01*
X168751333Y-94823666D02*
X168703714Y-94776047D01*
X168703714Y-94776047D02*
X168608476Y-94728428D01*
X168608476Y-94728428D02*
X168418000Y-94680809D01*
X168418000Y-94680809D02*
X168322762Y-94633190D01*
X168322762Y-94633190D02*
X168275143Y-94585571D01*
X168275143Y-94585571D02*
X168227524Y-94490333D01*
X168227524Y-94490333D02*
X168227524Y-94395095D01*
X168227524Y-94395095D02*
X168275143Y-94299857D01*
X168275143Y-94299857D02*
X168322762Y-94252238D01*
X168322762Y-94252238D02*
X168418000Y-94204619D01*
X168418000Y-94204619D02*
X168656095Y-94204619D01*
X168656095Y-94204619D02*
X168798952Y-94252238D01*
X169798952Y-95109380D02*
X169751333Y-95157000D01*
X169751333Y-95157000D02*
X169608476Y-95204619D01*
X169608476Y-95204619D02*
X169513238Y-95204619D01*
X169513238Y-95204619D02*
X169370381Y-95157000D01*
X169370381Y-95157000D02*
X169275143Y-95061761D01*
X169275143Y-95061761D02*
X169227524Y-94966523D01*
X169227524Y-94966523D02*
X169179905Y-94776047D01*
X169179905Y-94776047D02*
X169179905Y-94633190D01*
X169179905Y-94633190D02*
X169227524Y-94442714D01*
X169227524Y-94442714D02*
X169275143Y-94347476D01*
X169275143Y-94347476D02*
X169370381Y-94252238D01*
X169370381Y-94252238D02*
X169513238Y-94204619D01*
X169513238Y-94204619D02*
X169608476Y-94204619D01*
X169608476Y-94204619D02*
X169751333Y-94252238D01*
X169751333Y-94252238D02*
X169798952Y-94299857D01*
X170703714Y-95204619D02*
X170227524Y-95204619D01*
X170227524Y-95204619D02*
X170227524Y-94204619D01*
X182118095Y-103650238D02*
X182022857Y-103602619D01*
X182022857Y-103602619D02*
X181880000Y-103602619D01*
X181880000Y-103602619D02*
X181737143Y-103650238D01*
X181737143Y-103650238D02*
X181641905Y-103745476D01*
X181641905Y-103745476D02*
X181594286Y-103840714D01*
X181594286Y-103840714D02*
X181546667Y-104031190D01*
X181546667Y-104031190D02*
X181546667Y-104174047D01*
X181546667Y-104174047D02*
X181594286Y-104364523D01*
X181594286Y-104364523D02*
X181641905Y-104459761D01*
X181641905Y-104459761D02*
X181737143Y-104555000D01*
X181737143Y-104555000D02*
X181880000Y-104602619D01*
X181880000Y-104602619D02*
X181975238Y-104602619D01*
X181975238Y-104602619D02*
X182118095Y-104555000D01*
X182118095Y-104555000D02*
X182165714Y-104507380D01*
X182165714Y-104507380D02*
X182165714Y-104174047D01*
X182165714Y-104174047D02*
X181975238Y-104174047D01*
X182594286Y-104602619D02*
X182594286Y-103602619D01*
X182594286Y-103602619D02*
X183165714Y-104602619D01*
X183165714Y-104602619D02*
X183165714Y-103602619D01*
X183641905Y-104602619D02*
X183641905Y-103602619D01*
X183641905Y-103602619D02*
X183880000Y-103602619D01*
X183880000Y-103602619D02*
X184022857Y-103650238D01*
X184022857Y-103650238D02*
X184118095Y-103745476D01*
X184118095Y-103745476D02*
X184165714Y-103840714D01*
X184165714Y-103840714D02*
X184213333Y-104031190D01*
X184213333Y-104031190D02*
X184213333Y-104174047D01*
X184213333Y-104174047D02*
X184165714Y-104364523D01*
X184165714Y-104364523D02*
X184118095Y-104459761D01*
X184118095Y-104459761D02*
X184022857Y-104555000D01*
X184022857Y-104555000D02*
X183880000Y-104602619D01*
X183880000Y-104602619D02*
X183641905Y-104602619D01*
X86090286Y-104475666D02*
X86852191Y-104475666D01*
X86471238Y-104856619D02*
X86471238Y-104094714D01*
X87804571Y-103856619D02*
X87328381Y-103856619D01*
X87328381Y-103856619D02*
X87280762Y-104332809D01*
X87280762Y-104332809D02*
X87328381Y-104285190D01*
X87328381Y-104285190D02*
X87423619Y-104237571D01*
X87423619Y-104237571D02*
X87661714Y-104237571D01*
X87661714Y-104237571D02*
X87756952Y-104285190D01*
X87756952Y-104285190D02*
X87804571Y-104332809D01*
X87804571Y-104332809D02*
X87852190Y-104428047D01*
X87852190Y-104428047D02*
X87852190Y-104666142D01*
X87852190Y-104666142D02*
X87804571Y-104761380D01*
X87804571Y-104761380D02*
X87756952Y-104809000D01*
X87756952Y-104809000D02*
X87661714Y-104856619D01*
X87661714Y-104856619D02*
X87423619Y-104856619D01*
X87423619Y-104856619D02*
X87328381Y-104809000D01*
X87328381Y-104809000D02*
X87280762Y-104761380D01*
X88137905Y-103856619D02*
X88471238Y-104856619D01*
X88471238Y-104856619D02*
X88804571Y-103856619D01*
X111228286Y-104808619D02*
X111228286Y-103808619D01*
X111228286Y-103808619D02*
X111466381Y-103808619D01*
X111466381Y-103808619D02*
X111609238Y-103856238D01*
X111609238Y-103856238D02*
X111704476Y-103951476D01*
X111704476Y-103951476D02*
X111752095Y-104046714D01*
X111752095Y-104046714D02*
X111799714Y-104237190D01*
X111799714Y-104237190D02*
X111799714Y-104380047D01*
X111799714Y-104380047D02*
X111752095Y-104570523D01*
X111752095Y-104570523D02*
X111704476Y-104665761D01*
X111704476Y-104665761D02*
X111609238Y-104761000D01*
X111609238Y-104761000D02*
X111466381Y-104808619D01*
X111466381Y-104808619D02*
X111228286Y-104808619D01*
X112418762Y-103808619D02*
X112609238Y-103808619D01*
X112609238Y-103808619D02*
X112704476Y-103856238D01*
X112704476Y-103856238D02*
X112799714Y-103951476D01*
X112799714Y-103951476D02*
X112847333Y-104141952D01*
X112847333Y-104141952D02*
X112847333Y-104475285D01*
X112847333Y-104475285D02*
X112799714Y-104665761D01*
X112799714Y-104665761D02*
X112704476Y-104761000D01*
X112704476Y-104761000D02*
X112609238Y-104808619D01*
X112609238Y-104808619D02*
X112418762Y-104808619D01*
X112418762Y-104808619D02*
X112323524Y-104761000D01*
X112323524Y-104761000D02*
X112228286Y-104665761D01*
X112228286Y-104665761D02*
X112180667Y-104475285D01*
X112180667Y-104475285D02*
X112180667Y-104141952D01*
X112180667Y-104141952D02*
X112228286Y-103951476D01*
X112228286Y-103951476D02*
X112323524Y-103856238D01*
X112323524Y-103856238D02*
X112418762Y-103808619D01*
X121158095Y-103650238D02*
X121062857Y-103602619D01*
X121062857Y-103602619D02*
X120920000Y-103602619D01*
X120920000Y-103602619D02*
X120777143Y-103650238D01*
X120777143Y-103650238D02*
X120681905Y-103745476D01*
X120681905Y-103745476D02*
X120634286Y-103840714D01*
X120634286Y-103840714D02*
X120586667Y-104031190D01*
X120586667Y-104031190D02*
X120586667Y-104174047D01*
X120586667Y-104174047D02*
X120634286Y-104364523D01*
X120634286Y-104364523D02*
X120681905Y-104459761D01*
X120681905Y-104459761D02*
X120777143Y-104555000D01*
X120777143Y-104555000D02*
X120920000Y-104602619D01*
X120920000Y-104602619D02*
X121015238Y-104602619D01*
X121015238Y-104602619D02*
X121158095Y-104555000D01*
X121158095Y-104555000D02*
X121205714Y-104507380D01*
X121205714Y-104507380D02*
X121205714Y-104174047D01*
X121205714Y-104174047D02*
X121015238Y-104174047D01*
X121634286Y-104602619D02*
X121634286Y-103602619D01*
X121634286Y-103602619D02*
X122205714Y-104602619D01*
X122205714Y-104602619D02*
X122205714Y-103602619D01*
X122681905Y-104602619D02*
X122681905Y-103602619D01*
X122681905Y-103602619D02*
X122920000Y-103602619D01*
X122920000Y-103602619D02*
X123062857Y-103650238D01*
X123062857Y-103650238D02*
X123158095Y-103745476D01*
X123158095Y-103745476D02*
X123205714Y-103840714D01*
X123205714Y-103840714D02*
X123253333Y-104031190D01*
X123253333Y-104031190D02*
X123253333Y-104174047D01*
X123253333Y-104174047D02*
X123205714Y-104364523D01*
X123205714Y-104364523D02*
X123158095Y-104459761D01*
X123158095Y-104459761D02*
X123062857Y-104555000D01*
X123062857Y-104555000D02*
X122920000Y-104602619D01*
X122920000Y-104602619D02*
X122681905Y-104602619D01*
X178903333Y-95712619D02*
X178427143Y-95712619D01*
X178427143Y-95712619D02*
X178427143Y-94712619D01*
X179189048Y-95665000D02*
X179331905Y-95712619D01*
X179331905Y-95712619D02*
X179570000Y-95712619D01*
X179570000Y-95712619D02*
X179665238Y-95665000D01*
X179665238Y-95665000D02*
X179712857Y-95617380D01*
X179712857Y-95617380D02*
X179760476Y-95522142D01*
X179760476Y-95522142D02*
X179760476Y-95426904D01*
X179760476Y-95426904D02*
X179712857Y-95331666D01*
X179712857Y-95331666D02*
X179665238Y-95284047D01*
X179665238Y-95284047D02*
X179570000Y-95236428D01*
X179570000Y-95236428D02*
X179379524Y-95188809D01*
X179379524Y-95188809D02*
X179284286Y-95141190D01*
X179284286Y-95141190D02*
X179236667Y-95093571D01*
X179236667Y-95093571D02*
X179189048Y-94998333D01*
X179189048Y-94998333D02*
X179189048Y-94903095D01*
X179189048Y-94903095D02*
X179236667Y-94807857D01*
X179236667Y-94807857D02*
X179284286Y-94760238D01*
X179284286Y-94760238D02*
X179379524Y-94712619D01*
X179379524Y-94712619D02*
X179617619Y-94712619D01*
X179617619Y-94712619D02*
X179760476Y-94760238D01*
X172466095Y-104158238D02*
X172370857Y-104110619D01*
X172370857Y-104110619D02*
X172228000Y-104110619D01*
X172228000Y-104110619D02*
X172085143Y-104158238D01*
X172085143Y-104158238D02*
X171989905Y-104253476D01*
X171989905Y-104253476D02*
X171942286Y-104348714D01*
X171942286Y-104348714D02*
X171894667Y-104539190D01*
X171894667Y-104539190D02*
X171894667Y-104682047D01*
X171894667Y-104682047D02*
X171942286Y-104872523D01*
X171942286Y-104872523D02*
X171989905Y-104967761D01*
X171989905Y-104967761D02*
X172085143Y-105063000D01*
X172085143Y-105063000D02*
X172228000Y-105110619D01*
X172228000Y-105110619D02*
X172323238Y-105110619D01*
X172323238Y-105110619D02*
X172466095Y-105063000D01*
X172466095Y-105063000D02*
X172513714Y-105015380D01*
X172513714Y-105015380D02*
X172513714Y-104682047D01*
X172513714Y-104682047D02*
X172323238Y-104682047D01*
X172942286Y-105110619D02*
X172942286Y-104110619D01*
X172942286Y-104110619D02*
X173513714Y-105110619D01*
X173513714Y-105110619D02*
X173513714Y-104110619D01*
X173989905Y-105110619D02*
X173989905Y-104110619D01*
X173989905Y-104110619D02*
X174228000Y-104110619D01*
X174228000Y-104110619D02*
X174370857Y-104158238D01*
X174370857Y-104158238D02*
X174466095Y-104253476D01*
X174466095Y-104253476D02*
X174513714Y-104348714D01*
X174513714Y-104348714D02*
X174561333Y-104539190D01*
X174561333Y-104539190D02*
X174561333Y-104682047D01*
X174561333Y-104682047D02*
X174513714Y-104872523D01*
X174513714Y-104872523D02*
X174466095Y-104967761D01*
X174466095Y-104967761D02*
X174370857Y-105063000D01*
X174370857Y-105063000D02*
X174228000Y-105110619D01*
X174228000Y-105110619D02*
X173989905Y-105110619D01*
X88812857Y-95458619D02*
X88812857Y-94458619D01*
X88812857Y-94458619D02*
X89193809Y-94458619D01*
X89193809Y-94458619D02*
X89289047Y-94506238D01*
X89289047Y-94506238D02*
X89336666Y-94553857D01*
X89336666Y-94553857D02*
X89384285Y-94649095D01*
X89384285Y-94649095D02*
X89384285Y-94791952D01*
X89384285Y-94791952D02*
X89336666Y-94887190D01*
X89336666Y-94887190D02*
X89289047Y-94934809D01*
X89289047Y-94934809D02*
X89193809Y-94982428D01*
X89193809Y-94982428D02*
X88812857Y-94982428D01*
X90003333Y-94458619D02*
X90193809Y-94458619D01*
X90193809Y-94458619D02*
X90289047Y-94506238D01*
X90289047Y-94506238D02*
X90384285Y-94601476D01*
X90384285Y-94601476D02*
X90431904Y-94791952D01*
X90431904Y-94791952D02*
X90431904Y-95125285D01*
X90431904Y-95125285D02*
X90384285Y-95315761D01*
X90384285Y-95315761D02*
X90289047Y-95411000D01*
X90289047Y-95411000D02*
X90193809Y-95458619D01*
X90193809Y-95458619D02*
X90003333Y-95458619D01*
X90003333Y-95458619D02*
X89908095Y-95411000D01*
X89908095Y-95411000D02*
X89812857Y-95315761D01*
X89812857Y-95315761D02*
X89765238Y-95125285D01*
X89765238Y-95125285D02*
X89765238Y-94791952D01*
X89765238Y-94791952D02*
X89812857Y-94601476D01*
X89812857Y-94601476D02*
X89908095Y-94506238D01*
X89908095Y-94506238D02*
X90003333Y-94458619D01*
X90765238Y-94458619D02*
X91003333Y-95458619D01*
X91003333Y-95458619D02*
X91193809Y-94744333D01*
X91193809Y-94744333D02*
X91384285Y-95458619D01*
X91384285Y-95458619D02*
X91622381Y-94458619D01*
X146034286Y-105999666D02*
X146796191Y-105999666D01*
X146415238Y-106380619D02*
X146415238Y-105618714D01*
X147748571Y-105380619D02*
X147272381Y-105380619D01*
X147272381Y-105380619D02*
X147224762Y-105856809D01*
X147224762Y-105856809D02*
X147272381Y-105809190D01*
X147272381Y-105809190D02*
X147367619Y-105761571D01*
X147367619Y-105761571D02*
X147605714Y-105761571D01*
X147605714Y-105761571D02*
X147700952Y-105809190D01*
X147700952Y-105809190D02*
X147748571Y-105856809D01*
X147748571Y-105856809D02*
X147796190Y-105952047D01*
X147796190Y-105952047D02*
X147796190Y-106190142D01*
X147796190Y-106190142D02*
X147748571Y-106285380D01*
X147748571Y-106285380D02*
X147700952Y-106333000D01*
X147700952Y-106333000D02*
X147605714Y-106380619D01*
X147605714Y-106380619D02*
X147367619Y-106380619D01*
X147367619Y-106380619D02*
X147272381Y-106333000D01*
X147272381Y-106333000D02*
X147224762Y-106285380D01*
X148081905Y-105380619D02*
X148415238Y-106380619D01*
X148415238Y-106380619D02*
X148748571Y-105380619D01*
X198334381Y-86044809D02*
X198477238Y-86092428D01*
X198477238Y-86092428D02*
X198524857Y-86140047D01*
X198524857Y-86140047D02*
X198572476Y-86235285D01*
X198572476Y-86235285D02*
X198572476Y-86378142D01*
X198572476Y-86378142D02*
X198524857Y-86473380D01*
X198524857Y-86473380D02*
X198477238Y-86521000D01*
X198477238Y-86521000D02*
X198382000Y-86568619D01*
X198382000Y-86568619D02*
X198001048Y-86568619D01*
X198001048Y-86568619D02*
X198001048Y-85568619D01*
X198001048Y-85568619D02*
X198334381Y-85568619D01*
X198334381Y-85568619D02*
X198429619Y-85616238D01*
X198429619Y-85616238D02*
X198477238Y-85663857D01*
X198477238Y-85663857D02*
X198524857Y-85759095D01*
X198524857Y-85759095D02*
X198524857Y-85854333D01*
X198524857Y-85854333D02*
X198477238Y-85949571D01*
X198477238Y-85949571D02*
X198429619Y-85997190D01*
X198429619Y-85997190D02*
X198334381Y-86044809D01*
X198334381Y-86044809D02*
X198001048Y-86044809D01*
X199001048Y-86187666D02*
X199762953Y-86187666D01*
X184975619Y-104110619D02*
X185308952Y-105110619D01*
X185308952Y-105110619D02*
X185642285Y-104110619D01*
X185975619Y-104729666D02*
X186737524Y-104729666D01*
X186356571Y-105110619D02*
X186356571Y-104348714D01*
X122483904Y-95188809D02*
X122817237Y-95188809D01*
X122960094Y-95712619D02*
X122483904Y-95712619D01*
X122483904Y-95712619D02*
X122483904Y-94712619D01*
X122483904Y-94712619D02*
X122960094Y-94712619D01*
X123388666Y-95045952D02*
X123388666Y-95712619D01*
X123388666Y-95141190D02*
X123436285Y-95093571D01*
X123436285Y-95093571D02*
X123531523Y-95045952D01*
X123531523Y-95045952D02*
X123674380Y-95045952D01*
X123674380Y-95045952D02*
X123769618Y-95093571D01*
X123769618Y-95093571D02*
X123817237Y-95188809D01*
X123817237Y-95188809D02*
X123817237Y-95712619D01*
X124721999Y-95665000D02*
X124626761Y-95712619D01*
X124626761Y-95712619D02*
X124436285Y-95712619D01*
X124436285Y-95712619D02*
X124341047Y-95665000D01*
X124341047Y-95665000D02*
X124293428Y-95617380D01*
X124293428Y-95617380D02*
X124245809Y-95522142D01*
X124245809Y-95522142D02*
X124245809Y-95236428D01*
X124245809Y-95236428D02*
X124293428Y-95141190D01*
X124293428Y-95141190D02*
X124341047Y-95093571D01*
X124341047Y-95093571D02*
X124436285Y-95045952D01*
X124436285Y-95045952D02*
X124626761Y-95045952D01*
X124626761Y-95045952D02*
X124721999Y-95093571D01*
X125293428Y-95712619D02*
X125198190Y-95665000D01*
X125198190Y-95665000D02*
X125150571Y-95617380D01*
X125150571Y-95617380D02*
X125102952Y-95522142D01*
X125102952Y-95522142D02*
X125102952Y-95236428D01*
X125102952Y-95236428D02*
X125150571Y-95141190D01*
X125150571Y-95141190D02*
X125198190Y-95093571D01*
X125198190Y-95093571D02*
X125293428Y-95045952D01*
X125293428Y-95045952D02*
X125436285Y-95045952D01*
X125436285Y-95045952D02*
X125531523Y-95093571D01*
X125531523Y-95093571D02*
X125579142Y-95141190D01*
X125579142Y-95141190D02*
X125626761Y-95236428D01*
X125626761Y-95236428D02*
X125626761Y-95522142D01*
X125626761Y-95522142D02*
X125579142Y-95617380D01*
X125579142Y-95617380D02*
X125531523Y-95665000D01*
X125531523Y-95665000D02*
X125436285Y-95712619D01*
X125436285Y-95712619D02*
X125293428Y-95712619D01*
X126483904Y-95712619D02*
X126483904Y-94712619D01*
X126483904Y-95665000D02*
X126388666Y-95712619D01*
X126388666Y-95712619D02*
X126198190Y-95712619D01*
X126198190Y-95712619D02*
X126102952Y-95665000D01*
X126102952Y-95665000D02*
X126055333Y-95617380D01*
X126055333Y-95617380D02*
X126007714Y-95522142D01*
X126007714Y-95522142D02*
X126007714Y-95236428D01*
X126007714Y-95236428D02*
X126055333Y-95141190D01*
X126055333Y-95141190D02*
X126102952Y-95093571D01*
X126102952Y-95093571D02*
X126198190Y-95045952D01*
X126198190Y-95045952D02*
X126388666Y-95045952D01*
X126388666Y-95045952D02*
X126483904Y-95093571D01*
X127341047Y-95665000D02*
X127245809Y-95712619D01*
X127245809Y-95712619D02*
X127055333Y-95712619D01*
X127055333Y-95712619D02*
X126960095Y-95665000D01*
X126960095Y-95665000D02*
X126912476Y-95569761D01*
X126912476Y-95569761D02*
X126912476Y-95188809D01*
X126912476Y-95188809D02*
X126960095Y-95093571D01*
X126960095Y-95093571D02*
X127055333Y-95045952D01*
X127055333Y-95045952D02*
X127245809Y-95045952D01*
X127245809Y-95045952D02*
X127341047Y-95093571D01*
X127341047Y-95093571D02*
X127388666Y-95188809D01*
X127388666Y-95188809D02*
X127388666Y-95284047D01*
X127388666Y-95284047D02*
X126912476Y-95379285D01*
X127817238Y-95712619D02*
X127817238Y-95045952D01*
X127817238Y-95236428D02*
X127864857Y-95141190D01*
X127864857Y-95141190D02*
X127912476Y-95093571D01*
X127912476Y-95093571D02*
X128007714Y-95045952D01*
X128007714Y-95045952D02*
X128102952Y-95045952D01*
X114895333Y-95712619D02*
X114419143Y-95712619D01*
X114419143Y-95712619D02*
X114419143Y-94712619D01*
X115181048Y-95665000D02*
X115323905Y-95712619D01*
X115323905Y-95712619D02*
X115562000Y-95712619D01*
X115562000Y-95712619D02*
X115657238Y-95665000D01*
X115657238Y-95665000D02*
X115704857Y-95617380D01*
X115704857Y-95617380D02*
X115752476Y-95522142D01*
X115752476Y-95522142D02*
X115752476Y-95426904D01*
X115752476Y-95426904D02*
X115704857Y-95331666D01*
X115704857Y-95331666D02*
X115657238Y-95284047D01*
X115657238Y-95284047D02*
X115562000Y-95236428D01*
X115562000Y-95236428D02*
X115371524Y-95188809D01*
X115371524Y-95188809D02*
X115276286Y-95141190D01*
X115276286Y-95141190D02*
X115228667Y-95093571D01*
X115228667Y-95093571D02*
X115181048Y-94998333D01*
X115181048Y-94998333D02*
X115181048Y-94903095D01*
X115181048Y-94903095D02*
X115228667Y-94807857D01*
X115228667Y-94807857D02*
X115276286Y-94760238D01*
X115276286Y-94760238D02*
X115371524Y-94712619D01*
X115371524Y-94712619D02*
X115609619Y-94712619D01*
X115609619Y-94712619D02*
X115752476Y-94760238D01*
X149201238Y-95188809D02*
X149344095Y-95236428D01*
X149344095Y-95236428D02*
X149391714Y-95284047D01*
X149391714Y-95284047D02*
X149439333Y-95379285D01*
X149439333Y-95379285D02*
X149439333Y-95522142D01*
X149439333Y-95522142D02*
X149391714Y-95617380D01*
X149391714Y-95617380D02*
X149344095Y-95665000D01*
X149344095Y-95665000D02*
X149248857Y-95712619D01*
X149248857Y-95712619D02*
X148867905Y-95712619D01*
X148867905Y-95712619D02*
X148867905Y-94712619D01*
X148867905Y-94712619D02*
X149201238Y-94712619D01*
X149201238Y-94712619D02*
X149296476Y-94760238D01*
X149296476Y-94760238D02*
X149344095Y-94807857D01*
X149344095Y-94807857D02*
X149391714Y-94903095D01*
X149391714Y-94903095D02*
X149391714Y-94998333D01*
X149391714Y-94998333D02*
X149344095Y-95093571D01*
X149344095Y-95093571D02*
X149296476Y-95141190D01*
X149296476Y-95141190D02*
X149201238Y-95188809D01*
X149201238Y-95188809D02*
X148867905Y-95188809D01*
X149820286Y-95665000D02*
X149963143Y-95712619D01*
X149963143Y-95712619D02*
X150201238Y-95712619D01*
X150201238Y-95712619D02*
X150296476Y-95665000D01*
X150296476Y-95665000D02*
X150344095Y-95617380D01*
X150344095Y-95617380D02*
X150391714Y-95522142D01*
X150391714Y-95522142D02*
X150391714Y-95426904D01*
X150391714Y-95426904D02*
X150344095Y-95331666D01*
X150344095Y-95331666D02*
X150296476Y-95284047D01*
X150296476Y-95284047D02*
X150201238Y-95236428D01*
X150201238Y-95236428D02*
X150010762Y-95188809D01*
X150010762Y-95188809D02*
X149915524Y-95141190D01*
X149915524Y-95141190D02*
X149867905Y-95093571D01*
X149867905Y-95093571D02*
X149820286Y-94998333D01*
X149820286Y-94998333D02*
X149820286Y-94903095D01*
X149820286Y-94903095D02*
X149867905Y-94807857D01*
X149867905Y-94807857D02*
X149915524Y-94760238D01*
X149915524Y-94760238D02*
X150010762Y-94712619D01*
X150010762Y-94712619D02*
X150248857Y-94712619D01*
X150248857Y-94712619D02*
X150391714Y-94760238D01*
X198024857Y-91870904D02*
X198501047Y-91870904D01*
X197929619Y-92156619D02*
X198262952Y-91156619D01*
X198262952Y-91156619D02*
X198596285Y-92156619D01*
X198929619Y-91775666D02*
X199691524Y-91775666D01*
X160448666Y-104840809D02*
X160115333Y-104840809D01*
X160115333Y-105364619D02*
X160115333Y-104364619D01*
X160115333Y-104364619D02*
X160591523Y-104364619D01*
X160924857Y-105317000D02*
X161067714Y-105364619D01*
X161067714Y-105364619D02*
X161305809Y-105364619D01*
X161305809Y-105364619D02*
X161401047Y-105317000D01*
X161401047Y-105317000D02*
X161448666Y-105269380D01*
X161448666Y-105269380D02*
X161496285Y-105174142D01*
X161496285Y-105174142D02*
X161496285Y-105078904D01*
X161496285Y-105078904D02*
X161448666Y-104983666D01*
X161448666Y-104983666D02*
X161401047Y-104936047D01*
X161401047Y-104936047D02*
X161305809Y-104888428D01*
X161305809Y-104888428D02*
X161115333Y-104840809D01*
X161115333Y-104840809D02*
X161020095Y-104793190D01*
X161020095Y-104793190D02*
X160972476Y-104745571D01*
X160972476Y-104745571D02*
X160924857Y-104650333D01*
X160924857Y-104650333D02*
X160924857Y-104555095D01*
X160924857Y-104555095D02*
X160972476Y-104459857D01*
X160972476Y-104459857D02*
X161020095Y-104412238D01*
X161020095Y-104412238D02*
X161115333Y-104364619D01*
X161115333Y-104364619D02*
X161353428Y-104364619D01*
X161353428Y-104364619D02*
X161496285Y-104412238D01*
X127579523Y-104459380D02*
X127531904Y-104507000D01*
X127531904Y-104507000D02*
X127389047Y-104554619D01*
X127389047Y-104554619D02*
X127293809Y-104554619D01*
X127293809Y-104554619D02*
X127150952Y-104507000D01*
X127150952Y-104507000D02*
X127055714Y-104411761D01*
X127055714Y-104411761D02*
X127008095Y-104316523D01*
X127008095Y-104316523D02*
X126960476Y-104126047D01*
X126960476Y-104126047D02*
X126960476Y-103983190D01*
X126960476Y-103983190D02*
X127008095Y-103792714D01*
X127008095Y-103792714D02*
X127055714Y-103697476D01*
X127055714Y-103697476D02*
X127150952Y-103602238D01*
X127150952Y-103602238D02*
X127293809Y-103554619D01*
X127293809Y-103554619D02*
X127389047Y-103554619D01*
X127389047Y-103554619D02*
X127531904Y-103602238D01*
X127531904Y-103602238D02*
X127579523Y-103649857D01*
X128008095Y-104554619D02*
X128008095Y-103554619D01*
X128008095Y-104030809D02*
X128579523Y-104030809D01*
X128579523Y-104554619D02*
X128579523Y-103554619D01*
X129008095Y-103649857D02*
X129055714Y-103602238D01*
X129055714Y-103602238D02*
X129150952Y-103554619D01*
X129150952Y-103554619D02*
X129389047Y-103554619D01*
X129389047Y-103554619D02*
X129484285Y-103602238D01*
X129484285Y-103602238D02*
X129531904Y-103649857D01*
X129531904Y-103649857D02*
X129579523Y-103745095D01*
X129579523Y-103745095D02*
X129579523Y-103840333D01*
X129579523Y-103840333D02*
X129531904Y-103983190D01*
X129531904Y-103983190D02*
X128960476Y-104554619D01*
X128960476Y-104554619D02*
X129579523Y-104554619D01*
X98044095Y-103602619D02*
X98615523Y-103602619D01*
X98329809Y-104602619D02*
X98329809Y-103602619D01*
X98853619Y-103602619D02*
X99520285Y-104602619D01*
X99520285Y-103602619D02*
X98853619Y-104602619D01*
X144018095Y-103650238D02*
X143922857Y-103602619D01*
X143922857Y-103602619D02*
X143780000Y-103602619D01*
X143780000Y-103602619D02*
X143637143Y-103650238D01*
X143637143Y-103650238D02*
X143541905Y-103745476D01*
X143541905Y-103745476D02*
X143494286Y-103840714D01*
X143494286Y-103840714D02*
X143446667Y-104031190D01*
X143446667Y-104031190D02*
X143446667Y-104174047D01*
X143446667Y-104174047D02*
X143494286Y-104364523D01*
X143494286Y-104364523D02*
X143541905Y-104459761D01*
X143541905Y-104459761D02*
X143637143Y-104555000D01*
X143637143Y-104555000D02*
X143780000Y-104602619D01*
X143780000Y-104602619D02*
X143875238Y-104602619D01*
X143875238Y-104602619D02*
X144018095Y-104555000D01*
X144018095Y-104555000D02*
X144065714Y-104507380D01*
X144065714Y-104507380D02*
X144065714Y-104174047D01*
X144065714Y-104174047D02*
X143875238Y-104174047D01*
X144494286Y-104602619D02*
X144494286Y-103602619D01*
X144494286Y-103602619D02*
X145065714Y-104602619D01*
X145065714Y-104602619D02*
X145065714Y-103602619D01*
X145541905Y-104602619D02*
X145541905Y-103602619D01*
X145541905Y-103602619D02*
X145780000Y-103602619D01*
X145780000Y-103602619D02*
X145922857Y-103650238D01*
X145922857Y-103650238D02*
X146018095Y-103745476D01*
X146018095Y-103745476D02*
X146065714Y-103840714D01*
X146065714Y-103840714D02*
X146113333Y-104031190D01*
X146113333Y-104031190D02*
X146113333Y-104174047D01*
X146113333Y-104174047D02*
X146065714Y-104364523D01*
X146065714Y-104364523D02*
X146018095Y-104459761D01*
X146018095Y-104459761D02*
X145922857Y-104555000D01*
X145922857Y-104555000D02*
X145780000Y-104602619D01*
X145780000Y-104602619D02*
X145541905Y-104602619D01*
X101346095Y-103650238D02*
X101250857Y-103602619D01*
X101250857Y-103602619D02*
X101108000Y-103602619D01*
X101108000Y-103602619D02*
X100965143Y-103650238D01*
X100965143Y-103650238D02*
X100869905Y-103745476D01*
X100869905Y-103745476D02*
X100822286Y-103840714D01*
X100822286Y-103840714D02*
X100774667Y-104031190D01*
X100774667Y-104031190D02*
X100774667Y-104174047D01*
X100774667Y-104174047D02*
X100822286Y-104364523D01*
X100822286Y-104364523D02*
X100869905Y-104459761D01*
X100869905Y-104459761D02*
X100965143Y-104555000D01*
X100965143Y-104555000D02*
X101108000Y-104602619D01*
X101108000Y-104602619D02*
X101203238Y-104602619D01*
X101203238Y-104602619D02*
X101346095Y-104555000D01*
X101346095Y-104555000D02*
X101393714Y-104507380D01*
X101393714Y-104507380D02*
X101393714Y-104174047D01*
X101393714Y-104174047D02*
X101203238Y-104174047D01*
X101822286Y-104602619D02*
X101822286Y-103602619D01*
X101822286Y-103602619D02*
X102393714Y-104602619D01*
X102393714Y-104602619D02*
X102393714Y-103602619D01*
X102869905Y-104602619D02*
X102869905Y-103602619D01*
X102869905Y-103602619D02*
X103108000Y-103602619D01*
X103108000Y-103602619D02*
X103250857Y-103650238D01*
X103250857Y-103650238D02*
X103346095Y-103745476D01*
X103346095Y-103745476D02*
X103393714Y-103840714D01*
X103393714Y-103840714D02*
X103441333Y-104031190D01*
X103441333Y-104031190D02*
X103441333Y-104174047D01*
X103441333Y-104174047D02*
X103393714Y-104364523D01*
X103393714Y-104364523D02*
X103346095Y-104459761D01*
X103346095Y-104459761D02*
X103250857Y-104555000D01*
X103250857Y-104555000D02*
X103108000Y-104602619D01*
X103108000Y-104602619D02*
X102869905Y-104602619D01*
X114808095Y-103904238D02*
X114712857Y-103856619D01*
X114712857Y-103856619D02*
X114570000Y-103856619D01*
X114570000Y-103856619D02*
X114427143Y-103904238D01*
X114427143Y-103904238D02*
X114331905Y-103999476D01*
X114331905Y-103999476D02*
X114284286Y-104094714D01*
X114284286Y-104094714D02*
X114236667Y-104285190D01*
X114236667Y-104285190D02*
X114236667Y-104428047D01*
X114236667Y-104428047D02*
X114284286Y-104618523D01*
X114284286Y-104618523D02*
X114331905Y-104713761D01*
X114331905Y-104713761D02*
X114427143Y-104809000D01*
X114427143Y-104809000D02*
X114570000Y-104856619D01*
X114570000Y-104856619D02*
X114665238Y-104856619D01*
X114665238Y-104856619D02*
X114808095Y-104809000D01*
X114808095Y-104809000D02*
X114855714Y-104761380D01*
X114855714Y-104761380D02*
X114855714Y-104428047D01*
X114855714Y-104428047D02*
X114665238Y-104428047D01*
X115284286Y-104856619D02*
X115284286Y-103856619D01*
X115284286Y-103856619D02*
X115855714Y-104856619D01*
X115855714Y-104856619D02*
X115855714Y-103856619D01*
X116331905Y-104856619D02*
X116331905Y-103856619D01*
X116331905Y-103856619D02*
X116570000Y-103856619D01*
X116570000Y-103856619D02*
X116712857Y-103904238D01*
X116712857Y-103904238D02*
X116808095Y-103999476D01*
X116808095Y-103999476D02*
X116855714Y-104094714D01*
X116855714Y-104094714D02*
X116903333Y-104285190D01*
X116903333Y-104285190D02*
X116903333Y-104428047D01*
X116903333Y-104428047D02*
X116855714Y-104618523D01*
X116855714Y-104618523D02*
X116808095Y-104713761D01*
X116808095Y-104713761D02*
X116712857Y-104809000D01*
X116712857Y-104809000D02*
X116570000Y-104856619D01*
X116570000Y-104856619D02*
X116331905Y-104856619D01*
X161782286Y-94823666D02*
X162544191Y-94823666D01*
X162163238Y-95204619D02*
X162163238Y-94442714D01*
X163496571Y-94204619D02*
X163020381Y-94204619D01*
X163020381Y-94204619D02*
X162972762Y-94680809D01*
X162972762Y-94680809D02*
X163020381Y-94633190D01*
X163020381Y-94633190D02*
X163115619Y-94585571D01*
X163115619Y-94585571D02*
X163353714Y-94585571D01*
X163353714Y-94585571D02*
X163448952Y-94633190D01*
X163448952Y-94633190D02*
X163496571Y-94680809D01*
X163496571Y-94680809D02*
X163544190Y-94776047D01*
X163544190Y-94776047D02*
X163544190Y-95014142D01*
X163544190Y-95014142D02*
X163496571Y-95109380D01*
X163496571Y-95109380D02*
X163448952Y-95157000D01*
X163448952Y-95157000D02*
X163353714Y-95204619D01*
X163353714Y-95204619D02*
X163115619Y-95204619D01*
X163115619Y-95204619D02*
X163020381Y-95157000D01*
X163020381Y-95157000D02*
X162972762Y-95109380D01*
X163829905Y-94204619D02*
X164163238Y-95204619D01*
X164163238Y-95204619D02*
X164496571Y-94204619D01*
X152225524Y-106333000D02*
X152368381Y-106380619D01*
X152368381Y-106380619D02*
X152606476Y-106380619D01*
X152606476Y-106380619D02*
X152701714Y-106333000D01*
X152701714Y-106333000D02*
X152749333Y-106285380D01*
X152749333Y-106285380D02*
X152796952Y-106190142D01*
X152796952Y-106190142D02*
X152796952Y-106094904D01*
X152796952Y-106094904D02*
X152749333Y-105999666D01*
X152749333Y-105999666D02*
X152701714Y-105952047D01*
X152701714Y-105952047D02*
X152606476Y-105904428D01*
X152606476Y-105904428D02*
X152416000Y-105856809D01*
X152416000Y-105856809D02*
X152320762Y-105809190D01*
X152320762Y-105809190D02*
X152273143Y-105761571D01*
X152273143Y-105761571D02*
X152225524Y-105666333D01*
X152225524Y-105666333D02*
X152225524Y-105571095D01*
X152225524Y-105571095D02*
X152273143Y-105475857D01*
X152273143Y-105475857D02*
X152320762Y-105428238D01*
X152320762Y-105428238D02*
X152416000Y-105380619D01*
X152416000Y-105380619D02*
X152654095Y-105380619D01*
X152654095Y-105380619D02*
X152796952Y-105428238D01*
X153796952Y-106285380D02*
X153749333Y-106333000D01*
X153749333Y-106333000D02*
X153606476Y-106380619D01*
X153606476Y-106380619D02*
X153511238Y-106380619D01*
X153511238Y-106380619D02*
X153368381Y-106333000D01*
X153368381Y-106333000D02*
X153273143Y-106237761D01*
X153273143Y-106237761D02*
X153225524Y-106142523D01*
X153225524Y-106142523D02*
X153177905Y-105952047D01*
X153177905Y-105952047D02*
X153177905Y-105809190D01*
X153177905Y-105809190D02*
X153225524Y-105618714D01*
X153225524Y-105618714D02*
X153273143Y-105523476D01*
X153273143Y-105523476D02*
X153368381Y-105428238D01*
X153368381Y-105428238D02*
X153511238Y-105380619D01*
X153511238Y-105380619D02*
X153606476Y-105380619D01*
X153606476Y-105380619D02*
X153749333Y-105428238D01*
X153749333Y-105428238D02*
X153796952Y-105475857D01*
X154701714Y-106380619D02*
X154225524Y-106380619D01*
X154225524Y-106380619D02*
X154225524Y-105380619D01*
X175125238Y-104760619D02*
X175125238Y-103760619D01*
X175125238Y-103760619D02*
X175363333Y-103760619D01*
X175363333Y-103760619D02*
X175506190Y-103808238D01*
X175506190Y-103808238D02*
X175601428Y-103903476D01*
X175601428Y-103903476D02*
X175649047Y-103998714D01*
X175649047Y-103998714D02*
X175696666Y-104189190D01*
X175696666Y-104189190D02*
X175696666Y-104332047D01*
X175696666Y-104332047D02*
X175649047Y-104522523D01*
X175649047Y-104522523D02*
X175601428Y-104617761D01*
X175601428Y-104617761D02*
X175506190Y-104713000D01*
X175506190Y-104713000D02*
X175363333Y-104760619D01*
X175363333Y-104760619D02*
X175125238Y-104760619D01*
X176315714Y-103760619D02*
X176506190Y-103760619D01*
X176506190Y-103760619D02*
X176601428Y-103808238D01*
X176601428Y-103808238D02*
X176696666Y-103903476D01*
X176696666Y-103903476D02*
X176744285Y-104093952D01*
X176744285Y-104093952D02*
X176744285Y-104427285D01*
X176744285Y-104427285D02*
X176696666Y-104617761D01*
X176696666Y-104617761D02*
X176601428Y-104713000D01*
X176601428Y-104713000D02*
X176506190Y-104760619D01*
X176506190Y-104760619D02*
X176315714Y-104760619D01*
X176315714Y-104760619D02*
X176220476Y-104713000D01*
X176220476Y-104713000D02*
X176125238Y-104617761D01*
X176125238Y-104617761D02*
X176077619Y-104427285D01*
X176077619Y-104427285D02*
X176077619Y-104093952D01*
X176077619Y-104093952D02*
X176125238Y-103903476D01*
X176125238Y-103903476D02*
X176220476Y-103808238D01*
X176220476Y-103808238D02*
X176315714Y-103760619D01*
X177172857Y-104379666D02*
X177934762Y-104379666D01*
X177553809Y-104760619D02*
X177553809Y-103998714D01*
X82711000Y-83105332D02*
X82758619Y-82962475D01*
X82758619Y-82962475D02*
X82758619Y-82724380D01*
X82758619Y-82724380D02*
X82711000Y-82629142D01*
X82711000Y-82629142D02*
X82663380Y-82581523D01*
X82663380Y-82581523D02*
X82568142Y-82533904D01*
X82568142Y-82533904D02*
X82472904Y-82533904D01*
X82472904Y-82533904D02*
X82377666Y-82581523D01*
X82377666Y-82581523D02*
X82330047Y-82629142D01*
X82330047Y-82629142D02*
X82282428Y-82724380D01*
X82282428Y-82724380D02*
X82234809Y-82914856D01*
X82234809Y-82914856D02*
X82187190Y-83010094D01*
X82187190Y-83010094D02*
X82139571Y-83057713D01*
X82139571Y-83057713D02*
X82044333Y-83105332D01*
X82044333Y-83105332D02*
X81949095Y-83105332D01*
X81949095Y-83105332D02*
X81853857Y-83057713D01*
X81853857Y-83057713D02*
X81806238Y-83010094D01*
X81806238Y-83010094D02*
X81758619Y-82914856D01*
X81758619Y-82914856D02*
X81758619Y-82676761D01*
X81758619Y-82676761D02*
X81806238Y-82533904D01*
X81758619Y-82248189D02*
X81758619Y-81676761D01*
X82758619Y-81962475D02*
X81758619Y-81962475D01*
X82758619Y-80867237D02*
X82758619Y-81343427D01*
X82758619Y-81343427D02*
X81758619Y-81343427D01*
X82758619Y-80533903D02*
X81758619Y-80533903D01*
X82758619Y-80057713D02*
X81758619Y-80057713D01*
X81758619Y-80057713D02*
X82758619Y-79486285D01*
X82758619Y-79486285D02*
X81758619Y-79486285D01*
X82758619Y-79010094D02*
X81758619Y-79010094D01*
X82758619Y-78438666D02*
X82187190Y-78867237D01*
X81758619Y-78438666D02*
X82330047Y-79010094D01*
X149153714Y-104555000D02*
X149296571Y-104602619D01*
X149296571Y-104602619D02*
X149534666Y-104602619D01*
X149534666Y-104602619D02*
X149629904Y-104555000D01*
X149629904Y-104555000D02*
X149677523Y-104507380D01*
X149677523Y-104507380D02*
X149725142Y-104412142D01*
X149725142Y-104412142D02*
X149725142Y-104316904D01*
X149725142Y-104316904D02*
X149677523Y-104221666D01*
X149677523Y-104221666D02*
X149629904Y-104174047D01*
X149629904Y-104174047D02*
X149534666Y-104126428D01*
X149534666Y-104126428D02*
X149344190Y-104078809D01*
X149344190Y-104078809D02*
X149248952Y-104031190D01*
X149248952Y-104031190D02*
X149201333Y-103983571D01*
X149201333Y-103983571D02*
X149153714Y-103888333D01*
X149153714Y-103888333D02*
X149153714Y-103793095D01*
X149153714Y-103793095D02*
X149201333Y-103697857D01*
X149201333Y-103697857D02*
X149248952Y-103650238D01*
X149248952Y-103650238D02*
X149344190Y-103602619D01*
X149344190Y-103602619D02*
X149582285Y-103602619D01*
X149582285Y-103602619D02*
X149725142Y-103650238D01*
X150153714Y-104602619D02*
X150153714Y-103602619D01*
X150153714Y-103602619D02*
X150391809Y-103602619D01*
X150391809Y-103602619D02*
X150534666Y-103650238D01*
X150534666Y-103650238D02*
X150629904Y-103745476D01*
X150629904Y-103745476D02*
X150677523Y-103840714D01*
X150677523Y-103840714D02*
X150725142Y-104031190D01*
X150725142Y-104031190D02*
X150725142Y-104174047D01*
X150725142Y-104174047D02*
X150677523Y-104364523D01*
X150677523Y-104364523D02*
X150629904Y-104459761D01*
X150629904Y-104459761D02*
X150534666Y-104555000D01*
X150534666Y-104555000D02*
X150391809Y-104602619D01*
X150391809Y-104602619D02*
X150153714Y-104602619D01*
X151106095Y-104316904D02*
X151582285Y-104316904D01*
X151010857Y-104602619D02*
X151344190Y-103602619D01*
X151344190Y-103602619D02*
X151677523Y-104602619D01*
X130556095Y-104158238D02*
X130460857Y-104110619D01*
X130460857Y-104110619D02*
X130318000Y-104110619D01*
X130318000Y-104110619D02*
X130175143Y-104158238D01*
X130175143Y-104158238D02*
X130079905Y-104253476D01*
X130079905Y-104253476D02*
X130032286Y-104348714D01*
X130032286Y-104348714D02*
X129984667Y-104539190D01*
X129984667Y-104539190D02*
X129984667Y-104682047D01*
X129984667Y-104682047D02*
X130032286Y-104872523D01*
X130032286Y-104872523D02*
X130079905Y-104967761D01*
X130079905Y-104967761D02*
X130175143Y-105063000D01*
X130175143Y-105063000D02*
X130318000Y-105110619D01*
X130318000Y-105110619D02*
X130413238Y-105110619D01*
X130413238Y-105110619D02*
X130556095Y-105063000D01*
X130556095Y-105063000D02*
X130603714Y-105015380D01*
X130603714Y-105015380D02*
X130603714Y-104682047D01*
X130603714Y-104682047D02*
X130413238Y-104682047D01*
X131032286Y-105110619D02*
X131032286Y-104110619D01*
X131032286Y-104110619D02*
X131603714Y-105110619D01*
X131603714Y-105110619D02*
X131603714Y-104110619D01*
X132079905Y-105110619D02*
X132079905Y-104110619D01*
X132079905Y-104110619D02*
X132318000Y-104110619D01*
X132318000Y-104110619D02*
X132460857Y-104158238D01*
X132460857Y-104158238D02*
X132556095Y-104253476D01*
X132556095Y-104253476D02*
X132603714Y-104348714D01*
X132603714Y-104348714D02*
X132651333Y-104539190D01*
X132651333Y-104539190D02*
X132651333Y-104682047D01*
X132651333Y-104682047D02*
X132603714Y-104872523D01*
X132603714Y-104872523D02*
X132556095Y-104967761D01*
X132556095Y-104967761D02*
X132460857Y-105063000D01*
X132460857Y-105063000D02*
X132318000Y-105110619D01*
X132318000Y-105110619D02*
X132079905Y-105110619D01*
X178427238Y-105062619D02*
X178427238Y-104062619D01*
X178427238Y-104062619D02*
X178665333Y-104062619D01*
X178665333Y-104062619D02*
X178808190Y-104110238D01*
X178808190Y-104110238D02*
X178903428Y-104205476D01*
X178903428Y-104205476D02*
X178951047Y-104300714D01*
X178951047Y-104300714D02*
X178998666Y-104491190D01*
X178998666Y-104491190D02*
X178998666Y-104634047D01*
X178998666Y-104634047D02*
X178951047Y-104824523D01*
X178951047Y-104824523D02*
X178903428Y-104919761D01*
X178903428Y-104919761D02*
X178808190Y-105015000D01*
X178808190Y-105015000D02*
X178665333Y-105062619D01*
X178665333Y-105062619D02*
X178427238Y-105062619D01*
X179617714Y-104062619D02*
X179808190Y-104062619D01*
X179808190Y-104062619D02*
X179903428Y-104110238D01*
X179903428Y-104110238D02*
X179998666Y-104205476D01*
X179998666Y-104205476D02*
X180046285Y-104395952D01*
X180046285Y-104395952D02*
X180046285Y-104729285D01*
X180046285Y-104729285D02*
X179998666Y-104919761D01*
X179998666Y-104919761D02*
X179903428Y-105015000D01*
X179903428Y-105015000D02*
X179808190Y-105062619D01*
X179808190Y-105062619D02*
X179617714Y-105062619D01*
X179617714Y-105062619D02*
X179522476Y-105015000D01*
X179522476Y-105015000D02*
X179427238Y-104919761D01*
X179427238Y-104919761D02*
X179379619Y-104729285D01*
X179379619Y-104729285D02*
X179379619Y-104395952D01*
X179379619Y-104395952D02*
X179427238Y-104205476D01*
X179427238Y-104205476D02*
X179522476Y-104110238D01*
X179522476Y-104110238D02*
X179617714Y-104062619D01*
X180474857Y-104681666D02*
X181236762Y-104681666D01*
X117332286Y-104729666D02*
X118094191Y-104729666D01*
X117713238Y-105110619D02*
X117713238Y-104348714D01*
X119046571Y-104110619D02*
X118570381Y-104110619D01*
X118570381Y-104110619D02*
X118522762Y-104586809D01*
X118522762Y-104586809D02*
X118570381Y-104539190D01*
X118570381Y-104539190D02*
X118665619Y-104491571D01*
X118665619Y-104491571D02*
X118903714Y-104491571D01*
X118903714Y-104491571D02*
X118998952Y-104539190D01*
X118998952Y-104539190D02*
X119046571Y-104586809D01*
X119046571Y-104586809D02*
X119094190Y-104682047D01*
X119094190Y-104682047D02*
X119094190Y-104920142D01*
X119094190Y-104920142D02*
X119046571Y-105015380D01*
X119046571Y-105015380D02*
X118998952Y-105063000D01*
X118998952Y-105063000D02*
X118903714Y-105110619D01*
X118903714Y-105110619D02*
X118665619Y-105110619D01*
X118665619Y-105110619D02*
X118570381Y-105063000D01*
X118570381Y-105063000D02*
X118522762Y-105015380D01*
X119379905Y-104110619D02*
X119713238Y-105110619D01*
X119713238Y-105110619D02*
X120046571Y-104110619D01*
X159258095Y-94252238D02*
X159162857Y-94204619D01*
X159162857Y-94204619D02*
X159020000Y-94204619D01*
X159020000Y-94204619D02*
X158877143Y-94252238D01*
X158877143Y-94252238D02*
X158781905Y-94347476D01*
X158781905Y-94347476D02*
X158734286Y-94442714D01*
X158734286Y-94442714D02*
X158686667Y-94633190D01*
X158686667Y-94633190D02*
X158686667Y-94776047D01*
X158686667Y-94776047D02*
X158734286Y-94966523D01*
X158734286Y-94966523D02*
X158781905Y-95061761D01*
X158781905Y-95061761D02*
X158877143Y-95157000D01*
X158877143Y-95157000D02*
X159020000Y-95204619D01*
X159020000Y-95204619D02*
X159115238Y-95204619D01*
X159115238Y-95204619D02*
X159258095Y-95157000D01*
X159258095Y-95157000D02*
X159305714Y-95109380D01*
X159305714Y-95109380D02*
X159305714Y-94776047D01*
X159305714Y-94776047D02*
X159115238Y-94776047D01*
X159734286Y-95204619D02*
X159734286Y-94204619D01*
X159734286Y-94204619D02*
X160305714Y-95204619D01*
X160305714Y-95204619D02*
X160305714Y-94204619D01*
X160781905Y-95204619D02*
X160781905Y-94204619D01*
X160781905Y-94204619D02*
X161020000Y-94204619D01*
X161020000Y-94204619D02*
X161162857Y-94252238D01*
X161162857Y-94252238D02*
X161258095Y-94347476D01*
X161258095Y-94347476D02*
X161305714Y-94442714D01*
X161305714Y-94442714D02*
X161353333Y-94633190D01*
X161353333Y-94633190D02*
X161353333Y-94776047D01*
X161353333Y-94776047D02*
X161305714Y-94966523D01*
X161305714Y-94966523D02*
X161258095Y-95061761D01*
X161258095Y-95061761D02*
X161162857Y-95157000D01*
X161162857Y-95157000D02*
X161020000Y-95204619D01*
X161020000Y-95204619D02*
X160781905Y-95204619D01*
X124531523Y-105015380D02*
X124483904Y-105063000D01*
X124483904Y-105063000D02*
X124341047Y-105110619D01*
X124341047Y-105110619D02*
X124245809Y-105110619D01*
X124245809Y-105110619D02*
X124102952Y-105063000D01*
X124102952Y-105063000D02*
X124007714Y-104967761D01*
X124007714Y-104967761D02*
X123960095Y-104872523D01*
X123960095Y-104872523D02*
X123912476Y-104682047D01*
X123912476Y-104682047D02*
X123912476Y-104539190D01*
X123912476Y-104539190D02*
X123960095Y-104348714D01*
X123960095Y-104348714D02*
X124007714Y-104253476D01*
X124007714Y-104253476D02*
X124102952Y-104158238D01*
X124102952Y-104158238D02*
X124245809Y-104110619D01*
X124245809Y-104110619D02*
X124341047Y-104110619D01*
X124341047Y-104110619D02*
X124483904Y-104158238D01*
X124483904Y-104158238D02*
X124531523Y-104205857D01*
X124960095Y-105110619D02*
X124960095Y-104110619D01*
X124960095Y-104586809D02*
X125531523Y-104586809D01*
X125531523Y-105110619D02*
X125531523Y-104110619D01*
X126531523Y-105110619D02*
X125960095Y-105110619D01*
X126245809Y-105110619D02*
X126245809Y-104110619D01*
X126245809Y-104110619D02*
X126150571Y-104253476D01*
X126150571Y-104253476D02*
X126055333Y-104348714D01*
X126055333Y-104348714D02*
X125960095Y-104396333D01*
X91186095Y-103904238D02*
X91090857Y-103856619D01*
X91090857Y-103856619D02*
X90948000Y-103856619D01*
X90948000Y-103856619D02*
X90805143Y-103904238D01*
X90805143Y-103904238D02*
X90709905Y-103999476D01*
X90709905Y-103999476D02*
X90662286Y-104094714D01*
X90662286Y-104094714D02*
X90614667Y-104285190D01*
X90614667Y-104285190D02*
X90614667Y-104428047D01*
X90614667Y-104428047D02*
X90662286Y-104618523D01*
X90662286Y-104618523D02*
X90709905Y-104713761D01*
X90709905Y-104713761D02*
X90805143Y-104809000D01*
X90805143Y-104809000D02*
X90948000Y-104856619D01*
X90948000Y-104856619D02*
X91043238Y-104856619D01*
X91043238Y-104856619D02*
X91186095Y-104809000D01*
X91186095Y-104809000D02*
X91233714Y-104761380D01*
X91233714Y-104761380D02*
X91233714Y-104428047D01*
X91233714Y-104428047D02*
X91043238Y-104428047D01*
X91662286Y-104856619D02*
X91662286Y-103856619D01*
X91662286Y-103856619D02*
X92233714Y-104856619D01*
X92233714Y-104856619D02*
X92233714Y-103856619D01*
X92709905Y-104856619D02*
X92709905Y-103856619D01*
X92709905Y-103856619D02*
X92948000Y-103856619D01*
X92948000Y-103856619D02*
X93090857Y-103904238D01*
X93090857Y-103904238D02*
X93186095Y-103999476D01*
X93186095Y-103999476D02*
X93233714Y-104094714D01*
X93233714Y-104094714D02*
X93281333Y-104285190D01*
X93281333Y-104285190D02*
X93281333Y-104428047D01*
X93281333Y-104428047D02*
X93233714Y-104618523D01*
X93233714Y-104618523D02*
X93186095Y-104713761D01*
X93186095Y-104713761D02*
X93090857Y-104809000D01*
X93090857Y-104809000D02*
X92948000Y-104856619D01*
X92948000Y-104856619D02*
X92709905Y-104856619D01*
X197826381Y-74868809D02*
X197969238Y-74916428D01*
X197969238Y-74916428D02*
X198016857Y-74964047D01*
X198016857Y-74964047D02*
X198064476Y-75059285D01*
X198064476Y-75059285D02*
X198064476Y-75202142D01*
X198064476Y-75202142D02*
X198016857Y-75297380D01*
X198016857Y-75297380D02*
X197969238Y-75345000D01*
X197969238Y-75345000D02*
X197874000Y-75392619D01*
X197874000Y-75392619D02*
X197493048Y-75392619D01*
X197493048Y-75392619D02*
X197493048Y-74392619D01*
X197493048Y-74392619D02*
X197826381Y-74392619D01*
X197826381Y-74392619D02*
X197921619Y-74440238D01*
X197921619Y-74440238D02*
X197969238Y-74487857D01*
X197969238Y-74487857D02*
X198016857Y-74583095D01*
X198016857Y-74583095D02*
X198016857Y-74678333D01*
X198016857Y-74678333D02*
X197969238Y-74773571D01*
X197969238Y-74773571D02*
X197921619Y-74821190D01*
X197921619Y-74821190D02*
X197826381Y-74868809D01*
X197826381Y-74868809D02*
X197493048Y-74868809D01*
X198493048Y-75011666D02*
X199254953Y-75011666D01*
X198874000Y-75392619D02*
X198874000Y-74630714D01*
X101346095Y-95458619D02*
X101346095Y-94458619D01*
X101346095Y-94458619D02*
X101584190Y-94458619D01*
X101584190Y-94458619D02*
X101727047Y-94506238D01*
X101727047Y-94506238D02*
X101822285Y-94601476D01*
X101822285Y-94601476D02*
X101869904Y-94696714D01*
X101869904Y-94696714D02*
X101917523Y-94887190D01*
X101917523Y-94887190D02*
X101917523Y-95030047D01*
X101917523Y-95030047D02*
X101869904Y-95220523D01*
X101869904Y-95220523D02*
X101822285Y-95315761D01*
X101822285Y-95315761D02*
X101727047Y-95411000D01*
X101727047Y-95411000D02*
X101584190Y-95458619D01*
X101584190Y-95458619D02*
X101346095Y-95458619D01*
X102679428Y-94934809D02*
X102822285Y-94982428D01*
X102822285Y-94982428D02*
X102869904Y-95030047D01*
X102869904Y-95030047D02*
X102917523Y-95125285D01*
X102917523Y-95125285D02*
X102917523Y-95268142D01*
X102917523Y-95268142D02*
X102869904Y-95363380D01*
X102869904Y-95363380D02*
X102822285Y-95411000D01*
X102822285Y-95411000D02*
X102727047Y-95458619D01*
X102727047Y-95458619D02*
X102346095Y-95458619D01*
X102346095Y-95458619D02*
X102346095Y-94458619D01*
X102346095Y-94458619D02*
X102679428Y-94458619D01*
X102679428Y-94458619D02*
X102774666Y-94506238D01*
X102774666Y-94506238D02*
X102822285Y-94553857D01*
X102822285Y-94553857D02*
X102869904Y-94649095D01*
X102869904Y-94649095D02*
X102869904Y-94744333D01*
X102869904Y-94744333D02*
X102822285Y-94839571D01*
X102822285Y-94839571D02*
X102774666Y-94887190D01*
X102774666Y-94887190D02*
X102679428Y-94934809D01*
X102679428Y-94934809D02*
X102346095Y-94934809D01*
X197516857Y-80186904D02*
X197993047Y-80186904D01*
X197421619Y-80472619D02*
X197754952Y-79472619D01*
X197754952Y-79472619D02*
X198088285Y-80472619D01*
X198421619Y-80091666D02*
X199183524Y-80091666D01*
X198802571Y-80472619D02*
X198802571Y-79710714D01*
G04 #@! TO.C,JP1*
X194746666Y-93232619D02*
X194746666Y-93946904D01*
X194746666Y-93946904D02*
X194699047Y-94089761D01*
X194699047Y-94089761D02*
X194603809Y-94185000D01*
X194603809Y-94185000D02*
X194460952Y-94232619D01*
X194460952Y-94232619D02*
X194365714Y-94232619D01*
X195222857Y-94232619D02*
X195222857Y-93232619D01*
X195222857Y-93232619D02*
X195603809Y-93232619D01*
X195603809Y-93232619D02*
X195699047Y-93280238D01*
X195699047Y-93280238D02*
X195746666Y-93327857D01*
X195746666Y-93327857D02*
X195794285Y-93423095D01*
X195794285Y-93423095D02*
X195794285Y-93565952D01*
X195794285Y-93565952D02*
X195746666Y-93661190D01*
X195746666Y-93661190D02*
X195699047Y-93708809D01*
X195699047Y-93708809D02*
X195603809Y-93756428D01*
X195603809Y-93756428D02*
X195222857Y-93756428D01*
X196746666Y-94232619D02*
X196175238Y-94232619D01*
X196460952Y-94232619D02*
X196460952Y-93232619D01*
X196460952Y-93232619D02*
X196365714Y-93375476D01*
X196365714Y-93375476D02*
X196270476Y-93470714D01*
X196270476Y-93470714D02*
X196175238Y-93518333D01*
G04 #@! TO.C,U1*
X154529619Y-72135904D02*
X155339142Y-72135904D01*
X155339142Y-72135904D02*
X155434380Y-72088285D01*
X155434380Y-72088285D02*
X155482000Y-72040666D01*
X155482000Y-72040666D02*
X155529619Y-71945428D01*
X155529619Y-71945428D02*
X155529619Y-71754952D01*
X155529619Y-71754952D02*
X155482000Y-71659714D01*
X155482000Y-71659714D02*
X155434380Y-71612095D01*
X155434380Y-71612095D02*
X155339142Y-71564476D01*
X155339142Y-71564476D02*
X154529619Y-71564476D01*
X155529619Y-70564476D02*
X155529619Y-71135904D01*
X155529619Y-70850190D02*
X154529619Y-70850190D01*
X154529619Y-70850190D02*
X154672476Y-70945428D01*
X154672476Y-70945428D02*
X154767714Y-71040666D01*
X154767714Y-71040666D02*
X154815333Y-71135904D01*
G04 #@! TO.C,U3*
X79726619Y-82041904D02*
X80536142Y-82041904D01*
X80536142Y-82041904D02*
X80631380Y-81994285D01*
X80631380Y-81994285D02*
X80679000Y-81946666D01*
X80679000Y-81946666D02*
X80726619Y-81851428D01*
X80726619Y-81851428D02*
X80726619Y-81660952D01*
X80726619Y-81660952D02*
X80679000Y-81565714D01*
X80679000Y-81565714D02*
X80631380Y-81518095D01*
X80631380Y-81518095D02*
X80536142Y-81470476D01*
X80536142Y-81470476D02*
X79726619Y-81470476D01*
X79726619Y-81089523D02*
X79726619Y-80470476D01*
X79726619Y-80470476D02*
X80107571Y-80803809D01*
X80107571Y-80803809D02*
X80107571Y-80660952D01*
X80107571Y-80660952D02*
X80155190Y-80565714D01*
X80155190Y-80565714D02*
X80202809Y-80518095D01*
X80202809Y-80518095D02*
X80298047Y-80470476D01*
X80298047Y-80470476D02*
X80536142Y-80470476D01*
X80536142Y-80470476D02*
X80631380Y-80518095D01*
X80631380Y-80518095D02*
X80679000Y-80565714D01*
X80679000Y-80565714D02*
X80726619Y-80660952D01*
X80726619Y-80660952D02*
X80726619Y-80946666D01*
X80726619Y-80946666D02*
X80679000Y-81041904D01*
X80679000Y-81041904D02*
X80631380Y-81089523D01*
X130457714Y-84552619D02*
X131014857Y-84552619D01*
X131014857Y-84552619D02*
X130714857Y-84933571D01*
X130714857Y-84933571D02*
X130843428Y-84933571D01*
X130843428Y-84933571D02*
X130929143Y-84981190D01*
X130929143Y-84981190D02*
X130972000Y-85028809D01*
X130972000Y-85028809D02*
X131014857Y-85124047D01*
X131014857Y-85124047D02*
X131014857Y-85362142D01*
X131014857Y-85362142D02*
X130972000Y-85457380D01*
X130972000Y-85457380D02*
X130929143Y-85505000D01*
X130929143Y-85505000D02*
X130843428Y-85552619D01*
X130843428Y-85552619D02*
X130586285Y-85552619D01*
X130586285Y-85552619D02*
X130500571Y-85505000D01*
X130500571Y-85505000D02*
X130457714Y-85457380D01*
X131272000Y-84552619D02*
X131572000Y-85552619D01*
X131572000Y-85552619D02*
X131872000Y-84552619D01*
X132086286Y-84552619D02*
X132643429Y-84552619D01*
X132643429Y-84552619D02*
X132343429Y-84933571D01*
X132343429Y-84933571D02*
X132472000Y-84933571D01*
X132472000Y-84933571D02*
X132557715Y-84981190D01*
X132557715Y-84981190D02*
X132600572Y-85028809D01*
X132600572Y-85028809D02*
X132643429Y-85124047D01*
X132643429Y-85124047D02*
X132643429Y-85362142D01*
X132643429Y-85362142D02*
X132600572Y-85457380D01*
X132600572Y-85457380D02*
X132557715Y-85505000D01*
X132557715Y-85505000D02*
X132472000Y-85552619D01*
X132472000Y-85552619D02*
X132214857Y-85552619D01*
X132214857Y-85552619D02*
X132129143Y-85505000D01*
X132129143Y-85505000D02*
X132086286Y-85457380D01*
X130886286Y-76980238D02*
X130800572Y-76932619D01*
X130800572Y-76932619D02*
X130672000Y-76932619D01*
X130672000Y-76932619D02*
X130543429Y-76980238D01*
X130543429Y-76980238D02*
X130457714Y-77075476D01*
X130457714Y-77075476D02*
X130414857Y-77170714D01*
X130414857Y-77170714D02*
X130372000Y-77361190D01*
X130372000Y-77361190D02*
X130372000Y-77504047D01*
X130372000Y-77504047D02*
X130414857Y-77694523D01*
X130414857Y-77694523D02*
X130457714Y-77789761D01*
X130457714Y-77789761D02*
X130543429Y-77885000D01*
X130543429Y-77885000D02*
X130672000Y-77932619D01*
X130672000Y-77932619D02*
X130757714Y-77932619D01*
X130757714Y-77932619D02*
X130886286Y-77885000D01*
X130886286Y-77885000D02*
X130929143Y-77837380D01*
X130929143Y-77837380D02*
X130929143Y-77504047D01*
X130929143Y-77504047D02*
X130757714Y-77504047D01*
X131314857Y-77932619D02*
X131314857Y-76932619D01*
X131314857Y-76932619D02*
X131829143Y-77932619D01*
X131829143Y-77932619D02*
X131829143Y-76932619D01*
X132257714Y-77932619D02*
X132257714Y-76932619D01*
X132257714Y-76932619D02*
X132472000Y-76932619D01*
X132472000Y-76932619D02*
X132600571Y-76980238D01*
X132600571Y-76980238D02*
X132686286Y-77075476D01*
X132686286Y-77075476D02*
X132729143Y-77170714D01*
X132729143Y-77170714D02*
X132772000Y-77361190D01*
X132772000Y-77361190D02*
X132772000Y-77504047D01*
X132772000Y-77504047D02*
X132729143Y-77694523D01*
X132729143Y-77694523D02*
X132686286Y-77789761D01*
X132686286Y-77789761D02*
X132600571Y-77885000D01*
X132600571Y-77885000D02*
X132472000Y-77932619D01*
X132472000Y-77932619D02*
X132257714Y-77932619D01*
X130329143Y-82965000D02*
X130457715Y-83012619D01*
X130457715Y-83012619D02*
X130672000Y-83012619D01*
X130672000Y-83012619D02*
X130757715Y-82965000D01*
X130757715Y-82965000D02*
X130800572Y-82917380D01*
X130800572Y-82917380D02*
X130843429Y-82822142D01*
X130843429Y-82822142D02*
X130843429Y-82726904D01*
X130843429Y-82726904D02*
X130800572Y-82631666D01*
X130800572Y-82631666D02*
X130757715Y-82584047D01*
X130757715Y-82584047D02*
X130672000Y-82536428D01*
X130672000Y-82536428D02*
X130500572Y-82488809D01*
X130500572Y-82488809D02*
X130414857Y-82441190D01*
X130414857Y-82441190D02*
X130372000Y-82393571D01*
X130372000Y-82393571D02*
X130329143Y-82298333D01*
X130329143Y-82298333D02*
X130329143Y-82203095D01*
X130329143Y-82203095D02*
X130372000Y-82107857D01*
X130372000Y-82107857D02*
X130414857Y-82060238D01*
X130414857Y-82060238D02*
X130500572Y-82012619D01*
X130500572Y-82012619D02*
X130714857Y-82012619D01*
X130714857Y-82012619D02*
X130843429Y-82060238D01*
X131143429Y-82012619D02*
X131357715Y-83012619D01*
X131357715Y-83012619D02*
X131529143Y-82298333D01*
X131529143Y-82298333D02*
X131700572Y-83012619D01*
X131700572Y-83012619D02*
X131914858Y-82012619D01*
X132429143Y-82012619D02*
X132600571Y-82012619D01*
X132600571Y-82012619D02*
X132686286Y-82060238D01*
X132686286Y-82060238D02*
X132772000Y-82155476D01*
X132772000Y-82155476D02*
X132814857Y-82345952D01*
X132814857Y-82345952D02*
X132814857Y-82679285D01*
X132814857Y-82679285D02*
X132772000Y-82869761D01*
X132772000Y-82869761D02*
X132686286Y-82965000D01*
X132686286Y-82965000D02*
X132600571Y-83012619D01*
X132600571Y-83012619D02*
X132429143Y-83012619D01*
X132429143Y-83012619D02*
X132343429Y-82965000D01*
X132343429Y-82965000D02*
X132257714Y-82869761D01*
X132257714Y-82869761D02*
X132214857Y-82679285D01*
X132214857Y-82679285D02*
X132214857Y-82345952D01*
X132214857Y-82345952D02*
X132257714Y-82155476D01*
X132257714Y-82155476D02*
X132343429Y-82060238D01*
X132343429Y-82060238D02*
X132429143Y-82012619D01*
X130298286Y-80425000D02*
X130426858Y-80472619D01*
X130426858Y-80472619D02*
X130641143Y-80472619D01*
X130641143Y-80472619D02*
X130726858Y-80425000D01*
X130726858Y-80425000D02*
X130769715Y-80377380D01*
X130769715Y-80377380D02*
X130812572Y-80282142D01*
X130812572Y-80282142D02*
X130812572Y-80186904D01*
X130812572Y-80186904D02*
X130769715Y-80091666D01*
X130769715Y-80091666D02*
X130726858Y-80044047D01*
X130726858Y-80044047D02*
X130641143Y-79996428D01*
X130641143Y-79996428D02*
X130469715Y-79948809D01*
X130469715Y-79948809D02*
X130384000Y-79901190D01*
X130384000Y-79901190D02*
X130341143Y-79853571D01*
X130341143Y-79853571D02*
X130298286Y-79758333D01*
X130298286Y-79758333D02*
X130298286Y-79663095D01*
X130298286Y-79663095D02*
X130341143Y-79567857D01*
X130341143Y-79567857D02*
X130384000Y-79520238D01*
X130384000Y-79520238D02*
X130469715Y-79472619D01*
X130469715Y-79472619D02*
X130684000Y-79472619D01*
X130684000Y-79472619D02*
X130812572Y-79520238D01*
X131112572Y-79472619D02*
X131326858Y-80472619D01*
X131326858Y-80472619D02*
X131498286Y-79758333D01*
X131498286Y-79758333D02*
X131669715Y-80472619D01*
X131669715Y-80472619D02*
X131884001Y-79472619D01*
X132741143Y-80377380D02*
X132698286Y-80425000D01*
X132698286Y-80425000D02*
X132569714Y-80472619D01*
X132569714Y-80472619D02*
X132484000Y-80472619D01*
X132484000Y-80472619D02*
X132355429Y-80425000D01*
X132355429Y-80425000D02*
X132269714Y-80329761D01*
X132269714Y-80329761D02*
X132226857Y-80234523D01*
X132226857Y-80234523D02*
X132184000Y-80044047D01*
X132184000Y-80044047D02*
X132184000Y-79901190D01*
X132184000Y-79901190D02*
X132226857Y-79710714D01*
X132226857Y-79710714D02*
X132269714Y-79615476D01*
X132269714Y-79615476D02*
X132355429Y-79520238D01*
X132355429Y-79520238D02*
X132484000Y-79472619D01*
X132484000Y-79472619D02*
X132569714Y-79472619D01*
X132569714Y-79472619D02*
X132698286Y-79520238D01*
X132698286Y-79520238D02*
X132741143Y-79567857D01*
X133555429Y-80472619D02*
X133126857Y-80472619D01*
X133126857Y-80472619D02*
X133126857Y-79472619D01*
X133855428Y-80472619D02*
X133855428Y-79472619D01*
X134369714Y-80472619D02*
X133984000Y-79901190D01*
X134369714Y-79472619D02*
X133855428Y-80044047D01*
G04 #@! TO.C,R2*
X132712619Y-99480666D02*
X132236428Y-99813999D01*
X132712619Y-100052094D02*
X131712619Y-100052094D01*
X131712619Y-100052094D02*
X131712619Y-99671142D01*
X131712619Y-99671142D02*
X131760238Y-99575904D01*
X131760238Y-99575904D02*
X131807857Y-99528285D01*
X131807857Y-99528285D02*
X131903095Y-99480666D01*
X131903095Y-99480666D02*
X132045952Y-99480666D01*
X132045952Y-99480666D02*
X132141190Y-99528285D01*
X132141190Y-99528285D02*
X132188809Y-99575904D01*
X132188809Y-99575904D02*
X132236428Y-99671142D01*
X132236428Y-99671142D02*
X132236428Y-100052094D01*
X131807857Y-99099713D02*
X131760238Y-99052094D01*
X131760238Y-99052094D02*
X131712619Y-98956856D01*
X131712619Y-98956856D02*
X131712619Y-98718761D01*
X131712619Y-98718761D02*
X131760238Y-98623523D01*
X131760238Y-98623523D02*
X131807857Y-98575904D01*
X131807857Y-98575904D02*
X131903095Y-98528285D01*
X131903095Y-98528285D02*
X131998333Y-98528285D01*
X131998333Y-98528285D02*
X132141190Y-98575904D01*
X132141190Y-98575904D02*
X132712619Y-99147332D01*
X132712619Y-99147332D02*
X132712619Y-98528285D01*
G04 #@! TO.C,J2*
X112188666Y-94712619D02*
X112188666Y-95426904D01*
X112188666Y-95426904D02*
X112141047Y-95569761D01*
X112141047Y-95569761D02*
X112045809Y-95665000D01*
X112045809Y-95665000D02*
X111902952Y-95712619D01*
X111902952Y-95712619D02*
X111807714Y-95712619D01*
X112617238Y-94807857D02*
X112664857Y-94760238D01*
X112664857Y-94760238D02*
X112760095Y-94712619D01*
X112760095Y-94712619D02*
X112998190Y-94712619D01*
X112998190Y-94712619D02*
X113093428Y-94760238D01*
X113093428Y-94760238D02*
X113141047Y-94807857D01*
X113141047Y-94807857D02*
X113188666Y-94903095D01*
X113188666Y-94903095D02*
X113188666Y-94998333D01*
X113188666Y-94998333D02*
X113141047Y-95141190D01*
X113141047Y-95141190D02*
X112569619Y-95712619D01*
X112569619Y-95712619D02*
X113188666Y-95712619D01*
G04 #@! TO.C,JP2*
X194746666Y-81802619D02*
X194746666Y-82516904D01*
X194746666Y-82516904D02*
X194699047Y-82659761D01*
X194699047Y-82659761D02*
X194603809Y-82755000D01*
X194603809Y-82755000D02*
X194460952Y-82802619D01*
X194460952Y-82802619D02*
X194365714Y-82802619D01*
X195222857Y-82802619D02*
X195222857Y-81802619D01*
X195222857Y-81802619D02*
X195603809Y-81802619D01*
X195603809Y-81802619D02*
X195699047Y-81850238D01*
X195699047Y-81850238D02*
X195746666Y-81897857D01*
X195746666Y-81897857D02*
X195794285Y-81993095D01*
X195794285Y-81993095D02*
X195794285Y-82135952D01*
X195794285Y-82135952D02*
X195746666Y-82231190D01*
X195746666Y-82231190D02*
X195699047Y-82278809D01*
X195699047Y-82278809D02*
X195603809Y-82326428D01*
X195603809Y-82326428D02*
X195222857Y-82326428D01*
X196175238Y-81897857D02*
X196222857Y-81850238D01*
X196222857Y-81850238D02*
X196318095Y-81802619D01*
X196318095Y-81802619D02*
X196556190Y-81802619D01*
X196556190Y-81802619D02*
X196651428Y-81850238D01*
X196651428Y-81850238D02*
X196699047Y-81897857D01*
X196699047Y-81897857D02*
X196746666Y-81993095D01*
X196746666Y-81993095D02*
X196746666Y-82088333D01*
X196746666Y-82088333D02*
X196699047Y-82231190D01*
X196699047Y-82231190D02*
X196127619Y-82802619D01*
X196127619Y-82802619D02*
X196746666Y-82802619D01*
G04 #@! TO.C,J5*
X157654666Y-97252619D02*
X157654666Y-97966904D01*
X157654666Y-97966904D02*
X157607047Y-98109761D01*
X157607047Y-98109761D02*
X157511809Y-98205000D01*
X157511809Y-98205000D02*
X157368952Y-98252619D01*
X157368952Y-98252619D02*
X157273714Y-98252619D01*
X158607047Y-97252619D02*
X158130857Y-97252619D01*
X158130857Y-97252619D02*
X158083238Y-97728809D01*
X158083238Y-97728809D02*
X158130857Y-97681190D01*
X158130857Y-97681190D02*
X158226095Y-97633571D01*
X158226095Y-97633571D02*
X158464190Y-97633571D01*
X158464190Y-97633571D02*
X158559428Y-97681190D01*
X158559428Y-97681190D02*
X158607047Y-97728809D01*
X158607047Y-97728809D02*
X158654666Y-97824047D01*
X158654666Y-97824047D02*
X158654666Y-98062142D01*
X158654666Y-98062142D02*
X158607047Y-98157380D01*
X158607047Y-98157380D02*
X158559428Y-98205000D01*
X158559428Y-98205000D02*
X158464190Y-98252619D01*
X158464190Y-98252619D02*
X158226095Y-98252619D01*
X158226095Y-98252619D02*
X158130857Y-98205000D01*
X158130857Y-98205000D02*
X158083238Y-98157380D01*
G04 #@! TO.C,J6*
X144446666Y-94712619D02*
X144446666Y-95426904D01*
X144446666Y-95426904D02*
X144399047Y-95569761D01*
X144399047Y-95569761D02*
X144303809Y-95665000D01*
X144303809Y-95665000D02*
X144160952Y-95712619D01*
X144160952Y-95712619D02*
X144065714Y-95712619D01*
X145351428Y-94712619D02*
X145160952Y-94712619D01*
X145160952Y-94712619D02*
X145065714Y-94760238D01*
X145065714Y-94760238D02*
X145018095Y-94807857D01*
X145018095Y-94807857D02*
X144922857Y-94950714D01*
X144922857Y-94950714D02*
X144875238Y-95141190D01*
X144875238Y-95141190D02*
X144875238Y-95522142D01*
X144875238Y-95522142D02*
X144922857Y-95617380D01*
X144922857Y-95617380D02*
X144970476Y-95665000D01*
X144970476Y-95665000D02*
X145065714Y-95712619D01*
X145065714Y-95712619D02*
X145256190Y-95712619D01*
X145256190Y-95712619D02*
X145351428Y-95665000D01*
X145351428Y-95665000D02*
X145399047Y-95617380D01*
X145399047Y-95617380D02*
X145446666Y-95522142D01*
X145446666Y-95522142D02*
X145446666Y-95284047D01*
X145446666Y-95284047D02*
X145399047Y-95188809D01*
X145399047Y-95188809D02*
X145351428Y-95141190D01*
X145351428Y-95141190D02*
X145256190Y-95093571D01*
X145256190Y-95093571D02*
X145065714Y-95093571D01*
X145065714Y-95093571D02*
X144970476Y-95141190D01*
X144970476Y-95141190D02*
X144922857Y-95188809D01*
X144922857Y-95188809D02*
X144875238Y-95284047D01*
G04 #@! TO.C,J1*
X85518666Y-100808619D02*
X85518666Y-101522904D01*
X85518666Y-101522904D02*
X85471047Y-101665761D01*
X85471047Y-101665761D02*
X85375809Y-101761000D01*
X85375809Y-101761000D02*
X85232952Y-101808619D01*
X85232952Y-101808619D02*
X85137714Y-101808619D01*
X86518666Y-101808619D02*
X85947238Y-101808619D01*
X86232952Y-101808619D02*
X86232952Y-100808619D01*
X86232952Y-100808619D02*
X86137714Y-100951476D01*
X86137714Y-100951476D02*
X86042476Y-101046714D01*
X86042476Y-101046714D02*
X85947238Y-101094333D01*
G04 #@! TO.C,U4*
X172768380Y-94313526D02*
X172768380Y-95341621D01*
X172768380Y-95341621D02*
X172828857Y-95462573D01*
X172828857Y-95462573D02*
X172889333Y-95523050D01*
X172889333Y-95523050D02*
X173010285Y-95583526D01*
X173010285Y-95583526D02*
X173252190Y-95583526D01*
X173252190Y-95583526D02*
X173373142Y-95523050D01*
X173373142Y-95523050D02*
X173433619Y-95462573D01*
X173433619Y-95462573D02*
X173494095Y-95341621D01*
X173494095Y-95341621D02*
X173494095Y-94313526D01*
X174643142Y-94736859D02*
X174643142Y-95583526D01*
X174340761Y-94253050D02*
X174038380Y-95160192D01*
X174038380Y-95160192D02*
X174824571Y-95160192D01*
D11*
X168276208Y-78454020D02*
X168276208Y-76117220D01*
X168276208Y-77229982D02*
X169611523Y-77229982D01*
X169611523Y-78454020D02*
X169611523Y-76117220D01*
X170501732Y-76117220D02*
X172059599Y-78454020D01*
X172059599Y-76117220D02*
X170501732Y-78454020D01*
X172727256Y-76117220D02*
X174285123Y-76117220D01*
X174285123Y-76117220D02*
X173283637Y-78454020D01*
X176399371Y-78454020D02*
X175064056Y-78454020D01*
X175731713Y-78454020D02*
X175731713Y-76117220D01*
X175731713Y-76117220D02*
X175509161Y-76451048D01*
X175509161Y-76451048D02*
X175286609Y-76673601D01*
X175286609Y-76673601D02*
X175064056Y-76784877D01*
X178624895Y-78454020D02*
X177289580Y-78454020D01*
X177957237Y-78454020D02*
X177957237Y-76117220D01*
X177957237Y-76117220D02*
X177734685Y-76451048D01*
X177734685Y-76451048D02*
X177512133Y-76673601D01*
X177512133Y-76673601D02*
X177289580Y-76784877D01*
D12*
X183154320Y-91239814D02*
X183154320Y-89604054D01*
X183154320Y-89604054D02*
X184089040Y-91239814D01*
X184089040Y-91239814D02*
X184089040Y-89604054D01*
X184790080Y-90772454D02*
X185569013Y-90772454D01*
X184634293Y-91239814D02*
X185179547Y-89604054D01*
X185179547Y-89604054D02*
X185724800Y-91239814D01*
X186270053Y-91239814D02*
X186270053Y-89604054D01*
X186270053Y-89604054D02*
X186815307Y-90772454D01*
X186815307Y-90772454D02*
X187360560Y-89604054D01*
X187360560Y-89604054D02*
X187360560Y-91239814D01*
X188139493Y-90382987D02*
X188684747Y-90382987D01*
X188918427Y-91239814D02*
X188139493Y-91239814D01*
X188139493Y-91239814D02*
X188139493Y-89604054D01*
X188139493Y-89604054D02*
X188918427Y-89604054D01*
D10*
G04 #@! TO.C,J3*
X117268666Y-99538619D02*
X117268666Y-100252904D01*
X117268666Y-100252904D02*
X117221047Y-100395761D01*
X117221047Y-100395761D02*
X117125809Y-100491000D01*
X117125809Y-100491000D02*
X116982952Y-100538619D01*
X116982952Y-100538619D02*
X116887714Y-100538619D01*
X117649619Y-99538619D02*
X118268666Y-99538619D01*
X118268666Y-99538619D02*
X117935333Y-99919571D01*
X117935333Y-99919571D02*
X118078190Y-99919571D01*
X118078190Y-99919571D02*
X118173428Y-99967190D01*
X118173428Y-99967190D02*
X118221047Y-100014809D01*
X118221047Y-100014809D02*
X118268666Y-100110047D01*
X118268666Y-100110047D02*
X118268666Y-100348142D01*
X118268666Y-100348142D02*
X118221047Y-100443380D01*
X118221047Y-100443380D02*
X118173428Y-100491000D01*
X118173428Y-100491000D02*
X118078190Y-100538619D01*
X118078190Y-100538619D02*
X117792476Y-100538619D01*
X117792476Y-100538619D02*
X117697238Y-100491000D01*
X117697238Y-100491000D02*
X117649619Y-100443380D01*
G04 #@! TO.C,R1*
X135760619Y-99480666D02*
X135284428Y-99813999D01*
X135760619Y-100052094D02*
X134760619Y-100052094D01*
X134760619Y-100052094D02*
X134760619Y-99671142D01*
X134760619Y-99671142D02*
X134808238Y-99575904D01*
X134808238Y-99575904D02*
X134855857Y-99528285D01*
X134855857Y-99528285D02*
X134951095Y-99480666D01*
X134951095Y-99480666D02*
X135093952Y-99480666D01*
X135093952Y-99480666D02*
X135189190Y-99528285D01*
X135189190Y-99528285D02*
X135236809Y-99575904D01*
X135236809Y-99575904D02*
X135284428Y-99671142D01*
X135284428Y-99671142D02*
X135284428Y-100052094D01*
X135760619Y-98528285D02*
X135760619Y-99099713D01*
X135760619Y-98813999D02*
X134760619Y-98813999D01*
X134760619Y-98813999D02*
X134903476Y-98909237D01*
X134903476Y-98909237D02*
X134998714Y-99004475D01*
X134998714Y-99004475D02*
X135046333Y-99099713D01*
G04 #@! TO.C,J4*
X95932666Y-100300619D02*
X95932666Y-101014904D01*
X95932666Y-101014904D02*
X95885047Y-101157761D01*
X95885047Y-101157761D02*
X95789809Y-101253000D01*
X95789809Y-101253000D02*
X95646952Y-101300619D01*
X95646952Y-101300619D02*
X95551714Y-101300619D01*
X96837428Y-100633952D02*
X96837428Y-101300619D01*
X96599333Y-100253000D02*
X96361238Y-100967285D01*
X96361238Y-100967285D02*
X96980285Y-100967285D01*
G04 #@! TO.C,R5*
X109766619Y-99988666D02*
X109290428Y-100321999D01*
X109766619Y-100560094D02*
X108766619Y-100560094D01*
X108766619Y-100560094D02*
X108766619Y-100179142D01*
X108766619Y-100179142D02*
X108814238Y-100083904D01*
X108814238Y-100083904D02*
X108861857Y-100036285D01*
X108861857Y-100036285D02*
X108957095Y-99988666D01*
X108957095Y-99988666D02*
X109099952Y-99988666D01*
X109099952Y-99988666D02*
X109195190Y-100036285D01*
X109195190Y-100036285D02*
X109242809Y-100083904D01*
X109242809Y-100083904D02*
X109290428Y-100179142D01*
X109290428Y-100179142D02*
X109290428Y-100560094D01*
X108766619Y-99083904D02*
X108766619Y-99560094D01*
X108766619Y-99560094D02*
X109242809Y-99607713D01*
X109242809Y-99607713D02*
X109195190Y-99560094D01*
X109195190Y-99560094D02*
X109147571Y-99464856D01*
X109147571Y-99464856D02*
X109147571Y-99226761D01*
X109147571Y-99226761D02*
X109195190Y-99131523D01*
X109195190Y-99131523D02*
X109242809Y-99083904D01*
X109242809Y-99083904D02*
X109338047Y-99036285D01*
X109338047Y-99036285D02*
X109576142Y-99036285D01*
X109576142Y-99036285D02*
X109671380Y-99083904D01*
X109671380Y-99083904D02*
X109719000Y-99131523D01*
X109719000Y-99131523D02*
X109766619Y-99226761D01*
X109766619Y-99226761D02*
X109766619Y-99464856D01*
X109766619Y-99464856D02*
X109719000Y-99560094D01*
X109719000Y-99560094D02*
X109671380Y-99607713D01*
D13*
G04 #@! TO.C,JP1*
X196910000Y-92770000D02*
X195580000Y-92770000D01*
X196910000Y-91440000D02*
X196910000Y-92770000D01*
X196910000Y-90170000D02*
X196910000Y-85030000D01*
X196910000Y-90170000D02*
X194250000Y-90170000D01*
X196910000Y-85030000D02*
X194250000Y-85030000D01*
X194250000Y-90170000D02*
X194250000Y-85030000D01*
D14*
G04 #@! TO.C,U1*
X153797000Y-69342000D02*
X153797000Y-93980000D01*
X139573000Y-69342000D02*
X153797000Y-69342000D01*
D15*
X151765000Y-69850000D02*
X149225000Y-69850000D01*
X149225000Y-69850000D02*
X141605000Y-69850000D01*
X141605000Y-69850000D02*
X141605000Y-74930000D01*
X151765000Y-72390000D02*
X151765000Y-69850000D01*
X151765000Y-74930000D02*
X151765000Y-72390000D01*
X141605000Y-74930000D02*
X151765000Y-74930000D01*
D14*
X153797000Y-93980000D02*
X139573000Y-93980000D01*
X139573000Y-93980000D02*
X139573000Y-69342000D01*
D13*
G04 #@! TO.C,U3*
X81629000Y-92655000D02*
X81629000Y-69905000D01*
X134779000Y-92655000D02*
X81629000Y-92655000D01*
X82744000Y-90230000D02*
X82744000Y-88900000D01*
X84074000Y-90230000D02*
X82744000Y-90230000D01*
X85344000Y-90230000D02*
X85344000Y-87570000D01*
X133664000Y-90230000D02*
X85344000Y-90230000D01*
X85344000Y-87570000D02*
X133664000Y-87570000D01*
X133664000Y-87570000D02*
X133664000Y-90230000D01*
X89976277Y-86542467D02*
X95776277Y-86542467D01*
X95876277Y-86442467D02*
X95876277Y-83142467D01*
X127194000Y-86420000D02*
X129854000Y-86420000D01*
X129854000Y-86420000D02*
X129854000Y-76140000D01*
X107091205Y-86378093D02*
X107798312Y-85670986D01*
X109353947Y-86378093D02*
X108646840Y-85670986D01*
X106879073Y-86165961D02*
X107091205Y-86378093D01*
X106879073Y-86165961D02*
X107586180Y-85458854D01*
X109566079Y-86165961D02*
X109353947Y-86378093D01*
X109566079Y-86165961D02*
X108858972Y-85458854D01*
X108272576Y-86045250D02*
X108172576Y-86045250D01*
X108272576Y-86045250D02*
X113122324Y-81195502D01*
X106737652Y-86024539D02*
X107444759Y-85317432D01*
X109707500Y-86024539D02*
X109000394Y-85317432D01*
X106525520Y-85812407D02*
X106737652Y-86024539D01*
X106525520Y-85812407D02*
X107232627Y-85105300D01*
X109919632Y-85812407D02*
X109707500Y-86024539D01*
X109919632Y-85812407D02*
X109212526Y-85105300D01*
X90776277Y-85792467D02*
X90126277Y-85792467D01*
X94276277Y-85792467D02*
X91476277Y-85792467D01*
X95626277Y-85792467D02*
X94976277Y-85792467D01*
X90026277Y-85692467D02*
X90026277Y-83892467D01*
X91376277Y-85692467D02*
X91376277Y-83892467D01*
X94876277Y-85692467D02*
X94876277Y-83892467D01*
X106384099Y-85670986D02*
X107091205Y-84963879D01*
X110061054Y-85670986D02*
X109353947Y-84963879D01*
X106171967Y-85458854D02*
X106384099Y-85670986D01*
X106171967Y-85458854D02*
X106879073Y-84751747D01*
X110273186Y-85458854D02*
X110061054Y-85670986D01*
X110273186Y-85458854D02*
X109566079Y-84751747D01*
X81866892Y-85317488D02*
X82183153Y-85038834D01*
X106030545Y-85317432D02*
X106737652Y-84610326D01*
X110414607Y-85317432D02*
X109707500Y-84610326D01*
X120326809Y-85172282D02*
X123626809Y-85172282D01*
X120326190Y-85172280D02*
X120326809Y-85172282D01*
X82054469Y-85152216D02*
X81891578Y-84967341D01*
X81704000Y-85132613D02*
X81866892Y-85317488D01*
X105818413Y-85105300D02*
X106030545Y-85317432D01*
X105818413Y-85105300D02*
X106525520Y-84398194D01*
X110626739Y-85105300D02*
X110414607Y-85317432D01*
X110626739Y-85105300D02*
X109919632Y-84398194D01*
X122617851Y-85088200D02*
X121335767Y-85088200D01*
X123726807Y-85072900D02*
X123726809Y-85072282D01*
X120226809Y-85072282D02*
X120226811Y-85072900D01*
X120226809Y-85072282D02*
X120226809Y-77272282D01*
X123726809Y-85072282D02*
X123726809Y-77272282D01*
X122817851Y-85065812D02*
X122817851Y-84879226D01*
X82345500Y-84976428D02*
X82353669Y-84971487D01*
X82348425Y-84976411D02*
X82345500Y-84976428D01*
X82348425Y-84976411D02*
X87354000Y-84976411D01*
X82353669Y-84971487D02*
X82354000Y-84969897D01*
X82354000Y-84969897D02*
X82354000Y-84480000D01*
X105676992Y-84963879D02*
X106384099Y-84256772D01*
X110768161Y-84963879D02*
X110061054Y-84256772D01*
X121135767Y-84879226D02*
X121135767Y-85065812D01*
X82019241Y-84854858D02*
X81704000Y-85132613D01*
X108184119Y-84792128D02*
X108196121Y-84774259D01*
X108184119Y-84792128D02*
X108196121Y-84774259D01*
X108196121Y-84774259D02*
X108200692Y-84757920D01*
X108196121Y-84774259D02*
X108200692Y-84757920D01*
X108200692Y-84757920D02*
X108200718Y-84679245D01*
X108200692Y-84757920D02*
X108200718Y-84679245D01*
X105464860Y-84751747D02*
X105676992Y-84963879D01*
X105464860Y-84751747D02*
X106171967Y-84044640D01*
X110980293Y-84751747D02*
X110768161Y-84963879D01*
X110980293Y-84751747D02*
X110273186Y-84044640D01*
X82254000Y-84739272D02*
X82254000Y-84994928D01*
X82354000Y-84730012D02*
X82349785Y-84730012D01*
X108200718Y-84679245D02*
X108197080Y-84617476D01*
X108200718Y-84679245D02*
X108197080Y-84617476D01*
X107823023Y-84663689D02*
X107537460Y-84378126D01*
X107948275Y-84647222D02*
X108084576Y-84653278D01*
X108197080Y-84617476D02*
X108192084Y-84545003D01*
X108197080Y-84617476D02*
X108192084Y-84545003D01*
X105323438Y-84610326D02*
X106030545Y-83903219D01*
X111121714Y-84610326D02*
X110414607Y-83903219D01*
X108621174Y-84599841D02*
X108487210Y-84566377D01*
X107918210Y-84568501D02*
X107823023Y-84663689D01*
X108487210Y-84566377D02*
X108497743Y-84475815D01*
X108487210Y-84566377D02*
X108497743Y-84475815D01*
X108192084Y-84545003D02*
X108189962Y-84487974D01*
X108192084Y-84545003D02*
X108189962Y-84487974D01*
X108189962Y-84487974D02*
X108208959Y-84381602D01*
X108189962Y-84487974D02*
X108208959Y-84381602D01*
X82354000Y-84480000D02*
X82353936Y-84476411D01*
X121535767Y-84479226D02*
X122417851Y-84479226D01*
X82353936Y-84476411D02*
X87364000Y-84476411D01*
X108497743Y-84475815D02*
X108488597Y-84441068D01*
X108497743Y-84475815D02*
X108488597Y-84441068D01*
X107823023Y-84473314D02*
X107918210Y-84568501D01*
X108488597Y-84441068D02*
X108468300Y-84411485D01*
X108488597Y-84441068D02*
X108468300Y-84411485D01*
X105111306Y-84398194D02*
X105323438Y-84610326D01*
X105111306Y-84398194D02*
X105818413Y-83691087D01*
X111333846Y-84398194D02*
X111121714Y-84610326D01*
X111333846Y-84398194D02*
X110626739Y-83691087D01*
X114996588Y-84392050D02*
X114996588Y-78092050D01*
X119521588Y-84392050D02*
X119521588Y-78092050D01*
X108208959Y-84381602D02*
X108256784Y-84311517D01*
X108208959Y-84381602D02*
X108256784Y-84311517D01*
X81908789Y-84380000D02*
X82254000Y-84380000D01*
X82189431Y-84380000D02*
X82189431Y-78180000D01*
X107537460Y-84378126D02*
X107632648Y-84282939D01*
X107727835Y-84378126D02*
X108162978Y-83942984D01*
X107632648Y-84282939D02*
X107727835Y-84378126D01*
X107420707Y-84261373D02*
X107321907Y-84162574D01*
X104969885Y-84256772D02*
X105676992Y-83549666D01*
X111475267Y-84256772D02*
X110768161Y-83549666D01*
X107321907Y-84162574D02*
X107570818Y-83671657D01*
X81847395Y-84130000D02*
X81704000Y-84130000D01*
X104757753Y-84044640D02*
X104969885Y-84256772D01*
X104757753Y-84044640D02*
X105464860Y-83337533D01*
X111687399Y-84044640D02*
X111475267Y-84256772D01*
X111687399Y-84044640D02*
X110980293Y-83337533D01*
X108258165Y-84038171D02*
X107823023Y-84473314D01*
X107552652Y-84002582D02*
X107944132Y-83724138D01*
X108162978Y-83942984D02*
X108258165Y-84038171D01*
X107079052Y-83919718D02*
X106981209Y-83821875D01*
X104616332Y-83903219D02*
X105323438Y-83196112D01*
X111828821Y-83903219D02*
X111121714Y-83196112D01*
X90876277Y-83892467D02*
X90876277Y-85692467D01*
X94376277Y-83892467D02*
X94376277Y-85692467D01*
X95726277Y-83892467D02*
X95726277Y-85692467D01*
X106981209Y-83821875D02*
X107421875Y-83201882D01*
X108040594Y-83820600D02*
X107420707Y-84261373D01*
X90126277Y-83792467D02*
X90776277Y-83792467D01*
X90776277Y-83792467D02*
X90876277Y-83892467D01*
X91476277Y-83792467D02*
X94276277Y-83792467D01*
X94976277Y-83792467D02*
X95626277Y-83792467D01*
X107944132Y-83724138D02*
X108040594Y-83820600D01*
X104404200Y-83691087D02*
X104616332Y-83903219D01*
X104404200Y-83691087D02*
X105111306Y-82983980D01*
X112040953Y-83691087D02*
X111828821Y-83903219D01*
X112040953Y-83691087D02*
X111333846Y-82983980D01*
X107239893Y-83689823D02*
X107685128Y-83465134D01*
X120216809Y-83672282D02*
X120216809Y-84172282D01*
X107570818Y-83671657D02*
X107079052Y-83919718D01*
X106811762Y-83581038D02*
X106711095Y-83560541D01*
X106811762Y-83581038D02*
X106711095Y-83560541D01*
X106874832Y-83568729D02*
X106811762Y-83581038D01*
X106874832Y-83568729D02*
X106811762Y-83581038D01*
X106711095Y-83560541D02*
X106645290Y-83513153D01*
X106711095Y-83560541D02*
X106645290Y-83513153D01*
X107777979Y-83557985D02*
X107552652Y-84002582D01*
X104262778Y-83549666D02*
X104969885Y-82842559D01*
X112182374Y-83549666D02*
X111475267Y-82842559D01*
X106945938Y-83528239D02*
X106874832Y-83568729D01*
X106945938Y-83528239D02*
X106874832Y-83568729D01*
X107685128Y-83465134D02*
X107777979Y-83557985D01*
X106850751Y-83433051D02*
X106945938Y-83528239D01*
X109774365Y-83365060D02*
X109515999Y-83106694D01*
X106905144Y-83351462D02*
X106826287Y-83299778D01*
X106905144Y-83351462D02*
X106826287Y-83299778D01*
X104050646Y-83337533D02*
X104262778Y-83549666D01*
X104050646Y-83337533D02*
X104757753Y-82630427D01*
X112394506Y-83337533D02*
X112182374Y-83549666D01*
X112394506Y-83337533D02*
X111687399Y-82630427D01*
X107211103Y-83317466D02*
X107115916Y-83222279D01*
X106756842Y-83301601D02*
X106737503Y-83315129D01*
X106756842Y-83301601D02*
X106737503Y-83315129D01*
X106826287Y-83299778D02*
X106779506Y-83294863D01*
X106826287Y-83299778D02*
X106779506Y-83294863D01*
X107518231Y-83298238D02*
X107239893Y-83689823D01*
X106779506Y-83294863D02*
X106756842Y-83301601D01*
X106779506Y-83294863D02*
X106756842Y-83301601D01*
X106993532Y-83263073D02*
X106905144Y-83351462D01*
X107421875Y-83201882D02*
X107518231Y-83298238D01*
X103909225Y-83196112D02*
X104616332Y-82489005D01*
X112535928Y-83196112D02*
X111828821Y-82489005D01*
X109774365Y-83174685D02*
X109876352Y-83072699D01*
X106927606Y-83161848D02*
X106993532Y-83263073D01*
X106927606Y-83161848D02*
X106993532Y-83263073D01*
X89876277Y-83142467D02*
X89876277Y-86442467D01*
X89876378Y-83137983D02*
X89876277Y-83142467D01*
X109515999Y-83106694D02*
X109611187Y-83011507D01*
X106922751Y-83101549D02*
X106927606Y-83161848D01*
X106922751Y-83101549D02*
X106927606Y-83161848D01*
X109876352Y-83072699D02*
X109713173Y-82909520D01*
X106932131Y-83072668D02*
X106922751Y-83101549D01*
X106932131Y-83072668D02*
X106922751Y-83101549D01*
X106950081Y-83048158D02*
X106932131Y-83072668D01*
X106950081Y-83048158D02*
X106932131Y-83072668D01*
X95776277Y-83042467D02*
X89976277Y-83042467D01*
X106381327Y-83037702D02*
X106433758Y-83034449D01*
X106381327Y-83037702D02*
X106433758Y-83034449D01*
X106433758Y-83034449D02*
X106503996Y-82991109D01*
X106433758Y-83034449D02*
X106503996Y-82991109D01*
X106335400Y-83012888D02*
X106381327Y-83037702D01*
X106335400Y-83012888D02*
X106381327Y-83037702D01*
X109611187Y-83011507D02*
X109774365Y-83174685D01*
X106503996Y-82991109D02*
X106599184Y-83086297D01*
X103697093Y-82983980D02*
X103909225Y-83196112D01*
X103697093Y-82983980D02*
X104404200Y-82276873D01*
X112748060Y-82983980D02*
X112535928Y-83196112D01*
X112748060Y-82983980D02*
X112040953Y-82276873D01*
X109971539Y-82977511D02*
X110209508Y-82739542D01*
X109363976Y-82954670D02*
X109216839Y-82807534D01*
X109509200Y-82923118D02*
X109363976Y-82954670D01*
X109713173Y-82909520D02*
X109808361Y-82814333D01*
X103555671Y-82842559D02*
X104262778Y-82135452D01*
X112889481Y-82842559D02*
X112182374Y-82135452D01*
X110304695Y-82834730D02*
X109774365Y-83365060D01*
X106442478Y-82819950D02*
X106336569Y-82872975D01*
X106442478Y-82819950D02*
X106336569Y-82872975D01*
X109400415Y-82814333D02*
X109509200Y-82923118D01*
X109808361Y-82814333D02*
X109971539Y-82977511D01*
X109216839Y-82807534D02*
X109747169Y-82277203D01*
X106593978Y-82804665D02*
X106442478Y-82819950D01*
X106593978Y-82804665D02*
X106442478Y-82819950D01*
X106918104Y-82794573D02*
X106593978Y-82804665D01*
X106966336Y-82746342D02*
X106918104Y-82794573D01*
X110209508Y-82739542D02*
X110304695Y-82834730D01*
X106584098Y-82667727D02*
X106702870Y-82659653D01*
X106702870Y-82659653D02*
X106524394Y-82481177D01*
X103343539Y-82630427D02*
X103555671Y-82842559D01*
X103343539Y-82630427D02*
X104050646Y-81923320D01*
X113101613Y-82630427D02*
X112889481Y-82842559D01*
X113101613Y-82630427D02*
X112394506Y-81923320D01*
X109061840Y-82535463D02*
X108937010Y-82527224D01*
X109061840Y-82535463D02*
X108937010Y-82527224D01*
X108937010Y-82527224D02*
X108854680Y-82472571D01*
X108937010Y-82527224D02*
X108854680Y-82472571D01*
X103202118Y-82489005D02*
X103909225Y-81781899D01*
X113243034Y-82489005D02*
X112535928Y-81781899D01*
X106524394Y-82481177D02*
X106612782Y-82392788D01*
X109185107Y-82479199D02*
X109061840Y-82535463D01*
X109185107Y-82479199D02*
X109061840Y-82535463D01*
X108854680Y-82472571D02*
X108813572Y-82420267D01*
X108854680Y-82472571D02*
X108813572Y-82420267D01*
X108813572Y-82420267D02*
X108788728Y-82358652D01*
X108813572Y-82420267D02*
X108788728Y-82358652D01*
X109021725Y-82403953D02*
X109097989Y-82376153D01*
X109021725Y-82403953D02*
X109097989Y-82376153D01*
X108981552Y-82397419D02*
X109021725Y-82403953D01*
X108981552Y-82397419D02*
X109021725Y-82403953D01*
X106612782Y-82392788D02*
X106966336Y-82746342D01*
X109097989Y-82376153D02*
X109223107Y-82270936D01*
X109097989Y-82376153D02*
X109223107Y-82270936D01*
X108947531Y-82375047D02*
X108981552Y-82397419D01*
X108947531Y-82375047D02*
X108981552Y-82397419D01*
X109842356Y-82372391D02*
X109400415Y-82814333D01*
X109317232Y-82367185D02*
X109185107Y-82479199D01*
X109317232Y-82367185D02*
X109185107Y-82479199D01*
X108788728Y-82358652D02*
X108784244Y-82292391D01*
X108788728Y-82358652D02*
X108784244Y-82292391D01*
X108926479Y-82341944D02*
X108947531Y-82375047D01*
X108926479Y-82341944D02*
X108947531Y-82375047D01*
X108921809Y-82302911D02*
X108926479Y-82341944D01*
X108921809Y-82302911D02*
X108926479Y-82341944D01*
X108784244Y-82292391D02*
X108798603Y-82227430D01*
X108784244Y-82292391D02*
X108798603Y-82227430D01*
X109747169Y-82277203D02*
X109842356Y-82372391D01*
X102989986Y-82276873D02*
X103202118Y-82489005D01*
X102989986Y-82276873D02*
X103697093Y-81569767D01*
X113455166Y-82276873D02*
X113243034Y-82489005D01*
X113455166Y-82276873D02*
X112748060Y-81569767D01*
X109223107Y-82270936D02*
X109320368Y-82151238D01*
X109223107Y-82270936D02*
X109320368Y-82151238D01*
X109404602Y-82268685D02*
X109317232Y-82367185D01*
X109404602Y-82268685D02*
X109317232Y-82367185D01*
X108946563Y-82228611D02*
X108921809Y-82302911D01*
X108946563Y-82228611D02*
X108921809Y-82302911D01*
X108798603Y-82227430D02*
X108863465Y-82111541D01*
X108798603Y-82227430D02*
X108863465Y-82111541D01*
X109467761Y-82153729D02*
X109404602Y-82268685D01*
X109467761Y-82153729D02*
X109404602Y-82268685D01*
X109320368Y-82151238D02*
X109342209Y-82077879D01*
X109320368Y-82151238D02*
X109342209Y-82077879D01*
X108599926Y-82119231D02*
X108499259Y-82098734D01*
X108599926Y-82119231D02*
X108499259Y-82098734D01*
X108863465Y-82111541D02*
X108951886Y-82011826D01*
X108863465Y-82111541D02*
X108951886Y-82011826D01*
X109047074Y-82107013D02*
X108946563Y-82228611D01*
X109047074Y-82107013D02*
X108946563Y-82228611D01*
X108662996Y-82106921D02*
X108599926Y-82119231D01*
X108662996Y-82106921D02*
X108599926Y-82119231D01*
X108499259Y-82098734D02*
X108433455Y-82051346D01*
X108499259Y-82098734D02*
X108433455Y-82051346D01*
X109481266Y-82089406D02*
X109467761Y-82153729D01*
X109481266Y-82089406D02*
X109467761Y-82153729D01*
X109342209Y-82077879D02*
X109335859Y-82039962D01*
X109342209Y-82077879D02*
X109335859Y-82039962D01*
X108734102Y-82066431D02*
X108662996Y-82106921D01*
X108734102Y-82066431D02*
X108662996Y-82106921D01*
X109116677Y-82044183D02*
X109047074Y-82107013D01*
X109116677Y-82044183D02*
X109047074Y-82107013D01*
X109335859Y-82039962D02*
X109314682Y-82007895D01*
X109335859Y-82039962D02*
X109314682Y-82007895D01*
X109476241Y-82023974D02*
X109481266Y-82089406D01*
X109476241Y-82023974D02*
X109481266Y-82089406D01*
X108951886Y-82011826D02*
X109051084Y-81923780D01*
X108951886Y-82011826D02*
X109051084Y-81923780D01*
X109220132Y-81986223D02*
X109116677Y-82044183D01*
X109220132Y-81986223D02*
X109116677Y-82044183D01*
X108638915Y-81971244D02*
X108734102Y-82066431D01*
X109450557Y-81963582D02*
X109476241Y-82023974D01*
X109450557Y-81963582D02*
X109476241Y-82023974D01*
X109051084Y-81923780D02*
X109166190Y-81858767D01*
X109051084Y-81923780D02*
X109166190Y-81858767D01*
X109409445Y-81912283D02*
X109450557Y-81963582D01*
X109409445Y-81912283D02*
X109450557Y-81963582D01*
X108693308Y-81889655D02*
X108614451Y-81837971D01*
X108693308Y-81889655D02*
X108614451Y-81837971D01*
X109357696Y-81870965D02*
X109409445Y-81912283D01*
X109357696Y-81870965D02*
X109409445Y-81912283D01*
X109166190Y-81858767D02*
X109230539Y-81843116D01*
X109166190Y-81858767D02*
X109230539Y-81843116D01*
X108999267Y-81855659D02*
X108904080Y-81760472D01*
X109296564Y-81845874D02*
X109357696Y-81870965D01*
X109296564Y-81845874D02*
X109357696Y-81870965D01*
X109230539Y-81843116D02*
X109296564Y-81845874D01*
X109230539Y-81843116D02*
X109296564Y-81845874D01*
X108545006Y-81839794D02*
X108525667Y-81853322D01*
X108545006Y-81839794D02*
X108525667Y-81853322D01*
X108614451Y-81837971D02*
X108567670Y-81833056D01*
X108614451Y-81837971D02*
X108567670Y-81833056D01*
X108567670Y-81833056D02*
X108545006Y-81839794D01*
X108567670Y-81833056D02*
X108545006Y-81839794D01*
X108781696Y-81801266D02*
X108693308Y-81889655D01*
X108715770Y-81700041D02*
X108781696Y-81801266D01*
X108715770Y-81700041D02*
X108781696Y-81801266D01*
X90576003Y-81651000D02*
X90765106Y-81651000D01*
X91305170Y-81651000D02*
X91339124Y-81651000D01*
X91388503Y-81651000D02*
X91433375Y-81651000D01*
X95164000Y-81650000D02*
X90284000Y-81650000D01*
X95164000Y-81650000D02*
X95564000Y-81650000D01*
X95564000Y-81650000D02*
X97504000Y-81650000D01*
X97504000Y-81650000D02*
X97804000Y-81350000D01*
X108710916Y-81639742D02*
X108715770Y-81700041D01*
X108710916Y-81639742D02*
X108715770Y-81700041D01*
X108720296Y-81610861D02*
X108710916Y-81639742D01*
X108720296Y-81610861D02*
X108710916Y-81639742D01*
X108738246Y-81586351D02*
X108720296Y-81610861D01*
X108738246Y-81586351D02*
X108720296Y-81610861D01*
X90184000Y-81550000D02*
X90184000Y-76670000D01*
X107913323Y-81531214D02*
X107809568Y-81357824D01*
X107913323Y-81531214D02*
X107809568Y-81357824D01*
X107809568Y-81357824D02*
X107792639Y-81199333D01*
X107809568Y-81357824D02*
X107792639Y-81199333D01*
X97804000Y-81350000D02*
X97804000Y-76870000D01*
X107950234Y-81344997D02*
X108012229Y-81439745D01*
X107950234Y-81344997D02*
X108012229Y-81439745D01*
X107929152Y-81202414D02*
X107950234Y-81344997D01*
X107929152Y-81202414D02*
X107950234Y-81344997D01*
X107792639Y-81199333D02*
X107929152Y-81202414D01*
X103322829Y-81195502D02*
X108172576Y-86045250D01*
X113122324Y-81195502D02*
X113122324Y-81095502D01*
X103322829Y-81095502D02*
X103322829Y-81195502D01*
X107797372Y-81013505D02*
X107754075Y-81074718D01*
X107797372Y-81013505D02*
X107754075Y-81074718D01*
X108142049Y-80989517D02*
X108145449Y-80850773D01*
X90854000Y-80980000D02*
X90854000Y-79780000D01*
X94594000Y-80980000D02*
X90854000Y-80980000D01*
X107819729Y-80920888D02*
X107797372Y-81013505D01*
X107819729Y-80920888D02*
X107797372Y-81013505D01*
X107919031Y-80917392D02*
X107819729Y-80920888D01*
X107919031Y-80917392D02*
X107819729Y-80920888D01*
X108343237Y-80884488D02*
X108472337Y-80975175D01*
X108343237Y-80884488D02*
X108472337Y-80975175D01*
X108028058Y-80855128D02*
X107919031Y-80917392D01*
X108028058Y-80855128D02*
X107919031Y-80917392D01*
X108145449Y-80850773D02*
X108343237Y-80884488D01*
X108145449Y-80850773D02*
X108343237Y-80884488D01*
X107245099Y-80835793D02*
X106959536Y-80550231D01*
X107449603Y-80767271D02*
X107529782Y-80717565D01*
X107449603Y-80767271D02*
X107529782Y-80717565D01*
X107340286Y-80740606D02*
X107245099Y-80835793D01*
X107529782Y-80717565D02*
X107603327Y-80704486D01*
X107529782Y-80717565D02*
X107603327Y-80704486D01*
X91135801Y-80698199D02*
X91135801Y-80061802D01*
X91772198Y-80698199D02*
X91135801Y-80698199D01*
X93675801Y-80698199D02*
X93675801Y-80061802D01*
X94312198Y-80698199D02*
X93675801Y-80698199D01*
X96215801Y-80698199D02*
X96215801Y-80061802D01*
X96852198Y-80698199D02*
X96215801Y-80698199D01*
X107245099Y-80645419D02*
X107340286Y-80740606D01*
X106959536Y-80550231D02*
X107054724Y-80455044D01*
X107149911Y-80550231D02*
X107585054Y-80115088D01*
X107054724Y-80455044D02*
X107149911Y-80550231D01*
X106723692Y-80341584D02*
X106682154Y-80214632D01*
X106682154Y-80214632D02*
X106956243Y-80125393D01*
X107123140Y-80211551D02*
X106723692Y-80341584D01*
X107680241Y-80210276D02*
X107245099Y-80645419D01*
X107201483Y-80182341D02*
X107123140Y-80211551D01*
X107201483Y-80182341D02*
X107123140Y-80211551D01*
X107290037Y-80124543D02*
X107201483Y-80182341D01*
X107290037Y-80124543D02*
X107201483Y-80182341D01*
X107585054Y-80115088D02*
X107680241Y-80210276D01*
X91135801Y-80061802D02*
X91772198Y-80061802D01*
X91772198Y-80061802D02*
X91772198Y-80698199D01*
X93675801Y-80061802D02*
X94312198Y-80061802D01*
X94312198Y-80061802D02*
X94312198Y-80698199D01*
X96215801Y-80061802D02*
X96852198Y-80061802D01*
X96852198Y-80061802D02*
X96852198Y-80698199D01*
X102989986Y-80014132D02*
X103697093Y-80721238D01*
X113455166Y-80014132D02*
X112748060Y-80721238D01*
X103202118Y-79802000D02*
X103909225Y-80509106D01*
X103202118Y-79802000D02*
X102989986Y-80014132D01*
X113243034Y-79802000D02*
X112535928Y-80509106D01*
X113243034Y-79802000D02*
X113455166Y-80014132D01*
X90854000Y-79780000D02*
X94594000Y-79780000D01*
X94594000Y-79780000D02*
X94594000Y-80980000D01*
X103343539Y-79660578D02*
X104050646Y-80367685D01*
X113101613Y-79660578D02*
X112394506Y-80367685D01*
X90183000Y-79568528D02*
X90183000Y-79757631D01*
X103555671Y-79448446D02*
X104262778Y-80155553D01*
X103555671Y-79448446D02*
X103343539Y-79660578D01*
X112889481Y-79448446D02*
X112182374Y-80155553D01*
X112889481Y-79448446D02*
X113101613Y-79660578D01*
X103697093Y-79307025D02*
X104404200Y-80014132D01*
X112748060Y-79307025D02*
X112040953Y-80014132D01*
X95264000Y-79210000D02*
X95264000Y-81550000D01*
X95264000Y-79210000D02*
X90195400Y-79210000D01*
X103909225Y-79094893D02*
X104616332Y-79802000D01*
X103909225Y-79094893D02*
X103697093Y-79307025D01*
X112535928Y-79094893D02*
X111828821Y-79802000D01*
X112535928Y-79094893D02*
X112748060Y-79307025D01*
X90195400Y-79010000D02*
X95264000Y-79010000D01*
X104050646Y-78953471D02*
X104757753Y-79660578D01*
X112394506Y-78953471D02*
X111687399Y-79660578D01*
X104262778Y-78741339D02*
X104969885Y-79448446D01*
X104262778Y-78741339D02*
X104050646Y-78953471D01*
X112182374Y-78741339D02*
X111475267Y-79448446D01*
X112182374Y-78741339D02*
X112394506Y-78953471D01*
X120216809Y-78672282D02*
X120216809Y-78172282D01*
X104404200Y-78599918D02*
X105111306Y-79307025D01*
X112040953Y-78599918D02*
X111333846Y-79307025D01*
X90854000Y-78440000D02*
X90854000Y-77240000D01*
X94594000Y-78440000D02*
X90854000Y-78440000D01*
X81704000Y-78430000D02*
X81704000Y-84130000D01*
X81847395Y-78430000D02*
X81847395Y-84130000D01*
X81847395Y-78430000D02*
X81704000Y-78430000D01*
X104616332Y-78387786D02*
X105323438Y-79094893D01*
X104616332Y-78387786D02*
X104404200Y-78599918D01*
X111828821Y-78387786D02*
X111121714Y-79094893D01*
X111828821Y-78387786D02*
X112040953Y-78599918D01*
X104757753Y-78246365D02*
X105464860Y-78953471D01*
X111687399Y-78246365D02*
X110980293Y-78953471D01*
X81908789Y-78180000D02*
X82254000Y-78180000D01*
X91135801Y-78158199D02*
X91135801Y-77521802D01*
X91772198Y-78158199D02*
X91135801Y-78158199D01*
X93675801Y-78158199D02*
X93675801Y-77521802D01*
X94312198Y-78158199D02*
X93675801Y-78158199D01*
X96215801Y-78158199D02*
X96215801Y-77521802D01*
X96852198Y-78158199D02*
X96215801Y-78158199D01*
X82332825Y-78141536D02*
X82332825Y-84418465D01*
X114571588Y-78092050D02*
X114571588Y-84392050D01*
X119096588Y-78092050D02*
X119096588Y-84392050D01*
X82353936Y-78083590D02*
X87364000Y-78083590D01*
X82354000Y-78080000D02*
X82353936Y-78083590D01*
X104969885Y-78034233D02*
X105676992Y-78741339D01*
X104969885Y-78034233D02*
X104757753Y-78246365D01*
X111475267Y-78034233D02*
X110768161Y-78741339D01*
X111475267Y-78034233D02*
X111687399Y-78246365D01*
X105111306Y-77892811D02*
X105818413Y-78599918D01*
X111333846Y-77892811D02*
X110626739Y-78599918D01*
X82354000Y-77829989D02*
X82349785Y-77829989D01*
X87364000Y-77829989D02*
X87364000Y-84730012D01*
X82254000Y-77820729D02*
X82254000Y-77565073D01*
X82019241Y-77705143D02*
X81704000Y-77427388D01*
X105323438Y-77680679D02*
X106030545Y-78387786D01*
X105323438Y-77680679D02*
X105111306Y-77892811D01*
X111121714Y-77680679D02*
X110414607Y-78387786D01*
X111121714Y-77680679D02*
X111333846Y-77892811D01*
X82354000Y-77590104D02*
X82354000Y-78080000D01*
X82353669Y-77588514D02*
X82354000Y-77590104D01*
X82348425Y-77583590D02*
X87354000Y-77583590D01*
X82348425Y-77583590D02*
X82345500Y-77583573D01*
X87354000Y-77583590D02*
X87354000Y-84976411D01*
X82345500Y-77583573D02*
X82353669Y-77588514D01*
X105464860Y-77539258D02*
X106171967Y-78246365D01*
X110980293Y-77539258D02*
X110273186Y-78246365D01*
X91135801Y-77521802D02*
X91772198Y-77521802D01*
X91772198Y-77521802D02*
X91772198Y-78158199D01*
X93675801Y-77521802D02*
X94312198Y-77521802D01*
X94312198Y-77521802D02*
X94312198Y-78158199D01*
X96215801Y-77521802D02*
X96852198Y-77521802D01*
X96852198Y-77521802D02*
X96852198Y-78158199D01*
X81704000Y-77427388D02*
X81866892Y-77242513D01*
X82054469Y-77407785D02*
X81891578Y-77592660D01*
X105676992Y-77327126D02*
X106384099Y-78034233D01*
X105676992Y-77327126D02*
X105464860Y-77539258D01*
X110768161Y-77327126D02*
X110061054Y-78034233D01*
X110768161Y-77327126D02*
X110980293Y-77539258D01*
X123726809Y-77272282D02*
X123726807Y-77271663D01*
X120226811Y-77271663D02*
X120226809Y-77272282D01*
X123726804Y-77271334D02*
X123726809Y-77272282D01*
X81866892Y-77242513D02*
X82183153Y-77521167D01*
X90854000Y-77240000D02*
X94594000Y-77240000D01*
X94594000Y-77240000D02*
X94594000Y-78440000D01*
X105818413Y-77185704D02*
X106525520Y-77892811D01*
X110626739Y-77185704D02*
X109919632Y-77892811D01*
X120326809Y-77172282D02*
X120326190Y-77172283D01*
X120326809Y-77172282D02*
X123626809Y-77172282D01*
X106030545Y-76973572D02*
X106737652Y-77680679D01*
X106030545Y-76973572D02*
X105818413Y-77185704D01*
X110414607Y-76973572D02*
X109707500Y-77680679D01*
X110414607Y-76973572D02*
X110626739Y-77185704D01*
X97804000Y-76870000D02*
X97504000Y-76570000D01*
X106171967Y-76832151D02*
X106879073Y-77539258D01*
X110273186Y-76832151D02*
X109566079Y-77539258D01*
X95264000Y-76670000D02*
X95264000Y-79010000D01*
X106384099Y-76620019D02*
X107091205Y-77327126D01*
X106384099Y-76620019D02*
X106171967Y-76832151D01*
X110061054Y-76620019D02*
X109353947Y-77327126D01*
X110061054Y-76620019D02*
X110273186Y-76832151D01*
X90284000Y-76570000D02*
X95164000Y-76570000D01*
X95564000Y-76570000D02*
X95164000Y-76570000D01*
X97504000Y-76570000D02*
X95564000Y-76570000D01*
X106525520Y-76478598D02*
X107232627Y-77185704D01*
X109919632Y-76478598D02*
X109212526Y-77185704D01*
X106737652Y-76266466D02*
X107444759Y-76973572D01*
X106737652Y-76266466D02*
X106525520Y-76478598D01*
X109707500Y-76266466D02*
X109000394Y-76973572D01*
X109707500Y-76266466D02*
X109919632Y-76478598D01*
X108172576Y-76245755D02*
X103322829Y-81095502D01*
X108172576Y-76245755D02*
X108272576Y-76245755D01*
X108272576Y-76245755D02*
X113122324Y-81095502D01*
X127194000Y-76140000D02*
X127194000Y-86420000D01*
X129854000Y-76140000D02*
X127194000Y-76140000D01*
X106879073Y-76125044D02*
X107586180Y-76832151D01*
X109566079Y-76125044D02*
X108858972Y-76832151D01*
X107091205Y-75912912D02*
X107798312Y-76620019D01*
X107091205Y-75912912D02*
X106879073Y-76125044D01*
X109353947Y-75912912D02*
X108646840Y-76620019D01*
X109353947Y-75912912D02*
X109566079Y-76125044D01*
X82804000Y-74930000D02*
X82804000Y-72390000D01*
X133604000Y-74930000D02*
X82804000Y-74930000D01*
X82804000Y-72390000D02*
X133604000Y-72390000D01*
X133604000Y-72390000D02*
X133604000Y-74930000D01*
X81629000Y-69905000D02*
X134779000Y-69905000D01*
X134779000Y-69905000D02*
X134779000Y-92655000D01*
X89876273Y-86442467D02*
G75*
G03*
X89976277Y-86542467I100067J67D01*
G01*
X95776277Y-86542477D02*
G75*
G03*
X95876277Y-86442467I23J99977D01*
G01*
X90026233Y-85692467D02*
G75*
G03*
X90126277Y-85792467I100067J67D01*
G01*
X91376233Y-85692467D02*
G75*
G03*
X91476277Y-85792467I100067J67D01*
G01*
X94876233Y-85692467D02*
G75*
G03*
X94976277Y-85792467I100067J67D01*
G01*
X90776277Y-85792477D02*
G75*
G03*
X90876277Y-85692467I23J99977D01*
G01*
X94276277Y-85792477D02*
G75*
G03*
X94376277Y-85692467I23J99977D01*
G01*
X95626277Y-85792477D02*
G75*
G03*
X95726277Y-85692467I23J99977D01*
G01*
X120226821Y-85072900D02*
G75*
G03*
X120326189Y-85172279I99979J600D01*
G01*
X121135767Y-85065811D02*
G75*
G03*
X121335767Y-85088199I150633J441111D01*
G01*
X123627428Y-85172306D02*
G75*
G03*
X123726806Y-85072901I-628J100006D01*
G01*
X122617849Y-85088220D02*
G75*
G03*
X122817851Y-85065811I51351J445420D01*
G01*
X82345500Y-84976408D02*
G75*
G03*
X82183154Y-85038835I2800J-249592D01*
G01*
X108010207Y-84878076D02*
G75*
G03*
X108283874Y-84882748I139123J131806D01*
G01*
X121535767Y-84479227D02*
G75*
G03*
X121135767Y-84879226I-67J-399933D01*
G01*
X107948273Y-84647222D02*
G75*
G03*
X108010211Y-84878073I254027J-55578D01*
G01*
X82349785Y-84729967D02*
G75*
G03*
X82019241Y-84854858I215J-500433D01*
G01*
X108106459Y-84783949D02*
G75*
G03*
X108184119Y-84792128I42941J34949D01*
G01*
X108084618Y-84653293D02*
G75*
G03*
X108106461Y-84783948I127082J-45907D01*
G01*
X108283870Y-84882744D02*
G75*
G03*
X108336354Y-84562977I-286070J211144D01*
G01*
X108357498Y-84401181D02*
G75*
G03*
X108336356Y-84562977I183202J-106219D01*
G01*
X122817854Y-84879226D02*
G75*
G03*
X122417851Y-84479226I-400004J-4D01*
G01*
X108468306Y-84411480D02*
G75*
G03*
X108357498Y-84401181I-60606J-50820D01*
G01*
X114996588Y-84392050D02*
G75*
G03*
X119096588Y-84392050I2050000J0D01*
G01*
X114571588Y-84392050D02*
G75*
G03*
X119521588Y-84392050I2475000J0D01*
G01*
X81703999Y-84130000D02*
G75*
G03*
X81908788Y-84380001I229941J-20520D01*
G01*
X81847398Y-84130000D02*
G75*
G03*
X82052182Y-84379999I229952J-20510D01*
G01*
X82353936Y-84476411D02*
G75*
G03*
X82254001Y-84380000I-99936J-3589D01*
G01*
X108621133Y-84599823D02*
G75*
G03*
X108566992Y-84319803I-229233J100923D01*
G01*
X108566995Y-84319801D02*
G75*
G03*
X108256786Y-84311518I-158955J-140049D01*
G01*
X90126277Y-83792477D02*
G75*
G03*
X90026277Y-83892467I23J-100023D01*
G01*
X91476277Y-83792477D02*
G75*
G03*
X91376277Y-83892467I23J-100023D01*
G01*
X94976277Y-83792477D02*
G75*
G03*
X94876277Y-83892467I23J-100023D01*
G01*
X94376233Y-83892467D02*
G75*
G03*
X94276277Y-83792467I-99933J67D01*
G01*
X95726233Y-83892467D02*
G75*
G03*
X95626277Y-83792467I-99933J67D01*
G01*
X106636260Y-83225997D02*
G75*
G03*
X106645290Y-83513154I145250J-139153D01*
G01*
X106741108Y-83418611D02*
G75*
G03*
X106850751Y-83433051I64492J66211D01*
G01*
X106737517Y-83315143D02*
G75*
G03*
X106741117Y-83418602I49883J-50057D01*
G01*
X106818363Y-83185802D02*
G75*
G03*
X106636261Y-83225997I-59663J-162298D01*
G01*
X106855854Y-82952018D02*
G75*
G03*
X106818350Y-83185839I131946J-141082D01*
G01*
X89976277Y-83042477D02*
G75*
G03*
X89876277Y-83142467I23J-100023D01*
G01*
X106234672Y-82784463D02*
G75*
G03*
X106234795Y-83102657I156128J-159037D01*
G01*
X106234786Y-83102665D02*
G75*
G03*
X106599183Y-83086297I174514J179265D01*
G01*
X107115964Y-83222324D02*
G75*
G03*
X107111028Y-83054215I-88664J81524D01*
G01*
X107111050Y-83054196D02*
G75*
G03*
X106950082Y-83048158I-83350J-73404D01*
G01*
X95876233Y-83142467D02*
G75*
G03*
X95776277Y-83042467I-99933J67D01*
G01*
X106336590Y-82872998D02*
G75*
G03*
X106335401Y-83012886I65010J-70502D01*
G01*
X107211107Y-83317470D02*
G75*
G03*
X107211421Y-82964231I-169307J176770D01*
G01*
X107211422Y-82964232D02*
G75*
G03*
X106855852Y-82952015I-183652J-164638D01*
G01*
X106584098Y-82667723D02*
G75*
G03*
X106234688Y-82784480I-22598J-513577D01*
G01*
X108424376Y-81764143D02*
G75*
G03*
X108433455Y-82051345I145124J-139157D01*
G01*
X109314681Y-82007896D02*
G75*
G03*
X109220132Y-81986224I-64681J-65104D01*
G01*
X108529291Y-81956784D02*
G75*
G03*
X108638915Y-81971244I64509J66284D01*
G01*
X108525689Y-81853344D02*
G75*
G03*
X108529280Y-81956796I49911J-50056D01*
G01*
X108606511Y-81724038D02*
G75*
G03*
X108424425Y-81764190I-59711J-162162D01*
G01*
X108644019Y-81490212D02*
G75*
G03*
X108606514Y-81724032I131981J-141088D01*
G01*
X90184000Y-81550000D02*
G75*
G03*
X90284000Y-81650000I100000J0D01*
G01*
X108904031Y-81760427D02*
G75*
G03*
X108899193Y-81592407I-88631J81527D01*
G01*
X108899174Y-81592423D02*
G75*
G03*
X108738245Y-81586351I-83374J-74077D01*
G01*
X95164000Y-81650000D02*
G75*
G03*
X95264000Y-81550000I0J100000D01*
G01*
X107913332Y-81531205D02*
G75*
G03*
X108468087Y-81530151I276868J268405D01*
G01*
X108999277Y-81855670D02*
G75*
G03*
X108999585Y-81502426I-169377J176770D01*
G01*
X108999583Y-81502427D02*
G75*
G03*
X108644015Y-81490208I-183653J-164683D01*
G01*
X108012231Y-81439743D02*
G75*
G03*
X108372687Y-81435176I178019J176643D01*
G01*
X107451751Y-81069598D02*
G75*
G03*
X107754076Y-81074718I153549J138398D01*
G01*
X108372685Y-81435174D02*
G75*
G03*
X108377573Y-81070788I-167585J184474D01*
G01*
X107449559Y-80767225D02*
G75*
G03*
X107451727Y-81069619I143641J-150175D01*
G01*
X108377580Y-81070781D02*
G75*
G03*
X108142049Y-80989517I-203280J-207219D01*
G01*
X107549381Y-80857915D02*
G75*
G03*
X107549254Y-80976768I54019J-59485D01*
G01*
X108468092Y-81530156D02*
G75*
G03*
X108472337Y-80975175I-254892J279456D01*
G01*
X107549302Y-80976718D02*
G75*
G03*
X107665688Y-80972732I56298J57318D01*
G01*
X107669877Y-80852531D02*
G75*
G03*
X107549360Y-80857892I-57777J-58469D01*
G01*
X107665705Y-80972753D02*
G75*
G03*
X107669831Y-80852579I-55205J62053D01*
G01*
X107763726Y-80756131D02*
G75*
G03*
X107924265Y-80768546I86374J72731D01*
G01*
X107756363Y-80596397D02*
G75*
G03*
X107763744Y-80756116I80637J-76303D01*
G01*
X107667712Y-80494782D02*
G75*
G03*
X107603328Y-80704485I158888J-163518D01*
G01*
X107924261Y-80768542D02*
G75*
G03*
X107914490Y-80607706I-81861J75742D01*
G01*
X107914517Y-80607685D02*
G75*
G03*
X107756413Y-80596443I-84117J-65615D01*
G01*
X108028039Y-80855109D02*
G75*
G03*
X108008722Y-80511562I-156639J163509D01*
G01*
X108008721Y-80511563D02*
G75*
G03*
X107667706Y-80494776I-178071J-145257D01*
G01*
X106964425Y-79797446D02*
G75*
G03*
X106956244Y-80125392I155475J-167954D01*
G01*
X107054213Y-79898071D02*
G75*
G03*
X107049200Y-80041573I65587J-74129D01*
G01*
X107049153Y-80041624D02*
G75*
G03*
X107190174Y-80034029I66847J71824D01*
G01*
X107198508Y-79891624D02*
G75*
G03*
X107054192Y-79898048I-69008J-73976D01*
G01*
X107190157Y-80034010D02*
G75*
G03*
X107198460Y-79891675I-66857J75310D01*
G01*
X107291857Y-79794667D02*
G75*
G03*
X106964423Y-79797442I-162357J-161833D01*
G01*
X107290026Y-80124532D02*
G75*
G03*
X107291842Y-79794681I-163726J165832D01*
G01*
X81908793Y-78180039D02*
G75*
G03*
X81704001Y-78430000I25007J-229361D01*
G01*
X82052187Y-78180034D02*
G75*
G03*
X81847395Y-78430000I25013J-229366D01*
G01*
X119521592Y-78092050D02*
G75*
G03*
X114571588Y-78092050I-2475002J0D01*
G01*
X119096592Y-78092050D02*
G75*
G03*
X114996588Y-78092050I-2050002J0D01*
G01*
X82254000Y-78180001D02*
G75*
G03*
X82353937Y-78083590I0J100001D01*
G01*
X82019233Y-77705152D02*
G75*
G03*
X82349785Y-77829989I330567J375252D01*
G01*
X82183161Y-77521158D02*
G75*
G03*
X82345500Y-77583572I165239J187458D01*
G01*
X120326190Y-77172310D02*
G75*
G03*
X120226810Y-77271663I610J-99990D01*
G01*
X123726815Y-77271663D02*
G75*
G03*
X123627428Y-77172285I-100015J-637D01*
G01*
X90284000Y-76570000D02*
G75*
G03*
X90184000Y-76670000I0J-100000D01*
G01*
X95263999Y-76670000D02*
G75*
G03*
X95164000Y-76570001I-99999J0D01*
G01*
X112472576Y-81145502D02*
G75*
G03*
X112472576Y-81145502I-250000J0D01*
G01*
X122402685Y-78120855D02*
G75*
G03*
X122402685Y-78120855I-425876J0D01*
G01*
D16*
X128877060Y-85336380D02*
X128369060Y-85336380D01*
X128369060Y-84828380D01*
X128877060Y-84828380D01*
X128877060Y-85336380D01*
G36*
X128877060Y-85336380D02*
G01*
X128369060Y-85336380D01*
X128369060Y-84828380D01*
X128877060Y-84828380D01*
X128877060Y-85336380D01*
G37*
X128877060Y-82796380D02*
X128369060Y-82796380D01*
X128369060Y-82288380D01*
X128877060Y-82288380D01*
X128877060Y-82796380D01*
G36*
X128877060Y-82796380D02*
G01*
X128369060Y-82796380D01*
X128369060Y-82288380D01*
X128877060Y-82288380D01*
X128877060Y-82796380D01*
G37*
X128877060Y-80256380D02*
X128369060Y-80256380D01*
X128369060Y-79748380D01*
X128877060Y-79748380D01*
X128877060Y-80256380D01*
G36*
X128877060Y-80256380D02*
G01*
X128369060Y-80256380D01*
X128369060Y-79748380D01*
X128877060Y-79748380D01*
X128877060Y-80256380D01*
G37*
X128877060Y-77716380D02*
X128369060Y-77716380D01*
X128369060Y-77208380D01*
X128877060Y-77208380D01*
X128877060Y-77716380D01*
G36*
X128877060Y-77716380D02*
G01*
X128369060Y-77716380D01*
X128369060Y-77208380D01*
X128877060Y-77208380D01*
X128877060Y-77716380D01*
G37*
D13*
G04 #@! TO.C,R2*
X134620000Y-95274000D02*
X134620000Y-96044000D01*
X135990000Y-96044000D02*
X133250000Y-96044000D01*
X133250000Y-96044000D02*
X133250000Y-102584000D01*
X135990000Y-102584000D02*
X135990000Y-96044000D01*
X133250000Y-102584000D02*
X135990000Y-102584000D01*
X134620000Y-103354000D02*
X134620000Y-102584000D01*
G04 #@! TO.C,J2*
X110662000Y-102792000D02*
X110662000Y-103432000D01*
X110662000Y-103432000D02*
X111062000Y-103432000D01*
X110902000Y-96452000D02*
X110902000Y-103192000D01*
X110902000Y-96452000D02*
X116682000Y-96452000D01*
X110902000Y-97572000D02*
X116682000Y-97572000D01*
X110902000Y-102672000D02*
X116682000Y-102672000D01*
X110902000Y-103192000D02*
X116682000Y-103192000D01*
X116682000Y-96452000D02*
X116682000Y-103192000D01*
G04 #@! TO.C,JP2*
X196910000Y-81340000D02*
X195580000Y-81340000D01*
X196910000Y-80010000D02*
X196910000Y-81340000D01*
X196910000Y-78740000D02*
X196910000Y-73600000D01*
X196910000Y-78740000D02*
X194250000Y-78740000D01*
X196910000Y-73600000D02*
X194250000Y-73600000D01*
X194250000Y-78740000D02*
X194250000Y-73600000D01*
G04 #@! TO.C,J5*
X159176000Y-102792000D02*
X159176000Y-103432000D01*
X159176000Y-103432000D02*
X159576000Y-103432000D01*
X159416000Y-96452000D02*
X159416000Y-103192000D01*
X159416000Y-96452000D02*
X170277000Y-96452000D01*
X159416000Y-97572000D02*
X170277000Y-97572000D01*
X159416000Y-102672000D02*
X170277000Y-102672000D01*
X159416000Y-103192000D02*
X170277000Y-103192000D01*
X170277000Y-96452000D02*
X170277000Y-103192000D01*
G04 #@! TO.C,J6*
X143677000Y-102792000D02*
X143677000Y-103432000D01*
X143677000Y-103432000D02*
X144077000Y-103432000D01*
X143917000Y-96452000D02*
X143917000Y-103192000D01*
X143917000Y-96452000D02*
X154778000Y-96452000D01*
X143917000Y-97572000D02*
X154778000Y-97572000D01*
X143917000Y-102672000D02*
X154778000Y-102672000D01*
X143917000Y-103192000D02*
X154778000Y-103192000D01*
X154778000Y-96452000D02*
X154778000Y-103192000D01*
G04 #@! TO.C,J1*
X86786000Y-102538000D02*
X86786000Y-103178000D01*
X86786000Y-103178000D02*
X87186000Y-103178000D01*
X87026000Y-96198000D02*
X87026000Y-102938000D01*
X87026000Y-96198000D02*
X92806000Y-96198000D01*
X87026000Y-97318000D02*
X92806000Y-97318000D01*
X87026000Y-102418000D02*
X92806000Y-102418000D01*
X87026000Y-102938000D02*
X92806000Y-102938000D01*
X92806000Y-96198000D02*
X92806000Y-102938000D01*
D17*
G04 #@! TO.C,U4*
X156210000Y-68580000D02*
X191770000Y-68580000D01*
X156210000Y-90170000D02*
X156210000Y-68580000D01*
X191770000Y-68580000D02*
X191770000Y-90170000D01*
X191770000Y-90170000D02*
X156210000Y-90170000D01*
D13*
G04 #@! TO.C,J3*
X118536000Y-102792000D02*
X118536000Y-103432000D01*
X118536000Y-103432000D02*
X118936000Y-103432000D01*
X118776000Y-96452000D02*
X118776000Y-103192000D01*
X118776000Y-96452000D02*
X132176000Y-96452000D01*
X118776000Y-97572000D02*
X132176000Y-97572000D01*
X118776000Y-102672000D02*
X132176000Y-102672000D01*
X118776000Y-103192000D02*
X132176000Y-103192000D01*
X132176000Y-96452000D02*
X132176000Y-103192000D01*
G04 #@! TO.C,R1*
X137668000Y-95274000D02*
X137668000Y-96044000D01*
X139038000Y-96044000D02*
X136298000Y-96044000D01*
X136298000Y-96044000D02*
X136298000Y-102584000D01*
X139038000Y-102584000D02*
X139038000Y-96044000D01*
X136298000Y-102584000D02*
X139038000Y-102584000D01*
X137668000Y-103354000D02*
X137668000Y-102584000D01*
G04 #@! TO.C,J4*
X97200000Y-102538000D02*
X97200000Y-103178000D01*
X97200000Y-103178000D02*
X97600000Y-103178000D01*
X97440000Y-96198000D02*
X97440000Y-102938000D01*
X97440000Y-96198000D02*
X103220000Y-96198000D01*
X97440000Y-97318000D02*
X103220000Y-97318000D01*
X97440000Y-102418000D02*
X103220000Y-102418000D01*
X97440000Y-102938000D02*
X103220000Y-102938000D01*
X103220000Y-96198000D02*
X103220000Y-102938000D01*
G04 #@! TO.C,J7*
X186010000Y-96852000D02*
X186010000Y-96212000D01*
X186010000Y-96212000D02*
X185610000Y-96212000D01*
X185770000Y-103192000D02*
X185770000Y-96452000D01*
X185770000Y-103192000D02*
X172370000Y-103192000D01*
X185770000Y-102072000D02*
X172370000Y-102072000D01*
X185770000Y-96972000D02*
X172370000Y-96972000D01*
X185770000Y-96452000D02*
X172370000Y-96452000D01*
X172370000Y-103192000D02*
X172370000Y-96452000D01*
G04 #@! TO.C,R5*
X106934000Y-95782000D02*
X106934000Y-96552000D01*
X108304000Y-96552000D02*
X105564000Y-96552000D01*
X105564000Y-96552000D02*
X105564000Y-103092000D01*
X108304000Y-103092000D02*
X108304000Y-96552000D01*
X105564000Y-103092000D02*
X108304000Y-103092000D01*
X106934000Y-103862000D02*
X106934000Y-103092000D01*
G04 #@! TD*
D18*
G04 #@! TO.C,U1*
X150495000Y-71120000D03*
D19*
X150495000Y-73660000D03*
X147955000Y-71120000D03*
X147955000Y-73660000D03*
X145415000Y-71120000D03*
X145415000Y-73660000D03*
X142875000Y-71120000D03*
X142875000Y-73660000D03*
G04 #@! TD*
M02*
