G04 #@! TF.GenerationSoftware,KiCad,Pcbnew,7.0.2-6a45011f42~172~ubuntu22.04.1*
G04 #@! TF.CreationDate,2023-05-11T11:42:15-04:00*
G04 #@! TF.ProjectId,PCB_Design,5043425f-4465-4736-9967-6e2e6b696361,rev?*
G04 #@! TF.SameCoordinates,Original*
G04 #@! TF.FileFunction,Copper,L1,Top*
G04 #@! TF.FilePolarity,Positive*
%FSLAX46Y46*%
G04 Gerber Fmt 4.6, Leading zero omitted, Abs format (unit mm)*
G04 Created by KiCad (PCBNEW 7.0.2-6a45011f42~172~ubuntu22.04.1) date 2023-05-11 11:42:15*
%MOMM*%
%LPD*%
G01*
G04 APERTURE LIST*
%ADD10C,0.260000*%
G04 #@! TA.AperFunction,ComponentPad*
%ADD11R,1.700000X1.700000*%
G04 #@! TD*
G04 #@! TA.AperFunction,ComponentPad*
%ADD12O,1.700000X1.700000*%
G04 #@! TD*
G04 #@! TA.AperFunction,ComponentPad*
%ADD13R,1.727200X1.727200*%
G04 #@! TD*
G04 #@! TA.AperFunction,ComponentPad*
%ADD14O,1.600000X1.600000*%
G04 #@! TD*
G04 #@! TA.AperFunction,ComponentPad*
%ADD15C,1.600000*%
G04 #@! TD*
G04 #@! TA.AperFunction,ComponentPad*
%ADD16R,2.100000X2.100000*%
G04 #@! TD*
G04 #@! TA.AperFunction,ComponentPad*
%ADD17C,2.100000*%
G04 #@! TD*
G04 #@! TA.AperFunction,ComponentPad*
%ADD18R,1.408000X1.408000*%
G04 #@! TD*
G04 #@! TA.AperFunction,ViaPad*
%ADD19C,1.500000*%
G04 #@! TD*
G04 #@! TA.AperFunction,Conductor*
%ADD20C,0.457200*%
G04 #@! TD*
G04 #@! TA.AperFunction,Conductor*
%ADD21C,0.457000*%
G04 #@! TD*
G04 #@! TA.AperFunction,Conductor*
%ADD22C,0.762000*%
G04 #@! TD*
G04 APERTURE END LIST*
D10*
G36*
X86822136Y-66537317D02*
G01*
X86972234Y-66687415D01*
X87054857Y-67017905D01*
X87054857Y-67652566D01*
X86972233Y-67983060D01*
X86822135Y-68133159D01*
X86677977Y-68205238D01*
X86358403Y-68205238D01*
X86214246Y-68133160D01*
X86064147Y-67983060D01*
X85981524Y-67652568D01*
X85981524Y-67017908D01*
X86064147Y-66687414D01*
X86214244Y-66537317D01*
X86358404Y-66465238D01*
X86677978Y-66465238D01*
X86822136Y-66537317D01*
G37*
G36*
X108536426Y-66537317D02*
G01*
X108686524Y-66687415D01*
X108769147Y-67017906D01*
X108769147Y-67652566D01*
X108686523Y-67983060D01*
X108536425Y-68133159D01*
X108392267Y-68205238D01*
X108072693Y-68205238D01*
X107928536Y-68133160D01*
X107778437Y-67983060D01*
X107695814Y-67652568D01*
X107695814Y-67017909D01*
X107778437Y-66687414D01*
X107928534Y-66537317D01*
X108072694Y-66465238D01*
X108392268Y-66465238D01*
X108536426Y-66537317D01*
G37*
G36*
X110205814Y-69255714D02*
G01*
X81366286Y-69255714D01*
X81366286Y-66730733D01*
X82288247Y-66730733D01*
X82292952Y-66742077D01*
X82292951Y-66899672D01*
X82289606Y-66930663D01*
X82301487Y-66954425D01*
X82308972Y-66979916D01*
X82318253Y-66987958D01*
X82394625Y-67140703D01*
X82399275Y-67162075D01*
X82424599Y-67187399D01*
X82449002Y-67213633D01*
X82451462Y-67214262D01*
X82509980Y-67272780D01*
X82521149Y-67291585D01*
X82553187Y-67307604D01*
X82584628Y-67324772D01*
X82587160Y-67324590D01*
X82725055Y-67393539D01*
X82735343Y-67404480D01*
X82758531Y-67410276D01*
X82762483Y-67412253D01*
X82776588Y-67414791D01*
X83139483Y-67505514D01*
X83298326Y-67584936D01*
X83363729Y-67650339D01*
X83435809Y-67794498D01*
X83435809Y-67923596D01*
X83363730Y-68067753D01*
X83298325Y-68133159D01*
X83154167Y-68205238D01*
X82729762Y-68205238D01*
X82446330Y-68110761D01*
X82389505Y-68108705D01*
X82323831Y-68147631D01*
X82289628Y-68215884D01*
X82297754Y-68291793D01*
X82345630Y-68351258D01*
X82652093Y-68453412D01*
X82670495Y-68465238D01*
X82706321Y-68465238D01*
X82742113Y-68466533D01*
X82744298Y-68465238D01*
X83177863Y-68465238D01*
X83208854Y-68468584D01*
X83232616Y-68456702D01*
X83258107Y-68449218D01*
X83266149Y-68439936D01*
X83418894Y-68363564D01*
X83440267Y-68358915D01*
X83465597Y-68333584D01*
X83491824Y-68309188D01*
X83492453Y-68306727D01*
X83550969Y-68248209D01*
X83569776Y-68237040D01*
X83585800Y-68204990D01*
X83602963Y-68173560D01*
X83602781Y-68171028D01*
X83678958Y-68018676D01*
X83695809Y-67992456D01*
X83695809Y-67965889D01*
X83700514Y-67939741D01*
X83695809Y-67928396D01*
X83695809Y-67770807D01*
X83699155Y-67739813D01*
X83687274Y-67716051D01*
X83679789Y-67690559D01*
X83670506Y-67682515D01*
X83660783Y-67663069D01*
X85716148Y-67663069D01*
X85721524Y-67684573D01*
X85721524Y-67687262D01*
X85726048Y-67702671D01*
X85820155Y-68079100D01*
X85827847Y-68114456D01*
X85843063Y-68129672D01*
X85853951Y-68148230D01*
X85869500Y-68156109D01*
X86033789Y-68320399D01*
X86044959Y-68339205D01*
X86077006Y-68355228D01*
X86108437Y-68372391D01*
X86110968Y-68372209D01*
X86263322Y-68448387D01*
X86289543Y-68465238D01*
X86316110Y-68465238D01*
X86342258Y-68469943D01*
X86353602Y-68465238D01*
X86701673Y-68465238D01*
X86732664Y-68468584D01*
X86756426Y-68456702D01*
X86781917Y-68449218D01*
X86789959Y-68439936D01*
X86942704Y-68363564D01*
X86964076Y-68358915D01*
X86968471Y-68354520D01*
X89431701Y-68354520D01*
X89443695Y-68380783D01*
X89451830Y-68408488D01*
X89459305Y-68414965D01*
X89463415Y-68423964D01*
X89487705Y-68439574D01*
X89509526Y-68458482D01*
X89519316Y-68459889D01*
X89527639Y-68465238D01*
X89556514Y-68465238D01*
X89585092Y-68469347D01*
X89594089Y-68465238D01*
X90536882Y-68465238D01*
X90591441Y-68449218D01*
X90641435Y-68391522D01*
X90652300Y-68315956D01*
X90620586Y-68246512D01*
X90556362Y-68205238D01*
X89695810Y-68205238D01*
X89695810Y-66730733D01*
X92478725Y-66730733D01*
X92483430Y-66742077D01*
X92483430Y-66899672D01*
X92480084Y-66930663D01*
X92491965Y-66954425D01*
X92499450Y-66979916D01*
X92508731Y-66987958D01*
X92585103Y-67140703D01*
X92589753Y-67162075D01*
X92615077Y-67187399D01*
X92639480Y-67213633D01*
X92641940Y-67214262D01*
X92700458Y-67272780D01*
X92711627Y-67291585D01*
X92743665Y-67307604D01*
X92775106Y-67324772D01*
X92777638Y-67324590D01*
X92915533Y-67393539D01*
X92925821Y-67404480D01*
X92949009Y-67410276D01*
X92952961Y-67412253D01*
X92967066Y-67414791D01*
X93329961Y-67505514D01*
X93488804Y-67584936D01*
X93554207Y-67650339D01*
X93626287Y-67794498D01*
X93626287Y-67923596D01*
X93554208Y-68067753D01*
X93488803Y-68133159D01*
X93344645Y-68205238D01*
X92920240Y-68205238D01*
X92636808Y-68110761D01*
X92579983Y-68108705D01*
X92514309Y-68147631D01*
X92480106Y-68215884D01*
X92488232Y-68291793D01*
X92536108Y-68351258D01*
X92842571Y-68453412D01*
X92860973Y-68465238D01*
X92896799Y-68465238D01*
X92932591Y-68466533D01*
X92934776Y-68465238D01*
X93368341Y-68465238D01*
X93399332Y-68468584D01*
X93423094Y-68456702D01*
X93448585Y-68449218D01*
X93456627Y-68439936D01*
X93609372Y-68363564D01*
X93630745Y-68358915D01*
X93656075Y-68333584D01*
X93682302Y-68309188D01*
X93682931Y-68306727D01*
X93741447Y-68248209D01*
X93760254Y-68237040D01*
X93776278Y-68204990D01*
X93793441Y-68173560D01*
X93793259Y-68171028D01*
X93869436Y-68018676D01*
X93886287Y-67992456D01*
X93886287Y-67965889D01*
X93890992Y-67939741D01*
X93886287Y-67928396D01*
X93886287Y-67770807D01*
X93889633Y-67739813D01*
X93877752Y-67716051D01*
X93870267Y-67690559D01*
X93860984Y-67682515D01*
X93784613Y-67529771D01*
X93779964Y-67508400D01*
X93754636Y-67483072D01*
X93730237Y-67456843D01*
X93727777Y-67456214D01*
X93669260Y-67397697D01*
X93658090Y-67378890D01*
X93626041Y-67362865D01*
X93594611Y-67345703D01*
X93592078Y-67345884D01*
X93454183Y-67276937D01*
X93443896Y-67265996D01*
X93420706Y-67260198D01*
X93416755Y-67258223D01*
X93402652Y-67255685D01*
X93039755Y-67164961D01*
X92880912Y-67085538D01*
X92815509Y-67020136D01*
X92743430Y-66875976D01*
X92743430Y-66746879D01*
X92815509Y-66602720D01*
X92880912Y-66537317D01*
X93025072Y-66465238D01*
X93449477Y-66465238D01*
X93732909Y-66559715D01*
X93789734Y-66561771D01*
X93855408Y-66522845D01*
X93889611Y-66454592D01*
X93881485Y-66378683D01*
X93862031Y-66354520D01*
X95717417Y-66354520D01*
X95749131Y-66423964D01*
X95813355Y-66465238D01*
X96292954Y-66465238D01*
X96292954Y-68353929D01*
X96308974Y-68408488D01*
X96366670Y-68458482D01*
X96442236Y-68469347D01*
X96511680Y-68437633D01*
X96552954Y-68373409D01*
X96552954Y-68353929D01*
X99054860Y-68353929D01*
X99070880Y-68408488D01*
X99128576Y-68458482D01*
X99204142Y-68469347D01*
X99273586Y-68437633D01*
X99314860Y-68373409D01*
X99314860Y-67472593D01*
X101430437Y-67472593D01*
X101435813Y-67494096D01*
X101435813Y-67496786D01*
X101440337Y-67512195D01*
X101529317Y-67868113D01*
X101527705Y-67883044D01*
X101538394Y-67904423D01*
X101539466Y-67908709D01*
X101546717Y-67921068D01*
X101632725Y-68093084D01*
X101637374Y-68114456D01*
X101662700Y-68139782D01*
X101687101Y-68166014D01*
X101689560Y-68166642D01*
X101849894Y-68326976D01*
X101869443Y-68351258D01*
X101894647Y-68359659D01*
X101917964Y-68372391D01*
X101930214Y-68371514D01*
X102175907Y-68453412D01*
X102194309Y-68465238D01*
X102230135Y-68465238D01*
X102265928Y-68466533D01*
X102268113Y-68465238D01*
X102406656Y-68465238D01*
X102427853Y-68470638D01*
X102461843Y-68459307D01*
X102496206Y-68449218D01*
X102497868Y-68447299D01*
X102743137Y-68365542D01*
X102773604Y-68358915D01*
X102778590Y-68353929D01*
X105054861Y-68353929D01*
X105070881Y-68408488D01*
X105128577Y-68458482D01*
X105204143Y-68469347D01*
X105273587Y-68437633D01*
X105314861Y-68373409D01*
X105314861Y-67663069D01*
X107430438Y-67663069D01*
X107435814Y-67684573D01*
X107435814Y-67687262D01*
X107440338Y-67702671D01*
X107534445Y-68079100D01*
X107542137Y-68114456D01*
X107557353Y-68129672D01*
X107568241Y-68148230D01*
X107583790Y-68156109D01*
X107748079Y-68320399D01*
X107759249Y-68339205D01*
X107791296Y-68355228D01*
X107822727Y-68372391D01*
X107825258Y-68372209D01*
X107977612Y-68448387D01*
X108003833Y-68465238D01*
X108030400Y-68465238D01*
X108056548Y-68469943D01*
X108067892Y-68465238D01*
X108415963Y-68465238D01*
X108446954Y-68468584D01*
X108470716Y-68456702D01*
X108496207Y-68449218D01*
X108504249Y-68439936D01*
X108656994Y-68363564D01*
X108678366Y-68358915D01*
X108703687Y-68333593D01*
X108729924Y-68309188D01*
X108730553Y-68306727D01*
X108894410Y-68142868D01*
X108920770Y-68118084D01*
X108925989Y-68097205D01*
X108936300Y-68078323D01*
X108935056Y-68060937D01*
X109020077Y-67720854D01*
X109029147Y-67706742D01*
X109029147Y-67684575D01*
X109029799Y-67681968D01*
X109029147Y-67665931D01*
X109029147Y-67023296D01*
X109034523Y-67007405D01*
X109029147Y-66985901D01*
X109029147Y-66983213D01*
X109024624Y-66967809D01*
X108930513Y-66591366D01*
X108922824Y-66556019D01*
X108907607Y-66540803D01*
X108896720Y-66522245D01*
X108881170Y-66514365D01*
X108716882Y-66350078D01*
X108705712Y-66331271D01*
X108673663Y-66315246D01*
X108642233Y-66298084D01*
X108639700Y-66298265D01*
X108487354Y-66222092D01*
X108461128Y-66205238D01*
X108434559Y-66205238D01*
X108408414Y-66200533D01*
X108397070Y-66205238D01*
X108049002Y-66205238D01*
X108018008Y-66201892D01*
X107994246Y-66213772D01*
X107968754Y-66221258D01*
X107960710Y-66230540D01*
X107807966Y-66306911D01*
X107786595Y-66311561D01*
X107761266Y-66336889D01*
X107735038Y-66361288D01*
X107734409Y-66363747D01*
X107570559Y-66527597D01*
X107544191Y-66552391D01*
X107538971Y-66573267D01*
X107528660Y-66592152D01*
X107529903Y-66609539D01*
X107444883Y-66949620D01*
X107435814Y-66963733D01*
X107435814Y-66985898D01*
X107435162Y-66988507D01*
X107435813Y-67004550D01*
X107435814Y-67647177D01*
X107430438Y-67663069D01*
X105314861Y-67663069D01*
X105314861Y-66316547D01*
X105298841Y-66261988D01*
X105241145Y-66211994D01*
X105165579Y-66201129D01*
X105096135Y-66232843D01*
X105054861Y-66297067D01*
X105054861Y-68353929D01*
X102778590Y-68353929D01*
X102792392Y-68340126D01*
X102814205Y-68324967D01*
X102818899Y-68313618D01*
X102909049Y-68223467D01*
X102936300Y-68173560D01*
X102930854Y-68097412D01*
X102885103Y-68036296D01*
X102813573Y-68009618D01*
X102738975Y-68025846D01*
X102638445Y-68126375D01*
X102401861Y-68205238D01*
X102253576Y-68205238D01*
X102016989Y-68126376D01*
X101863129Y-67972515D01*
X101783707Y-67813670D01*
X101695813Y-67462092D01*
X101695813Y-67208385D01*
X101783708Y-66856801D01*
X101863130Y-66697958D01*
X102016988Y-66544100D01*
X102253575Y-66465238D01*
X102401860Y-66465238D01*
X102638445Y-66544099D01*
X102725201Y-66630855D01*
X102775108Y-66658106D01*
X102851256Y-66652660D01*
X102912372Y-66606909D01*
X102939051Y-66535380D01*
X102922823Y-66460781D01*
X102805544Y-66343503D01*
X102785992Y-66319218D01*
X102760786Y-66310816D01*
X102737470Y-66298084D01*
X102725218Y-66298960D01*
X102479528Y-66217063D01*
X102461127Y-66205238D01*
X102425301Y-66205238D01*
X102389509Y-66203943D01*
X102387324Y-66205238D01*
X102248780Y-66205238D01*
X102227583Y-66199838D01*
X102193591Y-66211168D01*
X102159230Y-66221258D01*
X102157567Y-66223176D01*
X101912296Y-66304933D01*
X101881832Y-66311561D01*
X101863044Y-66330348D01*
X101841230Y-66345509D01*
X101836535Y-66356858D01*
X101675891Y-66517502D01*
X101657084Y-66528673D01*
X101641059Y-66560721D01*
X101623897Y-66592152D01*
X101624078Y-66594684D01*
X101555131Y-66732579D01*
X101544190Y-66742867D01*
X101538392Y-66766056D01*
X101536417Y-66770008D01*
X101533879Y-66784110D01*
X101444882Y-67140096D01*
X101435813Y-67154209D01*
X101435813Y-67176375D01*
X101435161Y-67178983D01*
X101435813Y-67195026D01*
X101435813Y-67456701D01*
X101430437Y-67472593D01*
X99314860Y-67472593D01*
X99314860Y-66316547D01*
X99298840Y-66261988D01*
X99241144Y-66211994D01*
X99165578Y-66201129D01*
X99096134Y-66232843D01*
X99054860Y-66297067D01*
X99054860Y-68353929D01*
X96552954Y-68353929D01*
X96552954Y-66465238D01*
X97013074Y-66465238D01*
X97067633Y-66449218D01*
X97117627Y-66391522D01*
X97128492Y-66315956D01*
X97096778Y-66246512D01*
X97032554Y-66205238D01*
X96432250Y-66205238D01*
X96403672Y-66201129D01*
X96394675Y-66205238D01*
X95832835Y-66205238D01*
X95778276Y-66221258D01*
X95728282Y-66278954D01*
X95717417Y-66354520D01*
X93862031Y-66354520D01*
X93833609Y-66319218D01*
X93527145Y-66217063D01*
X93508744Y-66205238D01*
X93472918Y-66205238D01*
X93437126Y-66203943D01*
X93434941Y-66205238D01*
X93001380Y-66205238D01*
X92970386Y-66201892D01*
X92946624Y-66213772D01*
X92921132Y-66221258D01*
X92913088Y-66230540D01*
X92760344Y-66306911D01*
X92738973Y-66311561D01*
X92713645Y-66336888D01*
X92687416Y-66361288D01*
X92686787Y-66363747D01*
X92628270Y-66422264D01*
X92609463Y-66433435D01*
X92593438Y-66465483D01*
X92576276Y-66496914D01*
X92576457Y-66499446D01*
X92500284Y-66651792D01*
X92483430Y-66678019D01*
X92483430Y-66704588D01*
X92478725Y-66730733D01*
X89695810Y-66730733D01*
X89695810Y-66316547D01*
X89679790Y-66261988D01*
X89622094Y-66211994D01*
X89546528Y-66201129D01*
X89477084Y-66232843D01*
X89435810Y-66297067D01*
X89435810Y-68325941D01*
X89431701Y-68354520D01*
X86968471Y-68354520D01*
X86989397Y-68333593D01*
X87015634Y-68309188D01*
X87016263Y-68306727D01*
X87180120Y-68142868D01*
X87206480Y-68118084D01*
X87211699Y-68097205D01*
X87222010Y-68078323D01*
X87220766Y-68060937D01*
X87305787Y-67720854D01*
X87314857Y-67706742D01*
X87314857Y-67684576D01*
X87315509Y-67681968D01*
X87314857Y-67665931D01*
X87314857Y-67023296D01*
X87320233Y-67007405D01*
X87314857Y-66985901D01*
X87314857Y-66983213D01*
X87310334Y-66967809D01*
X87216223Y-66591366D01*
X87208534Y-66556019D01*
X87193317Y-66540803D01*
X87182430Y-66522245D01*
X87166880Y-66514365D01*
X87002592Y-66350078D01*
X86991422Y-66331271D01*
X86959373Y-66315246D01*
X86927943Y-66298084D01*
X86925410Y-66298265D01*
X86773064Y-66222092D01*
X86746838Y-66205238D01*
X86720269Y-66205238D01*
X86694124Y-66200533D01*
X86682780Y-66205238D01*
X86334712Y-66205238D01*
X86303718Y-66201892D01*
X86279956Y-66213772D01*
X86254464Y-66221258D01*
X86246420Y-66230540D01*
X86093676Y-66306911D01*
X86072305Y-66311561D01*
X86046976Y-66336889D01*
X86020748Y-66361288D01*
X86020119Y-66363747D01*
X85856269Y-66527597D01*
X85829901Y-66552391D01*
X85824681Y-66573267D01*
X85814370Y-66592152D01*
X85815613Y-66609539D01*
X85730593Y-66949620D01*
X85721524Y-66963733D01*
X85721524Y-66985898D01*
X85720872Y-66988507D01*
X85721524Y-67004550D01*
X85721524Y-67647177D01*
X85716148Y-67663069D01*
X83660783Y-67663069D01*
X83594135Y-67529771D01*
X83589486Y-67508400D01*
X83564158Y-67483072D01*
X83539759Y-67456843D01*
X83537299Y-67456214D01*
X83478782Y-67397697D01*
X83467612Y-67378890D01*
X83435563Y-67362865D01*
X83404133Y-67345703D01*
X83401600Y-67345884D01*
X83263705Y-67276937D01*
X83253418Y-67265996D01*
X83230228Y-67260198D01*
X83226277Y-67258223D01*
X83212174Y-67255685D01*
X82849277Y-67164961D01*
X82690434Y-67085538D01*
X82625031Y-67020136D01*
X82552952Y-66875976D01*
X82552952Y-66746879D01*
X82625031Y-66602720D01*
X82690434Y-66537317D01*
X82834594Y-66465238D01*
X83258999Y-66465238D01*
X83542431Y-66559715D01*
X83599256Y-66561771D01*
X83664930Y-66522845D01*
X83699133Y-66454592D01*
X83691007Y-66378683D01*
X83643131Y-66319218D01*
X83336667Y-66217063D01*
X83318266Y-66205238D01*
X83282440Y-66205238D01*
X83246648Y-66203943D01*
X83244463Y-66205238D01*
X82810902Y-66205238D01*
X82779908Y-66201892D01*
X82756146Y-66213772D01*
X82730654Y-66221258D01*
X82722610Y-66230540D01*
X82569866Y-66306911D01*
X82548495Y-66311561D01*
X82523167Y-66336888D01*
X82496938Y-66361288D01*
X82496309Y-66363747D01*
X82437792Y-66422264D01*
X82418985Y-66433435D01*
X82402960Y-66465483D01*
X82385798Y-66496914D01*
X82385979Y-66499446D01*
X82309806Y-66651792D01*
X82292952Y-66678019D01*
X82292952Y-66704588D01*
X82288247Y-66730733D01*
X81366286Y-66730733D01*
X81366286Y-65254286D01*
X110205814Y-65254286D01*
X110205814Y-69255714D01*
G37*
D11*
G04 #@! TO.P,JP1,1,A*
G04 #@! TO.N,A-*
X195580000Y-91440000D03*
D12*
G04 #@! TO.P,JP1,2,C*
G04 #@! TO.N,DO-_LC*
X195580000Y-88900000D03*
G04 #@! TO.P,JP1,3,B*
G04 #@! TO.N,B-*
X195580000Y-86360000D03*
G04 #@! TD*
D13*
G04 #@! TO.P,U1,1,UTXD*
G04 #@! TO.N,USART2_TX*
X150495000Y-71120000D03*
D14*
G04 #@! TO.P,U1,2,GND*
G04 #@! TO.N,GND*
X150495000Y-73660000D03*
G04 #@! TO.P,U1,3,CH_PD*
G04 #@! TO.N,unconnected-(U1-CH_PD-Pad3)*
X147955000Y-71120000D03*
G04 #@! TO.P,U1,4,GPIO2*
G04 #@! TO.N,unconnected-(U1-GPIO2-Pad4)*
X147955000Y-73660000D03*
G04 #@! TO.P,U1,5,RST*
G04 #@! TO.N,unconnected-(U1-RST-Pad5)*
X145415000Y-71120000D03*
G04 #@! TO.P,U1,6,GPIO0*
G04 #@! TO.N,unconnected-(U1-GPIO0-Pad6)*
X145415000Y-73660000D03*
G04 #@! TO.P,U1,7,VCC*
G04 #@! TO.N,+3.3V*
X142875000Y-71120000D03*
G04 #@! TO.P,U1,8,URXD*
G04 #@! TO.N,USART2_RX*
X142875000Y-73660000D03*
G04 #@! TD*
D11*
G04 #@! TO.P,U3,1,PB12*
G04 #@! TO.N,unconnected-(U3-PB12-Pad1)*
X84074000Y-88900000D03*
D15*
G04 #@! TO.P,U3,2,PB13*
G04 #@! TO.N,unconnected-(U3-PB13-Pad2)*
X86614000Y-88900000D03*
G04 #@! TO.P,U3,3,PB14*
G04 #@! TO.N,unconnected-(U3-PB14-Pad3)*
X89154000Y-88900000D03*
G04 #@! TO.P,U3,4,PB15*
G04 #@! TO.N,unconnected-(U3-PB15-Pad4)*
X91694000Y-88900000D03*
G04 #@! TO.P,U3,5,PA8*
G04 #@! TO.N,unconnected-(U3-PA8-Pad5)*
X94234000Y-88900000D03*
G04 #@! TO.P,U3,6,PA9*
G04 #@! TO.N,USART1_TX*
X96774000Y-88900000D03*
G04 #@! TO.P,U3,7,PA10*
G04 #@! TO.N,unconnected-(U3-PA10-Pad7)*
X99314000Y-88900000D03*
G04 #@! TO.P,U3,8,PA11*
G04 #@! TO.N,unconnected-(U3-PA11-Pad8)*
X101854000Y-88900000D03*
G04 #@! TO.P,U3,9,PA12*
G04 #@! TO.N,unconnected-(U3-PA12-Pad9)*
X104394000Y-88900000D03*
G04 #@! TO.P,U3,10,PA15*
G04 #@! TO.N,unconnected-(U3-PA15-Pad10)*
X106934000Y-88900000D03*
G04 #@! TO.P,U3,11,PB3*
G04 #@! TO.N,unconnected-(U3-PB3-Pad11)*
X109474000Y-88900000D03*
G04 #@! TO.P,U3,12,PB4*
G04 #@! TO.N,unconnected-(U3-PB4-Pad12)*
X112014000Y-88900000D03*
G04 #@! TO.P,U3,13,PB5*
G04 #@! TO.N,unconnected-(U3-PB5-Pad13)*
X114554000Y-88900000D03*
G04 #@! TO.P,U3,14,PB6*
G04 #@! TO.N,SCL1*
X117094000Y-88900000D03*
G04 #@! TO.P,U3,15,PB7*
G04 #@! TO.N,SDA1*
X119634000Y-88900000D03*
G04 #@! TO.P,U3,16,PB8*
G04 #@! TO.N,unconnected-(U3-PB8-Pad16)*
X122174000Y-88900000D03*
G04 #@! TO.P,U3,17,PB9*
G04 #@! TO.N,unconnected-(U3-PB9-Pad17)*
X124714000Y-88900000D03*
G04 #@! TO.P,U3,18,5V*
G04 #@! TO.N,+5V*
X127254000Y-88900000D03*
G04 #@! TO.P,U3,19,GND*
G04 #@! TO.N,GND*
X129794000Y-88900000D03*
G04 #@! TO.P,U3,20,3V3*
G04 #@! TO.N,+3.3V*
X132334000Y-88900000D03*
G04 #@! TO.P,U3,21,VBat*
G04 #@! TO.N,unconnected-(U3-VBat-Pad21)*
X132334000Y-73660000D03*
G04 #@! TO.P,U3,22,PC13*
G04 #@! TO.N,unconnected-(U3-PC13-Pad22)*
X129794000Y-73660000D03*
G04 #@! TO.P,U3,23,PC14*
G04 #@! TO.N,unconnected-(U3-PC14-Pad23)*
X127254000Y-73660000D03*
G04 #@! TO.P,U3,24,PC15*
G04 #@! TO.N,unconnected-(U3-PC15-Pad24)*
X124714000Y-73660000D03*
G04 #@! TO.P,U3,25,PA0*
G04 #@! TO.N,unconnected-(U3-PA0-Pad25)*
X122174000Y-73660000D03*
G04 #@! TO.P,U3,26,PA1*
G04 #@! TO.N,unconnected-(U3-PA1-Pad26)*
X119634000Y-73660000D03*
G04 #@! TO.P,U3,27,PA2*
G04 #@! TO.N,USART2_TX*
X117094000Y-73660000D03*
G04 #@! TO.P,U3,28,PA3*
G04 #@! TO.N,USART2_RX*
X114554000Y-73660000D03*
G04 #@! TO.P,U3,29,PA4*
G04 #@! TO.N,unconnected-(U3-PA4-Pad29)*
X112014000Y-73660000D03*
G04 #@! TO.P,U3,30,PA5*
G04 #@! TO.N,unconnected-(U3-PA5-Pad30)*
X109474000Y-73660000D03*
G04 #@! TO.P,U3,31,PA6*
G04 #@! TO.N,CH1_EC*
X106934000Y-73660000D03*
G04 #@! TO.P,U3,32,PA7*
G04 #@! TO.N,CH2-_EC*
X104394000Y-73660000D03*
G04 #@! TO.P,U3,33,PB0*
G04 #@! TO.N,DO_LS*
X101854000Y-73660000D03*
G04 #@! TO.P,U3,34,PB1*
G04 #@! TO.N,unconnected-(U3-PB1-Pad34)*
X99314000Y-73660000D03*
G04 #@! TO.P,U3,35,PB10*
G04 #@! TO.N,USART3_TX*
X96774000Y-73660000D03*
G04 #@! TO.P,U3,36,PB11*
G04 #@! TO.N,USART3_RX*
X94234000Y-73660000D03*
G04 #@! TO.P,U3,37,RST*
G04 #@! TO.N,unconnected-(U3-RST-Pad37)*
X91694000Y-73660000D03*
G04 #@! TO.P,U3,38,3V3*
G04 #@! TO.N,+3.3V*
X89154000Y-73660000D03*
G04 #@! TO.P,U3,39,GND*
G04 #@! TO.N,GND*
X86614000Y-73660000D03*
G04 #@! TO.P,U3,40,GND*
X84074000Y-73660000D03*
G04 #@! TD*
D14*
G04 #@! TO.P,R2,2*
G04 #@! TO.N,SCL1*
X134620000Y-94234000D03*
D15*
G04 #@! TO.P,R2,1*
G04 #@! TO.N,+3.3V*
X134620000Y-104394000D03*
G04 #@! TD*
D16*
G04 #@! TO.P,J2,1,Pin_1*
G04 #@! TO.N,DO_LS*
X112522000Y-99822000D03*
D17*
G04 #@! TO.P,J2,2,Pin_2*
G04 #@! TO.N,GND*
X115062000Y-99822000D03*
G04 #@! TD*
D11*
G04 #@! TO.P,JP2,1,A*
G04 #@! TO.N,A+*
X195580000Y-80010000D03*
D12*
G04 #@! TO.P,JP2,2,C*
G04 #@! TO.N,DO+_LC*
X195580000Y-77470000D03*
G04 #@! TO.P,JP2,3,B*
G04 #@! TO.N,B+*
X195580000Y-74930000D03*
G04 #@! TD*
D16*
G04 #@! TO.P,J5,1,Pin_1*
G04 #@! TO.N,GND*
X161036000Y-99822000D03*
D17*
G04 #@! TO.P,J5,2,Pin_2*
G04 #@! TO.N,+5V*
X163576000Y-99822000D03*
G04 #@! TO.P,J5,3,Pin_3*
G04 #@! TO.N,SDA1*
X166116000Y-99822000D03*
G04 #@! TO.P,J5,4,Pin_4*
G04 #@! TO.N,SCL1*
X168656000Y-99822000D03*
G04 #@! TD*
D16*
G04 #@! TO.P,J6,1,Pin_1*
G04 #@! TO.N,GND*
X145537000Y-99822000D03*
D17*
G04 #@! TO.P,J6,2,Pin_2*
G04 #@! TO.N,+5V*
X148077000Y-99822000D03*
G04 #@! TO.P,J6,3,Pin_3*
G04 #@! TO.N,SDA1*
X150617000Y-99822000D03*
G04 #@! TO.P,J6,4,Pin_4*
G04 #@! TO.N,SCL1*
X153157000Y-99822000D03*
G04 #@! TD*
D16*
G04 #@! TO.P,J1,1,Pin_1*
G04 #@! TO.N,+5V*
X88646000Y-99568000D03*
D17*
G04 #@! TO.P,J1,2,Pin_2*
G04 #@! TO.N,GND*
X91186000Y-99568000D03*
G04 #@! TD*
D18*
G04 #@! TO.P,U4,VCC,VCC*
G04 #@! TO.N,+5V*
X161290000Y-74930000D03*
G04 #@! TO.P,U4,SCK,SCK*
G04 #@! TO.N,USART3_TX*
X161290000Y-77470000D03*
G04 #@! TO.P,U4,GND,GND*
G04 #@! TO.N,GND*
X161290000Y-82550000D03*
G04 #@! TO.P,U4,E-,E-*
X186690000Y-82550000D03*
G04 #@! TO.P,U4,E+,E+*
G04 #@! TO.N,V+_LC*
X186690000Y-85090000D03*
G04 #@! TO.P,U4,DT,DT*
G04 #@! TO.N,USART3_RX*
X161290000Y-80010000D03*
G04 #@! TO.P,U4,B-,B-*
G04 #@! TO.N,B-*
X186690000Y-74930000D03*
G04 #@! TO.P,U4,B+,B+*
G04 #@! TO.N,B+*
X186690000Y-72390000D03*
G04 #@! TO.P,U4,A-,A-*
G04 #@! TO.N,A-*
X186690000Y-80010000D03*
G04 #@! TO.P,U4,A+,A+*
G04 #@! TO.N,A+*
X186690000Y-77470000D03*
G04 #@! TD*
D16*
G04 #@! TO.P,J3,1,Pin_1*
G04 #@! TO.N,+5V*
X120396000Y-99822000D03*
D17*
G04 #@! TO.P,J3,2,Pin_2*
G04 #@! TO.N,GND*
X122936000Y-99822000D03*
G04 #@! TO.P,J3,3,Pin_3*
G04 #@! TO.N,CH2-_EC*
X125476000Y-99822000D03*
G04 #@! TO.P,J3,4,Pin_4*
G04 #@! TO.N,CH1_EC*
X128016000Y-99822000D03*
G04 #@! TO.P,J3,5,Pin_5*
G04 #@! TO.N,GND*
X130556000Y-99822000D03*
G04 #@! TD*
D14*
G04 #@! TO.P,R1,2*
G04 #@! TO.N,SDA1*
X137668000Y-94234000D03*
D15*
G04 #@! TO.P,R1,1*
G04 #@! TO.N,+3.3V*
X137668000Y-104394000D03*
G04 #@! TD*
D16*
G04 #@! TO.P,J4,1,Pin_1*
G04 #@! TO.N,USART1_TX*
X99060000Y-99568000D03*
D17*
G04 #@! TO.P,J4,2,Pin_2*
G04 #@! TO.N,GND*
X101600000Y-99568000D03*
G04 #@! TD*
D16*
G04 #@! TO.P,J7,1,Pin_1*
G04 #@! TO.N,V+_LC*
X184150000Y-99822000D03*
D17*
G04 #@! TO.P,J7,2,Pin_2*
G04 #@! TO.N,GND*
X181610000Y-99822000D03*
G04 #@! TO.P,J7,3,Pin_3*
G04 #@! TO.N,DO-_LC*
X179070000Y-99822000D03*
G04 #@! TO.P,J7,4,Pin_4*
G04 #@! TO.N,DO+_LC*
X176530000Y-99822000D03*
G04 #@! TO.P,J7,5,Pin_5*
G04 #@! TO.N,GND*
X173990000Y-99822000D03*
G04 #@! TD*
D15*
G04 #@! TO.P,R5,1*
G04 #@! TO.N,DO_LS*
X106934000Y-94742000D03*
D14*
G04 #@! TO.P,R5,2*
G04 #@! TO.N,+5V*
X106934000Y-104902000D03*
G04 #@! TD*
D19*
G04 #@! TO.N,CH1_EC*
X110236000Y-78831900D03*
G04 #@! TO.N,DO_LS*
X101854000Y-78831900D03*
G04 #@! TO.N,SDA1*
X166116000Y-104394000D03*
X157734000Y-98044000D03*
G04 #@! TO.N,SCL1*
X156718000Y-99822000D03*
G04 #@! TO.N,+5V*
X163576000Y-104394000D03*
X148082000Y-104394000D03*
G04 #@! TO.N,DO_LS*
X101854000Y-85598000D03*
G04 #@! TO.N,CH1_EC*
X115865400Y-85344000D03*
G04 #@! TO.N,CH2-_EC*
X113284000Y-85598000D03*
X105410000Y-78486000D03*
G04 #@! TO.N,SCL1*
X169418000Y-105156000D03*
G04 #@! TO.N,USART2_TX*
X116840000Y-67564000D03*
G04 #@! TO.N,USART2_RX*
X114554000Y-69088000D03*
G04 #@! TO.N,+3.3V*
X142240000Y-88900000D03*
X138684000Y-71882000D03*
G04 #@! TO.N,GND*
X173736000Y-92456000D03*
X178816000Y-92456000D03*
G04 #@! TD*
D20*
G04 #@! TO.N,CH1_EC*
X110236000Y-79714600D02*
X115865400Y-85344000D01*
X110236000Y-78831900D02*
X110236000Y-79714600D01*
G04 #@! TO.N,DO_LS*
X101854000Y-78831900D02*
X101854000Y-85598000D01*
G04 #@! TO.N,+5V*
X106934000Y-104902000D02*
X131572000Y-104902000D01*
X131572000Y-104902000D02*
X132292600Y-105622600D01*
X132292600Y-105622600D02*
X146853400Y-105622600D01*
X146853400Y-105622600D02*
X148082000Y-104394000D01*
X148082000Y-104394000D02*
X163576000Y-104394000D01*
G04 #@! TO.N,SCL1*
X169418000Y-105156000D02*
X169001400Y-105572600D01*
X169001400Y-105572600D02*
X165627807Y-105572600D01*
X160106578Y-103124000D02*
X156804578Y-99822000D01*
X165627807Y-105572600D02*
X164846000Y-104790793D01*
X156804578Y-99822000D02*
X156718000Y-99822000D01*
X164846000Y-104790793D02*
X164846000Y-103124000D01*
X164846000Y-103124000D02*
X160106578Y-103124000D01*
G04 #@! TO.N,SDA1*
X166116000Y-104394000D02*
X166116000Y-102108000D01*
X166116000Y-102108000D02*
X160020000Y-102108000D01*
X160020000Y-102108000D02*
X158750000Y-100838000D01*
X158750000Y-100838000D02*
X158750000Y-99060000D01*
X158750000Y-99060000D02*
X157734000Y-98044000D01*
X156829207Y-98044000D02*
X155194000Y-99679207D01*
X155194000Y-99679207D02*
X155194000Y-101600000D01*
X157734000Y-98044000D02*
X156829207Y-98044000D01*
X155194000Y-101600000D02*
X143902630Y-101600000D01*
X143902630Y-101600000D02*
X143325315Y-101022685D01*
X143325315Y-101022685D02*
X137668000Y-95365370D01*
G04 #@! TO.N,SCL1*
X156718000Y-102362000D02*
X156464000Y-102616000D01*
X156718000Y-99822000D02*
X156718000Y-102362000D01*
X142827885Y-102441885D02*
X142113000Y-101727000D01*
X156464000Y-102616000D02*
X143002000Y-102616000D01*
X142113000Y-101727000D02*
X134620000Y-94234000D01*
X143002000Y-102616000D02*
X142113000Y-101727000D01*
G04 #@! TO.N,CH2-_EC*
X106172000Y-78486000D02*
X113284000Y-85598000D01*
X105410000Y-78486000D02*
X106172000Y-78486000D01*
G04 #@! TO.N,SDA1*
X137668000Y-95365370D02*
X137668000Y-94234000D01*
G04 #@! TO.N,USART2_TX*
X116840000Y-67564000D02*
X116840000Y-73406000D01*
X116840000Y-73406000D02*
X117094000Y-73660000D01*
D21*
G04 #@! TO.N,USART2_RX*
X114554000Y-73660000D02*
X114554000Y-69088000D01*
D20*
G04 #@! TO.N,+3.3V*
X142240000Y-88900000D02*
X142240000Y-78740000D01*
X138684000Y-75184000D02*
X138684000Y-71882000D01*
X142240000Y-78740000D02*
X138684000Y-75184000D01*
D22*
G04 #@! TO.N,GND*
X173736000Y-92456000D02*
X178816000Y-92456000D01*
G04 #@! TD*
G04 #@! TA.AperFunction,Conductor*
G04 #@! TO.N,GND*
G36*
X210000539Y-64282185D02*
G01*
X210046294Y-64334989D01*
X210057500Y-64386500D01*
X210057500Y-106047500D01*
X210037815Y-106114539D01*
X209985011Y-106160294D01*
X209933500Y-106171500D01*
X170104263Y-106171500D01*
X170037224Y-106151815D01*
X169991469Y-106099011D01*
X169981525Y-106029853D01*
X170010550Y-105966297D01*
X170025598Y-105951647D01*
X170040314Y-105939570D01*
X170128883Y-105866883D01*
X170253910Y-105714538D01*
X170346814Y-105540727D01*
X170404024Y-105352132D01*
X170423341Y-105156000D01*
X170404024Y-104959868D01*
X170346814Y-104771273D01*
X170253910Y-104597462D01*
X170128883Y-104445117D01*
X169976538Y-104320090D01*
X169954091Y-104308092D01*
X169802726Y-104227185D01*
X169614133Y-104169976D01*
X169468066Y-104155590D01*
X169418000Y-104150659D01*
X169417999Y-104150659D01*
X169221866Y-104169976D01*
X169033273Y-104227185D01*
X168859463Y-104320089D01*
X168707117Y-104445117D01*
X168582089Y-104597463D01*
X168489185Y-104771273D01*
X168431976Y-104959866D01*
X168429830Y-104981655D01*
X168403669Y-105046442D01*
X168346634Y-105086800D01*
X168306427Y-105093500D01*
X167083446Y-105093500D01*
X167016407Y-105073815D01*
X166970652Y-105021011D01*
X166960708Y-104951853D01*
X166974088Y-104911047D01*
X167034537Y-104797953D01*
X167044814Y-104778727D01*
X167102024Y-104590132D01*
X167121341Y-104394000D01*
X167102024Y-104197868D01*
X167044814Y-104009273D01*
X166951910Y-103835462D01*
X166826883Y-103683117D01*
X166674538Y-103558090D01*
X166674537Y-103558089D01*
X166660644Y-103550663D01*
X166610801Y-103501699D01*
X166595100Y-103441306D01*
X166595100Y-102049066D01*
X166595099Y-102049063D01*
X166595100Y-102039116D01*
X166587844Y-102014405D01*
X166584085Y-101997122D01*
X166583816Y-101995253D01*
X166580421Y-101971634D01*
X166569720Y-101948204D01*
X166563538Y-101931629D01*
X166556286Y-101906928D01*
X166547286Y-101892924D01*
X166542367Y-101885269D01*
X166533889Y-101869744D01*
X166530208Y-101861685D01*
X166523189Y-101846315D01*
X166506321Y-101826848D01*
X166495728Y-101812697D01*
X166481803Y-101791030D01*
X166464891Y-101776375D01*
X166462340Y-101774164D01*
X166449834Y-101761658D01*
X166432970Y-101742197D01*
X166411304Y-101728272D01*
X166397148Y-101717674D01*
X166377686Y-101700811D01*
X166354254Y-101690109D01*
X166338734Y-101681634D01*
X166317071Y-101667713D01*
X166292369Y-101660460D01*
X166275791Y-101654277D01*
X166252364Y-101643578D01*
X166226869Y-101639912D01*
X166209587Y-101636153D01*
X166184884Y-101628900D01*
X166150269Y-101628900D01*
X160269812Y-101628900D01*
X160202773Y-101609215D01*
X160182131Y-101592581D01*
X160173231Y-101583681D01*
X160139746Y-101522358D01*
X160144730Y-101452666D01*
X160186602Y-101396733D01*
X160252066Y-101372316D01*
X160260912Y-101372000D01*
X160786000Y-101372000D01*
X160786000Y-100313683D01*
X160814819Y-100331209D01*
X160960404Y-100372000D01*
X161073622Y-100372000D01*
X161185783Y-100356584D01*
X161286000Y-100313053D01*
X161286000Y-101372000D01*
X162130518Y-101372000D01*
X162137132Y-101371645D01*
X162193371Y-101365599D01*
X162328089Y-101315352D01*
X162443188Y-101229188D01*
X162529352Y-101114089D01*
X162579597Y-100979375D01*
X162583896Y-100939392D01*
X162610633Y-100874840D01*
X162668025Y-100834991D01*
X162737850Y-100832496D01*
X162778309Y-100851070D01*
X162923264Y-100952567D01*
X162923265Y-100952567D01*
X162923266Y-100952568D01*
X163129504Y-101048739D01*
X163349308Y-101107635D01*
X163500435Y-101120857D01*
X163575999Y-101127468D01*
X163575999Y-101127467D01*
X163576000Y-101127468D01*
X163802692Y-101107635D01*
X164022496Y-101048739D01*
X164228734Y-100952568D01*
X164415139Y-100822047D01*
X164576047Y-100661139D01*
X164706568Y-100474734D01*
X164733618Y-100416724D01*
X164779790Y-100364285D01*
X164846983Y-100345133D01*
X164913865Y-100365348D01*
X164958381Y-100416724D01*
X164961869Y-100424203D01*
X164985431Y-100474733D01*
X165115953Y-100661140D01*
X165276859Y-100822046D01*
X165463264Y-100952567D01*
X165463265Y-100952567D01*
X165463266Y-100952568D01*
X165669504Y-101048739D01*
X165889308Y-101107635D01*
X166040436Y-101120857D01*
X166115999Y-101127468D01*
X166115999Y-101127467D01*
X166116000Y-101127468D01*
X166342692Y-101107635D01*
X166562496Y-101048739D01*
X166768734Y-100952568D01*
X166955139Y-100822047D01*
X167116047Y-100661139D01*
X167246568Y-100474734D01*
X167273618Y-100416724D01*
X167319790Y-100364285D01*
X167386983Y-100345133D01*
X167453865Y-100365348D01*
X167498381Y-100416724D01*
X167501869Y-100424203D01*
X167525431Y-100474733D01*
X167655953Y-100661140D01*
X167816859Y-100822046D01*
X168003264Y-100952567D01*
X168003265Y-100952567D01*
X168003266Y-100952568D01*
X168209504Y-101048739D01*
X168429308Y-101107635D01*
X168656000Y-101127468D01*
X168882692Y-101107635D01*
X169102496Y-101048739D01*
X169308734Y-100952568D01*
X169495139Y-100822047D01*
X169656047Y-100661139D01*
X169786568Y-100474734D01*
X169882739Y-100268496D01*
X169941635Y-100048692D01*
X169961468Y-99822000D01*
X172435207Y-99822000D01*
X172454349Y-100065224D01*
X172511303Y-100302457D01*
X172604669Y-100527862D01*
X172728504Y-100729942D01*
X173464070Y-99994376D01*
X173466884Y-100007915D01*
X173536442Y-100142156D01*
X173639638Y-100252652D01*
X173768819Y-100331209D01*
X173820002Y-100345549D01*
X173082056Y-101083494D01*
X173284137Y-101207329D01*
X173509542Y-101300696D01*
X173746775Y-101357650D01*
X173990000Y-101376792D01*
X174233224Y-101357650D01*
X174470457Y-101300696D01*
X174695862Y-101207329D01*
X174897942Y-101083494D01*
X174161568Y-100347121D01*
X174278458Y-100296349D01*
X174395739Y-100200934D01*
X174482928Y-100077415D01*
X174513354Y-99991802D01*
X175251493Y-100729941D01*
X175305118Y-100642435D01*
X175356930Y-100595560D01*
X175425860Y-100584137D01*
X175490023Y-100611794D01*
X175512421Y-100636101D01*
X175529955Y-100661142D01*
X175690859Y-100822046D01*
X175877264Y-100952567D01*
X175877265Y-100952567D01*
X175877266Y-100952568D01*
X176083504Y-101048739D01*
X176303308Y-101107635D01*
X176530000Y-101127468D01*
X176756692Y-101107635D01*
X176976496Y-101048739D01*
X177182734Y-100952568D01*
X177369139Y-100822047D01*
X177530047Y-100661139D01*
X177660568Y-100474734D01*
X177687618Y-100416724D01*
X177733790Y-100364285D01*
X177800983Y-100345133D01*
X177867865Y-100365348D01*
X177912381Y-100416724D01*
X177915869Y-100424203D01*
X177939431Y-100474733D01*
X178069953Y-100661140D01*
X178230859Y-100822046D01*
X178417264Y-100952567D01*
X178417265Y-100952567D01*
X178417266Y-100952568D01*
X178623504Y-101048739D01*
X178843308Y-101107635D01*
X179070000Y-101127468D01*
X179296692Y-101107635D01*
X179516496Y-101048739D01*
X179722734Y-100952568D01*
X179909139Y-100822047D01*
X180070047Y-100661139D01*
X180087577Y-100636102D01*
X180142153Y-100592477D01*
X180211651Y-100585283D01*
X180274007Y-100616805D01*
X180294881Y-100642435D01*
X180348505Y-100729941D01*
X181084070Y-99994375D01*
X181086884Y-100007915D01*
X181156442Y-100142156D01*
X181259638Y-100252652D01*
X181388819Y-100331209D01*
X181440002Y-100345549D01*
X180702056Y-101083494D01*
X180904137Y-101207329D01*
X181129542Y-101300696D01*
X181366775Y-101357650D01*
X181610000Y-101376792D01*
X181853224Y-101357650D01*
X182090457Y-101300696D01*
X182315862Y-101207329D01*
X182517942Y-101083494D01*
X181781568Y-100347121D01*
X181898458Y-100296349D01*
X182015739Y-100200934D01*
X182102928Y-100077415D01*
X182133354Y-99991801D01*
X182813181Y-100671628D01*
X182846666Y-100732951D01*
X182849500Y-100759309D01*
X182849500Y-100896674D01*
X182864033Y-100969738D01*
X182864033Y-100969739D01*
X182864034Y-100969740D01*
X182919399Y-101052601D01*
X183002260Y-101107966D01*
X183033042Y-101114089D01*
X183075325Y-101122500D01*
X183075326Y-101122500D01*
X185224675Y-101122500D01*
X185251474Y-101117169D01*
X185297740Y-101107966D01*
X185380601Y-101052601D01*
X185435966Y-100969740D01*
X185450500Y-100896674D01*
X185450500Y-98747326D01*
X185450128Y-98745458D01*
X185439932Y-98694197D01*
X185435966Y-98674260D01*
X185380601Y-98591399D01*
X185297740Y-98536034D01*
X185297739Y-98536033D01*
X185297738Y-98536033D01*
X185224675Y-98521500D01*
X185224674Y-98521500D01*
X183075326Y-98521500D01*
X183075325Y-98521500D01*
X183002261Y-98536033D01*
X182919399Y-98591399D01*
X182864033Y-98674261D01*
X182849500Y-98747325D01*
X182849500Y-98884691D01*
X182829815Y-98951730D01*
X182813181Y-98972372D01*
X182135929Y-99649623D01*
X182133116Y-99636085D01*
X182063558Y-99501844D01*
X181960362Y-99391348D01*
X181831181Y-99312791D01*
X181779995Y-99298449D01*
X182517942Y-98560504D01*
X182315862Y-98436669D01*
X182090457Y-98343303D01*
X181853224Y-98286349D01*
X181610000Y-98267207D01*
X181366775Y-98286349D01*
X181129542Y-98343303D01*
X180904137Y-98436669D01*
X180702056Y-98560504D01*
X181438431Y-99296878D01*
X181321542Y-99347651D01*
X181204261Y-99443066D01*
X181117072Y-99566585D01*
X181086645Y-99652197D01*
X180348505Y-98914057D01*
X180294881Y-99001564D01*
X180243069Y-99048439D01*
X180174139Y-99059862D01*
X180109976Y-99032205D01*
X180087578Y-99007897D01*
X180070047Y-98982860D01*
X179909140Y-98821953D01*
X179722735Y-98691432D01*
X179516497Y-98595261D01*
X179296689Y-98536364D01*
X179070000Y-98516531D01*
X178843310Y-98536364D01*
X178623502Y-98595261D01*
X178417264Y-98691432D01*
X178230859Y-98821953D01*
X178069953Y-98982859D01*
X177939433Y-99169263D01*
X177939433Y-99169264D01*
X177939432Y-99169266D01*
X177914781Y-99222131D01*
X177912382Y-99227275D01*
X177866209Y-99279714D01*
X177799015Y-99298865D01*
X177732134Y-99278649D01*
X177687618Y-99227275D01*
X177660568Y-99169266D01*
X177623367Y-99116137D01*
X177530046Y-98982859D01*
X177369140Y-98821953D01*
X177182735Y-98691432D01*
X176976497Y-98595261D01*
X176756689Y-98536364D01*
X176530000Y-98516531D01*
X176303310Y-98536364D01*
X176083502Y-98595261D01*
X175877264Y-98691432D01*
X175690859Y-98821953D01*
X175529952Y-98982860D01*
X175512422Y-99007897D01*
X175457845Y-99051522D01*
X175388347Y-99058716D01*
X175325992Y-99027193D01*
X175305120Y-99001564D01*
X175251494Y-98914056D01*
X174515929Y-99649622D01*
X174513116Y-99636085D01*
X174443558Y-99501844D01*
X174340362Y-99391348D01*
X174211181Y-99312791D01*
X174159995Y-99298449D01*
X174897942Y-98560504D01*
X174695862Y-98436669D01*
X174470457Y-98343303D01*
X174233224Y-98286349D01*
X173990000Y-98267207D01*
X173746775Y-98286349D01*
X173509542Y-98343303D01*
X173284137Y-98436669D01*
X173082056Y-98560504D01*
X173818431Y-99296878D01*
X173701542Y-99347651D01*
X173584261Y-99443066D01*
X173497072Y-99566585D01*
X173466645Y-99652197D01*
X172728504Y-98914056D01*
X172604669Y-99116137D01*
X172511303Y-99341542D01*
X172454349Y-99578775D01*
X172435207Y-99822000D01*
X169961468Y-99822000D01*
X169941635Y-99595308D01*
X169882739Y-99375504D01*
X169786568Y-99169266D01*
X169746125Y-99111506D01*
X169656046Y-98982859D01*
X169495140Y-98821953D01*
X169308735Y-98691432D01*
X169102497Y-98595261D01*
X168882689Y-98536364D01*
X168656000Y-98516531D01*
X168429310Y-98536364D01*
X168209502Y-98595261D01*
X168003264Y-98691432D01*
X167816859Y-98821953D01*
X167655953Y-98982859D01*
X167525433Y-99169263D01*
X167525433Y-99169264D01*
X167525432Y-99169266D01*
X167500781Y-99222131D01*
X167498382Y-99227275D01*
X167452209Y-99279714D01*
X167385015Y-99298865D01*
X167318134Y-99278649D01*
X167273618Y-99227275D01*
X167246568Y-99169266D01*
X167209367Y-99116137D01*
X167116046Y-98982859D01*
X166955140Y-98821953D01*
X166768735Y-98691432D01*
X166562497Y-98595261D01*
X166342689Y-98536364D01*
X166115999Y-98516531D01*
X165889310Y-98536364D01*
X165669502Y-98595261D01*
X165463264Y-98691432D01*
X165276859Y-98821953D01*
X165115953Y-98982859D01*
X164985433Y-99169263D01*
X164985433Y-99169264D01*
X164985432Y-99169266D01*
X164960781Y-99222131D01*
X164958382Y-99227275D01*
X164912209Y-99279714D01*
X164845015Y-99298865D01*
X164778134Y-99278649D01*
X164733618Y-99227275D01*
X164706568Y-99169266D01*
X164669367Y-99116137D01*
X164576046Y-98982859D01*
X164415140Y-98821953D01*
X164228735Y-98691432D01*
X164022497Y-98595261D01*
X163802689Y-98536364D01*
X163575999Y-98516531D01*
X163349310Y-98536364D01*
X163129502Y-98595261D01*
X162923265Y-98691432D01*
X162778308Y-98792930D01*
X162712102Y-98815257D01*
X162644335Y-98798245D01*
X162596522Y-98747296D01*
X162583896Y-98704608D01*
X162579597Y-98664624D01*
X162529352Y-98529910D01*
X162443188Y-98414811D01*
X162328089Y-98328647D01*
X162193371Y-98278400D01*
X162137132Y-98272354D01*
X162130518Y-98272000D01*
X161286000Y-98272000D01*
X161286000Y-99330316D01*
X161257181Y-99312791D01*
X161111596Y-99272000D01*
X160998378Y-99272000D01*
X160886217Y-99287416D01*
X160786000Y-99330946D01*
X160786000Y-98272000D01*
X159941482Y-98272000D01*
X159934867Y-98272354D01*
X159878628Y-98278400D01*
X159743910Y-98328647D01*
X159628811Y-98414811D01*
X159542647Y-98529910D01*
X159492400Y-98664628D01*
X159486354Y-98720867D01*
X159486000Y-98727481D01*
X159486000Y-99572000D01*
X160541148Y-99572000D01*
X160492441Y-99709047D01*
X160482123Y-99859886D01*
X160512884Y-100007915D01*
X160546090Y-100072000D01*
X159486000Y-100072000D01*
X159486000Y-100597087D01*
X159466315Y-100664126D01*
X159413511Y-100709881D01*
X159344353Y-100719825D01*
X159280797Y-100690800D01*
X159274319Y-100684768D01*
X159265419Y-100675868D01*
X159231934Y-100614545D01*
X159229100Y-100588187D01*
X159229100Y-99124837D01*
X159231933Y-99098481D01*
X159232793Y-99094530D01*
X159229416Y-99047311D01*
X159229100Y-99038465D01*
X159229100Y-99025729D01*
X159227288Y-99013130D01*
X159226341Y-99004324D01*
X159224806Y-98982859D01*
X159222965Y-98957113D01*
X159221550Y-98953321D01*
X159214997Y-98927641D01*
X159214421Y-98923634D01*
X159194753Y-98880567D01*
X159191364Y-98872386D01*
X159174821Y-98828030D01*
X159172395Y-98824789D01*
X159158867Y-98801989D01*
X159157189Y-98798315D01*
X159126193Y-98762544D01*
X159120639Y-98755651D01*
X159113008Y-98745458D01*
X159104010Y-98736460D01*
X159097975Y-98729979D01*
X159066970Y-98694197D01*
X159063561Y-98692006D01*
X159042924Y-98675374D01*
X158746431Y-98378881D01*
X158712946Y-98317558D01*
X158715452Y-98255202D01*
X158720024Y-98240132D01*
X158739341Y-98044000D01*
X158720024Y-97847868D01*
X158662814Y-97659273D01*
X158569910Y-97485462D01*
X158444883Y-97333117D01*
X158292538Y-97208090D01*
X158270091Y-97196092D01*
X158118726Y-97115185D01*
X157930133Y-97057976D01*
X157832066Y-97048317D01*
X157734000Y-97038659D01*
X157733999Y-97038659D01*
X157537866Y-97057976D01*
X157349273Y-97115185D01*
X157175463Y-97208089D01*
X157023119Y-97333115D01*
X156898088Y-97485464D01*
X156890266Y-97500098D01*
X156841302Y-97549941D01*
X156798551Y-97564381D01*
X156794940Y-97564900D01*
X156794938Y-97564900D01*
X156782328Y-97566712D01*
X156773540Y-97567657D01*
X156726319Y-97571035D01*
X156722525Y-97572450D01*
X156696856Y-97579001D01*
X156692838Y-97579578D01*
X156649778Y-97599243D01*
X156641606Y-97602629D01*
X156597237Y-97619178D01*
X156593991Y-97621609D01*
X156571205Y-97635129D01*
X156567521Y-97636811D01*
X156531739Y-97667816D01*
X156524853Y-97673364D01*
X156514666Y-97680990D01*
X156505651Y-97690004D01*
X156499183Y-97696025D01*
X156463402Y-97727030D01*
X156461212Y-97730439D01*
X156444583Y-97751072D01*
X154901072Y-99294583D01*
X154880439Y-99311212D01*
X154877030Y-99313402D01*
X154846025Y-99349183D01*
X154840004Y-99355651D01*
X154830990Y-99364666D01*
X154823364Y-99374853D01*
X154817816Y-99381739D01*
X154786811Y-99417521D01*
X154785129Y-99421205D01*
X154771609Y-99443991D01*
X154769178Y-99447237D01*
X154752629Y-99491606D01*
X154749243Y-99499778D01*
X154729578Y-99542838D01*
X154729001Y-99546856D01*
X154722450Y-99572525D01*
X154721035Y-99576319D01*
X154717657Y-99623540D01*
X154716712Y-99632334D01*
X154714900Y-99644940D01*
X154714900Y-99657672D01*
X154714583Y-99666518D01*
X154711207Y-99713737D01*
X154712066Y-99717688D01*
X154714900Y-99744044D01*
X154714900Y-100996900D01*
X154695215Y-101063939D01*
X154642411Y-101109694D01*
X154590900Y-101120900D01*
X153962610Y-101120900D01*
X153895571Y-101101215D01*
X153849816Y-101048411D01*
X153839872Y-100979253D01*
X153868897Y-100915697D01*
X153891487Y-100895325D01*
X153996140Y-100822046D01*
X154157046Y-100661140D01*
X154170144Y-100642435D01*
X154287568Y-100474734D01*
X154383739Y-100268496D01*
X154442635Y-100048692D01*
X154462468Y-99822000D01*
X154442635Y-99595308D01*
X154383739Y-99375504D01*
X154287568Y-99169266D01*
X154247125Y-99111506D01*
X154157046Y-98982859D01*
X153996140Y-98821953D01*
X153809735Y-98691432D01*
X153603497Y-98595261D01*
X153383689Y-98536364D01*
X153156999Y-98516531D01*
X152930310Y-98536364D01*
X152710502Y-98595261D01*
X152504264Y-98691432D01*
X152317859Y-98821953D01*
X152156953Y-98982859D01*
X152026433Y-99169263D01*
X152026433Y-99169264D01*
X152026432Y-99169266D01*
X152001781Y-99222131D01*
X151999382Y-99227275D01*
X151953209Y-99279714D01*
X151886015Y-99298865D01*
X151819134Y-99278649D01*
X151774618Y-99227275D01*
X151747568Y-99169266D01*
X151710367Y-99116137D01*
X151617046Y-98982859D01*
X151456140Y-98821953D01*
X151269735Y-98691432D01*
X151063497Y-98595261D01*
X150843689Y-98536364D01*
X150616999Y-98516531D01*
X150390310Y-98536364D01*
X150170502Y-98595261D01*
X149964264Y-98691432D01*
X149777859Y-98821953D01*
X149616953Y-98982859D01*
X149486433Y-99169263D01*
X149486433Y-99169264D01*
X149486432Y-99169266D01*
X149461781Y-99222131D01*
X149459382Y-99227275D01*
X149413209Y-99279714D01*
X149346015Y-99298865D01*
X149279134Y-99278649D01*
X149234618Y-99227275D01*
X149207568Y-99169266D01*
X149170367Y-99116137D01*
X149077046Y-98982859D01*
X148916140Y-98821953D01*
X148729735Y-98691432D01*
X148523497Y-98595261D01*
X148303689Y-98536364D01*
X148077000Y-98516531D01*
X147850310Y-98536364D01*
X147630502Y-98595261D01*
X147424265Y-98691432D01*
X147279308Y-98792930D01*
X147213102Y-98815257D01*
X147145335Y-98798245D01*
X147097522Y-98747296D01*
X147084896Y-98704608D01*
X147080597Y-98664624D01*
X147030352Y-98529910D01*
X146944188Y-98414811D01*
X146829089Y-98328647D01*
X146694371Y-98278400D01*
X146638132Y-98272354D01*
X146631518Y-98272000D01*
X145787000Y-98272000D01*
X145787000Y-99330316D01*
X145758181Y-99312791D01*
X145612596Y-99272000D01*
X145499378Y-99272000D01*
X145387217Y-99287416D01*
X145287000Y-99330946D01*
X145287000Y-98272000D01*
X144442482Y-98272000D01*
X144435867Y-98272354D01*
X144379628Y-98278400D01*
X144244910Y-98328647D01*
X144129811Y-98414811D01*
X144043647Y-98529910D01*
X143993400Y-98664628D01*
X143987354Y-98720867D01*
X143987000Y-98727481D01*
X143987000Y-99572000D01*
X145042148Y-99572000D01*
X144993441Y-99709047D01*
X144983123Y-99859886D01*
X145013884Y-100007915D01*
X145047090Y-100072000D01*
X143987000Y-100072000D01*
X143987000Y-100707458D01*
X143967315Y-100774497D01*
X143914511Y-100820252D01*
X143845353Y-100830196D01*
X143781797Y-100801171D01*
X143775319Y-100795139D01*
X138261892Y-95281712D01*
X138228407Y-95220389D01*
X138233391Y-95150697D01*
X138270908Y-95098178D01*
X138414410Y-94980410D01*
X138545685Y-94820450D01*
X138643232Y-94637954D01*
X138703300Y-94439934D01*
X138723583Y-94234000D01*
X138703300Y-94028066D01*
X138643232Y-93830046D01*
X138545685Y-93647550D01*
X138480047Y-93567569D01*
X138414410Y-93487589D01*
X138316952Y-93407608D01*
X138254450Y-93356315D01*
X138071954Y-93258768D01*
X137972944Y-93228734D01*
X137873932Y-93198699D01*
X137668000Y-93178417D01*
X137462067Y-93198699D01*
X137264043Y-93258769D01*
X137081551Y-93356314D01*
X136921589Y-93487589D01*
X136790314Y-93647551D01*
X136692769Y-93830043D01*
X136632699Y-94028067D01*
X136612417Y-94234000D01*
X136632699Y-94439932D01*
X136632700Y-94439934D01*
X136692768Y-94637954D01*
X136790315Y-94820450D01*
X136841608Y-94882952D01*
X136921589Y-94980410D01*
X137018209Y-95059702D01*
X137081550Y-95111685D01*
X137123355Y-95134030D01*
X137173197Y-95182991D01*
X137188900Y-95243387D01*
X137188900Y-95300533D01*
X137186066Y-95326892D01*
X137185206Y-95330840D01*
X137188584Y-95378057D01*
X137188900Y-95386903D01*
X137188900Y-95399636D01*
X137190712Y-95412243D01*
X137191657Y-95421037D01*
X137195035Y-95468258D01*
X137196449Y-95472050D01*
X137203001Y-95497721D01*
X137203578Y-95501737D01*
X137223246Y-95544803D01*
X137226634Y-95552982D01*
X137243178Y-95597340D01*
X137245607Y-95600585D01*
X137259131Y-95623377D01*
X137260811Y-95627055D01*
X137291808Y-95662827D01*
X137297360Y-95669717D01*
X137304992Y-95679912D01*
X137313990Y-95688910D01*
X137320021Y-95695387D01*
X137351030Y-95731173D01*
X137354433Y-95733360D01*
X137375074Y-95749994D01*
X140161445Y-98536365D01*
X142944866Y-101319785D01*
X142944867Y-101319787D01*
X143518004Y-101892924D01*
X143534636Y-101913561D01*
X143536827Y-101916971D01*
X143539386Y-101919188D01*
X143577160Y-101977966D01*
X143577160Y-102047836D01*
X143539385Y-102106614D01*
X143475829Y-102135638D01*
X143458183Y-102136900D01*
X143251812Y-102136900D01*
X143184773Y-102117215D01*
X143164131Y-102100581D01*
X135672519Y-94608969D01*
X135639034Y-94547646D01*
X135641539Y-94485294D01*
X135655300Y-94439934D01*
X135675583Y-94234000D01*
X135655300Y-94028066D01*
X135595232Y-93830046D01*
X135497685Y-93647550D01*
X135432047Y-93567569D01*
X135366410Y-93487589D01*
X135268952Y-93407608D01*
X135206450Y-93356315D01*
X135023954Y-93258768D01*
X134924944Y-93228734D01*
X134825932Y-93198699D01*
X134642497Y-93180632D01*
X134620000Y-93178417D01*
X134619999Y-93178417D01*
X134414067Y-93198699D01*
X134216043Y-93258769D01*
X134033551Y-93356314D01*
X133873589Y-93487589D01*
X133742314Y-93647551D01*
X133644769Y-93830043D01*
X133584699Y-94028067D01*
X133564417Y-94233999D01*
X133584699Y-94439932D01*
X133584700Y-94439934D01*
X133644768Y-94637954D01*
X133742315Y-94820450D01*
X133793609Y-94882952D01*
X133873589Y-94980410D01*
X133953570Y-95046047D01*
X134033550Y-95111685D01*
X134216046Y-95209232D01*
X134414066Y-95269300D01*
X134620000Y-95289583D01*
X134825934Y-95269300D01*
X134871293Y-95255539D01*
X134941157Y-95254915D01*
X134994969Y-95286519D01*
X142617374Y-102908924D01*
X142634006Y-102929561D01*
X142636197Y-102932970D01*
X142671971Y-102963968D01*
X142671979Y-102963975D01*
X142678460Y-102970010D01*
X142687458Y-102979008D01*
X142697651Y-102986639D01*
X142704544Y-102992193D01*
X142740315Y-103023189D01*
X142743989Y-103024867D01*
X142766790Y-103038395D01*
X142770030Y-103040821D01*
X142814388Y-103057365D01*
X142822567Y-103060753D01*
X142851579Y-103074002D01*
X142865634Y-103080421D01*
X142869641Y-103080997D01*
X142895325Y-103087552D01*
X142899113Y-103088965D01*
X142946337Y-103092342D01*
X142955128Y-103093288D01*
X142967729Y-103095100D01*
X142967731Y-103095100D01*
X142980456Y-103095100D01*
X142989302Y-103095415D01*
X143036530Y-103098794D01*
X143040483Y-103097933D01*
X143066842Y-103095100D01*
X156399163Y-103095100D01*
X156425520Y-103097933D01*
X156429470Y-103098793D01*
X156476688Y-103095416D01*
X156485534Y-103095100D01*
X156498269Y-103095100D01*
X156510878Y-103093286D01*
X156519658Y-103092342D01*
X156566887Y-103088965D01*
X156570675Y-103087551D01*
X156596359Y-103080996D01*
X156600366Y-103080421D01*
X156633988Y-103065066D01*
X156643428Y-103060755D01*
X156651588Y-103057373D01*
X156695970Y-103040821D01*
X156699208Y-103038396D01*
X156722012Y-103024865D01*
X156725685Y-103023189D01*
X156761465Y-102992184D01*
X156768338Y-102986645D01*
X156778543Y-102979007D01*
X156787559Y-102969990D01*
X156794007Y-102963986D01*
X156829803Y-102932970D01*
X156831987Y-102929570D01*
X156848621Y-102908927D01*
X157010927Y-102746621D01*
X157031570Y-102729988D01*
X157034968Y-102727804D01*
X157034967Y-102727804D01*
X157034970Y-102727803D01*
X157065986Y-102692007D01*
X157071990Y-102685559D01*
X157081007Y-102676543D01*
X157088659Y-102666320D01*
X157094169Y-102659483D01*
X157125189Y-102623685D01*
X157126867Y-102620008D01*
X157140400Y-102597202D01*
X157142820Y-102593970D01*
X157159366Y-102549604D01*
X157162741Y-102541454D01*
X157182421Y-102498366D01*
X157182996Y-102494359D01*
X157189551Y-102468675D01*
X157190965Y-102464887D01*
X157194342Y-102417658D01*
X157195288Y-102408865D01*
X157197100Y-102396269D01*
X157197100Y-102383533D01*
X157197416Y-102374687D01*
X157200793Y-102327470D01*
X157199934Y-102323522D01*
X157197100Y-102297163D01*
X157197100Y-101191433D01*
X157216785Y-101124394D01*
X157269589Y-101078639D01*
X157338747Y-101068695D01*
X157402303Y-101097720D01*
X157408781Y-101103752D01*
X159721952Y-103416924D01*
X159738584Y-103437561D01*
X159740775Y-103440970D01*
X159768721Y-103465185D01*
X159776557Y-103471975D01*
X159783038Y-103478010D01*
X159792034Y-103487006D01*
X159802232Y-103494641D01*
X159809111Y-103500184D01*
X159844893Y-103531189D01*
X159848572Y-103532869D01*
X159871370Y-103546396D01*
X159874608Y-103548820D01*
X159918973Y-103565366D01*
X159927141Y-103568750D01*
X159970212Y-103588421D01*
X159974219Y-103588997D01*
X159999899Y-103595550D01*
X160003691Y-103596965D01*
X160050902Y-103600341D01*
X160059708Y-103601288D01*
X160072308Y-103603100D01*
X160072309Y-103603100D01*
X160085044Y-103603100D01*
X160093890Y-103603416D01*
X160141108Y-103606793D01*
X160145058Y-103605934D01*
X160171416Y-103603100D01*
X162668609Y-103603100D01*
X162735648Y-103622785D01*
X162781403Y-103675589D01*
X162791347Y-103744747D01*
X162764462Y-103805765D01*
X162740089Y-103835462D01*
X162732665Y-103849353D01*
X162683703Y-103899197D01*
X162623307Y-103914900D01*
X149034693Y-103914900D01*
X148967654Y-103895215D01*
X148925335Y-103849353D01*
X148917910Y-103835462D01*
X148893538Y-103805765D01*
X148792883Y-103683117D01*
X148640538Y-103558090D01*
X148535038Y-103501699D01*
X148466726Y-103465185D01*
X148278133Y-103407976D01*
X148082000Y-103388659D01*
X147885866Y-103407976D01*
X147697273Y-103465185D01*
X147523463Y-103558089D01*
X147371117Y-103683117D01*
X147246089Y-103835463D01*
X147153185Y-104009273D01*
X147095976Y-104197866D01*
X147084385Y-104315551D01*
X147076659Y-104394000D01*
X147089641Y-104525808D01*
X147095976Y-104590132D01*
X147100548Y-104605205D01*
X147101171Y-104675072D01*
X147069568Y-104728880D01*
X146691269Y-105107181D01*
X146629946Y-105140666D01*
X146603588Y-105143500D01*
X138665414Y-105143500D01*
X138598375Y-105123815D01*
X138552620Y-105071011D01*
X138542676Y-105001853D01*
X138556054Y-104961049D01*
X138643232Y-104797954D01*
X138703300Y-104599934D01*
X138723583Y-104394000D01*
X138703300Y-104188066D01*
X138643232Y-103990046D01*
X138545685Y-103807550D01*
X138480047Y-103727569D01*
X138414410Y-103647589D01*
X138316101Y-103566910D01*
X138254450Y-103516315D01*
X138107113Y-103437561D01*
X138071956Y-103418769D01*
X138071955Y-103418768D01*
X138071954Y-103418768D01*
X137972697Y-103388659D01*
X137873932Y-103358699D01*
X137668000Y-103338417D01*
X137462067Y-103358699D01*
X137264043Y-103418769D01*
X137081551Y-103516314D01*
X136921589Y-103647589D01*
X136790314Y-103807551D01*
X136692769Y-103990043D01*
X136632699Y-104188067D01*
X136612417Y-104393999D01*
X136632699Y-104599932D01*
X136655873Y-104676326D01*
X136692768Y-104797954D01*
X136779944Y-104961048D01*
X136794186Y-105029449D01*
X136769186Y-105094693D01*
X136712881Y-105136064D01*
X136670586Y-105143500D01*
X135617414Y-105143500D01*
X135550375Y-105123815D01*
X135504620Y-105071011D01*
X135494676Y-105001853D01*
X135508054Y-104961049D01*
X135595232Y-104797954D01*
X135655300Y-104599934D01*
X135675583Y-104394000D01*
X135655300Y-104188066D01*
X135595232Y-103990046D01*
X135497685Y-103807550D01*
X135432047Y-103727569D01*
X135366410Y-103647589D01*
X135268101Y-103566910D01*
X135206450Y-103516315D01*
X135059113Y-103437561D01*
X135023956Y-103418769D01*
X135023955Y-103418768D01*
X135023954Y-103418768D01*
X134924697Y-103388659D01*
X134825932Y-103358699D01*
X134620000Y-103338417D01*
X134414067Y-103358699D01*
X134216043Y-103418769D01*
X134033551Y-103516314D01*
X133873589Y-103647589D01*
X133742314Y-103807551D01*
X133644769Y-103990043D01*
X133584699Y-104188067D01*
X133564417Y-104393999D01*
X133584699Y-104599932D01*
X133607873Y-104676326D01*
X133644768Y-104797954D01*
X133731944Y-104961048D01*
X133746186Y-105029449D01*
X133721186Y-105094693D01*
X133664881Y-105136064D01*
X133622586Y-105143500D01*
X132542411Y-105143500D01*
X132475372Y-105123815D01*
X132454730Y-105107181D01*
X131956624Y-104609074D01*
X131939990Y-104588433D01*
X131937803Y-104585030D01*
X131902017Y-104554021D01*
X131895540Y-104547990D01*
X131886542Y-104538992D01*
X131876347Y-104531360D01*
X131869457Y-104525808D01*
X131837418Y-104498046D01*
X131833685Y-104494811D01*
X131830008Y-104493131D01*
X131807215Y-104479607D01*
X131803970Y-104477178D01*
X131759612Y-104460634D01*
X131751433Y-104457246D01*
X131708367Y-104437578D01*
X131704351Y-104437001D01*
X131678680Y-104430449D01*
X131674888Y-104429035D01*
X131627667Y-104425657D01*
X131618875Y-104424712D01*
X131606269Y-104422900D01*
X131606267Y-104422900D01*
X131593534Y-104422900D01*
X131584688Y-104422584D01*
X131537470Y-104419206D01*
X131534161Y-104419926D01*
X131533520Y-104420066D01*
X131507163Y-104422900D01*
X107943387Y-104422900D01*
X107876348Y-104403215D01*
X107834030Y-104357356D01*
X107811685Y-104315550D01*
X107739166Y-104227185D01*
X107680410Y-104155589D01*
X107582952Y-104075608D01*
X107520450Y-104024315D01*
X107337954Y-103926768D01*
X107238944Y-103896733D01*
X107139932Y-103866699D01*
X106934000Y-103846417D01*
X106728067Y-103866699D01*
X106530043Y-103926769D01*
X106347551Y-104024314D01*
X106187589Y-104155589D01*
X106056314Y-104315551D01*
X105958769Y-104498043D01*
X105898699Y-104696067D01*
X105878417Y-104902000D01*
X105898699Y-105107932D01*
X105928733Y-105206944D01*
X105958768Y-105305954D01*
X106056315Y-105488450D01*
X106056317Y-105488452D01*
X106187589Y-105648410D01*
X106267569Y-105714047D01*
X106347550Y-105779685D01*
X106530046Y-105877232D01*
X106700174Y-105928839D01*
X106758613Y-105967137D01*
X106787069Y-106030949D01*
X106776509Y-106100016D01*
X106730285Y-106152410D01*
X106664179Y-106171500D01*
X69212500Y-106171500D01*
X69145461Y-106151815D01*
X69099706Y-106099011D01*
X69088500Y-106047500D01*
X69088500Y-100642674D01*
X87345500Y-100642674D01*
X87360033Y-100715738D01*
X87360033Y-100715739D01*
X87360034Y-100715740D01*
X87415399Y-100798601D01*
X87498260Y-100853966D01*
X87534792Y-100861233D01*
X87571325Y-100868500D01*
X87571326Y-100868500D01*
X89720675Y-100868500D01*
X89745029Y-100863655D01*
X89793740Y-100853966D01*
X89876601Y-100798601D01*
X89931966Y-100715740D01*
X89946500Y-100642674D01*
X89946500Y-100505307D01*
X89966185Y-100438269D01*
X89982819Y-100417627D01*
X90660070Y-99740374D01*
X90662884Y-99753915D01*
X90732442Y-99888156D01*
X90835638Y-99998652D01*
X90964819Y-100077209D01*
X91016002Y-100091549D01*
X90278056Y-100829494D01*
X90480137Y-100953329D01*
X90705542Y-101046696D01*
X90942775Y-101103650D01*
X91186000Y-101122792D01*
X91429224Y-101103650D01*
X91666457Y-101046696D01*
X91891862Y-100953329D01*
X92093942Y-100829494D01*
X91907122Y-100642674D01*
X97759500Y-100642674D01*
X97774033Y-100715738D01*
X97774033Y-100715739D01*
X97774034Y-100715740D01*
X97829399Y-100798601D01*
X97912260Y-100853966D01*
X97948792Y-100861233D01*
X97985325Y-100868500D01*
X97985326Y-100868500D01*
X100134675Y-100868500D01*
X100159029Y-100863655D01*
X100207740Y-100853966D01*
X100290601Y-100798601D01*
X100345966Y-100715740D01*
X100360500Y-100642674D01*
X100360500Y-100505308D01*
X100380185Y-100438269D01*
X100396819Y-100417627D01*
X101074070Y-99740374D01*
X101076884Y-99753915D01*
X101146442Y-99888156D01*
X101249638Y-99998652D01*
X101378819Y-100077209D01*
X101430002Y-100091549D01*
X100692056Y-100829494D01*
X100894137Y-100953329D01*
X101119542Y-101046696D01*
X101356775Y-101103650D01*
X101600000Y-101122792D01*
X101843224Y-101103650D01*
X102080457Y-101046696D01*
X102305862Y-100953329D01*
X102398314Y-100896674D01*
X111221500Y-100896674D01*
X111236033Y-100969738D01*
X111236033Y-100969739D01*
X111236034Y-100969740D01*
X111291399Y-101052601D01*
X111374260Y-101107966D01*
X111405042Y-101114089D01*
X111447325Y-101122500D01*
X111447326Y-101122500D01*
X113596675Y-101122500D01*
X113623474Y-101117169D01*
X113669740Y-101107966D01*
X113752601Y-101052601D01*
X113807966Y-100969740D01*
X113822500Y-100896674D01*
X113822500Y-100759307D01*
X113842185Y-100692269D01*
X113858819Y-100671627D01*
X114536070Y-99994375D01*
X114538884Y-100007915D01*
X114608442Y-100142156D01*
X114711638Y-100252652D01*
X114840819Y-100331209D01*
X114892002Y-100345549D01*
X114154056Y-101083494D01*
X114356137Y-101207329D01*
X114581542Y-101300696D01*
X114818775Y-101357650D01*
X115062000Y-101376792D01*
X115305224Y-101357650D01*
X115542457Y-101300696D01*
X115767862Y-101207329D01*
X115969942Y-101083494D01*
X115783122Y-100896674D01*
X119095500Y-100896674D01*
X119110033Y-100969738D01*
X119110033Y-100969739D01*
X119110034Y-100969740D01*
X119165399Y-101052601D01*
X119248260Y-101107966D01*
X119279042Y-101114089D01*
X119321325Y-101122500D01*
X119321326Y-101122500D01*
X121470675Y-101122500D01*
X121497474Y-101117169D01*
X121543740Y-101107966D01*
X121626601Y-101052601D01*
X121681966Y-100969740D01*
X121696500Y-100896674D01*
X121696500Y-100759308D01*
X121716185Y-100692270D01*
X121732819Y-100671628D01*
X122410070Y-99994376D01*
X122412884Y-100007915D01*
X122482442Y-100142156D01*
X122585638Y-100252652D01*
X122714819Y-100331209D01*
X122766002Y-100345549D01*
X122028056Y-101083494D01*
X122230137Y-101207329D01*
X122455542Y-101300696D01*
X122692775Y-101357650D01*
X122935999Y-101376792D01*
X123179224Y-101357650D01*
X123416457Y-101300696D01*
X123641862Y-101207329D01*
X123843942Y-101083494D01*
X123107568Y-100347121D01*
X123224458Y-100296349D01*
X123341739Y-100200934D01*
X123428928Y-100077415D01*
X123459354Y-99991802D01*
X124197493Y-100729941D01*
X124251118Y-100642435D01*
X124302930Y-100595560D01*
X124371860Y-100584137D01*
X124436023Y-100611794D01*
X124458421Y-100636101D01*
X124475955Y-100661142D01*
X124636859Y-100822046D01*
X124823264Y-100952567D01*
X124823265Y-100952567D01*
X124823266Y-100952568D01*
X125029504Y-101048739D01*
X125249308Y-101107635D01*
X125400436Y-101120857D01*
X125475999Y-101127468D01*
X125475999Y-101127467D01*
X125476000Y-101127468D01*
X125702692Y-101107635D01*
X125922496Y-101048739D01*
X126128734Y-100952568D01*
X126315139Y-100822047D01*
X126476047Y-100661139D01*
X126606568Y-100474734D01*
X126633618Y-100416724D01*
X126679790Y-100364285D01*
X126746983Y-100345133D01*
X126813865Y-100365348D01*
X126858381Y-100416724D01*
X126861869Y-100424203D01*
X126885431Y-100474733D01*
X127015953Y-100661140D01*
X127176859Y-100822046D01*
X127363264Y-100952567D01*
X127363265Y-100952567D01*
X127363266Y-100952568D01*
X127569504Y-101048739D01*
X127789308Y-101107635D01*
X128016000Y-101127468D01*
X128242692Y-101107635D01*
X128462496Y-101048739D01*
X128668734Y-100952568D01*
X128855139Y-100822047D01*
X129016047Y-100661139D01*
X129033577Y-100636102D01*
X129088153Y-100592477D01*
X129157651Y-100585283D01*
X129220007Y-100616805D01*
X129240881Y-100642435D01*
X129294505Y-100729941D01*
X130030070Y-99994376D01*
X130032884Y-100007915D01*
X130102442Y-100142156D01*
X130205638Y-100252652D01*
X130334819Y-100331209D01*
X130386002Y-100345549D01*
X129648056Y-101083494D01*
X129850137Y-101207329D01*
X130075542Y-101300696D01*
X130312775Y-101357650D01*
X130556000Y-101376792D01*
X130799224Y-101357650D01*
X131036457Y-101300696D01*
X131261862Y-101207329D01*
X131463942Y-101083494D01*
X130727568Y-100347121D01*
X130844458Y-100296349D01*
X130961739Y-100200934D01*
X131048928Y-100077415D01*
X131079354Y-99991802D01*
X131817494Y-100729942D01*
X131941329Y-100527862D01*
X132034696Y-100302457D01*
X132091650Y-100065224D01*
X132110792Y-99821999D01*
X132091650Y-99578775D01*
X132034696Y-99341542D01*
X131941329Y-99116137D01*
X131817494Y-98914056D01*
X131081929Y-99649622D01*
X131079116Y-99636085D01*
X131009558Y-99501844D01*
X130906362Y-99391348D01*
X130777181Y-99312791D01*
X130725997Y-99298450D01*
X131463942Y-98560504D01*
X131261862Y-98436669D01*
X131036457Y-98343303D01*
X130799224Y-98286349D01*
X130555999Y-98267207D01*
X130312775Y-98286349D01*
X130075542Y-98343303D01*
X129850137Y-98436669D01*
X129648056Y-98560504D01*
X130384431Y-99296878D01*
X130267542Y-99347651D01*
X130150261Y-99443066D01*
X130063072Y-99566585D01*
X130032645Y-99652197D01*
X129294505Y-98914057D01*
X129240881Y-99001564D01*
X129189069Y-99048439D01*
X129120139Y-99059862D01*
X129055976Y-99032205D01*
X129033578Y-99007897D01*
X129016047Y-98982860D01*
X128855140Y-98821953D01*
X128668735Y-98691432D01*
X128462497Y-98595261D01*
X128242689Y-98536364D01*
X128016000Y-98516531D01*
X127789310Y-98536364D01*
X127569502Y-98595261D01*
X127363264Y-98691432D01*
X127176859Y-98821953D01*
X127015953Y-98982859D01*
X126885433Y-99169263D01*
X126885433Y-99169264D01*
X126885432Y-99169266D01*
X126860781Y-99222131D01*
X126858382Y-99227275D01*
X126812209Y-99279714D01*
X126745015Y-99298865D01*
X126678134Y-99278649D01*
X126633618Y-99227275D01*
X126606568Y-99169266D01*
X126569367Y-99116137D01*
X126476046Y-98982859D01*
X126315140Y-98821953D01*
X126128735Y-98691432D01*
X125922497Y-98595261D01*
X125702689Y-98536364D01*
X125475999Y-98516531D01*
X125249310Y-98536364D01*
X125029502Y-98595261D01*
X124823264Y-98691432D01*
X124636859Y-98821953D01*
X124475952Y-98982860D01*
X124458422Y-99007897D01*
X124403845Y-99051522D01*
X124334347Y-99058716D01*
X124271992Y-99027193D01*
X124251120Y-99001564D01*
X124197494Y-98914056D01*
X123461929Y-99649622D01*
X123459116Y-99636085D01*
X123389558Y-99501844D01*
X123286362Y-99391348D01*
X123157181Y-99312791D01*
X123105997Y-99298450D01*
X123843942Y-98560504D01*
X123641862Y-98436669D01*
X123416457Y-98343303D01*
X123179224Y-98286349D01*
X122935999Y-98267207D01*
X122692775Y-98286349D01*
X122455542Y-98343303D01*
X122230137Y-98436669D01*
X122028056Y-98560504D01*
X122764431Y-99296878D01*
X122647542Y-99347651D01*
X122530261Y-99443066D01*
X122443072Y-99566585D01*
X122412645Y-99652197D01*
X121732819Y-98972371D01*
X121699334Y-98911048D01*
X121696500Y-98884690D01*
X121696500Y-98747325D01*
X121685932Y-98694197D01*
X121681966Y-98674260D01*
X121626601Y-98591399D01*
X121543740Y-98536034D01*
X121543739Y-98536033D01*
X121543738Y-98536033D01*
X121470675Y-98521500D01*
X121470674Y-98521500D01*
X119321326Y-98521500D01*
X119321325Y-98521500D01*
X119248261Y-98536033D01*
X119165399Y-98591399D01*
X119110033Y-98674261D01*
X119095500Y-98747325D01*
X119095500Y-100896674D01*
X115783122Y-100896674D01*
X115233568Y-100347121D01*
X115350458Y-100296349D01*
X115467739Y-100200934D01*
X115554928Y-100077415D01*
X115585354Y-99991802D01*
X116323494Y-100729942D01*
X116447329Y-100527862D01*
X116540696Y-100302457D01*
X116597650Y-100065224D01*
X116616792Y-99822000D01*
X116597650Y-99578775D01*
X116540696Y-99341542D01*
X116447329Y-99116137D01*
X116323494Y-98914056D01*
X115587929Y-99649622D01*
X115585116Y-99636085D01*
X115515558Y-99501844D01*
X115412362Y-99391348D01*
X115283181Y-99312791D01*
X115231995Y-99298449D01*
X115969942Y-98560504D01*
X115767862Y-98436669D01*
X115542457Y-98343303D01*
X115305224Y-98286349D01*
X115062000Y-98267207D01*
X114818775Y-98286349D01*
X114581542Y-98343303D01*
X114356137Y-98436669D01*
X114154056Y-98560504D01*
X114890431Y-99296878D01*
X114773542Y-99347651D01*
X114656261Y-99443066D01*
X114569072Y-99566585D01*
X114538645Y-99652198D01*
X113858819Y-98972372D01*
X113825334Y-98911049D01*
X113822500Y-98884691D01*
X113822500Y-98747325D01*
X113811932Y-98694197D01*
X113807966Y-98674260D01*
X113752601Y-98591399D01*
X113669740Y-98536034D01*
X113669739Y-98536033D01*
X113669738Y-98536033D01*
X113596675Y-98521500D01*
X113596674Y-98521500D01*
X111447326Y-98521500D01*
X111447325Y-98521500D01*
X111374261Y-98536033D01*
X111291399Y-98591399D01*
X111236033Y-98674261D01*
X111221500Y-98747325D01*
X111221500Y-100896674D01*
X102398314Y-100896674D01*
X102507942Y-100829494D01*
X101771568Y-100093121D01*
X101888458Y-100042349D01*
X102005739Y-99946934D01*
X102092928Y-99823415D01*
X102123354Y-99737802D01*
X102861494Y-100475942D01*
X102985329Y-100273862D01*
X103078696Y-100048457D01*
X103135650Y-99811224D01*
X103154792Y-99568000D01*
X103135650Y-99324775D01*
X103078696Y-99087542D01*
X102985329Y-98862137D01*
X102861494Y-98660056D01*
X102125929Y-99395622D01*
X102123116Y-99382085D01*
X102053558Y-99247844D01*
X101950362Y-99137348D01*
X101821181Y-99058791D01*
X101769997Y-99044450D01*
X102507942Y-98306504D01*
X102305862Y-98182669D01*
X102080457Y-98089303D01*
X101843224Y-98032349D01*
X101600000Y-98013207D01*
X101356775Y-98032349D01*
X101119542Y-98089303D01*
X100894137Y-98182669D01*
X100692056Y-98306504D01*
X101428431Y-99042878D01*
X101311542Y-99093651D01*
X101194261Y-99189066D01*
X101107072Y-99312585D01*
X101076645Y-99398196D01*
X100396819Y-98718371D01*
X100363334Y-98657048D01*
X100360500Y-98630690D01*
X100360500Y-98493325D01*
X100345966Y-98420261D01*
X100345966Y-98420260D01*
X100290601Y-98337399D01*
X100207740Y-98282034D01*
X100207739Y-98282033D01*
X100207738Y-98282033D01*
X100134675Y-98267500D01*
X100134674Y-98267500D01*
X97985326Y-98267500D01*
X97985325Y-98267500D01*
X97912261Y-98282033D01*
X97829399Y-98337399D01*
X97774033Y-98420261D01*
X97759500Y-98493325D01*
X97759500Y-100642674D01*
X91907122Y-100642674D01*
X91357568Y-100093121D01*
X91474458Y-100042349D01*
X91591739Y-99946934D01*
X91678928Y-99823415D01*
X91709354Y-99737802D01*
X92447494Y-100475942D01*
X92571329Y-100273862D01*
X92664696Y-100048457D01*
X92721650Y-99811224D01*
X92740792Y-99567999D01*
X92721650Y-99324775D01*
X92664696Y-99087542D01*
X92571329Y-98862137D01*
X92447494Y-98660056D01*
X91711929Y-99395622D01*
X91709116Y-99382085D01*
X91639558Y-99247844D01*
X91536362Y-99137348D01*
X91407181Y-99058791D01*
X91355996Y-99044449D01*
X92093942Y-98306504D01*
X91891862Y-98182669D01*
X91666457Y-98089303D01*
X91429224Y-98032349D01*
X91186000Y-98013207D01*
X90942775Y-98032349D01*
X90705542Y-98089303D01*
X90480137Y-98182669D01*
X90278056Y-98306504D01*
X91014430Y-99042879D01*
X90897542Y-99093651D01*
X90780261Y-99189066D01*
X90693072Y-99312585D01*
X90662645Y-99398196D01*
X89982819Y-98718371D01*
X89949334Y-98657048D01*
X89946500Y-98630690D01*
X89946500Y-98493325D01*
X89931966Y-98420261D01*
X89931966Y-98420260D01*
X89876601Y-98337399D01*
X89793740Y-98282034D01*
X89793739Y-98282033D01*
X89793738Y-98282033D01*
X89720675Y-98267500D01*
X89720674Y-98267500D01*
X87571326Y-98267500D01*
X87571325Y-98267500D01*
X87498261Y-98282033D01*
X87415399Y-98337399D01*
X87360033Y-98420261D01*
X87345500Y-98493325D01*
X87345500Y-100642674D01*
X69088500Y-100642674D01*
X69088500Y-94742000D01*
X105878417Y-94742000D01*
X105898699Y-94947932D01*
X105898700Y-94947934D01*
X105958768Y-95145954D01*
X106056315Y-95328450D01*
X106097026Y-95378057D01*
X106187589Y-95488410D01*
X106256305Y-95544803D01*
X106347550Y-95619685D01*
X106530046Y-95717232D01*
X106728066Y-95777300D01*
X106934000Y-95797583D01*
X107139934Y-95777300D01*
X107337954Y-95717232D01*
X107520450Y-95619685D01*
X107680410Y-95488410D01*
X107811685Y-95328450D01*
X107909232Y-95145954D01*
X107969300Y-94947934D01*
X107989583Y-94742000D01*
X107969300Y-94536066D01*
X107909232Y-94338046D01*
X107811685Y-94155550D01*
X107746047Y-94075570D01*
X107680410Y-93995589D01*
X107582952Y-93915609D01*
X107520450Y-93864315D01*
X107337954Y-93766768D01*
X107238944Y-93736733D01*
X107139932Y-93706699D01*
X106956497Y-93688632D01*
X106934000Y-93686417D01*
X106933999Y-93686417D01*
X106728067Y-93706699D01*
X106530043Y-93766769D01*
X106347551Y-93864314D01*
X106187589Y-93995589D01*
X106056314Y-94155551D01*
X105958769Y-94338043D01*
X105898699Y-94536067D01*
X105878417Y-94742000D01*
X69088500Y-94742000D01*
X69088500Y-92314674D01*
X194479500Y-92314674D01*
X194494033Y-92387738D01*
X194494033Y-92387739D01*
X194494034Y-92387740D01*
X194549399Y-92470601D01*
X194632260Y-92525966D01*
X194668792Y-92533232D01*
X194705325Y-92540500D01*
X194705326Y-92540500D01*
X196454675Y-92540500D01*
X196479029Y-92535655D01*
X196527740Y-92525966D01*
X196610601Y-92470601D01*
X196665966Y-92387740D01*
X196680500Y-92314674D01*
X196680500Y-90565326D01*
X196665966Y-90492260D01*
X196610601Y-90409399D01*
X196527740Y-90354034D01*
X196527739Y-90354033D01*
X196527738Y-90354033D01*
X196454675Y-90339500D01*
X196454674Y-90339500D01*
X194705326Y-90339500D01*
X194705325Y-90339500D01*
X194632261Y-90354033D01*
X194549399Y-90409399D01*
X194494033Y-90492261D01*
X194479500Y-90565325D01*
X194479500Y-92314674D01*
X69088500Y-92314674D01*
X69088500Y-89774674D01*
X82973500Y-89774674D01*
X82988033Y-89847738D01*
X82988033Y-89847739D01*
X82988034Y-89847740D01*
X83043399Y-89930601D01*
X83126260Y-89985966D01*
X83162792Y-89993233D01*
X83199325Y-90000500D01*
X83199326Y-90000500D01*
X84948675Y-90000500D01*
X84973029Y-89995655D01*
X85021740Y-89985966D01*
X85104601Y-89930601D01*
X85159966Y-89847740D01*
X85174500Y-89774674D01*
X85174500Y-88899999D01*
X85558417Y-88899999D01*
X85578699Y-89105932D01*
X85608734Y-89204944D01*
X85637341Y-89299251D01*
X85638769Y-89303956D01*
X85681917Y-89384680D01*
X85736315Y-89486450D01*
X85787608Y-89548952D01*
X85867589Y-89646410D01*
X85947569Y-89712047D01*
X86027550Y-89777685D01*
X86210046Y-89875232D01*
X86408066Y-89935300D01*
X86614000Y-89955583D01*
X86819934Y-89935300D01*
X87017954Y-89875232D01*
X87200450Y-89777685D01*
X87360410Y-89646410D01*
X87491685Y-89486450D01*
X87589232Y-89303954D01*
X87649300Y-89105934D01*
X87669583Y-88900000D01*
X87669583Y-88899999D01*
X88098417Y-88899999D01*
X88118699Y-89105932D01*
X88148734Y-89204944D01*
X88177341Y-89299251D01*
X88178769Y-89303956D01*
X88221917Y-89384680D01*
X88276315Y-89486450D01*
X88327608Y-89548952D01*
X88407589Y-89646410D01*
X88487569Y-89712047D01*
X88567550Y-89777685D01*
X88750046Y-89875232D01*
X88948066Y-89935300D01*
X89154000Y-89955583D01*
X89359934Y-89935300D01*
X89557954Y-89875232D01*
X89740450Y-89777685D01*
X89900410Y-89646410D01*
X90031685Y-89486450D01*
X90129232Y-89303954D01*
X90189300Y-89105934D01*
X90209583Y-88900000D01*
X90209583Y-88899999D01*
X90638417Y-88899999D01*
X90658699Y-89105932D01*
X90688734Y-89204944D01*
X90717341Y-89299251D01*
X90718769Y-89303956D01*
X90761917Y-89384680D01*
X90816315Y-89486450D01*
X90867608Y-89548952D01*
X90947589Y-89646410D01*
X91027569Y-89712047D01*
X91107550Y-89777685D01*
X91290046Y-89875232D01*
X91488066Y-89935300D01*
X91694000Y-89955583D01*
X91899934Y-89935300D01*
X92097954Y-89875232D01*
X92280450Y-89777685D01*
X92440410Y-89646410D01*
X92571685Y-89486450D01*
X92669232Y-89303954D01*
X92729300Y-89105934D01*
X92749583Y-88900000D01*
X93178417Y-88900000D01*
X93198699Y-89105932D01*
X93228734Y-89204944D01*
X93257341Y-89299251D01*
X93258769Y-89303956D01*
X93301917Y-89384680D01*
X93356315Y-89486450D01*
X93407608Y-89548952D01*
X93487589Y-89646410D01*
X93567569Y-89712047D01*
X93647550Y-89777685D01*
X93830046Y-89875232D01*
X94028066Y-89935300D01*
X94234000Y-89955583D01*
X94439934Y-89935300D01*
X94637954Y-89875232D01*
X94820450Y-89777685D01*
X94980410Y-89646410D01*
X95111685Y-89486450D01*
X95209232Y-89303954D01*
X95269300Y-89105934D01*
X95289583Y-88900000D01*
X95718417Y-88900000D01*
X95738699Y-89105932D01*
X95768734Y-89204944D01*
X95797341Y-89299251D01*
X95798769Y-89303956D01*
X95841917Y-89384680D01*
X95896315Y-89486450D01*
X95947608Y-89548952D01*
X96027589Y-89646410D01*
X96107570Y-89712047D01*
X96187550Y-89777685D01*
X96370046Y-89875232D01*
X96568066Y-89935300D01*
X96774000Y-89955583D01*
X96979934Y-89935300D01*
X97177954Y-89875232D01*
X97360450Y-89777685D01*
X97520410Y-89646410D01*
X97651685Y-89486450D01*
X97749232Y-89303954D01*
X97809300Y-89105934D01*
X97829583Y-88900000D01*
X98258417Y-88900000D01*
X98278699Y-89105932D01*
X98308734Y-89204944D01*
X98337341Y-89299251D01*
X98338769Y-89303956D01*
X98381917Y-89384680D01*
X98436315Y-89486450D01*
X98487608Y-89548952D01*
X98567589Y-89646410D01*
X98647570Y-89712047D01*
X98727550Y-89777685D01*
X98910046Y-89875232D01*
X99108066Y-89935300D01*
X99314000Y-89955583D01*
X99519934Y-89935300D01*
X99717954Y-89875232D01*
X99900450Y-89777685D01*
X100060410Y-89646410D01*
X100191685Y-89486450D01*
X100289232Y-89303954D01*
X100349300Y-89105934D01*
X100369583Y-88900000D01*
X100369583Y-88899999D01*
X100798417Y-88899999D01*
X100818699Y-89105932D01*
X100848734Y-89204944D01*
X100877341Y-89299251D01*
X100878769Y-89303956D01*
X100921917Y-89384680D01*
X100976315Y-89486450D01*
X101027609Y-89548952D01*
X101107589Y-89646410D01*
X101187570Y-89712047D01*
X101267550Y-89777685D01*
X101450046Y-89875232D01*
X101648066Y-89935300D01*
X101854000Y-89955583D01*
X102059934Y-89935300D01*
X102257954Y-89875232D01*
X102440450Y-89777685D01*
X102600410Y-89646410D01*
X102731685Y-89486450D01*
X102829232Y-89303954D01*
X102889300Y-89105934D01*
X102909583Y-88900000D01*
X102909583Y-88899999D01*
X103338417Y-88899999D01*
X103358699Y-89105932D01*
X103388734Y-89204944D01*
X103417341Y-89299251D01*
X103418769Y-89303956D01*
X103461917Y-89384680D01*
X103516315Y-89486450D01*
X103567609Y-89548952D01*
X103647589Y-89646410D01*
X103727570Y-89712047D01*
X103807550Y-89777685D01*
X103990046Y-89875232D01*
X104188066Y-89935300D01*
X104394000Y-89955583D01*
X104599934Y-89935300D01*
X104797954Y-89875232D01*
X104980450Y-89777685D01*
X105140410Y-89646410D01*
X105271685Y-89486450D01*
X105369232Y-89303954D01*
X105429300Y-89105934D01*
X105449583Y-88900000D01*
X105449583Y-88899999D01*
X105878417Y-88899999D01*
X105898699Y-89105932D01*
X105928734Y-89204944D01*
X105957341Y-89299251D01*
X105958769Y-89303956D01*
X106001917Y-89384680D01*
X106056315Y-89486450D01*
X106107609Y-89548952D01*
X106187589Y-89646410D01*
X106267569Y-89712047D01*
X106347550Y-89777685D01*
X106530046Y-89875232D01*
X106728066Y-89935300D01*
X106934000Y-89955583D01*
X107139934Y-89935300D01*
X107337954Y-89875232D01*
X107520450Y-89777685D01*
X107680410Y-89646410D01*
X107811685Y-89486450D01*
X107909232Y-89303954D01*
X107969300Y-89105934D01*
X107989583Y-88900000D01*
X107989583Y-88899999D01*
X108418417Y-88899999D01*
X108438699Y-89105932D01*
X108468734Y-89204944D01*
X108497341Y-89299251D01*
X108498769Y-89303956D01*
X108541917Y-89384680D01*
X108596315Y-89486450D01*
X108647609Y-89548952D01*
X108727589Y-89646410D01*
X108807570Y-89712047D01*
X108887550Y-89777685D01*
X109070046Y-89875232D01*
X109268066Y-89935300D01*
X109474000Y-89955583D01*
X109679934Y-89935300D01*
X109877954Y-89875232D01*
X110060450Y-89777685D01*
X110220410Y-89646410D01*
X110351685Y-89486450D01*
X110449232Y-89303954D01*
X110509300Y-89105934D01*
X110529583Y-88900000D01*
X110529583Y-88899999D01*
X110958417Y-88899999D01*
X110978699Y-89105932D01*
X111008734Y-89204944D01*
X111037341Y-89299251D01*
X111038769Y-89303956D01*
X111081917Y-89384680D01*
X111136315Y-89486450D01*
X111187609Y-89548952D01*
X111267589Y-89646410D01*
X111347569Y-89712047D01*
X111427550Y-89777685D01*
X111610046Y-89875232D01*
X111808066Y-89935300D01*
X112014000Y-89955583D01*
X112219934Y-89935300D01*
X112417954Y-89875232D01*
X112600450Y-89777685D01*
X112760410Y-89646410D01*
X112891685Y-89486450D01*
X112989232Y-89303954D01*
X113049300Y-89105934D01*
X113069583Y-88900000D01*
X113069583Y-88899999D01*
X113498417Y-88899999D01*
X113518699Y-89105932D01*
X113548734Y-89204944D01*
X113577341Y-89299251D01*
X113578769Y-89303956D01*
X113621917Y-89384680D01*
X113676315Y-89486450D01*
X113727609Y-89548952D01*
X113807589Y-89646410D01*
X113887570Y-89712047D01*
X113967550Y-89777685D01*
X114150046Y-89875232D01*
X114348066Y-89935300D01*
X114554000Y-89955583D01*
X114759934Y-89935300D01*
X114957954Y-89875232D01*
X115140450Y-89777685D01*
X115300410Y-89646410D01*
X115431685Y-89486450D01*
X115529232Y-89303954D01*
X115589300Y-89105934D01*
X115609583Y-88900000D01*
X115609583Y-88899999D01*
X116038417Y-88899999D01*
X116058699Y-89105932D01*
X116088734Y-89204944D01*
X116117341Y-89299251D01*
X116118769Y-89303956D01*
X116161917Y-89384680D01*
X116216315Y-89486450D01*
X116267609Y-89548952D01*
X116347589Y-89646410D01*
X116427570Y-89712047D01*
X116507550Y-89777685D01*
X116690046Y-89875232D01*
X116888066Y-89935300D01*
X117094000Y-89955583D01*
X117299934Y-89935300D01*
X117497954Y-89875232D01*
X117680450Y-89777685D01*
X117840410Y-89646410D01*
X117971685Y-89486450D01*
X118069232Y-89303954D01*
X118129300Y-89105934D01*
X118149583Y-88900000D01*
X118578417Y-88900000D01*
X118598699Y-89105932D01*
X118628734Y-89204944D01*
X118657341Y-89299251D01*
X118658769Y-89303956D01*
X118701917Y-89384680D01*
X118756315Y-89486450D01*
X118807609Y-89548952D01*
X118887589Y-89646410D01*
X118967570Y-89712047D01*
X119047550Y-89777685D01*
X119230046Y-89875232D01*
X119428066Y-89935300D01*
X119634000Y-89955583D01*
X119839934Y-89935300D01*
X120037954Y-89875232D01*
X120220450Y-89777685D01*
X120380410Y-89646410D01*
X120511685Y-89486450D01*
X120609232Y-89303954D01*
X120669300Y-89105934D01*
X120689583Y-88900000D01*
X120689583Y-88899999D01*
X121118417Y-88899999D01*
X121138699Y-89105932D01*
X121168734Y-89204944D01*
X121197341Y-89299251D01*
X121198769Y-89303956D01*
X121241917Y-89384680D01*
X121296315Y-89486450D01*
X121347609Y-89548952D01*
X121427589Y-89646410D01*
X121507570Y-89712047D01*
X121587550Y-89777685D01*
X121770046Y-89875232D01*
X121968066Y-89935300D01*
X122174000Y-89955583D01*
X122379934Y-89935300D01*
X122577954Y-89875232D01*
X122760450Y-89777685D01*
X122920410Y-89646410D01*
X123051685Y-89486450D01*
X123149232Y-89303954D01*
X123209300Y-89105934D01*
X123229583Y-88900000D01*
X123229583Y-88899999D01*
X123658417Y-88899999D01*
X123678699Y-89105932D01*
X123708734Y-89204944D01*
X123737341Y-89299251D01*
X123738769Y-89303956D01*
X123781917Y-89384680D01*
X123836315Y-89486450D01*
X123887609Y-89548952D01*
X123967589Y-89646410D01*
X124047569Y-89712047D01*
X124127550Y-89777685D01*
X124310046Y-89875232D01*
X124508066Y-89935300D01*
X124714000Y-89955583D01*
X124919934Y-89935300D01*
X125117954Y-89875232D01*
X125300450Y-89777685D01*
X125460410Y-89646410D01*
X125591685Y-89486450D01*
X125689232Y-89303954D01*
X125749300Y-89105934D01*
X125769583Y-88900000D01*
X125769583Y-88899999D01*
X126198417Y-88899999D01*
X126218699Y-89105932D01*
X126248733Y-89204944D01*
X126277341Y-89299251D01*
X126278769Y-89303956D01*
X126321917Y-89384680D01*
X126376315Y-89486450D01*
X126427609Y-89548952D01*
X126507589Y-89646410D01*
X126587569Y-89712047D01*
X126667550Y-89777685D01*
X126850046Y-89875232D01*
X127048066Y-89935300D01*
X127254000Y-89955583D01*
X127459934Y-89935300D01*
X127657954Y-89875232D01*
X127840450Y-89777685D01*
X128000410Y-89646410D01*
X128131685Y-89486450D01*
X128229232Y-89303954D01*
X128276892Y-89146837D01*
X128315187Y-89088402D01*
X128378999Y-89059946D01*
X128448067Y-89070506D01*
X128500460Y-89116730D01*
X128515326Y-89150742D01*
X128567733Y-89346326D01*
X128663866Y-89552484D01*
X128714972Y-89625471D01*
X128714974Y-89625472D01*
X129310922Y-89029523D01*
X129334507Y-89109844D01*
X129412239Y-89230798D01*
X129520900Y-89324952D01*
X129651685Y-89384680D01*
X129661466Y-89386086D01*
X129068526Y-89979025D01*
X129068526Y-89979026D01*
X129141515Y-90030133D01*
X129347673Y-90126266D01*
X129567397Y-90185141D01*
X129794000Y-90204966D01*
X130020602Y-90185141D01*
X130240326Y-90126266D01*
X130446480Y-90030134D01*
X130519472Y-89979025D01*
X129926534Y-89386086D01*
X129936315Y-89384680D01*
X130067100Y-89324952D01*
X130175761Y-89230798D01*
X130253493Y-89109844D01*
X130277076Y-89029523D01*
X130873025Y-89625472D01*
X130924134Y-89552480D01*
X131020266Y-89346325D01*
X131072673Y-89150743D01*
X131109038Y-89091082D01*
X131171885Y-89060553D01*
X131241261Y-89068848D01*
X131295138Y-89113333D01*
X131311108Y-89146840D01*
X131357341Y-89299251D01*
X131358769Y-89303956D01*
X131401917Y-89384680D01*
X131456315Y-89486450D01*
X131507608Y-89548952D01*
X131587589Y-89646410D01*
X131667569Y-89712047D01*
X131747550Y-89777685D01*
X131930046Y-89875232D01*
X132128066Y-89935300D01*
X132334000Y-89955583D01*
X132539934Y-89935300D01*
X132737954Y-89875232D01*
X132920450Y-89777685D01*
X133080410Y-89646410D01*
X133211685Y-89486450D01*
X133309232Y-89303954D01*
X133369300Y-89105934D01*
X133389583Y-88900000D01*
X133369300Y-88694066D01*
X133309232Y-88496046D01*
X133211685Y-88313550D01*
X133146047Y-88233569D01*
X133080410Y-88153589D01*
X132962303Y-88056663D01*
X132920450Y-88022315D01*
X132789389Y-87952261D01*
X132737956Y-87924769D01*
X132737955Y-87924768D01*
X132737954Y-87924768D01*
X132638944Y-87894733D01*
X132539932Y-87864699D01*
X132334000Y-87844417D01*
X132128067Y-87864699D01*
X131930043Y-87924769D01*
X131747551Y-88022314D01*
X131587589Y-88153589D01*
X131456314Y-88313551D01*
X131381417Y-88453673D01*
X131358768Y-88496046D01*
X131352936Y-88515273D01*
X131311109Y-88653159D01*
X131272811Y-88711597D01*
X131208999Y-88740054D01*
X131139932Y-88729493D01*
X131087538Y-88683269D01*
X131072673Y-88649257D01*
X131020266Y-88453672D01*
X130924133Y-88247515D01*
X130873025Y-88174526D01*
X130277076Y-88770475D01*
X130253493Y-88690156D01*
X130175761Y-88569202D01*
X130067100Y-88475048D01*
X129936315Y-88415320D01*
X129926533Y-88413913D01*
X130519472Y-87820974D01*
X130519471Y-87820972D01*
X130446484Y-87769866D01*
X130240326Y-87673733D01*
X130020602Y-87614858D01*
X129794000Y-87595033D01*
X129567397Y-87614858D01*
X129347672Y-87673733D01*
X129141516Y-87769865D01*
X129068527Y-87820973D01*
X129068526Y-87820973D01*
X129661467Y-88413913D01*
X129651685Y-88415320D01*
X129520900Y-88475048D01*
X129412239Y-88569202D01*
X129334507Y-88690156D01*
X129310923Y-88770476D01*
X128714973Y-88174526D01*
X128714973Y-88174527D01*
X128663865Y-88247516D01*
X128567733Y-88453673D01*
X128515326Y-88649257D01*
X128478960Y-88708917D01*
X128416113Y-88739446D01*
X128346738Y-88731151D01*
X128292860Y-88686665D01*
X128276892Y-88653162D01*
X128229232Y-88496046D01*
X128131685Y-88313550D01*
X128066047Y-88233569D01*
X128000410Y-88153589D01*
X127882303Y-88056663D01*
X127840450Y-88022315D01*
X127709389Y-87952261D01*
X127657956Y-87924769D01*
X127657955Y-87924768D01*
X127657954Y-87924768D01*
X127558944Y-87894733D01*
X127459932Y-87864699D01*
X127254000Y-87844417D01*
X127048067Y-87864699D01*
X126850043Y-87924769D01*
X126667551Y-88022314D01*
X126507589Y-88153589D01*
X126376314Y-88313551D01*
X126278769Y-88496043D01*
X126218699Y-88694067D01*
X126198417Y-88899999D01*
X125769583Y-88899999D01*
X125749300Y-88694066D01*
X125689232Y-88496046D01*
X125591685Y-88313550D01*
X125526047Y-88233569D01*
X125460410Y-88153589D01*
X125342303Y-88056663D01*
X125300450Y-88022315D01*
X125169389Y-87952261D01*
X125117956Y-87924769D01*
X125117955Y-87924768D01*
X125117954Y-87924768D01*
X125018944Y-87894733D01*
X124919932Y-87864699D01*
X124714000Y-87844417D01*
X124508067Y-87864699D01*
X124310043Y-87924769D01*
X124127551Y-88022314D01*
X123967589Y-88153589D01*
X123836314Y-88313551D01*
X123738769Y-88496043D01*
X123678699Y-88694067D01*
X123658417Y-88899999D01*
X123229583Y-88899999D01*
X123209300Y-88694066D01*
X123149232Y-88496046D01*
X123051685Y-88313550D01*
X122986047Y-88233569D01*
X122920410Y-88153589D01*
X122802303Y-88056663D01*
X122760450Y-88022315D01*
X122629389Y-87952261D01*
X122577956Y-87924769D01*
X122577955Y-87924768D01*
X122577954Y-87924768D01*
X122478944Y-87894733D01*
X122379932Y-87864699D01*
X122196497Y-87846632D01*
X122174000Y-87844417D01*
X122173999Y-87844417D01*
X121968067Y-87864699D01*
X121770043Y-87924769D01*
X121587551Y-88022314D01*
X121427589Y-88153589D01*
X121296314Y-88313551D01*
X121198769Y-88496043D01*
X121138699Y-88694067D01*
X121118417Y-88899999D01*
X120689583Y-88899999D01*
X120669300Y-88694066D01*
X120609232Y-88496046D01*
X120511685Y-88313550D01*
X120446047Y-88233569D01*
X120380410Y-88153589D01*
X120262303Y-88056663D01*
X120220450Y-88022315D01*
X120089389Y-87952261D01*
X120037956Y-87924769D01*
X120037955Y-87924768D01*
X120037954Y-87924768D01*
X119938944Y-87894733D01*
X119839932Y-87864699D01*
X119634000Y-87844417D01*
X119428067Y-87864699D01*
X119230043Y-87924769D01*
X119047551Y-88022314D01*
X118887589Y-88153589D01*
X118756314Y-88313551D01*
X118658769Y-88496043D01*
X118598699Y-88694067D01*
X118578417Y-88900000D01*
X118149583Y-88900000D01*
X118129300Y-88694066D01*
X118069232Y-88496046D01*
X117971685Y-88313550D01*
X117906047Y-88233569D01*
X117840410Y-88153589D01*
X117722303Y-88056663D01*
X117680450Y-88022315D01*
X117549389Y-87952261D01*
X117497956Y-87924769D01*
X117497955Y-87924768D01*
X117497954Y-87924768D01*
X117398944Y-87894733D01*
X117299932Y-87864699D01*
X117094000Y-87844417D01*
X116888067Y-87864699D01*
X116690043Y-87924769D01*
X116507551Y-88022314D01*
X116347589Y-88153589D01*
X116216314Y-88313551D01*
X116118769Y-88496043D01*
X116058699Y-88694067D01*
X116038417Y-88899999D01*
X115609583Y-88899999D01*
X115589300Y-88694066D01*
X115529232Y-88496046D01*
X115431685Y-88313550D01*
X115366047Y-88233570D01*
X115300410Y-88153589D01*
X115182303Y-88056663D01*
X115140450Y-88022315D01*
X115009389Y-87952261D01*
X114957956Y-87924769D01*
X114957955Y-87924768D01*
X114957954Y-87924768D01*
X114858944Y-87894733D01*
X114759932Y-87864699D01*
X114576497Y-87846632D01*
X114554000Y-87844417D01*
X114553999Y-87844417D01*
X114348067Y-87864699D01*
X114150043Y-87924769D01*
X113967551Y-88022314D01*
X113807589Y-88153589D01*
X113676314Y-88313551D01*
X113578769Y-88496043D01*
X113518699Y-88694067D01*
X113498417Y-88899999D01*
X113069583Y-88899999D01*
X113049300Y-88694066D01*
X112989232Y-88496046D01*
X112891685Y-88313550D01*
X112826047Y-88233570D01*
X112760410Y-88153589D01*
X112642303Y-88056663D01*
X112600450Y-88022315D01*
X112469389Y-87952261D01*
X112417956Y-87924769D01*
X112417955Y-87924768D01*
X112417954Y-87924768D01*
X112318944Y-87894733D01*
X112219932Y-87864699D01*
X112036497Y-87846632D01*
X112014000Y-87844417D01*
X112013999Y-87844417D01*
X111808067Y-87864699D01*
X111610043Y-87924769D01*
X111427551Y-88022314D01*
X111267589Y-88153589D01*
X111136314Y-88313551D01*
X111038769Y-88496043D01*
X110978699Y-88694067D01*
X110958417Y-88899999D01*
X110529583Y-88899999D01*
X110509300Y-88694066D01*
X110449232Y-88496046D01*
X110351685Y-88313550D01*
X110286047Y-88233570D01*
X110220410Y-88153589D01*
X110102303Y-88056663D01*
X110060450Y-88022315D01*
X109929389Y-87952261D01*
X109877956Y-87924769D01*
X109877955Y-87924768D01*
X109877954Y-87924768D01*
X109778944Y-87894733D01*
X109679932Y-87864699D01*
X109474000Y-87844417D01*
X109268067Y-87864699D01*
X109070043Y-87924769D01*
X108887551Y-88022314D01*
X108727589Y-88153589D01*
X108596314Y-88313551D01*
X108498769Y-88496043D01*
X108438699Y-88694067D01*
X108418417Y-88899999D01*
X107989583Y-88899999D01*
X107969300Y-88694066D01*
X107909232Y-88496046D01*
X107811685Y-88313550D01*
X107746047Y-88233570D01*
X107680410Y-88153589D01*
X107562303Y-88056663D01*
X107520450Y-88022315D01*
X107389389Y-87952261D01*
X107337956Y-87924769D01*
X107337955Y-87924768D01*
X107337954Y-87924768D01*
X107238944Y-87894733D01*
X107139932Y-87864699D01*
X106956497Y-87846632D01*
X106934000Y-87844417D01*
X106933999Y-87844417D01*
X106728067Y-87864699D01*
X106530043Y-87924769D01*
X106347551Y-88022314D01*
X106187589Y-88153589D01*
X106056314Y-88313551D01*
X105958769Y-88496043D01*
X105898699Y-88694067D01*
X105878417Y-88899999D01*
X105449583Y-88899999D01*
X105429300Y-88694066D01*
X105369232Y-88496046D01*
X105271685Y-88313550D01*
X105206047Y-88233570D01*
X105140410Y-88153589D01*
X105022303Y-88056663D01*
X104980450Y-88022315D01*
X104849389Y-87952261D01*
X104797956Y-87924769D01*
X104797955Y-87924768D01*
X104797954Y-87924768D01*
X104698944Y-87894733D01*
X104599932Y-87864699D01*
X104416497Y-87846632D01*
X104394000Y-87844417D01*
X104393999Y-87844417D01*
X104188067Y-87864699D01*
X103990043Y-87924769D01*
X103807551Y-88022314D01*
X103647589Y-88153589D01*
X103516314Y-88313551D01*
X103418769Y-88496043D01*
X103358699Y-88694067D01*
X103338417Y-88899999D01*
X102909583Y-88899999D01*
X102889300Y-88694066D01*
X102829232Y-88496046D01*
X102731685Y-88313550D01*
X102666047Y-88233570D01*
X102600410Y-88153589D01*
X102482303Y-88056663D01*
X102440450Y-88022315D01*
X102309389Y-87952261D01*
X102257956Y-87924769D01*
X102257955Y-87924768D01*
X102257954Y-87924768D01*
X102158944Y-87894733D01*
X102059932Y-87864699D01*
X101854000Y-87844417D01*
X101648067Y-87864699D01*
X101450043Y-87924769D01*
X101267551Y-88022314D01*
X101107589Y-88153589D01*
X100976314Y-88313551D01*
X100878769Y-88496043D01*
X100818699Y-88694067D01*
X100798417Y-88899999D01*
X100369583Y-88899999D01*
X100349300Y-88694066D01*
X100289232Y-88496046D01*
X100191685Y-88313550D01*
X100126047Y-88233570D01*
X100060410Y-88153589D01*
X99942303Y-88056663D01*
X99900450Y-88022315D01*
X99769389Y-87952261D01*
X99717956Y-87924769D01*
X99717955Y-87924768D01*
X99717954Y-87924768D01*
X99618944Y-87894733D01*
X99519932Y-87864699D01*
X99314000Y-87844417D01*
X99108067Y-87864699D01*
X98910043Y-87924769D01*
X98727551Y-88022314D01*
X98567589Y-88153589D01*
X98436314Y-88313551D01*
X98338769Y-88496043D01*
X98278699Y-88694067D01*
X98258417Y-88900000D01*
X97829583Y-88900000D01*
X97809300Y-88694066D01*
X97749232Y-88496046D01*
X97651685Y-88313550D01*
X97586047Y-88233570D01*
X97520410Y-88153589D01*
X97402303Y-88056663D01*
X97360450Y-88022315D01*
X97229389Y-87952261D01*
X97177956Y-87924769D01*
X97177955Y-87924768D01*
X97177954Y-87924768D01*
X97078944Y-87894733D01*
X96979932Y-87864699D01*
X96796497Y-87846632D01*
X96774000Y-87844417D01*
X96773999Y-87844417D01*
X96568067Y-87864699D01*
X96370043Y-87924769D01*
X96187551Y-88022314D01*
X96027589Y-88153589D01*
X95896314Y-88313551D01*
X95798769Y-88496043D01*
X95738699Y-88694067D01*
X95718417Y-88900000D01*
X95289583Y-88900000D01*
X95269300Y-88694066D01*
X95209232Y-88496046D01*
X95111685Y-88313550D01*
X95046047Y-88233570D01*
X94980410Y-88153589D01*
X94862303Y-88056663D01*
X94820450Y-88022315D01*
X94689389Y-87952261D01*
X94637956Y-87924769D01*
X94637955Y-87924768D01*
X94637954Y-87924768D01*
X94538944Y-87894733D01*
X94439932Y-87864699D01*
X94234000Y-87844417D01*
X94028067Y-87864699D01*
X93830043Y-87924769D01*
X93647551Y-88022314D01*
X93487589Y-88153589D01*
X93356314Y-88313551D01*
X93258769Y-88496043D01*
X93198699Y-88694067D01*
X93178417Y-88900000D01*
X92749583Y-88900000D01*
X92729300Y-88694066D01*
X92669232Y-88496046D01*
X92571685Y-88313550D01*
X92506047Y-88233570D01*
X92440410Y-88153589D01*
X92322303Y-88056663D01*
X92280450Y-88022315D01*
X92149389Y-87952261D01*
X92097956Y-87924769D01*
X92097955Y-87924768D01*
X92097954Y-87924768D01*
X91998944Y-87894733D01*
X91899932Y-87864699D01*
X91694000Y-87844417D01*
X91488067Y-87864699D01*
X91290043Y-87924769D01*
X91107551Y-88022314D01*
X90947589Y-88153589D01*
X90816314Y-88313551D01*
X90718769Y-88496043D01*
X90658699Y-88694067D01*
X90638417Y-88899999D01*
X90209583Y-88899999D01*
X90189300Y-88694066D01*
X90129232Y-88496046D01*
X90031685Y-88313550D01*
X89966047Y-88233570D01*
X89900410Y-88153589D01*
X89782303Y-88056663D01*
X89740450Y-88022315D01*
X89609389Y-87952261D01*
X89557956Y-87924769D01*
X89557955Y-87924768D01*
X89557954Y-87924768D01*
X89458944Y-87894733D01*
X89359932Y-87864699D01*
X89154000Y-87844417D01*
X88948067Y-87864699D01*
X88750043Y-87924769D01*
X88567551Y-88022314D01*
X88407589Y-88153589D01*
X88276314Y-88313551D01*
X88178769Y-88496043D01*
X88118699Y-88694067D01*
X88098417Y-88899999D01*
X87669583Y-88899999D01*
X87649300Y-88694066D01*
X87589232Y-88496046D01*
X87491685Y-88313550D01*
X87426047Y-88233570D01*
X87360410Y-88153589D01*
X87242303Y-88056663D01*
X87200450Y-88022315D01*
X87069389Y-87952261D01*
X87017956Y-87924769D01*
X87017955Y-87924768D01*
X87017954Y-87924768D01*
X86918944Y-87894733D01*
X86819932Y-87864699D01*
X86614000Y-87844417D01*
X86408067Y-87864699D01*
X86210043Y-87924769D01*
X86027551Y-88022314D01*
X85867589Y-88153589D01*
X85736314Y-88313551D01*
X85638769Y-88496043D01*
X85578699Y-88694067D01*
X85558417Y-88899999D01*
X85174500Y-88899999D01*
X85174500Y-88025326D01*
X85159966Y-87952260D01*
X85104601Y-87869399D01*
X85021740Y-87814034D01*
X85021739Y-87814033D01*
X85021738Y-87814033D01*
X84948675Y-87799500D01*
X84948674Y-87799500D01*
X83199326Y-87799500D01*
X83199325Y-87799500D01*
X83126261Y-87814033D01*
X83043399Y-87869399D01*
X82988033Y-87952261D01*
X82973500Y-88025325D01*
X82973500Y-89774674D01*
X69088500Y-89774674D01*
X69088500Y-85598000D01*
X100848659Y-85598000D01*
X100867976Y-85794133D01*
X100925185Y-85982726D01*
X100963754Y-86054883D01*
X101018090Y-86156538D01*
X101143117Y-86308883D01*
X101295462Y-86433910D01*
X101469273Y-86526814D01*
X101657868Y-86584024D01*
X101854000Y-86603341D01*
X102050132Y-86584024D01*
X102238727Y-86526814D01*
X102412538Y-86433910D01*
X102564883Y-86308883D01*
X102689910Y-86156538D01*
X102782814Y-85982727D01*
X102840024Y-85794132D01*
X102859341Y-85598000D01*
X102840024Y-85401868D01*
X102782814Y-85213273D01*
X102689910Y-85039462D01*
X102564883Y-84887117D01*
X102412538Y-84762090D01*
X102412537Y-84762089D01*
X102398644Y-84754663D01*
X102348801Y-84705699D01*
X102333100Y-84645306D01*
X102333100Y-79784593D01*
X102352785Y-79717554D01*
X102398647Y-79675235D01*
X102402324Y-79673269D01*
X102412538Y-79667810D01*
X102564883Y-79542783D01*
X102689910Y-79390438D01*
X102782814Y-79216627D01*
X102840024Y-79028032D01*
X102859341Y-78831900D01*
X102840024Y-78635768D01*
X102794592Y-78486000D01*
X104404659Y-78486000D01*
X104423976Y-78682133D01*
X104481185Y-78870726D01*
X104509679Y-78924034D01*
X104574090Y-79044538D01*
X104699117Y-79196883D01*
X104851462Y-79321910D01*
X105025273Y-79414814D01*
X105213868Y-79472024D01*
X105410000Y-79491341D01*
X105606132Y-79472024D01*
X105794727Y-79414814D01*
X105968538Y-79321910D01*
X106080392Y-79230113D01*
X106144699Y-79202801D01*
X106213567Y-79214592D01*
X106246736Y-79238286D01*
X112271568Y-85263118D01*
X112305053Y-85324441D01*
X112302549Y-85386791D01*
X112297975Y-85401867D01*
X112278659Y-85598000D01*
X112297976Y-85794133D01*
X112355185Y-85982726D01*
X112393754Y-86054883D01*
X112448090Y-86156538D01*
X112573117Y-86308883D01*
X112725462Y-86433910D01*
X112899273Y-86526814D01*
X113087868Y-86584024D01*
X113284000Y-86603341D01*
X113480132Y-86584024D01*
X113668727Y-86526814D01*
X113842538Y-86433910D01*
X113994883Y-86308883D01*
X114119910Y-86156538D01*
X114212814Y-85982727D01*
X114270024Y-85794132D01*
X114289341Y-85598000D01*
X114270024Y-85401868D01*
X114212814Y-85213273D01*
X114119910Y-85039462D01*
X113994883Y-84887117D01*
X113842538Y-84762090D01*
X113737038Y-84705699D01*
X113668726Y-84669185D01*
X113480133Y-84611976D01*
X113284000Y-84592659D01*
X113087867Y-84611975D01*
X113072791Y-84616549D01*
X113002924Y-84617170D01*
X112949118Y-84585568D01*
X107195450Y-78831900D01*
X109230659Y-78831900D01*
X109249976Y-79028033D01*
X109307185Y-79216626D01*
X109307186Y-79216627D01*
X109400090Y-79390438D01*
X109525117Y-79542783D01*
X109677462Y-79667810D01*
X109689365Y-79674172D01*
X109694956Y-79677161D01*
X109744801Y-79726123D01*
X109760187Y-79777671D01*
X109763035Y-79817488D01*
X109764449Y-79821280D01*
X109771001Y-79846951D01*
X109771578Y-79850967D01*
X109791246Y-79894033D01*
X109794634Y-79902212D01*
X109811178Y-79946570D01*
X109813607Y-79949815D01*
X109827131Y-79972607D01*
X109828811Y-79976285D01*
X109859808Y-80012057D01*
X109865360Y-80018947D01*
X109872992Y-80029142D01*
X109881990Y-80038140D01*
X109888021Y-80044617D01*
X109919030Y-80080403D01*
X109922433Y-80082590D01*
X109943074Y-80099224D01*
X114852968Y-85009118D01*
X114886453Y-85070441D01*
X114883949Y-85132791D01*
X114879375Y-85147867D01*
X114860059Y-85344000D01*
X114879376Y-85540133D01*
X114936585Y-85728726D01*
X114971546Y-85794133D01*
X115029490Y-85902538D01*
X115154517Y-86054883D01*
X115306862Y-86179910D01*
X115480673Y-86272814D01*
X115669268Y-86330024D01*
X115865400Y-86349341D01*
X116061532Y-86330024D01*
X116250127Y-86272814D01*
X116423938Y-86179910D01*
X116576283Y-86054883D01*
X116701310Y-85902538D01*
X116794214Y-85728727D01*
X116851424Y-85540132D01*
X116870741Y-85344000D01*
X116851424Y-85147868D01*
X116794214Y-84959273D01*
X116701310Y-84785462D01*
X116576283Y-84633117D01*
X116423938Y-84508090D01*
X116401491Y-84496092D01*
X116250126Y-84415185D01*
X116061533Y-84357976D01*
X115963466Y-84348317D01*
X115865400Y-84338659D01*
X115865399Y-84338659D01*
X115669267Y-84357975D01*
X115654191Y-84362549D01*
X115584324Y-84363170D01*
X115530518Y-84331568D01*
X110930946Y-79731996D01*
X110897461Y-79670673D01*
X110902445Y-79600981D01*
X110939963Y-79548461D01*
X110946883Y-79542783D01*
X111071910Y-79390438D01*
X111164814Y-79216627D01*
X111222024Y-79028032D01*
X111241341Y-78831900D01*
X111222024Y-78635768D01*
X111164814Y-78447173D01*
X111071910Y-78273362D01*
X110946883Y-78121017D01*
X110794538Y-77995990D01*
X110759564Y-77977296D01*
X110620726Y-77903085D01*
X110432133Y-77845876D01*
X110236000Y-77826559D01*
X110039866Y-77845876D01*
X109851273Y-77903085D01*
X109677463Y-77995989D01*
X109525117Y-78121017D01*
X109400089Y-78273363D01*
X109307185Y-78447173D01*
X109249976Y-78635766D01*
X109230659Y-78831900D01*
X107195450Y-78831900D01*
X106556624Y-78193074D01*
X106539990Y-78172433D01*
X106537803Y-78169030D01*
X106502017Y-78138021D01*
X106495540Y-78131990D01*
X106486542Y-78122992D01*
X106476347Y-78115360D01*
X106469457Y-78109808D01*
X106459607Y-78101273D01*
X106433685Y-78078811D01*
X106430008Y-78077131D01*
X106407215Y-78063607D01*
X106403970Y-78061178D01*
X106359612Y-78044634D01*
X106351433Y-78041247D01*
X106330393Y-78031638D01*
X106277590Y-77985884D01*
X106272556Y-77977314D01*
X106245910Y-77927462D01*
X106120883Y-77775117D01*
X105968538Y-77650090D01*
X105946091Y-77638092D01*
X105794726Y-77557185D01*
X105606133Y-77499976D01*
X105410000Y-77480659D01*
X105213866Y-77499976D01*
X105025273Y-77557185D01*
X104851463Y-77650089D01*
X104699117Y-77775117D01*
X104574089Y-77927463D01*
X104481185Y-78101273D01*
X104423976Y-78289866D01*
X104404659Y-78486000D01*
X102794592Y-78486000D01*
X102782814Y-78447173D01*
X102689910Y-78273362D01*
X102564883Y-78121017D01*
X102412538Y-77995990D01*
X102377564Y-77977296D01*
X102238726Y-77903085D01*
X102050133Y-77845876D01*
X101854000Y-77826559D01*
X101657866Y-77845876D01*
X101469273Y-77903085D01*
X101295463Y-77995989D01*
X101143117Y-78121017D01*
X101018089Y-78273363D01*
X100925185Y-78447173D01*
X100867976Y-78635766D01*
X100848659Y-78831900D01*
X100867976Y-79028033D01*
X100925185Y-79216626D01*
X100925186Y-79216627D01*
X101018090Y-79390438D01*
X101143117Y-79542783D01*
X101255794Y-79635255D01*
X101295462Y-79667810D01*
X101309353Y-79675235D01*
X101359197Y-79724197D01*
X101374900Y-79784593D01*
X101374900Y-84645306D01*
X101355215Y-84712345D01*
X101309356Y-84754663D01*
X101295462Y-84762089D01*
X101143117Y-84887117D01*
X101018089Y-85039463D01*
X100925185Y-85213273D01*
X100867976Y-85401866D01*
X100848659Y-85598000D01*
X69088500Y-85598000D01*
X69088500Y-72058902D01*
X73541794Y-72058902D01*
X73541921Y-72062868D01*
X73541921Y-72062874D01*
X73549812Y-72308948D01*
X73551673Y-72366978D01*
X73552307Y-72370905D01*
X73552308Y-72370906D01*
X73599101Y-72660341D01*
X73600867Y-72671261D01*
X73601997Y-72675068D01*
X73679003Y-72934527D01*
X73688569Y-72966756D01*
X73690178Y-72970391D01*
X73690180Y-72970396D01*
X73811725Y-73244969D01*
X73811729Y-73244977D01*
X73813337Y-73248609D01*
X73815393Y-73252002D01*
X73815397Y-73252008D01*
X73971061Y-73508792D01*
X73973123Y-73512193D01*
X74165304Y-73753181D01*
X74168159Y-73755945D01*
X74168160Y-73755947D01*
X74309390Y-73892720D01*
X74386724Y-73967614D01*
X74389905Y-73969988D01*
X74591617Y-74120530D01*
X74633747Y-74151972D01*
X74637213Y-74153924D01*
X74801502Y-74246450D01*
X74902318Y-74303228D01*
X74925180Y-74312484D01*
X75184339Y-74417407D01*
X75184343Y-74417408D01*
X75188025Y-74418899D01*
X75486179Y-74497084D01*
X75791883Y-74536500D01*
X75795855Y-74536500D01*
X76020990Y-74536500D01*
X76022974Y-74536500D01*
X76253601Y-74521693D01*
X76556151Y-74462772D01*
X76848683Y-74365644D01*
X77126393Y-74231907D01*
X77384720Y-74063754D01*
X77619424Y-73863948D01*
X77804644Y-73660000D01*
X82769033Y-73660000D01*
X82788858Y-73886602D01*
X82847733Y-74106326D01*
X82943866Y-74312484D01*
X82994972Y-74385471D01*
X82994974Y-74385472D01*
X83590922Y-73789523D01*
X83614507Y-73869844D01*
X83692239Y-73990798D01*
X83800900Y-74084952D01*
X83931685Y-74144680D01*
X83941466Y-74146086D01*
X83348526Y-74739025D01*
X83348526Y-74739026D01*
X83421515Y-74790133D01*
X83627673Y-74886266D01*
X83847397Y-74945141D01*
X84074000Y-74964966D01*
X84300602Y-74945141D01*
X84520326Y-74886266D01*
X84726480Y-74790134D01*
X84799472Y-74739025D01*
X84206534Y-74146086D01*
X84216315Y-74144680D01*
X84347100Y-74084952D01*
X84455761Y-73990798D01*
X84533493Y-73869844D01*
X84557076Y-73789523D01*
X85153025Y-74385472D01*
X85204135Y-74312479D01*
X85231618Y-74253543D01*
X85277790Y-74201103D01*
X85344983Y-74181951D01*
X85411864Y-74202166D01*
X85456382Y-74253543D01*
X85483865Y-74312482D01*
X85534972Y-74385471D01*
X85534974Y-74385472D01*
X86130922Y-73789523D01*
X86154507Y-73869844D01*
X86232239Y-73990798D01*
X86340900Y-74084952D01*
X86471685Y-74144680D01*
X86481466Y-74146086D01*
X85888526Y-74739025D01*
X85888526Y-74739026D01*
X85961515Y-74790133D01*
X86167673Y-74886266D01*
X86387397Y-74945141D01*
X86613999Y-74964966D01*
X86840602Y-74945141D01*
X87060326Y-74886266D01*
X87266480Y-74790134D01*
X87339472Y-74739025D01*
X86746534Y-74146086D01*
X86756315Y-74144680D01*
X86887100Y-74084952D01*
X86995761Y-73990798D01*
X87073493Y-73869844D01*
X87097076Y-73789523D01*
X87693025Y-74385472D01*
X87744134Y-74312480D01*
X87840266Y-74106325D01*
X87892673Y-73910743D01*
X87929038Y-73851082D01*
X87991885Y-73820553D01*
X88061261Y-73828848D01*
X88115138Y-73873333D01*
X88131108Y-73906840D01*
X88178707Y-74063754D01*
X88178769Y-74063956D01*
X88206052Y-74114998D01*
X88276315Y-74246450D01*
X88321312Y-74301279D01*
X88407589Y-74406410D01*
X88474740Y-74461518D01*
X88567550Y-74537685D01*
X88750046Y-74635232D01*
X88948066Y-74695300D01*
X89154000Y-74715583D01*
X89359934Y-74695300D01*
X89557954Y-74635232D01*
X89740450Y-74537685D01*
X89900410Y-74406410D01*
X90031685Y-74246450D01*
X90129232Y-74063954D01*
X90189300Y-73865934D01*
X90209583Y-73660000D01*
X90638417Y-73660000D01*
X90658699Y-73865932D01*
X90681365Y-73940652D01*
X90718707Y-74063754D01*
X90718769Y-74063956D01*
X90746052Y-74114998D01*
X90816315Y-74246450D01*
X90861312Y-74301279D01*
X90947589Y-74406410D01*
X91014740Y-74461518D01*
X91107550Y-74537685D01*
X91290046Y-74635232D01*
X91488066Y-74695300D01*
X91694000Y-74715583D01*
X91899934Y-74695300D01*
X92097954Y-74635232D01*
X92280450Y-74537685D01*
X92440410Y-74406410D01*
X92571685Y-74246450D01*
X92669232Y-74063954D01*
X92729300Y-73865934D01*
X92749583Y-73660000D01*
X93178417Y-73660000D01*
X93198699Y-73865932D01*
X93221365Y-73940652D01*
X93258707Y-74063754D01*
X93258769Y-74063956D01*
X93286052Y-74114998D01*
X93356315Y-74246450D01*
X93401312Y-74301279D01*
X93487589Y-74406410D01*
X93554740Y-74461518D01*
X93647550Y-74537685D01*
X93830046Y-74635232D01*
X94028066Y-74695300D01*
X94234000Y-74715583D01*
X94439934Y-74695300D01*
X94637954Y-74635232D01*
X94820450Y-74537685D01*
X94980410Y-74406410D01*
X95111685Y-74246450D01*
X95209232Y-74063954D01*
X95269300Y-73865934D01*
X95289583Y-73660000D01*
X95718417Y-73660000D01*
X95738699Y-73865932D01*
X95761365Y-73940652D01*
X95798707Y-74063754D01*
X95798769Y-74063956D01*
X95826052Y-74114998D01*
X95896315Y-74246450D01*
X95941312Y-74301279D01*
X96027589Y-74406410D01*
X96094740Y-74461518D01*
X96187550Y-74537685D01*
X96370046Y-74635232D01*
X96568066Y-74695300D01*
X96774000Y-74715583D01*
X96979934Y-74695300D01*
X97177954Y-74635232D01*
X97360450Y-74537685D01*
X97520410Y-74406410D01*
X97651685Y-74246450D01*
X97749232Y-74063954D01*
X97809300Y-73865934D01*
X97829583Y-73660000D01*
X97829583Y-73659999D01*
X98258417Y-73659999D01*
X98278699Y-73865932D01*
X98301365Y-73940652D01*
X98338707Y-74063754D01*
X98338769Y-74063956D01*
X98366052Y-74114998D01*
X98436315Y-74246450D01*
X98481312Y-74301279D01*
X98567589Y-74406410D01*
X98634740Y-74461518D01*
X98727550Y-74537685D01*
X98910046Y-74635232D01*
X99108066Y-74695300D01*
X99314000Y-74715583D01*
X99519934Y-74695300D01*
X99717954Y-74635232D01*
X99900450Y-74537685D01*
X100060410Y-74406410D01*
X100191685Y-74246450D01*
X100289232Y-74063954D01*
X100349300Y-73865934D01*
X100369583Y-73660000D01*
X100798417Y-73660000D01*
X100818699Y-73865932D01*
X100841365Y-73940652D01*
X100878707Y-74063754D01*
X100878769Y-74063956D01*
X100906052Y-74114998D01*
X100976315Y-74246450D01*
X101021312Y-74301279D01*
X101107589Y-74406410D01*
X101174740Y-74461518D01*
X101267550Y-74537685D01*
X101450046Y-74635232D01*
X101648066Y-74695300D01*
X101854000Y-74715583D01*
X102059934Y-74695300D01*
X102257954Y-74635232D01*
X102440450Y-74537685D01*
X102600410Y-74406410D01*
X102731685Y-74246450D01*
X102829232Y-74063954D01*
X102889300Y-73865934D01*
X102909583Y-73660000D01*
X103338417Y-73660000D01*
X103358699Y-73865932D01*
X103381365Y-73940652D01*
X103418707Y-74063754D01*
X103418769Y-74063956D01*
X103446052Y-74114998D01*
X103516315Y-74246450D01*
X103561312Y-74301279D01*
X103647589Y-74406410D01*
X103714740Y-74461518D01*
X103807550Y-74537685D01*
X103990046Y-74635232D01*
X104188066Y-74695300D01*
X104394000Y-74715583D01*
X104599934Y-74695300D01*
X104797954Y-74635232D01*
X104980450Y-74537685D01*
X105140410Y-74406410D01*
X105271685Y-74246450D01*
X105369232Y-74063954D01*
X105429300Y-73865934D01*
X105449583Y-73660000D01*
X105878417Y-73660000D01*
X105898699Y-73865932D01*
X105921365Y-73940652D01*
X105958707Y-74063754D01*
X105958769Y-74063956D01*
X105986052Y-74114998D01*
X106056315Y-74246450D01*
X106101312Y-74301279D01*
X106187589Y-74406410D01*
X106254740Y-74461518D01*
X106347550Y-74537685D01*
X106530046Y-74635232D01*
X106728066Y-74695300D01*
X106934000Y-74715583D01*
X107139934Y-74695300D01*
X107337954Y-74635232D01*
X107520450Y-74537685D01*
X107680410Y-74406410D01*
X107811685Y-74246450D01*
X107909232Y-74063954D01*
X107969300Y-73865934D01*
X107989583Y-73660000D01*
X108418417Y-73660000D01*
X108438699Y-73865932D01*
X108461365Y-73940652D01*
X108498707Y-74063754D01*
X108498769Y-74063956D01*
X108526052Y-74114998D01*
X108596315Y-74246450D01*
X108641312Y-74301279D01*
X108727589Y-74406410D01*
X108794740Y-74461518D01*
X108887550Y-74537685D01*
X109070046Y-74635232D01*
X109268066Y-74695300D01*
X109474000Y-74715583D01*
X109679934Y-74695300D01*
X109877954Y-74635232D01*
X110060450Y-74537685D01*
X110220410Y-74406410D01*
X110351685Y-74246450D01*
X110449232Y-74063954D01*
X110509300Y-73865934D01*
X110529583Y-73660000D01*
X110958417Y-73660000D01*
X110978699Y-73865932D01*
X111001365Y-73940652D01*
X111038707Y-74063754D01*
X111038769Y-74063956D01*
X111066052Y-74114998D01*
X111136315Y-74246450D01*
X111181312Y-74301279D01*
X111267589Y-74406410D01*
X111334740Y-74461518D01*
X111427550Y-74537685D01*
X111610046Y-74635232D01*
X111808066Y-74695300D01*
X112014000Y-74715583D01*
X112219934Y-74695300D01*
X112417954Y-74635232D01*
X112600450Y-74537685D01*
X112760410Y-74406410D01*
X112891685Y-74246450D01*
X112989232Y-74063954D01*
X113049300Y-73865934D01*
X113069583Y-73660000D01*
X113498417Y-73660000D01*
X113518699Y-73865932D01*
X113541365Y-73940652D01*
X113578707Y-74063754D01*
X113578769Y-74063956D01*
X113606052Y-74114998D01*
X113676315Y-74246450D01*
X113721312Y-74301279D01*
X113807589Y-74406410D01*
X113874740Y-74461518D01*
X113967550Y-74537685D01*
X114150046Y-74635232D01*
X114348066Y-74695300D01*
X114554000Y-74715583D01*
X114759934Y-74695300D01*
X114957954Y-74635232D01*
X115140450Y-74537685D01*
X115300410Y-74406410D01*
X115431685Y-74246450D01*
X115529232Y-74063954D01*
X115589300Y-73865934D01*
X115609583Y-73660000D01*
X115589300Y-73454066D01*
X115529232Y-73256046D01*
X115431685Y-73073550D01*
X115340913Y-72962943D01*
X115300410Y-72913589D01*
X115140448Y-72782313D01*
X115098545Y-72759915D01*
X115048701Y-72710952D01*
X115033000Y-72650558D01*
X115033000Y-70040746D01*
X115052685Y-69973707D01*
X115098549Y-69931387D01*
X115112538Y-69923910D01*
X115264883Y-69798883D01*
X115389910Y-69646538D01*
X115482814Y-69472727D01*
X115540024Y-69284132D01*
X115559341Y-69088000D01*
X115540024Y-68891868D01*
X115482814Y-68703273D01*
X115389910Y-68529462D01*
X115264883Y-68377117D01*
X115112538Y-68252090D01*
X115090091Y-68240092D01*
X114938726Y-68159185D01*
X114750133Y-68101976D01*
X114554000Y-68082659D01*
X114357866Y-68101976D01*
X114169273Y-68159185D01*
X113995463Y-68252089D01*
X113843117Y-68377117D01*
X113718089Y-68529463D01*
X113625185Y-68703273D01*
X113567976Y-68891866D01*
X113548659Y-69088000D01*
X113567976Y-69284133D01*
X113625185Y-69472726D01*
X113625186Y-69472727D01*
X113718090Y-69646538D01*
X113843117Y-69798883D01*
X113972545Y-69905102D01*
X113995462Y-69923910D01*
X114009451Y-69931387D01*
X114059296Y-69980348D01*
X114075000Y-70040746D01*
X114075000Y-72650558D01*
X114055315Y-72717597D01*
X114009455Y-72759915D01*
X113967551Y-72782313D01*
X113807589Y-72913589D01*
X113676314Y-73073551D01*
X113578769Y-73256043D01*
X113518699Y-73454067D01*
X113498417Y-73660000D01*
X113069583Y-73660000D01*
X113049300Y-73454066D01*
X112989232Y-73256046D01*
X112891685Y-73073550D01*
X112800913Y-72962943D01*
X112760410Y-72913589D01*
X112642157Y-72816543D01*
X112600450Y-72782315D01*
X112493849Y-72725335D01*
X112417956Y-72684769D01*
X112417955Y-72684768D01*
X112417954Y-72684768D01*
X112318944Y-72654733D01*
X112219932Y-72624699D01*
X112036497Y-72606632D01*
X112014000Y-72604417D01*
X112013999Y-72604417D01*
X111808067Y-72624699D01*
X111610043Y-72684769D01*
X111427551Y-72782314D01*
X111267589Y-72913589D01*
X111136314Y-73073551D01*
X111038769Y-73256043D01*
X110978699Y-73454067D01*
X110958417Y-73660000D01*
X110529583Y-73660000D01*
X110509300Y-73454066D01*
X110449232Y-73256046D01*
X110351685Y-73073550D01*
X110260913Y-72962943D01*
X110220410Y-72913589D01*
X110102157Y-72816543D01*
X110060450Y-72782315D01*
X109953849Y-72725335D01*
X109877956Y-72684769D01*
X109877955Y-72684768D01*
X109877954Y-72684768D01*
X109778944Y-72654733D01*
X109679932Y-72624699D01*
X109474000Y-72604417D01*
X109268067Y-72624699D01*
X109070043Y-72684769D01*
X108887551Y-72782314D01*
X108727589Y-72913589D01*
X108596314Y-73073551D01*
X108498769Y-73256043D01*
X108438699Y-73454067D01*
X108418417Y-73660000D01*
X107989583Y-73660000D01*
X107969300Y-73454066D01*
X107909232Y-73256046D01*
X107811685Y-73073550D01*
X107720913Y-72962943D01*
X107680410Y-72913589D01*
X107562157Y-72816543D01*
X107520450Y-72782315D01*
X107413849Y-72725335D01*
X107337956Y-72684769D01*
X107337955Y-72684768D01*
X107337954Y-72684768D01*
X107238944Y-72654733D01*
X107139932Y-72624699D01*
X106934000Y-72604417D01*
X106728067Y-72624699D01*
X106530043Y-72684769D01*
X106347551Y-72782314D01*
X106187589Y-72913589D01*
X106056314Y-73073551D01*
X105958769Y-73256043D01*
X105898699Y-73454067D01*
X105878417Y-73660000D01*
X105449583Y-73660000D01*
X105429300Y-73454066D01*
X105369232Y-73256046D01*
X105271685Y-73073550D01*
X105180913Y-72962943D01*
X105140410Y-72913589D01*
X105022157Y-72816543D01*
X104980450Y-72782315D01*
X104873849Y-72725335D01*
X104797956Y-72684769D01*
X104797955Y-72684768D01*
X104797954Y-72684768D01*
X104698944Y-72654733D01*
X104599932Y-72624699D01*
X104416497Y-72606632D01*
X104394000Y-72604417D01*
X104393999Y-72604417D01*
X104188067Y-72624699D01*
X103990043Y-72684769D01*
X103807551Y-72782314D01*
X103647589Y-72913589D01*
X103516314Y-73073551D01*
X103418769Y-73256043D01*
X103358699Y-73454067D01*
X103338417Y-73660000D01*
X102909583Y-73660000D01*
X102889300Y-73454066D01*
X102829232Y-73256046D01*
X102731685Y-73073550D01*
X102640913Y-72962943D01*
X102600410Y-72913589D01*
X102482157Y-72816543D01*
X102440450Y-72782315D01*
X102333849Y-72725335D01*
X102257956Y-72684769D01*
X102257955Y-72684768D01*
X102257954Y-72684768D01*
X102158944Y-72654733D01*
X102059932Y-72624699D01*
X101854000Y-72604417D01*
X101648067Y-72624699D01*
X101450043Y-72684769D01*
X101267551Y-72782314D01*
X101107589Y-72913589D01*
X100976314Y-73073551D01*
X100878769Y-73256043D01*
X100818699Y-73454067D01*
X100798417Y-73660000D01*
X100369583Y-73660000D01*
X100349300Y-73454066D01*
X100289232Y-73256046D01*
X100191685Y-73073550D01*
X100100913Y-72962943D01*
X100060410Y-72913589D01*
X99942157Y-72816543D01*
X99900450Y-72782315D01*
X99793849Y-72725335D01*
X99717956Y-72684769D01*
X99717955Y-72684768D01*
X99717954Y-72684768D01*
X99618944Y-72654733D01*
X99519932Y-72624699D01*
X99314000Y-72604417D01*
X99108067Y-72624699D01*
X98910043Y-72684769D01*
X98727551Y-72782314D01*
X98567589Y-72913589D01*
X98436314Y-73073551D01*
X98338769Y-73256043D01*
X98278699Y-73454067D01*
X98258417Y-73659999D01*
X97829583Y-73659999D01*
X97809300Y-73454066D01*
X97749232Y-73256046D01*
X97651685Y-73073550D01*
X97560913Y-72962943D01*
X97520410Y-72913589D01*
X97402157Y-72816543D01*
X97360450Y-72782315D01*
X97253849Y-72725335D01*
X97177956Y-72684769D01*
X97177955Y-72684768D01*
X97177954Y-72684768D01*
X97078944Y-72654733D01*
X96979932Y-72624699D01*
X96796497Y-72606632D01*
X96774000Y-72604417D01*
X96773999Y-72604417D01*
X96568067Y-72624699D01*
X96370043Y-72684769D01*
X96187551Y-72782314D01*
X96027589Y-72913589D01*
X95896314Y-73073551D01*
X95798769Y-73256043D01*
X95738699Y-73454067D01*
X95718417Y-73660000D01*
X95289583Y-73660000D01*
X95269300Y-73454066D01*
X95209232Y-73256046D01*
X95111685Y-73073550D01*
X95020913Y-72962943D01*
X94980410Y-72913589D01*
X94862157Y-72816543D01*
X94820450Y-72782315D01*
X94713849Y-72725335D01*
X94637956Y-72684769D01*
X94637955Y-72684768D01*
X94637954Y-72684768D01*
X94538944Y-72654733D01*
X94439932Y-72624699D01*
X94234000Y-72604417D01*
X94028067Y-72624699D01*
X93830043Y-72684769D01*
X93647551Y-72782314D01*
X93487589Y-72913589D01*
X93356314Y-73073551D01*
X93258769Y-73256043D01*
X93198699Y-73454067D01*
X93178417Y-73660000D01*
X92749583Y-73660000D01*
X92729300Y-73454066D01*
X92669232Y-73256046D01*
X92571685Y-73073550D01*
X92480913Y-72962943D01*
X92440410Y-72913589D01*
X92322157Y-72816543D01*
X92280450Y-72782315D01*
X92173849Y-72725335D01*
X92097956Y-72684769D01*
X92097955Y-72684768D01*
X92097954Y-72684768D01*
X91998944Y-72654733D01*
X91899932Y-72624699D01*
X91716497Y-72606632D01*
X91694000Y-72604417D01*
X91693999Y-72604417D01*
X91488067Y-72624699D01*
X91290043Y-72684769D01*
X91107551Y-72782314D01*
X90947589Y-72913589D01*
X90816314Y-73073551D01*
X90718769Y-73256043D01*
X90658699Y-73454067D01*
X90638417Y-73660000D01*
X90209583Y-73660000D01*
X90189300Y-73454066D01*
X90129232Y-73256046D01*
X90031685Y-73073550D01*
X89940913Y-72962943D01*
X89900410Y-72913589D01*
X89782157Y-72816543D01*
X89740450Y-72782315D01*
X89633849Y-72725335D01*
X89557956Y-72684769D01*
X89557955Y-72684768D01*
X89557954Y-72684768D01*
X89458944Y-72654733D01*
X89359932Y-72624699D01*
X89154000Y-72604417D01*
X88948067Y-72624699D01*
X88750043Y-72684769D01*
X88567551Y-72782314D01*
X88407589Y-72913589D01*
X88276314Y-73073551D01*
X88201417Y-73213673D01*
X88178768Y-73256046D01*
X88132067Y-73410000D01*
X88131109Y-73413159D01*
X88092811Y-73471597D01*
X88028999Y-73500054D01*
X87959932Y-73489493D01*
X87907538Y-73443269D01*
X87892673Y-73409257D01*
X87840266Y-73213672D01*
X87744133Y-73007515D01*
X87693025Y-72934526D01*
X87097076Y-73530475D01*
X87073493Y-73450156D01*
X86995761Y-73329202D01*
X86887100Y-73235048D01*
X86756315Y-73175320D01*
X86746533Y-73173913D01*
X87339472Y-72580974D01*
X87339471Y-72580972D01*
X87266484Y-72529866D01*
X87060326Y-72433733D01*
X86840602Y-72374858D01*
X86614000Y-72355033D01*
X86387397Y-72374858D01*
X86167672Y-72433733D01*
X85961516Y-72529865D01*
X85888527Y-72580973D01*
X85888526Y-72580973D01*
X86481467Y-73173913D01*
X86471685Y-73175320D01*
X86340900Y-73235048D01*
X86232239Y-73329202D01*
X86154507Y-73450156D01*
X86130923Y-73530476D01*
X85534973Y-72934526D01*
X85534973Y-72934527D01*
X85483866Y-73007515D01*
X85456381Y-73066457D01*
X85410208Y-73118896D01*
X85343014Y-73138047D01*
X85276133Y-73117830D01*
X85231617Y-73066455D01*
X85204134Y-73007517D01*
X85153025Y-72934526D01*
X84557076Y-73530475D01*
X84533493Y-73450156D01*
X84455761Y-73329202D01*
X84347100Y-73235048D01*
X84216315Y-73175320D01*
X84206533Y-73173913D01*
X84799472Y-72580974D01*
X84799471Y-72580972D01*
X84726484Y-72529866D01*
X84520326Y-72433733D01*
X84300602Y-72374858D01*
X84074000Y-72355033D01*
X83847397Y-72374858D01*
X83627672Y-72433733D01*
X83421516Y-72529865D01*
X83348527Y-72580973D01*
X83348526Y-72580973D01*
X83941467Y-73173913D01*
X83931685Y-73175320D01*
X83800900Y-73235048D01*
X83692239Y-73329202D01*
X83614507Y-73450156D01*
X83590923Y-73530476D01*
X82994973Y-72934526D01*
X82994973Y-72934527D01*
X82943865Y-73007516D01*
X82847733Y-73213672D01*
X82788858Y-73433397D01*
X82769033Y-73660000D01*
X77804644Y-73660000D01*
X77826650Y-73635769D01*
X78002996Y-73382963D01*
X78145567Y-73109683D01*
X78252020Y-72820415D01*
X78320609Y-72519908D01*
X78350206Y-72213098D01*
X78340327Y-71905022D01*
X78291133Y-71600739D01*
X78203431Y-71305244D01*
X78078663Y-71023391D01*
X77918877Y-70759807D01*
X77726696Y-70518819D01*
X77505276Y-70304386D01*
X77494395Y-70296265D01*
X77261444Y-70122409D01*
X77261438Y-70122405D01*
X77258253Y-70120028D01*
X77254790Y-70118078D01*
X77254786Y-70118075D01*
X76993142Y-69970720D01*
X76993134Y-69970716D01*
X76989682Y-69968772D01*
X76986004Y-69967283D01*
X76985998Y-69967280D01*
X76707660Y-69854592D01*
X76707647Y-69854587D01*
X76703975Y-69853101D01*
X76700135Y-69852094D01*
X76700129Y-69852092D01*
X76409664Y-69775923D01*
X76409652Y-69775920D01*
X76405821Y-69774916D01*
X76401884Y-69774408D01*
X76401877Y-69774407D01*
X76104055Y-69736007D01*
X76104043Y-69736006D01*
X76100117Y-69735500D01*
X75869026Y-69735500D01*
X75867053Y-69735626D01*
X75867042Y-69735627D01*
X75642376Y-69750051D01*
X75642365Y-69750052D01*
X75638399Y-69750307D01*
X75634488Y-69751068D01*
X75634485Y-69751069D01*
X75339758Y-69808466D01*
X75339747Y-69808468D01*
X75335849Y-69809228D01*
X75332079Y-69810479D01*
X75332074Y-69810481D01*
X75047093Y-69905102D01*
X75047089Y-69905103D01*
X75043317Y-69906356D01*
X75039737Y-69908079D01*
X75039727Y-69908084D01*
X74769200Y-70038362D01*
X74769191Y-70038366D01*
X74765607Y-70040093D01*
X74762278Y-70042259D01*
X74762269Y-70042265D01*
X74510606Y-70206080D01*
X74510595Y-70206087D01*
X74507280Y-70208246D01*
X74504259Y-70210817D01*
X74504252Y-70210823D01*
X74275609Y-70405469D01*
X74275600Y-70405477D01*
X74272576Y-70408052D01*
X74269910Y-70410986D01*
X74269896Y-70411001D01*
X74068030Y-70633279D01*
X74068023Y-70633287D01*
X74065350Y-70636231D01*
X74063074Y-70639493D01*
X74063069Y-70639500D01*
X73891280Y-70885773D01*
X73891274Y-70885781D01*
X73889004Y-70889037D01*
X73887171Y-70892550D01*
X73887164Y-70892562D01*
X73748272Y-71158791D01*
X73748269Y-71158797D01*
X73746433Y-71162317D01*
X73745064Y-71166035D01*
X73745059Y-71166048D01*
X73652959Y-71416317D01*
X73639980Y-71451585D01*
X73639098Y-71455449D01*
X73639096Y-71455456D01*
X73581122Y-71709456D01*
X73571391Y-71752092D01*
X73571009Y-71756044D01*
X73571008Y-71756055D01*
X73546506Y-72010055D01*
X73541794Y-72058902D01*
X69088500Y-72058902D01*
X69088500Y-65393786D01*
X81505786Y-65393786D01*
X81505786Y-69116214D01*
X110066314Y-69116214D01*
X110066314Y-67564000D01*
X115834659Y-67564000D01*
X115853976Y-67760133D01*
X115911185Y-67948726D01*
X115911186Y-67948727D01*
X116004090Y-68122538D01*
X116129117Y-68274883D01*
X116253689Y-68377117D01*
X116281462Y-68399910D01*
X116295353Y-68407335D01*
X116345197Y-68456297D01*
X116360900Y-68516693D01*
X116360900Y-72853003D01*
X116341215Y-72920042D01*
X116332754Y-72931667D01*
X116216314Y-73073551D01*
X116118769Y-73256043D01*
X116058699Y-73454067D01*
X116038417Y-73660000D01*
X116058699Y-73865932D01*
X116081365Y-73940652D01*
X116118707Y-74063754D01*
X116118769Y-74063956D01*
X116146052Y-74114998D01*
X116216315Y-74246450D01*
X116261312Y-74301279D01*
X116347589Y-74406410D01*
X116414740Y-74461518D01*
X116507550Y-74537685D01*
X116690046Y-74635232D01*
X116888066Y-74695300D01*
X117094000Y-74715583D01*
X117299934Y-74695300D01*
X117497954Y-74635232D01*
X117680450Y-74537685D01*
X117840410Y-74406410D01*
X117971685Y-74246450D01*
X118069232Y-74063954D01*
X118129300Y-73865934D01*
X118149583Y-73660000D01*
X118149583Y-73659999D01*
X118578417Y-73659999D01*
X118598699Y-73865932D01*
X118621365Y-73940652D01*
X118658707Y-74063754D01*
X118658769Y-74063956D01*
X118686052Y-74114998D01*
X118756315Y-74246450D01*
X118801312Y-74301279D01*
X118887589Y-74406410D01*
X118954740Y-74461518D01*
X119047550Y-74537685D01*
X119230046Y-74635232D01*
X119428066Y-74695300D01*
X119634000Y-74715583D01*
X119839934Y-74695300D01*
X120037954Y-74635232D01*
X120220450Y-74537685D01*
X120380410Y-74406410D01*
X120511685Y-74246450D01*
X120609232Y-74063954D01*
X120669300Y-73865934D01*
X120689583Y-73660000D01*
X121118417Y-73660000D01*
X121138699Y-73865932D01*
X121161365Y-73940652D01*
X121198707Y-74063754D01*
X121198769Y-74063956D01*
X121226052Y-74114998D01*
X121296315Y-74246450D01*
X121341312Y-74301279D01*
X121427589Y-74406410D01*
X121494740Y-74461518D01*
X121587550Y-74537685D01*
X121770046Y-74635232D01*
X121968066Y-74695300D01*
X122174000Y-74715583D01*
X122379934Y-74695300D01*
X122577954Y-74635232D01*
X122760450Y-74537685D01*
X122920410Y-74406410D01*
X123051685Y-74246450D01*
X123149232Y-74063954D01*
X123209300Y-73865934D01*
X123229583Y-73660000D01*
X123658417Y-73660000D01*
X123678699Y-73865932D01*
X123701365Y-73940652D01*
X123738707Y-74063754D01*
X123738769Y-74063956D01*
X123766052Y-74114998D01*
X123836315Y-74246450D01*
X123881312Y-74301279D01*
X123967589Y-74406410D01*
X124034740Y-74461518D01*
X124127550Y-74537685D01*
X124310046Y-74635232D01*
X124508066Y-74695300D01*
X124714000Y-74715583D01*
X124919934Y-74695300D01*
X125117954Y-74635232D01*
X125300450Y-74537685D01*
X125460410Y-74406410D01*
X125591685Y-74246450D01*
X125689232Y-74063954D01*
X125749300Y-73865934D01*
X125769583Y-73660000D01*
X126198417Y-73660000D01*
X126218699Y-73865932D01*
X126241365Y-73940652D01*
X126278707Y-74063754D01*
X126278769Y-74063956D01*
X126306052Y-74114998D01*
X126376315Y-74246450D01*
X126421312Y-74301279D01*
X126507589Y-74406410D01*
X126574740Y-74461518D01*
X126667550Y-74537685D01*
X126850046Y-74635232D01*
X127048066Y-74695300D01*
X127254000Y-74715583D01*
X127459934Y-74695300D01*
X127657954Y-74635232D01*
X127840450Y-74537685D01*
X128000410Y-74406410D01*
X128131685Y-74246450D01*
X128229232Y-74063954D01*
X128289300Y-73865934D01*
X128309583Y-73660000D01*
X128738417Y-73660000D01*
X128758699Y-73865932D01*
X128781365Y-73940652D01*
X128818707Y-74063754D01*
X128818769Y-74063956D01*
X128846052Y-74114998D01*
X128916315Y-74246450D01*
X128961312Y-74301279D01*
X129047589Y-74406410D01*
X129114740Y-74461518D01*
X129207550Y-74537685D01*
X129390046Y-74635232D01*
X129588066Y-74695300D01*
X129794000Y-74715583D01*
X129999934Y-74695300D01*
X130197954Y-74635232D01*
X130380450Y-74537685D01*
X130540410Y-74406410D01*
X130671685Y-74246450D01*
X130769232Y-74063954D01*
X130829300Y-73865934D01*
X130849583Y-73660000D01*
X131278417Y-73660000D01*
X131298699Y-73865932D01*
X131321365Y-73940652D01*
X131358707Y-74063754D01*
X131358769Y-74063956D01*
X131386052Y-74114998D01*
X131456315Y-74246450D01*
X131501312Y-74301279D01*
X131587589Y-74406410D01*
X131654740Y-74461518D01*
X131747550Y-74537685D01*
X131930046Y-74635232D01*
X132128066Y-74695300D01*
X132334000Y-74715583D01*
X132539934Y-74695300D01*
X132737954Y-74635232D01*
X132920450Y-74537685D01*
X133080410Y-74406410D01*
X133211685Y-74246450D01*
X133309232Y-74063954D01*
X133369300Y-73865934D01*
X133389583Y-73660000D01*
X133369300Y-73454066D01*
X133309232Y-73256046D01*
X133211685Y-73073550D01*
X133120913Y-72962943D01*
X133080410Y-72913589D01*
X132962157Y-72816543D01*
X132920450Y-72782315D01*
X132813849Y-72725335D01*
X132737956Y-72684769D01*
X132737955Y-72684768D01*
X132737954Y-72684768D01*
X132638944Y-72654733D01*
X132539932Y-72624699D01*
X132356497Y-72606632D01*
X132334000Y-72604417D01*
X132333999Y-72604417D01*
X132128067Y-72624699D01*
X131930043Y-72684769D01*
X131747551Y-72782314D01*
X131587589Y-72913589D01*
X131456314Y-73073551D01*
X131358769Y-73256043D01*
X131298699Y-73454067D01*
X131278417Y-73660000D01*
X130849583Y-73660000D01*
X130829300Y-73454066D01*
X130769232Y-73256046D01*
X130671685Y-73073550D01*
X130580913Y-72962943D01*
X130540410Y-72913589D01*
X130422157Y-72816543D01*
X130380450Y-72782315D01*
X130273849Y-72725335D01*
X130197956Y-72684769D01*
X130197955Y-72684768D01*
X130197954Y-72684768D01*
X130098944Y-72654733D01*
X129999932Y-72624699D01*
X129794000Y-72604417D01*
X129588067Y-72624699D01*
X129390043Y-72684769D01*
X129207551Y-72782314D01*
X129047589Y-72913589D01*
X128916314Y-73073551D01*
X128818769Y-73256043D01*
X128758699Y-73454067D01*
X128738417Y-73660000D01*
X128309583Y-73660000D01*
X128289300Y-73454066D01*
X128229232Y-73256046D01*
X128131685Y-73073550D01*
X128040913Y-72962943D01*
X128000410Y-72913589D01*
X127882157Y-72816543D01*
X127840450Y-72782315D01*
X127733849Y-72725335D01*
X127657956Y-72684769D01*
X127657955Y-72684768D01*
X127657954Y-72684768D01*
X127558944Y-72654733D01*
X127459932Y-72624699D01*
X127254000Y-72604417D01*
X127048067Y-72624699D01*
X126850043Y-72684769D01*
X126667551Y-72782314D01*
X126507589Y-72913589D01*
X126376314Y-73073551D01*
X126278769Y-73256043D01*
X126218699Y-73454067D01*
X126198417Y-73660000D01*
X125769583Y-73660000D01*
X125749300Y-73454066D01*
X125689232Y-73256046D01*
X125591685Y-73073550D01*
X125500913Y-72962943D01*
X125460410Y-72913589D01*
X125342157Y-72816543D01*
X125300450Y-72782315D01*
X125193849Y-72725335D01*
X125117956Y-72684769D01*
X125117955Y-72684768D01*
X125117954Y-72684768D01*
X125018944Y-72654733D01*
X124919932Y-72624699D01*
X124736497Y-72606632D01*
X124714000Y-72604417D01*
X124713999Y-72604417D01*
X124508067Y-72624699D01*
X124310043Y-72684769D01*
X124127551Y-72782314D01*
X123967589Y-72913589D01*
X123836314Y-73073551D01*
X123738769Y-73256043D01*
X123678699Y-73454067D01*
X123658417Y-73660000D01*
X123229583Y-73660000D01*
X123209300Y-73454066D01*
X123149232Y-73256046D01*
X123051685Y-73073550D01*
X122960913Y-72962943D01*
X122920410Y-72913589D01*
X122802157Y-72816543D01*
X122760450Y-72782315D01*
X122653849Y-72725335D01*
X122577956Y-72684769D01*
X122577955Y-72684768D01*
X122577954Y-72684768D01*
X122478944Y-72654733D01*
X122379932Y-72624699D01*
X122174000Y-72604417D01*
X121968067Y-72624699D01*
X121770043Y-72684769D01*
X121587551Y-72782314D01*
X121427589Y-72913589D01*
X121296314Y-73073551D01*
X121198769Y-73256043D01*
X121138699Y-73454067D01*
X121118417Y-73660000D01*
X120689583Y-73660000D01*
X120669300Y-73454066D01*
X120609232Y-73256046D01*
X120511685Y-73073550D01*
X120420913Y-72962943D01*
X120380410Y-72913589D01*
X120262157Y-72816543D01*
X120220450Y-72782315D01*
X120113849Y-72725335D01*
X120037956Y-72684769D01*
X120037955Y-72684768D01*
X120037954Y-72684768D01*
X119938944Y-72654733D01*
X119839932Y-72624699D01*
X119634000Y-72604417D01*
X119428067Y-72624699D01*
X119230043Y-72684769D01*
X119047551Y-72782314D01*
X118887589Y-72913589D01*
X118756314Y-73073551D01*
X118658769Y-73256043D01*
X118598699Y-73454067D01*
X118578417Y-73659999D01*
X118149583Y-73659999D01*
X118129300Y-73454066D01*
X118069232Y-73256046D01*
X117971685Y-73073550D01*
X117880913Y-72962943D01*
X117840410Y-72913589D01*
X117680450Y-72782315D01*
X117497951Y-72684766D01*
X117407104Y-72657208D01*
X117348666Y-72618910D01*
X117320209Y-72555098D01*
X117319100Y-72538548D01*
X117319100Y-71882000D01*
X137678659Y-71882000D01*
X137681319Y-71909005D01*
X137697976Y-72078133D01*
X137755185Y-72266726D01*
X137803500Y-72357116D01*
X137848090Y-72440538D01*
X137973117Y-72592883D01*
X138085076Y-72684766D01*
X138125462Y-72717910D01*
X138139353Y-72725335D01*
X138189197Y-72774297D01*
X138204900Y-72834693D01*
X138204900Y-75119163D01*
X138202066Y-75145522D01*
X138201206Y-75149470D01*
X138204584Y-75196687D01*
X138204900Y-75205533D01*
X138204900Y-75218266D01*
X138206712Y-75230873D01*
X138207657Y-75239667D01*
X138211035Y-75286888D01*
X138212449Y-75290680D01*
X138219001Y-75316351D01*
X138219578Y-75320367D01*
X138239246Y-75363433D01*
X138242634Y-75371612D01*
X138259178Y-75415970D01*
X138261607Y-75419215D01*
X138275131Y-75442007D01*
X138276811Y-75445685D01*
X138307808Y-75481457D01*
X138313360Y-75488347D01*
X138320992Y-75498542D01*
X138329990Y-75507540D01*
X138336021Y-75514017D01*
X138367030Y-75549803D01*
X138370433Y-75551990D01*
X138391074Y-75568624D01*
X141724581Y-78902130D01*
X141758066Y-78963453D01*
X141760900Y-78989811D01*
X141760900Y-87947306D01*
X141741215Y-88014345D01*
X141695356Y-88056663D01*
X141681462Y-88064089D01*
X141529117Y-88189117D01*
X141404089Y-88341463D01*
X141311185Y-88515273D01*
X141253976Y-88703866D01*
X141234659Y-88899999D01*
X141253976Y-89096133D01*
X141311185Y-89284726D01*
X141344111Y-89346325D01*
X141404090Y-89458538D01*
X141529117Y-89610883D01*
X141681462Y-89735910D01*
X141855273Y-89828814D01*
X142043868Y-89886024D01*
X142240000Y-89905341D01*
X142436132Y-89886024D01*
X142624727Y-89828814D01*
X142798538Y-89735910D01*
X142950883Y-89610883D01*
X143075910Y-89458538D01*
X143168814Y-89284727D01*
X143226024Y-89096132D01*
X143245341Y-88900000D01*
X194474785Y-88900000D01*
X194493602Y-89103083D01*
X194549418Y-89299251D01*
X194640324Y-89481818D01*
X194763236Y-89644580D01*
X194913958Y-89781981D01*
X195087361Y-89889347D01*
X195087363Y-89889348D01*
X195277544Y-89963024D01*
X195478024Y-90000500D01*
X195478026Y-90000500D01*
X195681974Y-90000500D01*
X195681976Y-90000500D01*
X195882456Y-89963024D01*
X196072637Y-89889348D01*
X196246041Y-89781981D01*
X196296579Y-89735910D01*
X196396763Y-89644580D01*
X196411193Y-89625472D01*
X196519673Y-89481821D01*
X196519673Y-89481819D01*
X196519675Y-89481818D01*
X196587141Y-89346326D01*
X196610582Y-89299250D01*
X196666397Y-89103083D01*
X196685215Y-88900000D01*
X196666397Y-88696917D01*
X196664473Y-88690156D01*
X196644200Y-88618904D01*
X196610582Y-88500750D01*
X196587140Y-88453672D01*
X196519675Y-88318181D01*
X196396763Y-88155419D01*
X196246041Y-88018018D01*
X196072638Y-87910652D01*
X195882457Y-87836976D01*
X195796847Y-87820973D01*
X195681976Y-87799500D01*
X195478024Y-87799500D01*
X195400279Y-87814033D01*
X195277542Y-87836976D01*
X195087361Y-87910652D01*
X194913958Y-88018018D01*
X194763236Y-88155419D01*
X194640324Y-88318181D01*
X194549418Y-88500748D01*
X194493602Y-88696916D01*
X194474785Y-88900000D01*
X143245341Y-88900000D01*
X143226024Y-88703868D01*
X143168814Y-88515273D01*
X143075910Y-88341462D01*
X142950883Y-88189117D01*
X142798538Y-88064090D01*
X142798537Y-88064089D01*
X142784644Y-88056663D01*
X142734801Y-88007699D01*
X142719100Y-87947306D01*
X142719100Y-86360000D01*
X194474785Y-86360000D01*
X194493602Y-86563083D01*
X194549418Y-86759251D01*
X194640324Y-86941818D01*
X194763236Y-87104580D01*
X194913958Y-87241981D01*
X195087361Y-87349347D01*
X195087363Y-87349348D01*
X195277544Y-87423024D01*
X195478024Y-87460500D01*
X195478026Y-87460500D01*
X195681974Y-87460500D01*
X195681976Y-87460500D01*
X195882456Y-87423024D01*
X196072637Y-87349348D01*
X196246041Y-87241981D01*
X196396764Y-87104579D01*
X196519673Y-86941821D01*
X196519673Y-86941819D01*
X196519675Y-86941818D01*
X196565313Y-86850161D01*
X196610582Y-86759250D01*
X196666397Y-86563083D01*
X196685215Y-86360000D01*
X196666397Y-86156917D01*
X196610582Y-85960750D01*
X196581595Y-85902536D01*
X196519675Y-85778181D01*
X196396763Y-85615419D01*
X196246041Y-85478018D01*
X196072638Y-85370652D01*
X195882457Y-85296976D01*
X195815629Y-85284484D01*
X195681976Y-85259500D01*
X195478024Y-85259500D01*
X195377784Y-85278238D01*
X195277542Y-85296976D01*
X195087361Y-85370652D01*
X194913958Y-85478018D01*
X194763236Y-85615419D01*
X194640324Y-85778181D01*
X194549418Y-85960748D01*
X194493602Y-86156916D01*
X194474785Y-86360000D01*
X142719100Y-86360000D01*
X142719100Y-85818674D01*
X185735500Y-85818674D01*
X185750033Y-85891738D01*
X185750033Y-85891739D01*
X185750034Y-85891740D01*
X185805399Y-85974601D01*
X185888260Y-86029966D01*
X185924792Y-86037232D01*
X185961325Y-86044500D01*
X185961326Y-86044500D01*
X187418675Y-86044500D01*
X187443029Y-86039655D01*
X187491740Y-86029966D01*
X187574601Y-85974601D01*
X187629966Y-85891740D01*
X187644500Y-85818674D01*
X187644500Y-84361326D01*
X187643833Y-84357975D01*
X187629966Y-84288261D01*
X187629966Y-84288260D01*
X187574601Y-84205399D01*
X187491740Y-84150034D01*
X187491739Y-84150033D01*
X187491738Y-84150033D01*
X187418675Y-84135500D01*
X187418674Y-84135500D01*
X185961326Y-84135500D01*
X185961325Y-84135500D01*
X185888261Y-84150033D01*
X185805399Y-84205399D01*
X185750033Y-84288261D01*
X185735500Y-84361325D01*
X185735500Y-85818674D01*
X142719100Y-85818674D01*
X142719100Y-83298518D01*
X160086000Y-83298518D01*
X160086354Y-83305132D01*
X160092400Y-83361372D01*
X160101276Y-83385169D01*
X160101276Y-83385170D01*
X160845550Y-82640896D01*
X160846327Y-82651265D01*
X160895887Y-82777541D01*
X160980465Y-82883599D01*
X161092547Y-82960016D01*
X161200299Y-82993253D01*
X160454829Y-83738722D01*
X160478628Y-83747599D01*
X160534867Y-83753645D01*
X160541482Y-83754000D01*
X162038518Y-83754000D01*
X162045114Y-83753646D01*
X162101378Y-83747597D01*
X162125170Y-83738723D01*
X162125170Y-83738722D01*
X161378231Y-82991784D01*
X161424138Y-82984865D01*
X161546357Y-82926007D01*
X161645798Y-82833740D01*
X161713625Y-82716260D01*
X161731499Y-82637945D01*
X162478722Y-83385170D01*
X162478723Y-83385170D01*
X162487597Y-83361378D01*
X162493646Y-83305114D01*
X162494000Y-83298518D01*
X185486000Y-83298518D01*
X185486354Y-83305132D01*
X185492400Y-83361372D01*
X185501276Y-83385169D01*
X185501276Y-83385170D01*
X186245550Y-82640896D01*
X186246327Y-82651265D01*
X186295887Y-82777541D01*
X186380465Y-82883599D01*
X186492547Y-82960016D01*
X186600299Y-82993253D01*
X185854829Y-83738722D01*
X185878628Y-83747599D01*
X185934867Y-83753645D01*
X185941482Y-83754000D01*
X187438518Y-83754000D01*
X187445114Y-83753646D01*
X187501378Y-83747597D01*
X187525170Y-83738723D01*
X187525170Y-83738722D01*
X186778231Y-82991784D01*
X186824138Y-82984865D01*
X186946357Y-82926007D01*
X187045798Y-82833740D01*
X187113625Y-82716260D01*
X187131499Y-82637946D01*
X187878722Y-83385170D01*
X187878723Y-83385170D01*
X187887597Y-83361378D01*
X187893646Y-83305114D01*
X187894000Y-83298518D01*
X187894000Y-81801481D01*
X187893645Y-81794867D01*
X187887599Y-81738628D01*
X187878722Y-81714829D01*
X187134449Y-82459102D01*
X187133673Y-82448735D01*
X187084113Y-82322459D01*
X186999535Y-82216401D01*
X186887453Y-82139984D01*
X186779700Y-82106747D01*
X187525170Y-81361276D01*
X187501372Y-81352400D01*
X187445132Y-81346354D01*
X187438518Y-81346000D01*
X185941482Y-81346000D01*
X185934869Y-81346354D01*
X185878627Y-81352401D01*
X185854829Y-81361276D01*
X185854829Y-81361277D01*
X186601768Y-82108215D01*
X186555862Y-82115135D01*
X186433643Y-82173993D01*
X186334202Y-82266260D01*
X186266375Y-82383740D01*
X186248500Y-82462052D01*
X185501277Y-81714829D01*
X185501276Y-81714829D01*
X185492401Y-81738627D01*
X185486354Y-81794869D01*
X185486000Y-81801481D01*
X185486000Y-83298518D01*
X162494000Y-83298518D01*
X162494000Y-81801481D01*
X162493645Y-81794867D01*
X162487599Y-81738628D01*
X162478722Y-81714829D01*
X161734449Y-82459101D01*
X161733673Y-82448735D01*
X161684113Y-82322459D01*
X161599535Y-82216401D01*
X161487453Y-82139984D01*
X161379700Y-82106747D01*
X162125170Y-81361276D01*
X162101372Y-81352400D01*
X162045132Y-81346354D01*
X162038518Y-81346000D01*
X160541482Y-81346000D01*
X160534869Y-81346354D01*
X160478627Y-81352401D01*
X160454829Y-81361276D01*
X160454829Y-81361277D01*
X161201768Y-82108215D01*
X161155862Y-82115135D01*
X161033643Y-82173993D01*
X160934202Y-82266260D01*
X160866375Y-82383740D01*
X160848500Y-82462052D01*
X160101277Y-81714829D01*
X160101276Y-81714829D01*
X160092401Y-81738627D01*
X160086354Y-81794869D01*
X160086000Y-81801481D01*
X160086000Y-83298518D01*
X142719100Y-83298518D01*
X142719100Y-80738674D01*
X160335500Y-80738674D01*
X160350033Y-80811738D01*
X160350033Y-80811739D01*
X160350034Y-80811740D01*
X160405399Y-80894601D01*
X160488260Y-80949966D01*
X160524792Y-80957232D01*
X160561325Y-80964500D01*
X160561326Y-80964500D01*
X162018675Y-80964500D01*
X162052668Y-80957738D01*
X162091740Y-80949966D01*
X162174601Y-80894601D01*
X162229966Y-80811740D01*
X162244500Y-80738674D01*
X185735500Y-80738674D01*
X185750033Y-80811738D01*
X185750033Y-80811739D01*
X185750034Y-80811740D01*
X185805399Y-80894601D01*
X185888260Y-80949966D01*
X185924792Y-80957232D01*
X185961325Y-80964500D01*
X185961326Y-80964500D01*
X187418675Y-80964500D01*
X187452668Y-80957738D01*
X187491740Y-80949966D01*
X187574601Y-80894601D01*
X187581234Y-80884674D01*
X194479500Y-80884674D01*
X194494033Y-80957738D01*
X194494033Y-80957739D01*
X194494034Y-80957740D01*
X194549399Y-81040601D01*
X194632260Y-81095966D01*
X194668792Y-81103232D01*
X194705325Y-81110500D01*
X194705326Y-81110500D01*
X196454675Y-81110500D01*
X196479029Y-81105655D01*
X196527740Y-81095966D01*
X196610601Y-81040601D01*
X196665966Y-80957740D01*
X196680500Y-80884674D01*
X196680500Y-79135326D01*
X196678525Y-79125399D01*
X196665966Y-79062261D01*
X196665966Y-79062260D01*
X196610601Y-78979399D01*
X196527740Y-78924034D01*
X196527739Y-78924033D01*
X196527738Y-78924033D01*
X196454675Y-78909500D01*
X196454674Y-78909500D01*
X194705326Y-78909500D01*
X194705325Y-78909500D01*
X194632261Y-78924033D01*
X194549399Y-78979399D01*
X194494033Y-79062261D01*
X194479500Y-79135325D01*
X194479500Y-80884674D01*
X187581234Y-80884674D01*
X187629966Y-80811740D01*
X187644500Y-80738674D01*
X187644500Y-79281326D01*
X187629966Y-79208260D01*
X187574601Y-79125399D01*
X187491740Y-79070034D01*
X187491739Y-79070033D01*
X187491738Y-79070033D01*
X187418675Y-79055500D01*
X187418674Y-79055500D01*
X185961326Y-79055500D01*
X185961325Y-79055500D01*
X185888261Y-79070033D01*
X185805399Y-79125399D01*
X185750033Y-79208261D01*
X185735500Y-79281325D01*
X185735500Y-80738674D01*
X162244500Y-80738674D01*
X162244500Y-79281326D01*
X162229966Y-79208260D01*
X162174601Y-79125399D01*
X162091740Y-79070034D01*
X162091739Y-79070033D01*
X162091738Y-79070033D01*
X162018675Y-79055500D01*
X162018674Y-79055500D01*
X160561326Y-79055500D01*
X160561325Y-79055500D01*
X160488261Y-79070033D01*
X160405399Y-79125399D01*
X160350033Y-79208261D01*
X160335500Y-79281325D01*
X160335500Y-80738674D01*
X142719100Y-80738674D01*
X142719100Y-78804837D01*
X142721933Y-78778481D01*
X142722793Y-78774530D01*
X142719416Y-78727311D01*
X142719100Y-78718465D01*
X142719100Y-78705729D01*
X142717288Y-78693130D01*
X142716341Y-78684324D01*
X142716184Y-78682132D01*
X142712965Y-78637113D01*
X142711550Y-78633321D01*
X142704997Y-78607641D01*
X142704421Y-78603634D01*
X142684750Y-78560563D01*
X142681363Y-78552387D01*
X142664820Y-78508030D01*
X142662397Y-78504793D01*
X142648868Y-78481991D01*
X142647189Y-78478316D01*
X142647189Y-78478315D01*
X142616184Y-78442534D01*
X142610640Y-78435654D01*
X142603007Y-78425458D01*
X142594015Y-78416466D01*
X142587984Y-78409988D01*
X142556970Y-78374196D01*
X142553563Y-78372007D01*
X142532923Y-78355374D01*
X142376223Y-78198674D01*
X160335500Y-78198674D01*
X160350033Y-78271738D01*
X160350033Y-78271739D01*
X160350034Y-78271740D01*
X160405399Y-78354601D01*
X160488260Y-78409966D01*
X160505172Y-78413330D01*
X160561325Y-78424500D01*
X160561326Y-78424500D01*
X162018675Y-78424500D01*
X162043029Y-78419655D01*
X162091740Y-78409966D01*
X162174601Y-78354601D01*
X162229966Y-78271740D01*
X162244500Y-78198674D01*
X185735500Y-78198674D01*
X185750033Y-78271738D01*
X185750033Y-78271739D01*
X185750034Y-78271740D01*
X185805399Y-78354601D01*
X185888260Y-78409966D01*
X185905172Y-78413330D01*
X185961325Y-78424500D01*
X185961326Y-78424500D01*
X187418675Y-78424500D01*
X187443029Y-78419655D01*
X187491740Y-78409966D01*
X187574601Y-78354601D01*
X187629966Y-78271740D01*
X187644500Y-78198674D01*
X187644500Y-77469999D01*
X194474785Y-77469999D01*
X194493602Y-77673083D01*
X194549418Y-77869251D01*
X194640324Y-78051818D01*
X194763236Y-78214580D01*
X194913958Y-78351981D01*
X195087361Y-78459347D01*
X195087363Y-78459348D01*
X195277544Y-78533024D01*
X195478024Y-78570500D01*
X195478026Y-78570500D01*
X195681974Y-78570500D01*
X195681976Y-78570500D01*
X195882456Y-78533024D01*
X196072637Y-78459348D01*
X196246041Y-78351981D01*
X196334061Y-78271740D01*
X196396763Y-78214580D01*
X196465927Y-78122992D01*
X196519673Y-78051821D01*
X196519673Y-78051819D01*
X196519675Y-78051818D01*
X196565313Y-77960161D01*
X196610582Y-77869250D01*
X196666397Y-77673083D01*
X196685215Y-77470000D01*
X196666397Y-77266917D01*
X196610582Y-77070750D01*
X196610209Y-77070001D01*
X196519675Y-76888181D01*
X196396763Y-76725419D01*
X196246041Y-76588018D01*
X196072638Y-76480652D01*
X195882457Y-76406976D01*
X195815629Y-76394484D01*
X195681976Y-76369500D01*
X195478024Y-76369500D01*
X195377783Y-76388238D01*
X195277542Y-76406976D01*
X195087361Y-76480652D01*
X194913958Y-76588018D01*
X194763236Y-76725419D01*
X194640324Y-76888181D01*
X194549418Y-77070748D01*
X194493602Y-77266916D01*
X194474785Y-77469999D01*
X187644500Y-77469999D01*
X187644500Y-76741326D01*
X187629966Y-76668260D01*
X187574601Y-76585399D01*
X187491740Y-76530034D01*
X187491739Y-76530033D01*
X187491738Y-76530033D01*
X187418675Y-76515500D01*
X187418674Y-76515500D01*
X185961326Y-76515500D01*
X185961325Y-76515500D01*
X185888261Y-76530033D01*
X185805399Y-76585399D01*
X185750033Y-76668261D01*
X185735500Y-76741325D01*
X185735500Y-78198674D01*
X162244500Y-78198674D01*
X162244500Y-76741326D01*
X162229966Y-76668260D01*
X162174601Y-76585399D01*
X162091740Y-76530034D01*
X162091739Y-76530033D01*
X162091738Y-76530033D01*
X162018675Y-76515500D01*
X162018674Y-76515500D01*
X160561326Y-76515500D01*
X160561325Y-76515500D01*
X160488261Y-76530033D01*
X160405399Y-76585399D01*
X160350033Y-76668261D01*
X160335500Y-76741325D01*
X160335500Y-78198674D01*
X142376223Y-78198674D01*
X139836224Y-75658674D01*
X160335500Y-75658674D01*
X160350033Y-75731738D01*
X160350033Y-75731739D01*
X160350034Y-75731740D01*
X160405399Y-75814601D01*
X160488260Y-75869966D01*
X160524792Y-75877232D01*
X160561325Y-75884500D01*
X160561326Y-75884500D01*
X162018675Y-75884500D01*
X162043029Y-75879655D01*
X162091740Y-75869966D01*
X162174601Y-75814601D01*
X162229966Y-75731740D01*
X162244500Y-75658674D01*
X185735500Y-75658674D01*
X185750033Y-75731738D01*
X185750033Y-75731739D01*
X185750034Y-75731740D01*
X185805399Y-75814601D01*
X185888260Y-75869966D01*
X185924792Y-75877232D01*
X185961325Y-75884500D01*
X185961326Y-75884500D01*
X187418675Y-75884500D01*
X187443029Y-75879655D01*
X187491740Y-75869966D01*
X187574601Y-75814601D01*
X187629966Y-75731740D01*
X187644500Y-75658674D01*
X187644500Y-74930000D01*
X194474785Y-74930000D01*
X194493602Y-75133083D01*
X194549418Y-75329251D01*
X194640324Y-75511818D01*
X194763236Y-75674580D01*
X194913958Y-75811981D01*
X195007608Y-75869966D01*
X195087363Y-75919348D01*
X195277544Y-75993024D01*
X195478024Y-76030500D01*
X195478026Y-76030500D01*
X195681974Y-76030500D01*
X195681976Y-76030500D01*
X195882456Y-75993024D01*
X196072637Y-75919348D01*
X196246041Y-75811981D01*
X196334061Y-75731740D01*
X196396763Y-75674580D01*
X196490990Y-75549803D01*
X196519673Y-75511821D01*
X196519673Y-75511819D01*
X196519675Y-75511818D01*
X196593561Y-75363433D01*
X196610582Y-75329250D01*
X196666397Y-75133083D01*
X196685215Y-74930000D01*
X196666397Y-74726917D01*
X196663510Y-74716772D01*
X196618540Y-74558719D01*
X196610582Y-74530750D01*
X196605692Y-74520930D01*
X196519675Y-74348181D01*
X196396763Y-74185419D01*
X196246041Y-74048018D01*
X196072638Y-73940652D01*
X195882457Y-73866976D01*
X195783093Y-73848402D01*
X195681976Y-73829500D01*
X195478024Y-73829500D01*
X195377783Y-73848238D01*
X195277542Y-73866976D01*
X195087361Y-73940652D01*
X194913958Y-74048018D01*
X194763236Y-74185419D01*
X194640324Y-74348181D01*
X194549418Y-74530748D01*
X194493602Y-74726916D01*
X194474785Y-74930000D01*
X187644500Y-74930000D01*
X187644500Y-74201326D01*
X187629966Y-74128260D01*
X187574601Y-74045399D01*
X187491740Y-73990034D01*
X187491739Y-73990033D01*
X187491738Y-73990033D01*
X187418675Y-73975500D01*
X187418674Y-73975500D01*
X185961326Y-73975500D01*
X185961325Y-73975500D01*
X185888261Y-73990033D01*
X185805399Y-74045399D01*
X185750033Y-74128261D01*
X185735500Y-74201325D01*
X185735500Y-75658674D01*
X162244500Y-75658674D01*
X162244500Y-74201326D01*
X162229966Y-74128260D01*
X162174601Y-74045399D01*
X162091740Y-73990034D01*
X162091739Y-73990033D01*
X162091738Y-73990033D01*
X162018675Y-73975500D01*
X162018674Y-73975500D01*
X160561326Y-73975500D01*
X160561325Y-73975500D01*
X160488261Y-73990033D01*
X160405399Y-74045399D01*
X160350033Y-74128261D01*
X160335500Y-74201325D01*
X160335500Y-75658674D01*
X139836224Y-75658674D01*
X139199419Y-75021869D01*
X139165934Y-74960546D01*
X139163100Y-74934188D01*
X139163100Y-73660000D01*
X141819417Y-73660000D01*
X141839699Y-73865932D01*
X141862365Y-73940652D01*
X141899707Y-74063754D01*
X141899769Y-74063956D01*
X141927052Y-74114998D01*
X141997315Y-74246450D01*
X142042312Y-74301279D01*
X142128589Y-74406410D01*
X142195740Y-74461518D01*
X142288550Y-74537685D01*
X142471046Y-74635232D01*
X142669066Y-74695300D01*
X142875000Y-74715583D01*
X143080934Y-74695300D01*
X143278954Y-74635232D01*
X143461450Y-74537685D01*
X143621410Y-74406410D01*
X143752685Y-74246450D01*
X143850232Y-74063954D01*
X143910300Y-73865934D01*
X143930583Y-73660000D01*
X143930583Y-73659999D01*
X144359417Y-73659999D01*
X144379699Y-73865932D01*
X144402365Y-73940652D01*
X144439707Y-74063754D01*
X144439769Y-74063956D01*
X144467052Y-74114998D01*
X144537315Y-74246450D01*
X144582312Y-74301279D01*
X144668589Y-74406410D01*
X144735740Y-74461518D01*
X144828550Y-74537685D01*
X145011046Y-74635232D01*
X145209066Y-74695300D01*
X145415000Y-74715583D01*
X145620934Y-74695300D01*
X145818954Y-74635232D01*
X146001450Y-74537685D01*
X146161410Y-74406410D01*
X146292685Y-74246450D01*
X146390232Y-74063954D01*
X146450300Y-73865934D01*
X146470583Y-73660000D01*
X146899417Y-73660000D01*
X146919699Y-73865932D01*
X146942365Y-73940652D01*
X146979707Y-74063754D01*
X146979769Y-74063956D01*
X147007052Y-74114998D01*
X147077315Y-74246450D01*
X147122312Y-74301279D01*
X147208589Y-74406410D01*
X147275740Y-74461518D01*
X147368550Y-74537685D01*
X147551046Y-74635232D01*
X147749066Y-74695300D01*
X147955000Y-74715583D01*
X148160934Y-74695300D01*
X148358954Y-74635232D01*
X148541450Y-74537685D01*
X148701410Y-74406410D01*
X148832685Y-74246450D01*
X148930232Y-74063954D01*
X148977892Y-73906837D01*
X149016187Y-73848402D01*
X149079999Y-73819946D01*
X149149067Y-73830506D01*
X149201460Y-73876730D01*
X149216326Y-73910742D01*
X149268733Y-74106326D01*
X149364865Y-74312480D01*
X149495341Y-74498819D01*
X149656180Y-74659658D01*
X149842519Y-74790134D01*
X150048673Y-74886266D01*
X150244999Y-74938871D01*
X150245000Y-74938871D01*
X150245000Y-74104297D01*
X150350408Y-74152435D01*
X150458666Y-74168000D01*
X150531334Y-74168000D01*
X150639592Y-74152435D01*
X150745000Y-74104297D01*
X150745000Y-74938871D01*
X150941326Y-74886266D01*
X151147480Y-74790134D01*
X151333819Y-74659658D01*
X151494658Y-74498819D01*
X151625134Y-74312480D01*
X151721266Y-74106326D01*
X151773872Y-73910000D01*
X150938196Y-73910000D01*
X150961845Y-73873201D01*
X151003000Y-73733039D01*
X151003000Y-73586961D01*
X150961845Y-73446799D01*
X150938196Y-73410000D01*
X151773872Y-73410000D01*
X151773871Y-73409999D01*
X151721266Y-73213673D01*
X151676967Y-73118674D01*
X185735500Y-73118674D01*
X185750033Y-73191738D01*
X185750033Y-73191739D01*
X185750034Y-73191740D01*
X185805399Y-73274601D01*
X185888260Y-73329966D01*
X185924792Y-73337232D01*
X185961325Y-73344500D01*
X185961326Y-73344500D01*
X187418675Y-73344500D01*
X187443029Y-73339655D01*
X187491740Y-73329966D01*
X187574601Y-73274601D01*
X187629966Y-73191740D01*
X187644500Y-73118674D01*
X187644500Y-72312902D01*
X201557794Y-72312902D01*
X201557921Y-72316868D01*
X201557921Y-72316874D01*
X201565560Y-72555098D01*
X201567673Y-72620978D01*
X201568307Y-72624905D01*
X201568308Y-72624906D01*
X201572455Y-72650558D01*
X201616867Y-72925261D01*
X201617997Y-72929068D01*
X201702466Y-73213673D01*
X201704569Y-73220756D01*
X201706178Y-73224391D01*
X201706180Y-73224396D01*
X201827725Y-73498969D01*
X201827729Y-73498977D01*
X201829337Y-73502609D01*
X201831393Y-73506002D01*
X201831397Y-73506008D01*
X201981235Y-73753181D01*
X201989123Y-73766193D01*
X202181304Y-74007181D01*
X202184159Y-74009945D01*
X202184160Y-74009947D01*
X202292634Y-74114998D01*
X202402724Y-74221614D01*
X202405905Y-74223988D01*
X202622277Y-74385471D01*
X202649747Y-74405972D01*
X202653213Y-74407924D01*
X202871303Y-74530750D01*
X202918318Y-74557228D01*
X202922002Y-74558719D01*
X202922001Y-74558719D01*
X203200339Y-74671407D01*
X203200343Y-74671408D01*
X203204025Y-74672899D01*
X203502179Y-74751084D01*
X203807883Y-74790500D01*
X203811855Y-74790500D01*
X204036990Y-74790500D01*
X204038974Y-74790500D01*
X204269601Y-74775693D01*
X204572151Y-74716772D01*
X204864683Y-74619644D01*
X205142393Y-74485907D01*
X205400720Y-74317754D01*
X205635424Y-74117948D01*
X205842650Y-73889769D01*
X206018996Y-73636963D01*
X206161567Y-73363683D01*
X206268020Y-73074415D01*
X206336609Y-72773908D01*
X206366206Y-72467098D01*
X206356327Y-72159022D01*
X206307133Y-71854739D01*
X206219431Y-71559244D01*
X206094663Y-71277391D01*
X205934877Y-71013807D01*
X205742696Y-70772819D01*
X205601657Y-70636231D01*
X205524127Y-70561147D01*
X205524126Y-70561146D01*
X205521276Y-70558386D01*
X205518094Y-70556011D01*
X205277444Y-70376409D01*
X205277438Y-70376405D01*
X205274253Y-70374028D01*
X205270790Y-70372078D01*
X205270786Y-70372075D01*
X205009142Y-70224720D01*
X205009134Y-70224716D01*
X205005682Y-70222772D01*
X205002004Y-70221283D01*
X205001998Y-70221280D01*
X204723660Y-70108592D01*
X204723647Y-70108587D01*
X204719975Y-70107101D01*
X204716135Y-70106094D01*
X204716129Y-70106092D01*
X204425664Y-70029923D01*
X204425652Y-70029920D01*
X204421821Y-70028916D01*
X204417884Y-70028408D01*
X204417877Y-70028407D01*
X204120055Y-69990007D01*
X204120043Y-69990006D01*
X204116117Y-69989500D01*
X203885026Y-69989500D01*
X203883053Y-69989626D01*
X203883042Y-69989627D01*
X203658376Y-70004051D01*
X203658365Y-70004052D01*
X203654399Y-70004307D01*
X203650488Y-70005068D01*
X203650485Y-70005069D01*
X203355758Y-70062466D01*
X203355747Y-70062468D01*
X203351849Y-70063228D01*
X203348079Y-70064479D01*
X203348074Y-70064481D01*
X203063093Y-70159102D01*
X203063089Y-70159103D01*
X203059317Y-70160356D01*
X203055737Y-70162079D01*
X203055727Y-70162084D01*
X202785200Y-70292362D01*
X202785191Y-70292366D01*
X202781607Y-70294093D01*
X202778278Y-70296259D01*
X202778269Y-70296265D01*
X202526606Y-70460080D01*
X202526595Y-70460087D01*
X202523280Y-70462246D01*
X202520259Y-70464817D01*
X202520252Y-70464823D01*
X202291609Y-70659469D01*
X202291600Y-70659477D01*
X202288576Y-70662052D01*
X202285910Y-70664986D01*
X202285896Y-70665001D01*
X202084030Y-70887279D01*
X202084023Y-70887287D01*
X202081350Y-70890231D01*
X202079074Y-70893493D01*
X202079069Y-70893500D01*
X201907280Y-71139773D01*
X201907274Y-71139781D01*
X201905004Y-71143037D01*
X201903171Y-71146550D01*
X201903164Y-71146562D01*
X201764272Y-71412791D01*
X201764269Y-71412797D01*
X201762433Y-71416317D01*
X201761064Y-71420035D01*
X201761059Y-71420048D01*
X201663236Y-71685868D01*
X201655980Y-71705585D01*
X201655098Y-71709449D01*
X201655096Y-71709456D01*
X201589310Y-71997685D01*
X201587391Y-72006092D01*
X201587009Y-72010044D01*
X201587008Y-72010055D01*
X201558403Y-72306589D01*
X201557794Y-72312902D01*
X187644500Y-72312902D01*
X187644500Y-71661326D01*
X187629966Y-71588260D01*
X187574601Y-71505399D01*
X187491740Y-71450034D01*
X187491739Y-71450033D01*
X187491738Y-71450033D01*
X187418675Y-71435500D01*
X187418674Y-71435500D01*
X185961326Y-71435500D01*
X185961325Y-71435500D01*
X185888261Y-71450033D01*
X185805399Y-71505399D01*
X185750033Y-71588261D01*
X185735500Y-71661325D01*
X185735500Y-73118674D01*
X151676967Y-73118674D01*
X151625134Y-73007519D01*
X151494658Y-72821180D01*
X151333819Y-72660341D01*
X151147480Y-72529865D01*
X151020134Y-72470482D01*
X150967695Y-72424310D01*
X150948543Y-72357116D01*
X150968759Y-72290235D01*
X151021924Y-72244900D01*
X151072539Y-72234100D01*
X151383275Y-72234100D01*
X151407629Y-72229255D01*
X151456340Y-72219566D01*
X151539201Y-72164201D01*
X151594566Y-72081340D01*
X151609100Y-72008274D01*
X151609100Y-70231726D01*
X151607706Y-70224720D01*
X151594566Y-70158661D01*
X151594566Y-70158660D01*
X151539201Y-70075799D01*
X151456340Y-70020434D01*
X151456339Y-70020433D01*
X151456338Y-70020433D01*
X151383275Y-70005900D01*
X151383274Y-70005900D01*
X149606726Y-70005900D01*
X149606725Y-70005900D01*
X149533661Y-70020433D01*
X149450799Y-70075799D01*
X149395433Y-70158661D01*
X149380900Y-70231725D01*
X149380900Y-72008274D01*
X149395433Y-72081338D01*
X149395433Y-72081339D01*
X149395434Y-72081340D01*
X149450799Y-72164201D01*
X149533660Y-72219566D01*
X149570192Y-72226832D01*
X149606725Y-72234100D01*
X149917461Y-72234100D01*
X149984500Y-72253785D01*
X150030255Y-72306589D01*
X150040199Y-72375747D01*
X150011174Y-72439303D01*
X149969866Y-72470482D01*
X149842519Y-72529865D01*
X149656180Y-72660341D01*
X149495341Y-72821180D01*
X149364865Y-73007519D01*
X149268733Y-73213673D01*
X149216326Y-73409257D01*
X149179960Y-73468917D01*
X149117113Y-73499446D01*
X149047738Y-73491151D01*
X148993860Y-73446665D01*
X148977892Y-73413162D01*
X148930232Y-73256046D01*
X148832685Y-73073550D01*
X148741913Y-72962943D01*
X148701410Y-72913589D01*
X148583157Y-72816543D01*
X148541450Y-72782315D01*
X148434849Y-72725335D01*
X148358956Y-72684769D01*
X148358955Y-72684768D01*
X148358954Y-72684768D01*
X148259944Y-72654733D01*
X148160932Y-72624699D01*
X147955000Y-72604417D01*
X147749067Y-72624699D01*
X147551043Y-72684769D01*
X147368551Y-72782314D01*
X147208589Y-72913589D01*
X147077314Y-73073551D01*
X146979769Y-73256043D01*
X146919699Y-73454067D01*
X146899417Y-73660000D01*
X146470583Y-73660000D01*
X146450300Y-73454066D01*
X146390232Y-73256046D01*
X146292685Y-73073550D01*
X146201913Y-72962943D01*
X146161410Y-72913589D01*
X146043157Y-72816543D01*
X146001450Y-72782315D01*
X145894849Y-72725335D01*
X145818956Y-72684769D01*
X145818955Y-72684768D01*
X145818954Y-72684768D01*
X145719944Y-72654733D01*
X145620932Y-72624699D01*
X145415000Y-72604417D01*
X145209067Y-72624699D01*
X145011043Y-72684769D01*
X144828551Y-72782314D01*
X144668589Y-72913589D01*
X144537314Y-73073551D01*
X144439769Y-73256043D01*
X144379699Y-73454067D01*
X144359417Y-73659999D01*
X143930583Y-73659999D01*
X143910300Y-73454066D01*
X143850232Y-73256046D01*
X143752685Y-73073550D01*
X143661913Y-72962943D01*
X143621410Y-72913589D01*
X143503157Y-72816543D01*
X143461450Y-72782315D01*
X143354849Y-72725335D01*
X143278956Y-72684769D01*
X143278955Y-72684768D01*
X143278954Y-72684768D01*
X143179944Y-72654733D01*
X143080932Y-72624699D01*
X142897497Y-72606632D01*
X142875000Y-72604417D01*
X142874999Y-72604417D01*
X142669067Y-72624699D01*
X142471043Y-72684769D01*
X142288551Y-72782314D01*
X142128589Y-72913589D01*
X141997314Y-73073551D01*
X141899769Y-73256043D01*
X141839699Y-73454067D01*
X141819417Y-73660000D01*
X139163100Y-73660000D01*
X139163100Y-72834693D01*
X139182785Y-72767654D01*
X139228647Y-72725335D01*
X139232324Y-72723369D01*
X139242538Y-72717910D01*
X139394883Y-72592883D01*
X139519910Y-72440538D01*
X139612814Y-72266727D01*
X139670024Y-72078132D01*
X139689341Y-71882000D01*
X139670024Y-71685868D01*
X139612814Y-71497273D01*
X139519910Y-71323462D01*
X139394883Y-71171117D01*
X139332597Y-71120000D01*
X141819417Y-71120000D01*
X141839699Y-71325932D01*
X141839700Y-71325934D01*
X141899768Y-71523954D01*
X141997315Y-71706450D01*
X142031586Y-71748209D01*
X142128589Y-71866410D01*
X142175639Y-71905022D01*
X142288550Y-71997685D01*
X142471046Y-72095232D01*
X142669066Y-72155300D01*
X142875000Y-72175583D01*
X143080934Y-72155300D01*
X143278954Y-72095232D01*
X143461450Y-71997685D01*
X143621410Y-71866410D01*
X143752685Y-71706450D01*
X143850232Y-71523954D01*
X143910300Y-71325934D01*
X143930583Y-71120000D01*
X144359417Y-71120000D01*
X144379699Y-71325932D01*
X144379700Y-71325934D01*
X144439768Y-71523954D01*
X144537315Y-71706450D01*
X144571586Y-71748209D01*
X144668589Y-71866410D01*
X144715639Y-71905022D01*
X144828550Y-71997685D01*
X145011046Y-72095232D01*
X145209066Y-72155300D01*
X145415000Y-72175583D01*
X145620934Y-72155300D01*
X145818954Y-72095232D01*
X146001450Y-71997685D01*
X146161410Y-71866410D01*
X146292685Y-71706450D01*
X146390232Y-71523954D01*
X146450300Y-71325934D01*
X146470583Y-71120000D01*
X146899417Y-71120000D01*
X146919699Y-71325932D01*
X146919700Y-71325934D01*
X146979768Y-71523954D01*
X147077315Y-71706450D01*
X147111586Y-71748209D01*
X147208589Y-71866410D01*
X147255639Y-71905022D01*
X147368550Y-71997685D01*
X147551046Y-72095232D01*
X147749066Y-72155300D01*
X147955000Y-72175583D01*
X148160934Y-72155300D01*
X148358954Y-72095232D01*
X148541450Y-71997685D01*
X148701410Y-71866410D01*
X148832685Y-71706450D01*
X148930232Y-71523954D01*
X148990300Y-71325934D01*
X149010583Y-71120000D01*
X148990300Y-70914066D01*
X148930232Y-70716046D01*
X148832685Y-70533550D01*
X148767047Y-70453569D01*
X148701410Y-70373589D01*
X148602433Y-70292362D01*
X148541450Y-70242315D01*
X148358954Y-70144768D01*
X148259944Y-70114733D01*
X148160932Y-70084699D01*
X147955000Y-70064417D01*
X147749067Y-70084699D01*
X147551043Y-70144769D01*
X147368551Y-70242314D01*
X147208589Y-70373589D01*
X147077314Y-70533551D01*
X146979769Y-70716043D01*
X146919699Y-70914067D01*
X146899417Y-71120000D01*
X146470583Y-71120000D01*
X146450300Y-70914066D01*
X146390232Y-70716046D01*
X146292685Y-70533550D01*
X146227047Y-70453570D01*
X146161410Y-70373589D01*
X146062433Y-70292362D01*
X146001450Y-70242315D01*
X145818954Y-70144768D01*
X145719944Y-70114733D01*
X145620932Y-70084699D01*
X145437497Y-70066632D01*
X145415000Y-70064417D01*
X145414999Y-70064417D01*
X145209067Y-70084699D01*
X145011043Y-70144769D01*
X144828551Y-70242314D01*
X144668589Y-70373589D01*
X144537314Y-70533551D01*
X144439769Y-70716043D01*
X144379699Y-70914067D01*
X144359417Y-71120000D01*
X143930583Y-71120000D01*
X143910300Y-70914066D01*
X143850232Y-70716046D01*
X143752685Y-70533550D01*
X143687047Y-70453570D01*
X143621410Y-70373589D01*
X143522433Y-70292362D01*
X143461450Y-70242315D01*
X143278954Y-70144768D01*
X143179944Y-70114733D01*
X143080932Y-70084699D01*
X142875000Y-70064417D01*
X142669067Y-70084699D01*
X142471043Y-70144769D01*
X142288551Y-70242314D01*
X142128589Y-70373589D01*
X141997314Y-70533551D01*
X141899769Y-70716043D01*
X141839699Y-70914067D01*
X141819417Y-71120000D01*
X139332597Y-71120000D01*
X139242538Y-71046090D01*
X139176319Y-71010695D01*
X139068726Y-70953185D01*
X138880133Y-70895976D01*
X138684000Y-70876659D01*
X138487866Y-70895976D01*
X138299273Y-70953185D01*
X138125463Y-71046089D01*
X137973117Y-71171117D01*
X137848089Y-71323463D01*
X137755185Y-71497273D01*
X137697976Y-71685866D01*
X137691063Y-71756055D01*
X137678659Y-71882000D01*
X117319100Y-71882000D01*
X117319100Y-68516693D01*
X117338785Y-68449654D01*
X117384647Y-68407335D01*
X117388324Y-68405369D01*
X117398538Y-68399910D01*
X117550883Y-68274883D01*
X117675910Y-68122538D01*
X117768814Y-67948727D01*
X117826024Y-67760132D01*
X117845341Y-67564000D01*
X117826024Y-67367868D01*
X117768814Y-67179273D01*
X117675910Y-67005462D01*
X117550883Y-66853117D01*
X117398538Y-66728090D01*
X117376091Y-66716092D01*
X117224726Y-66635185D01*
X117036133Y-66577976D01*
X116840000Y-66558659D01*
X116643866Y-66577976D01*
X116455273Y-66635185D01*
X116281463Y-66728089D01*
X116129117Y-66853117D01*
X116004089Y-67005463D01*
X115911185Y-67179273D01*
X115853976Y-67367866D01*
X115834659Y-67564000D01*
X110066314Y-67564000D01*
X110066314Y-65393786D01*
X81505786Y-65393786D01*
X69088500Y-65393786D01*
X69088500Y-64386500D01*
X69108185Y-64319461D01*
X69160989Y-64273706D01*
X69212500Y-64262500D01*
X209933500Y-64262500D01*
X210000539Y-64282185D01*
G37*
G04 #@! TD.AperFunction*
G04 #@! TD*
M02*
