M48
; DRILL file {KiCad 7.0.2-6a45011f42~172~ubuntu22.04.1} date Thu 11 May 2023 11:42:12 AM -04
; FORMAT={-:-/ absolute / inch / decimal}
; #@! TF.CreationDate,2023-05-11T11:42:12-04:00
; #@! TF.GenerationSoftware,Kicad,Pcbnew,7.0.2-6a45011f42~172~ubuntu22.04.1
; #@! TF.FileFunction,Plated,1,2,PTH
FMAT,2
INCH
; #@! TA.AperFunction,Plated,PTH,ComponentDrill
T1C0.0315
; #@! TA.AperFunction,Plated,PTH,ComponentDrill
T2C0.0354
; #@! TA.AperFunction,Plated,PTH,ViaDrill
T3C0.0394
; #@! TA.AperFunction,Plated,PTH,ComponentDrill
T4C0.0394
; #@! TA.AperFunction,Plated,PTH,ComponentDrill
T5C0.0400
; #@! TA.AperFunction,Plated,PTH,ComponentDrill
T6C0.0433
%
G90
G05
T1
X4.21Y-3.73
X4.21Y-4.13
X5.3Y-3.71
X5.3Y-4.11
X5.42Y-3.71
X5.42Y-4.11
T2
X6.35Y-2.95
X6.35Y-3.05
X6.35Y-3.15
X6.35Y-3.25
X7.35Y-2.85
X7.35Y-2.95
X7.35Y-3.05
X7.35Y-3.15
X7.35Y-3.25
X7.35Y-3.35
T3
X4.01Y-3.1036
X4.01Y-3.37
X4.15Y-3.09
X4.34Y-3.1036
X4.46Y-3.37
X4.51Y-2.72
X4.5616Y-3.36
X4.6Y-2.66
X5.46Y-2.83
X5.6Y-3.5
X5.83Y-4.11
X6.17Y-3.93
X6.21Y-3.86
X6.44Y-4.11
X6.54Y-4.11
X6.67Y-4.14
X6.84Y-3.64
X7.04Y-3.64
T4
X3.31Y-2.9
X3.31Y-3.5
X3.41Y-2.9
X3.41Y-3.5
X3.51Y-2.9
X3.51Y-3.5
X3.61Y-2.9
X3.61Y-3.5
X3.71Y-2.9
X3.71Y-3.5
X3.81Y-2.9
X3.81Y-3.5
X3.91Y-2.9
X3.91Y-3.5
X4.01Y-2.9
X4.01Y-3.5
X4.11Y-2.9
X4.11Y-3.5
X4.21Y-2.9
X4.21Y-3.5
X4.31Y-2.9
X4.31Y-3.5
X4.41Y-2.9
X4.41Y-3.5
X4.51Y-2.9
X4.51Y-3.5
X4.61Y-2.9
X4.61Y-3.5
X4.71Y-2.9
X4.71Y-3.5
X4.81Y-2.9
X4.81Y-3.5
X4.91Y-2.9
X4.91Y-3.5
X5.01Y-2.9
X5.01Y-3.5
X5.11Y-2.9
X5.11Y-3.5
X5.21Y-2.9
X5.21Y-3.5
X7.7Y-2.95
X7.7Y-3.05
X7.7Y-3.15
X7.7Y-3.4
X7.7Y-3.5
X7.7Y-3.6
T5
X5.625Y-2.8
X5.625Y-2.9
X5.725Y-2.8
X5.725Y-2.9
X5.825Y-2.8
X5.825Y-2.9
X5.925Y-2.8
X5.925Y-2.9
T6
X3.49Y-3.92
X3.59Y-3.92
X3.9Y-3.92
X4.0Y-3.92
X4.43Y-3.93
X4.53Y-3.93
X4.74Y-3.93
X4.84Y-3.93
X4.94Y-3.93
X5.04Y-3.93
X5.14Y-3.93
X5.7298Y-3.93
X5.8298Y-3.93
X5.9298Y-3.93
X6.0298Y-3.93
X6.34Y-3.93
X6.44Y-3.93
X6.54Y-3.93
X6.64Y-3.93
X6.85Y-3.93
X6.95Y-3.93
X7.05Y-3.93
X7.15Y-3.93
X7.25Y-3.93
T0
M30
